<svg height="149" viewBox="0 0 149 149" width="149" xmlns="http://www.w3.org/2000/svg"><g fill="none" fill-rule="evenodd" transform="translate(.86615 .03992)"><path d="m.82675 0h146.43925c.45803 0 .82676.36873.82676.82675v146.68107c0 .45802-.36873.82676-.82676.82676h-146.43925c-.45802 0-.82675-.36874-.82675-.82676v-146.68107c0-.45802.36873-.82675.82675-.82675z" fill="#3eb049"/><g fill="#fff"><g fill-rule="nonzero" transform="translate(47.41294 13.03355)"><path d="m5.488 12.50667h-5.33867v-12.50667h1.792v10.71467h3.54667z"/><path d="m5.84257 12.50667v-12.50667h1.77333v12.50667z"/><path d="m8.75518 12.50667v-12.50667h5.33866v1.68h-3.56533v3.752h3.11733v1.68h-3.11733v5.39467z"/><path d="m20.06311 10.71467v1.792h-5.35734v-12.50667h5.35734v1.64267h-3.584v3.696h3.136v1.69867h-3.136v3.67733z"/><path d="m.54133 18.42298c.28622-.39822.64711-.70933 1.08267-.93333.448-.2364467.90844333-.35467 1.38133-.35467.46044667 0 .88978.0933333 1.288.28.41066667.1866667.75289.4417767 1.02667.76533.27377333.32356.46044.65956.56 1.008.09955333.336.14933.7031133.14933 1.10134v6.36533c0 .3733333-.03733333.70311-.112.98933-.0622.2862267-.21153333.60356-.448.952-.224.3484467-.55377667.6471133-.98933.896-.42311333.2488933-.89600333.37334-1.41867.37334-.29866667 0-.58489-.0373333-.85867-.112-.27377333-.0871133-.52888333-.1991133-.76533-.336-.23644667-.1368933-.44800333-.29245-.63467-.46667-.17422-.17422-.31110667-.3546633-.41066-.54133-.18666667-.38578-.29866667-.6968933-.336-.93334-.03733333-.23644-.056-.5102167-.056-.82133v-6.36533c0-.3733333.03733333-.7031133.112-.98934.08710667-.2986667.23021667-.59111.42933-.87733zm3.472.98933c-.23644667-.34844-.56000333-.52266-.97067-.52266-.21155333 0-.42310667.06222-.63466.18666-.19911333.112-.34222667.2426667-.42934.392-.07466667.1493333-.12444333.2986667-.14933.448-.02486667.1493333-.0373.27378-.0373.37334v6.36533.20533c0 .0622.00623333.1306467.0187.20534.01246667.12444.11202333.3297733.29867.616.18666667.2613333.49777667.392.93333.392.224 0 .42311333-.04978.59734-.14934.18666667-.112.31733333-.2364433.392-.37333.08710667-.1493333.14310667-.2862233.168-.41067.02486667-.12444.0373-.2862167.0373-.48533v-6.36533c0-.2488933-.01243333-.4231167-.0373-.52267-.01246667-.0995533-.07469-.2177767-.18667-.35467z"/><path d="m11.71476 29.75365-2.78133-7.59734v7.59734h-1.792v-12.50667h1.69866l2.76267 7.57867v-7.57867h1.792v12.50667z"/><path d="m23.86805 29.75365h-5.33867v-12.50667h1.792v10.71467h3.54667z"/><path d="m23.96396 29.75365 2.8-12.50667h1.54934l2.8 12.50667h-1.92267l-.504-2.688h-2.31467l-.52266 2.688zm2.72534-4.34934h1.68l-.84-4.55466z"/><path d="m36.21981 29.75365-2.78133-7.59734v7.59734h-1.792v-12.50667h1.69867l2.76266 7.57867v-7.57867h1.792v12.50667z"/><path d="m41.92922 17.24698c.8088933 0 1.49956.2862233 2.072.85867.5848933.56.87734 1.2444433.87734 2.05333v6.496c0 .9208867-.28 1.6675533-.84 2.24s-1.28178.85867-2.16534.85867h-2.78133v-12.50667zm1.176 9.408v-6.496c0-.3484467-.1306667-.64089-.392-.87733-.2488867-.2364467-.5537733-.35467-.91466-.35467h-.93334v9.16533h.87734c.90844 0 1.36266-.47911 1.36266-1.43733z"/></g><g fill-rule="nonzero" transform="translate(10.5115 13.01626)"><path d="m4.288 29.92667v-25.46l-4.288 3.216v-4.556l4.288-3.12667h4.24334v29.92667z"/><path d="m19.60824 10.67534c.7444467 0 1.48889.2084433 2.23333.62533.7742267.4168867 1.3400067.90822 1.69734 1.474.3871067.56578.6402167 1.1613367.75933 1.78667.1488867.5955533.22336 1.2357733.22336 1.92066v6.7c0 .6551133-.0297967 1.2208933-.08933 1.69734-.0298.4466667-.1935767 1.072-.49133 1.876-.29778.804-1.0273367 1.57822-2.18867 2.32266-1.10178.7444467-2.32267 1.11667-3.66267 1.11667-1.01244 0-1.9802167-.2382233-2.90333-.71467-.9231133-.50622-1.63778-1.1166633-2.144-1.83133s-.8486633-1.4442233-1.02733-2.18867c-.1786667-.74444-.268-1.5037733-.268-2.278v-.75933h4.37733v1.65267c0 .1488867.0446667.3275533.134.536.0893333.20844.2084433.4168833.35733.62533.1488933.1786667.35734.3424433.62534.49133.268.1191133.5806667.17867.938.17867.804 0 1.34-.2233333 1.608-.67s.4168867-.78911.44666-1.02733c.0298-.268.0447-.55089.0447-.84867v-6.298c0-.1488867 0-.2828867 0-.402 0-.1488867-.0149-.2977767-.0447-.44667 0-.1488867-.0446667-.3275533-.134-.536-.0595333-.20844-.1786433-.4019933-.35733-.58066-.1488867-.2084467-.35733-.3722267-.62533-.49134-.2382267-.1488867-.5360067-.22333-.89334-.22333-1.04222 0-1.7419967.536-2.09933 1.608h-3.84133v-15.99067h12.23866v3.97534h-8.39733v8.04c1.0124467-.8933333 2.17378-1.34 3.484-1.34z"/></g><path d="m48.94135 69.25493c-11.15566.77355-9.99387 11.61265-4.56548 14.6986-4.58714 7.2031-.0344 14.03049 5.4563 14.03049h17.92784c9.86825 0 16.8023-16.75104 1.39191-23.66252 5.6227-19.48255-20.37156-18.1647-20.21057-5.06657z" fill-rule="nonzero"/><path d="m85.65168 90.13703c5.00251-2.32028 11.10213 2.83459 11.10213 2.83459s5.22925-4.86692 10.94465-2.75585c1.46989.54293 1.35731-.9857.86612-1.33856-2.91685-2.09539-6.57027-4.11439-11.6533-.0787-6.14183-3.92985-9.54357-2.14729-11.96825 0-.63599.56323-.41367 1.85908.70865 1.33852z" fill-rule="nonzero"/><path d="m78.05141 72.11346c3.95448-2.27507 9.35531 1.53087 9.35531 1.53087s3.95665-4.39031 8.82006-3.06502c1.25078.34083 1.04712-.91081.61671-1.16599-2.55586-1.51534-5.71324-2.91429-9.60966.78036-5.34677-2.79328-8.021-1.07747-9.86353.86806-.4833.51032-.20608 1.56215.68111 1.05173z" fill-rule="nonzero"/><path d="m92.39262 61.26058c3.63094-.53623 6.55055 3.90562 6.55055 3.90562s4.25655-2.11879 7.50569.30784c.83563.6241 1.05244-.37281.80558-.69076-1.46598-1.88817-3.41647-3.86667-7.42274-2.25079-3.17786-3.66797-5.6856-3.17264-7.63861-2.26002-.51228.23938-.61508 1.10842.19953.9881z" fill-rule="nonzero"/><path d="m58.60501 100.78497h3.71982c.45802 0 .82675.36873.82675.82675v9.91232c0 .45803-.36873.82676-.82675.82676h-3.71982c-.45802 0-.82675-.36873-.82675-.82676v-9.91232c0-.45802.36873-.82675.82675-.82675z"/><path d="m39.00836 116.81012h70.8735c.45803 0 .82676.36873.82676.82675v3.52566c0 .45802-.36873.82675-.82676.82675h-70.8735c-.45802 0-.82675-.36873-.82675-.82675v-3.52566c0-.45802.36873-.82675.82675-.82675z"/><path d="m39.00836 125.3139h70.8735c.45803 0 .82676.36873.82676.82675v3.52566c0 .45802-.36873.82676-.82676.82676h-70.8735c-.45802 0-.82675-.36874-.82675-.82676v-3.52566c0-.45802.36873-.82675.82675-.82675z"/></g></g></svg>