<svg height="149" viewBox="0 0 149 149" width="149" xmlns="http://www.w3.org/2000/svg"><g fill="none" fill-rule="evenodd" transform="translate(.81342 .03992)"><path d="m.82675 0h146.43925c.45802 0 .82675.36873.82675.82675v146.68107c0 .45802-.36873.82676-.82675.82676h-146.43925c-.45802 0-.82675-.36874-.82675-.82676v-146.68107c0-.45802.36873-.82675.82675-.82675z" fill="#183668"/><g fill="#fff" fill-rule="nonzero" transform="translate(48.21737 12.92155)"><path d="m0 12.61867v-12.50667h2.93066.0373c.37333333 0 .728.08089 1.064.24267.336.14933333.63466667.34844333.896.59733.26133333.24889333.46666667.53511667.616.85867.16177333.31111333.24888333.63467.26133.97067v1.81066.18667c0 .41066667-.08089.79644333-.24267 1.15733-.14933333.34844667-.35466667.65333667-.616.91467-.26133333.26133-.57244333.46666667-.93333.616-.34844667.14933333-.72178.224-1.12.224h-.168-.93333v4.928zm3.78933-6.98133c.112-.112.18044333-.23022333.20533-.35467.03733333-.12444667.056-.28000333.056-.46667v-1.848c0-.34844-.10577667-.63466-.31733-.85866-.21155333-.23644667-.49777667-.35467-.85867-.35467h-1.08266v4.23733h.93333c.24888667 0 .44799667-.01866667.59733-.056.16178-.0498.31733667-.14935333.46667-.29866z"/><path d="m5.9417 12.61867 2.8-12.50667h1.54934l2.8 12.50667h-1.92267l-.504-2.688h-2.31467l-.52266 2.688zm2.72534-4.34933h1.68l-.84-4.55467z"/><path d="m13.98441 12.61867v-12.50667h3.136c.8213333 0 1.512.28622333 2.072.85867.5724467.57244667.85867 1.27555667.85867 2.10933v1.15734c0 1.15733333-.4915567 2.04088667-1.47467 2.65066l1.904 5.73067h-1.904l-1.68-5.35733h-1.12v5.35733zm3.976-7.336c.112-.13688667.1866667-.29244333.224-.46667.0498-.17422.0747-.36710667.0747-.57866v-1.15734c0-.38577333-.10578-.69688333-.31734-.93333-.2115533-.24888667-.51022-.37333-.896-.37333h-1.26933v3.90133h1.25067c.3733333 0 .6844433-.13066667.93333-.392z"/><path d="m22.54234 12.61867v-10.84533h-2.10933v-1.66134h6.02933v1.66134h-2.14666v10.84533z"/><path d="m31.73968 12.61867-2.78134-7.59733v7.59733h-1.792v-12.50667h1.69867l2.76267 7.57867v-7.57867h1.79199v12.50667z"/><path d="m39.83075 10.82667v1.792h-5.35733v-12.50667h5.35733v1.64267h-3.584v3.696h3.136v1.69867h-3.136v3.67733z"/><path d="m40.64831 12.61867v-12.50667h3.136c.8213333 0 1.512.28622333 2.072.85867.5724467.57244667.85867 1.27555667.85867 2.10933v1.15734c0 1.15733333-.4915567 2.04088667-1.47467 2.65066l1.904 5.73067h-1.904l-1.68-5.35733h-1.12v5.35733zm3.976-7.336c.112-.13688667.1866667-.29244333.224-.46667.0498-.17422.0747-.36710667.0747-.57866v-1.15734c0-.38577333-.10578-.69688333-.31734-.93333-.2115533-.24888667-.51022-.37333-.896-.37333h-1.26933v3.90133h1.25067c.3733333 0 .6844433-.13066667.93333-.392z"/><path d="m49.18385 9.50134v.31733c0 .08711333.0062333.16178.0187.224.0248667.1244467.1182.30489.28.54133.17422.2488933.48533.37334.93333.37334.2488867 0 .47911-.04978.69067-.14934.2115533-.112.3671067-.25511.46666-.42933.0746667-.1368867.1182233-.2675533.13067-.392.0248667-.12444667.0373-.23644667.0373-.336v-.168-.87733-.168c0-.27378-.0497767-.48533667-.14933-.63467-.0995533-.16178-.3235533-.34222333-.672-.54133-.2364467-.12444667-.6595567-.29867-1.26933-.52267-.60978-.224-1.1200033-.57866667-1.53067-1.064s-.616-1.14489-.616-1.97867v-.56c0-.85866667.2862233-1.59288667.85867-2.20266.5848867-.62222667 1.29422-.93334 2.128-.93334.8711067 0 1.5928833.30489 2.16533.91467.5848867.60978.87733 1.35022333.87733 2.22133v.56h-1.792v-.56c0-.08710667-.0062333-.16799333-.0187-.24266 0-.07466667-.0062333-.14311333-.0187-.20534-.0124667-.0622-.0435667-.13686667-.0933-.224-.0498-.08710667-.1182467-.19288333-.20534-.31733-.17422-.24888667-.4666633-.37333-.87733-.37333-.3608867 0-.6595533.13066667-.896.392-.224.26133333-.336.58488667-.336.97066v.56.168c0 .24889333.0373333.44800667.112.59734.0871133.13688667.2862233.29244.59733.46666.09956.0498.2488933.11824667.448.20534.21156.07466667.4666733.168.76534.28.5973333.19910667 1.1324433.55377333 1.60533 1.064.4728867.51022.70937 1.18222.70937 2.016v1.008c0 .43555333-.0435933.8026633-.1307 1.10133-.0746667.2986667-.32978.7342233-.76534 1.30667-.4355533.5475533-1.1635533.82133-2.184.82133-1.0826667 0-1.8666667-.3484433-2.352-1.04533-.4853333-.7093333-.728-1.4373333-.728-2.184v-.448h1.81067z"/><path d="m54.5761 12.61867v-12.50667h1.77333v5.33867h2.27733v-5.33867h1.77334v12.50667h-1.77334v-5.58133h-2.27733v5.58133z"/><path d="m62.16251 12.61867v-12.50667h1.77333v12.50667z"/><path d="m65.43324 12.61867v-12.50667h2.93067.0373c.3733333 0 .728.08089 1.064.24267.336.14933333.6346667.34844333.896.59733.2613333.24889333.4666667.53511667.616.85867.16178.31111333.24889.63467.26133.97067v1.81066.18667c0 .41066667-.0808867.79644333-.24266 1.15733-.1493333.34844667-.3546667.65333667-.616.91467-.2613333.26133-.5724467.46666667-.93334.616-.34844.14933333-.7217733.224-1.12.224h-.168-.93333v4.928zm3.78933-6.98133c.112-.112.1804467-.23022333.20534-.35467.0373333-.12444667.056-.28000333.056-.46667v-1.848c0-.34844-.10578-.63466-.31734-.85866-.2115533-.23644667-.4977733-.35467-.85866-.35467h-1.08267v4.23733h.93333c.2488933 0 .4480067-.01866667.59734-.056.1617733-.0498.3173267-.14935333.46666-.29866z"/><path d="m73.92109 9.50134v.31733c0 .08711333.0062333.16178.0187.224.0248667.1244467.1182.30489.28.54133.17422.2488933.48533.37334.93333.37334.2488933 0 .4791167-.04978.69067-.14934.2115533-.112.36711-.25511.46667-.42933.0746667-.1368867.11822-.2675533.13066-.392.0248667-.12444667.0373-.23644667.0373-.336v-.168-.87733-.168c0-.27378-.04978-.48533667-.14934-.63467-.0995533-.16178-.3235533-.34222333-.672-.54133-.23644-.12444667-.65955-.29867-1.26933-.52267s-1.1200033-.57866667-1.53067-1.064-.616-1.14489-.616-1.97867v-.56c0-.85866667.2862233-1.59288667.85867-2.20266.5848867-.62222667 1.29422-.93334 2.128-.93334.8711133 0 1.59289.30489 2.16533.91467.5848933.60978.87734 1.35022333.87734 2.22133v.56h-1.792v-.56c0-.08710667-.0062333-.16799333-.0187-.24266 0-.07466667-.0062333-.14311333-.0187-.20534-.0124667-.0622-.0435667-.13686667-.0933-.224-.0498-.08710667-.1182433-.19288333-.20533-.31733-.1742267-.24888667-.4666733-.37333-.87734-.37333-.3608867 0-.6595533.13066667-.896.392-.224.26133333-.336.58488667-.336.97066v.56.168c0 .24889333.0373333.44800667.112.59734.0871133.13688667.2862267.29244.59734.46666.0995533.0498.2488867.11824667.448.20534.2115533.07466667.4666633.168.76533.28.5973333.19910667 1.1324433.55377333 1.60533 1.064.4728933.51022.70937 1.18222.70937 2.016v1.008c0 .43555333-.0435867.8026633-.1307 1.10133-.0746667.2986667-.3297767.7342233-.76533 1.30667-.43556.5475533-1.16356.82133-2.184.82133-1.0826667 0-1.8666667-.3484433-2.352-1.04533-.4853333-.7093333-.728-1.4373333-.728-2.184v-.448h1.81066z"/><path d="m0 29.86565v-12.50667h5.33866v1.68h-3.56533v3.752h3.11733v1.68h-3.11733v5.39467z"/><path d="m6.22603 18.53498c.28622-.39822.64711-.70933 1.08267-.93333.448-.2364467.90844333-.35467 1.38133-.35467.46044667 0 .88978.0933333 1.288.28.4106667.1866667.75289.4417767 1.02667.76533.2737733.32356.46044.65956.56 1.008.0995533.336.14933.7031133.14933 1.10134v6.36533c0 .3733333-.0373333.70311-.112.98933-.0622.2862267-.2115333.60356-.448.952-.224.3484467-.5537767.6471133-.98933.896-.42311333.2488933-.89600333.37334-1.41867.37334-.29866667 0-.58489-.0373333-.85867-.112-.27377333-.0871133-.52888333-.1991133-.76533-.336-.23644667-.1368933-.44800333-.29245-.63467-.46667-.17422-.17422-.31110667-.3546633-.41066-.54133-.18666667-.38578-.29866667-.6968933-.336-.93334-.03733333-.23644-.056-.5102167-.056-.82133v-6.36533c0-.3733333.03733333-.7031133.112-.98934.08710667-.2986667.23021667-.59111.42933-.87733zm3.472.98933c-.23644667-.34844-.56000333-.52266-.97067-.52266-.21155333 0-.42310667.06222-.63466.18666-.19911333.112-.34222667.2426667-.42934.392-.07466667.1493333-.12444333.2986667-.14933.448-.02486667.1493333-.0373.27378-.0373.37334v6.36533.20533c0 .0622.00623333.1306467.0187.20534.01246667.12444.11202333.3297733.29867.616.18666667.2613333.49777667.392.93333.392.224 0 .42311333-.04978.59734-.14934.18666667-.112.31733333-.2364433.392-.37333.08710667-.1493333.14310667-.2862233.168-.41067.02486667-.12444.0373-.2862167.0373-.48533v-6.36533c0-.2488933-.01243333-.4231167-.0373-.52267-.01246667-.0995533-.07469-.2177767-.18667-.35467z"/><path d="m13.22059 29.86565v-12.50667h3.136c.8213333 0 1.512.2862233 2.072.85867.5724467.57244.85867 1.27555.85867 2.10933v1.15733c0 1.1573333-.4915567 2.04089-1.47467 2.65067l1.904 5.73067h-1.904l-1.68-5.35734h-1.12v5.35734zm3.976-7.336c.112-.1368933.1866667-.29245.224-.46667.0498-.17422.0747-.36711.0747-.57867v-1.15733c0-.38578-.1057767-.69689-.31733-.93333-.21156-.2488933-.5102267-.37334-.896-.37334h-1.26934v3.90134h1.25067c.3733333 0 .6844433-.1306667.93333-.392z"/><path d="m23.84177 29.86565v-10.84534h-2.10934v-1.66133h6.02934v1.66133h-2.14667v10.84534z"/><path d="m28.46577 29.86565v-12.50667h1.77333v5.33867h2.27733v-5.33867h1.77333v12.50667h-1.77333v-5.58134h-2.27733v5.58134z"/><path d="m41.31991 28.07365v1.792h-5.35734v-12.50667h5.35734v1.64267h-3.584v3.696h3.136v1.69866h-3.136v3.67734z"/><path d="m49.58044 28.55898c-.28622.448-.65333.7964433-1.10133 1.04533-.448.2488933-.9395567.37334-1.47467.37334-.4728867 0-.93333-.112-1.38133-.336-.43556-.224-.7777833-.49778-1.02667-.82134-.2364467-.336-.3982233-.672-.48533-1.008-.0746667-.336-.112-.7155533-.112-1.13866v-6.25334c0-.3111067.0311-.6222167.0933-.93333.0871133-.3111133.3173367-.75289.69067-1.32533.3857733-.60978 1.1448833-.91467 2.27733-.91467.49778 0 .9644467.1182233 1.4.35467.4355533.23644.76533.5288833.98933.87733.2364467.336.38578.6595567.448.97067.0746667.2986667.112.62222.112.97066v.52267h-1.77333v-.52267c0-.0995533-.0062333-.1866633-.0187-.26133 0-.0871133-.0062333-.16178-.0187-.224-.0124667-.112-.1058-.2924433-.28-.54133-.1742267-.2488933-.4666733-.37334-.87734-.37334-.4853333 0-.8088867.1306667-.97066.392-.1493333.2613333-.2364467.4542233-.26134.57867-.0248667.1244467-.0373.2675567-.0373.42933v6.25334.31733c0 .0871133.0062333.16178.0187.224.0124667.0995533.1058.2924433.28.57867.1617733.2613333.4791067.392.952.392.4853333 0 .7964433-.1306667.93333-.392.0746667-.1368933.1306667-.2488933.168-.336.0373333-.09956.0622333-.1866733.0747-.26134.0248667-.0746667.0373-.1493333.0373-.224 0-.0871067 0-.18666 0-.29866v-2.184h-1.43733v-1.568h3.21067v3.752c0 .2613333-.0062433.4853333-.01871.672-.0124667.17422-.0373667.3297733-.0747.46666-.0373333.1368933-.08711.26756-.14933.392-.0498.112-.1120233.2302233-.18667.35467z"/><path d="m52.01748 18.53498c.28622-.39822.6471067-.70933 1.08266-.93333.448-.2364467.9084467-.35467 1.38134-.35467.46044 0 .8897733.0933333 1.288.28.4106667.1866667.7528867.4417767 1.02666.76533.27378.32356.4604467.65956.56 1.008.09956.336.14934.7031133.14934 1.10134v6.36533c0 .3733333-.0373333.70311-.112.98933-.0622.2862267-.2115333.60356-.448.952-.224.3484467-.55378.6471133-.98934.896-.4231067.2488933-.8959933.37334-1.41866.37334-.2986667 0-.58489-.0373333-.85867-.112-.27378-.0871133-.52889-.1991133-.76533-.336-.2364467-.1368933-.4480033-.29245-.63467-.46667-.17422-.17422-.31111-.3546633-.41067-.54133-.1866667-.38578-.2986667-.6968933-.336-.93334-.0373333-.23644-.056-.5102167-.056-.82133v-6.36533c0-.3733333.0373333-.7031133.112-.98934.0871133-.2986667.2302267-.59111.42934-.87733zm3.472.98933c-.2364467-.34844-.5600033-.52266-.97067-.52266-.2115533 0-.42311.06222-.63467.18666-.1991067.112-.3422167.2426667-.42933.392-.0746667.1493333-.1244433.2986667-.14933.448-.0248667.1493333-.0373.27378-.0373.37334v6.36533.20533c0 .0622.0062333.1306467.0187.20534.0124667.12444.1120233.3297733.29867.616.1866667.2613333.4977767.392.93333.392.224 0 .42311-.04978.59733-.14934.1866667-.112.3173333-.2364433.392-.37333.0871133-.1493333.1431133-.2862233.168-.41067.0248667-.12444.0373-.2862167.0373-.48533v-6.36533c0-.2488933-.0124333-.4231167-.0373-.52267-.0124667-.0995533-.0746867-.2177767-.18666-.35467z"/><path d="m58.25792 29.86565 2.8-12.50667h1.54933l2.8 12.50667h-1.92267l-.504-2.688h-2.31466l-.52267 2.688zm2.72533-4.34934h1.68l-.84-4.55466z"/><path d="m71.58702 29.86565h-5.33867v-12.50667h1.792v10.71467h3.54667z"/><path d="m73.45691 26.74831v.31734c0 .0871067.0062333.1617733.0187.224.0248667.12444.1182.3048833.28.54133.1742267.2488867.48534.37333.93334.37333.2488867 0 .4791067-.0497767.69066-.14933.21156-.112.3671167-.25511.46667-.42933.0746667-.1368933.1182233-.26756.13067-.392.0248667-.1244467.0373-.2364467.0373-.336v-.168-.87734-.168c0-.2737733-.0497767-.4853267-.14933-.63466-.09956-.16178-.32356-.3422267-.672-.54134-.2364467-.12444-.65956-.29866-1.26934-.52266-.6097733-.224-1.1199933-.5786667-1.53066-1.064s-.616-1.14489-.616-1.97867v-.56c0-.8586667.28622-1.59289.85866-2.20267.5848933-.62222 1.2942267-.93333 2.128-.93333.8711133 0 1.5928933.30489 2.16534.91467.5848867.6097733.87733 1.3502167.87733 2.22133v.56h-1.792v-.56c0-.0871133-.0062333-.1680033-.0187-.24267 0-.0746667-.0062333-.14311-.0187-.20533-.0124667-.0622-.0435667-.1368667-.0933-.224-.0498-.0871133-.1182433-.19289-.20533-.31733-.17422-.2488933-.4666633-.37334-.87733-.37334-.3608933 0-.65956.1306667-.896.392-.224.2613333-.336.58489-.336.97067v.56.168c0 .2488867.0373333.4479967.112.59733.0871067.1368933.2862167.29245.59733.46667.0995533.0498.2488867.1182433.448.20533.2115533.0746667.4666633.168.76533.28.5973333.1991133 1.1324467.55378 1.60534 1.064.4728867.5102267.70936 1.1822267.70936 2.016v1.008c0 .43556-.0435867.8026733-.1307 1.10134-.0746667.2986667-.3297767.73422-.76533 1.30666-.4355533.54756-1.1635533.82134-2.184.82134-1.0826667 0-1.8666667-.3484467-2.352-1.04534-.4853333-.7093333-.728-1.4373333-.728-2.184v-.448h1.81067z"/></g><g fill="#fff" fill-rule="nonzero" transform="translate(13.35757 13.01626)"><path d="m4.288 29.92667v-25.46l-4.288 3.216v-4.556l4.288-3.12667h4.24333v29.92667z"/><path d="m14.97415 7.504h-3.79667v-7.504h12.77467v3.886l-6.968 26.04067h-4.556l7.28066-25.95133h-4.73466z"/></g><g stroke="#fff" stroke-linecap="round" stroke-linejoin="round" stroke-width="4"><path d="m74.86305 90.45202c0 4.5942049-1.82504 9.0002432-5.0736334 12.248837-3.2485934 3.248593-7.6546317 5.073633-12.2488366 5.073633-9.5669326 0-17.32246-7.755537-17.32246-17.32247 0-9.5669287 7.7555313-17.32246 17.32246-17.32246 9.5669326 0 17.32247 7.7555274 17.32247 17.32246z"/><path d="m92.4192 77.66211c0 9.5669287-7.7555313 17.32246-17.32246 17.32246-9.5669326 0-17.32247-7.7555274-17.32247-17.32246 0-4.5942049 1.82504-9.0002432 5.0736334-12.2488366s7.6546317-5.0736334 12.2488366-5.0736334c9.5669326 0 17.32246 7.7555374 17.32246 17.32247z"/><path d="m103.10908 110.84533c0 9.566933-7.7555274 17.32247-17.32246 17.32247-4.5942049 0-9.0002432-1.82504-12.2488366-5.073633-3.2485934-3.248594-5.0736334-7.654632-5.0736334-12.248837 0-9.566933 7.7555374-17.32246 17.32247-17.32246 9.5669287 0 17.32246 7.755531 17.32246 17.32246z"/><path d="m109.7903 90.24493c0 4.5942049-1.82504 9.0002432-5.073633 12.248837-3.248594 3.248593-7.6546321 5.073633-12.248837 5.073633s-9.0002432-1.82504-12.2488366-5.073633c-3.2485934-3.2485938-5.0736334-7.6546321-5.0736334-12.248837s1.82504-9.0002432 5.0736334-12.2488366 7.6546317-5.0736334 12.2488366-5.0736334 9.000243 1.82504 12.248837 5.0736334c3.248593 3.2485934 5.073633 7.6546317 5.073633 12.2488366z"/><path d="m81.50661 110.95666c0 4.594205-1.82504 9.000243-5.0736334 12.248837-3.2485934 3.248593-7.6546317 5.073633-12.2488366 5.073633s-9.0002432-1.82504-12.2488366-5.073633c-3.2485934-3.248594-5.0736334-7.654632-5.0736334-12.248837s1.82504-9.000243 5.0736334-12.2488366c3.2485934-3.2485934 7.6546317-5.0736334 12.2488366-5.0736334s9.0002432 1.82504 12.2488366 5.0736334c3.2485934 3.2485936 5.0736334 7.6546316 5.0736334 12.2488366z"/></g></g></svg>