<svg height="149" viewBox="0 0 150 149" width="150" xmlns="http://www.w3.org/2000/svg"><g fill="none" fill-rule="evenodd" transform="translate(.918877 .03992)"><path d="m.826754 0h146.439249c.45802 0 .82675.36873.82675.82675v146.68107c0 .45802-.36873.82676-.82675.82676h-146.439249c-.458022 0-.826754-.36874-.826754-.82676v-146.68107c0-.45802.368732-.82675.826754-.82675z" fill="#48773e"/><g fill="#fff" fill-rule="nonzero"><g transform="translate(45.385099 12.92155)"><path d="m6.541209 9.464c0 .39822667-.02489.74045-.07467 1.02667-.03733333.28622-.16177767.59733-.373333.93333-.112.1742267-.255111.3422267-.429333.504-.161778.1493333-.34844467.2862233-.56.41067-.19911133.112-.416889.2053333-.653333.28-.23644467.0746667-.466667.112-.690667.112-.56 0-1.07022233-.1182233-1.530667-.35467-.448-.23644-.77777767-.5351067-.989333-.896-.21155533-.3608867-.34844433-.6968867-.410667-1.008-.04978-.3111067-.07467-.64710667-.07467-1.008v-6.44c0-.34844.03111-.65955.09333-.93333.07466667-.28622.224-.59111.448-.91467.224-.32355333.54133333-.59733.952-.82133.41066667-.23644667.84-.35467 1.288-.35467.85866667 0 1.574222.28622333 2.146666.85867.57244467.56.858677 1.28177667.858677 2.16533v.672h-1.773343v-.672c0-.34844-.09955567-.64088333-.298667-.87733-.18666667-.23644667-.46666667-.35467-.84-.35467-.348444 0-.62222167.11822333-.821333.35467-.18666667.23644667-.28.52889-.28.87733v6.92534c.02488667.1866667.11199767.39822.261333.63466.17422267.2488933.460445.37334.858667.37334.42311133 0 .70311133-.112.84-.336s.21777733-.38578.242666-.48534c.02488667-.112.03733-.26133333.03733-.448v-.63466h1.773347z"/><path d="m13.143524 12.61867h-5.338665v-12.50667h1.792005v10.71467h3.54666z"/><path d="m13.554504 12.61867v-12.50667h1.77333v12.50667z"/><path d="m23.142024 12.61867v-7.616l-1.792 5.33867h-.896l-1.77333-5.33867v7.616h-1.792v-12.50667h1.68l2.37067 6.664 2.33333-6.664h1.64267v12.50667z"/><path d="m25.248894 12.61867 2.8-12.50667h1.54933l2.8 12.50667h-1.92267l-.504-2.688h-2.31466l-.52267 2.688zm2.72533-4.34933h1.68l-.84-4.55467z"/><path d="m34.021214 12.61867v-10.84533h-2.10933v-1.66134h6.02933v1.66134h-2.14667v10.84533z"/><path d="m44.155614 10.82667v1.792h-5.35733v-12.50667h5.35733v1.64267h-3.584v3.696h3.136v1.69867h-3.136v3.67733z"/><path d="m0 29.86565 2.8-12.50667h1.549333l2.8 12.50667h-1.922667l-.504-2.688h-2.314666l-.522667 2.688zm2.725333-4.34934h1.68l-.84-4.55466z"/><path d="m13.736044 26.71098c0 .39822-.0249.7404433-.0747 1.02667-.0373333.28622-.1617767.59733-.37333.93333-.112.17422-.2551133.34222-.42934.504-.1617733.1493333-.34844.2862233-.56.41067-.1991067.112-.4168833.2053333-.65333.28s-.46667.112-.69067.112c-.56 0-1.07022-.1182233-1.53066-.35467-.448-.2364467-.777779-.5351133-.989337-.896-.21155533-.3608867-.348444-.6968867-.410666-1.008-.04978-.3111133-.07467-.6471133-.07467-1.008v-6.44c0-.3484467.03111-.6595567.09333-.93333.07466667-.2862267.224-.5911167.448-.91467.223998-.3235533.54133033-.59733.951997-.82133.41066667-.2364467.84-.35467 1.288-.35467.8586667 0 1.5742233.2862233 2.14667.85867.5724467.56.858706 1.2817767.858706 2.16533v.672h-1.773376v-.672c0-.3484467-.0995533-.64089-.29866-.87733-.1866667-.2364467-.4666667-.35467-.84-.35467-.3484467 0-.6222267.1182233-.82134.35467-.18666667.23644-.28.5288833-.28.87733v6.92533c.02486667.1866667.11198.3982233.26134.63467.17422.2488867.46044.37333.85866.37333.4231133 0 .7031133-.112.84-.336.1368933-.224.2177833-.3857767.24267-.48533.0248667-.112.0373-.2613333.0373-.448v-.63467h1.77334z"/><path d="m16.717454 29.86565v-10.84534h-2.10933v-1.66133h6.02933v1.66133h-2.14666v10.84534z"/><path d="m21.537254 29.86565v-12.50667h1.77333v12.50667z"/><path d="m25.239384 18.53498c.28622-.39822.64711-.70933 1.08267-.93333.448-.2364467.9084433-.35467 1.38133-.35467.4604467 0 .88978.0933333 1.288.28.4106667.1866667.75289.4417767 1.02667.76533.2737733.32356.46044.65956.56 1.008.0995533.336.14933.7031133.14933 1.10134v6.36533c0 .3733333-.0373333.70311-.112.98933-.0622.2862267-.2115333.60356-.448.952-.224.3484467-.5537767.6471133-.98933.896-.4231133.2488933-.8960033.37334-1.41867.37334-.2986667 0-.58489-.0373333-.85867-.112-.2737733-.0871133-.5288833-.1991133-.76533-.336-.2364467-.1368933-.4480033-.29245-.63467-.46667-.17422-.17422-.3111067-.3546633-.41066-.54133-.1866667-.38578-.2986667-.6968933-.336-.93334-.0373333-.23644-.056-.5102167-.056-.82133v-6.36533c0-.3733333.0373333-.7031133.112-.98934.0871067-.2986667.2302167-.59111.42933-.87733zm3.472.98933c-.2364467-.34844-.5600033-.52266-.97067-.52266-.2115533 0-.4231067.06222-.63466.18666-.1991133.112-.3422267.2426667-.42934.392-.0746667.1493333-.1244433.2986667-.14933.448-.0248667.1493333-.0373.27378-.0373.37334v6.36533.20533c0 .0622.0062333.1306467.0187.20534.0124667.12444.1120233.3297733.29867.616.1866667.2613333.4977767.392.93333.392.224 0 .4231133-.04978.59734-.14934.1866667-.112.3173333-.2364433.392-.37333.0871067-.1493333.1431067-.2862233.168-.41067.0248667-.12444.0373-.2862167.0373-.48533v-6.36533c0-.2488933-.0124333-.4231167-.0373-.52267-.0124667-.0995533-.07469-.2177767-.18667-.35467z"/><path d="m36.838394 29.86565-2.78134-7.59734v7.59734h-1.792v-12.50667h1.69867l2.76267 7.57867v-7.57867h1.792v12.50667z"/></g><g transform="translate(10.218154 12.74823)"><path d="m4.288 30.1947v-25.46l-4.288 3.216v-4.556l4.288-3.12667h4.243333v29.92667z"/><path d="m24.59525 23.31603v.536c0 .2084467-.014894.44667-.044674.71467 0 .23822-.0446667.5955533-.134 1.072-.4168893 1.4293333-1.2060007 2.5906667-2.367334 3.484-1.1315553.8933333-2.4566663 1.34-3.975333 1.34-1.1911113 0-2.322667-.3573333-3.394667-1.072-1.072-.7444467-1.756889-1.4740033-2.054667-2.18867-.1786667-.3871067-.3275553-.72955-.446666-1.02733-.0893333-.29778-.163778-.58067-.223334-.84867-.0595533-.268-.10422-.5508867-.134-.84866 0-.32756 0-.7146733 0-1.16134v-1.742h4.288v2.45667c.0595533.3871133.2233313.81889.491334 1.29533.2977773.536.8337773.804 1.608.804.774222 0 1.3251107-.268 1.652666-.804.327556-.536.491334-1.206.491334-2.01v-4.60066c-.02978-.56578-.1488913-.99756-.357334-1.29534-.1786667-.2977733-.402-.5062167-.67-.62533-.268-.1488867-.5508887-.22333-.848666-.22333-.297778-.0298-.565778-.0447-.804-.0447h-.75933v-3.79667h.759334c1.7866667 0 2.68-.8337767 2.68-2.50133v-3.57333c0-.35733333-.0297767-.65511333-.08933-.89334 0-.08933333-.0446667-.22333333-.134-.402s-.2233333-.35733333-.402-.536c-.1488887-.17866667-.342444-.32755333-.580666-.44666-.2382227-.11911333-.5211117-.17867-.848667-.17867-.7444447 0-1.2953337.23822333-1.652667.71467-.3573333.44666667-.536 1.02733333-.536 1.742v2.18866h-4.288008v-2.18866c0-1.876.6104527-3.45422333 1.831342-4.73467 1.1911107-1.28044667 2.739555-1.92067 4.645333-1.92067 1.042222 0 2.0397777.268 2.992667.804.9826667.536 1.6973333 1.16133333 2.144 1.876.4764447.71466667.7891113 1.38466667.938 2.01s.223333 1.28044667.223333 1.96534v3.484c0 1.9355533-.8486667 3.4095533-2.546 4.422.9528893.6848867 1.6080007 1.3697733 1.965334 2.05466.3871107.6551133.580666 1.5484467.580666 2.68z"/></g><path d="m76.774483 66.00891c-21.58397-.20137-43.311474 9.64292-55.960938 28.23828 24.532295 36.06372 83.209968 39.21576 108.765628 0-12.37853-18.99513-32.52884-28.04911-52.80469-28.23828zm-1.24219 5.3964786c1.14682 0 2.27159.0661214 2.77539.1992214.43867.11562 1.24659.28418 1.79492.37305 1.2148.19688 3.00209.73313 3.71875 1.11719.29108.15601.68046.28515.86329.28515s.46636.13433.63086.29883.47209.29883.68359.29883.38476.0907.38476.20312c0 .11239.22684.29115.50391.39649.27706.10534.61389.28582.74805.40039.13419.11455.72049.55747 1.30469.98437 1.05224.76893 3.82421 3.30998 3.82421 3.50586 0 .056.44777.67141.9961 1.36914s.99804 1.36201.99804 1.47657c0 .11458.11097.32997.24805.47656.76105.81383 2.34375 4.9689 2.34375 6.1543 0 1.37476-1.18837 1.82632-2.06445.78515-1.28582-1.52811-2.52558.14239-1.40625 1.89453.19754.30923.20094.46645.01758.70508-.30189.39294-1.83469 1.18945-2.29102 1.18945-.54164 0-1.36666 1.08701-1.51172 1.99414-.14974.93643.13683 2.22718.57617 2.5918.27693.22983.43182 1.19531.19141 1.19531-.15976 0-1.27691-.81379-2.03125-1.48046-.59427-.52519-.90392-1.0573-1.75391-3.00586-.14352-.329-.3117-.82862-.37304-1.11133-.19481-.89784-1.00218-1.58008-1.86914-1.58008-1.20915 0-1.52402.35303-1.55469 1.74414-.0182.82173-.14398 1.35131-.40625 1.71094-.45426.6229-.49953.63049-1.03711.18359-.95559-.79437-1.3289-1.04687-1.55078-1.04687-.12877 0-.3459-.13434-.48242-.29883-.13652-.16451-.48334-.30408-.77149-.31055-1.03964-.0234-2.28431-.82751-2.76367-1.78515-.2465-.49244-.45004-.98624-.45117-1.09766-.002-.17821-1.82147-1.49219-2.06641-1.49219-.0518 0-.56052-.30798-1.13086-.68359-1.17932-.77668-1.58984-.73979-1.58984.14258 0 .50538.27834.8809 1.58203 2.13476 1.73963 1.67315 2.07879 2.36097 1.48633 3.01563-.34446.38063-1.49967.97265-1.89844.97265-.0976 0-.8468-.67914-1.66406-1.50976-1.12812-1.14658-1.59545-1.49438-1.94141-1.44532-.33423.0474-.47348.2167-.52148.63672-.036.31494.03205.66888.15039.78711.11824.11825.21484.37387.21484.56641 0 .63096 1.71307 2.75976 2.2207 2.75976.0928 0 .39901.19931.67969.44336.67285.58504.5253 1.15207-.59179 2.28516-.83597.84795-.85997.90824-.9668 2.4668-.0602.87901-.19759 1.70678-.30469 1.83984-.10709.13307-.25127.5128-.32226.8418-.071.329-.39521.90217-.72071 1.27344-.34025.3881-.59179.90057-.59179 1.20703 0 .29319-.13196.70705-.29297.91992-.161.21288-.29728.49553-.30078.62695-.008.30696-.88319 1.25586-1.15821 1.25586-.11536 0-.24397.10109-.28515.22461-.0413.12359-.52554.26739-1.07618.32031-.9074.0872-1.03113.04915-1.33593-.41601v-.00196c-.2267-.34597-.33789-.92768-.33789-1.78515 0-1.07449-.07652-1.36219-.50196-1.85156-.277-.31864-.54761-.78061-.59961-1.02735-.052-.24675-.14244-.67955-.20117-.96094-.0721-.34531-.33065-.60402-.79687-.79882-.37993-.15874-.69141-.3695-.69141-.46875 0-.0992-.36291-.55966-.80664-1.02149-.77706-.80877-.84112-.83479-1.73047-.71289-.50783.0696-1.0708.26184-1.25195.42578-.18115.16393-.63653.29567-1.01172.29297-.57905-.004-.73507-.11188-1.03125-.70703-.19192-.38564-.34961-.87287-.34961-1.08398 0-.2111-.126603-.67894-.28125-1.03907-.367498-.8558-.725592-3.18324-.845703-5.49023-.09377-1.80101-.081651-1.86696.515625-2.75196.336531-.49864.611328-.9844.611328-1.08007 0-.19948 1.39511-.71545 1.69531-.62696.10967.0324.70708.13988 1.32617.24024.61909.10033 1.38029.3172 1.69336.48047.31306.16329.70465.30052.86914.30468.1645.004.47268.13781.68555.29883.21288.161.5892.29297.83594.29297.24673 0 .49604.07901.55469.17383.0586.0949.43834.22523.84375.29101 1.29028.20939 3.05211-.88609 3.05859-1.90234.004-.75787-.70211-1.35351-1.60547-1.35351-.41058 0-.84582-.13189-.98437-.29883-.13653-.16451-.56628-.29883-.95704-.29883-.44427 0-.87536-.15568-1.15039-.41406-.58257-.54729-2.08198-.62445-2.62304-.13477-.21166.19154-.58457.34961-.82813.34961s-.68433.12319-.98047.27344c-.29613.15027-.97104.33511-1.5.41211l-.962887.14062.064457-.5625c.0575-.50203.16243-.57618.96289-.6875 1.74868-.24321 2.68543-.64434 2.75781-1.17968.0576-.42597.26708-.66924 1.33008-1.54493.10966-.0904.67984-.32154 1.26758-.51367.99911-.32661 1.15303-.3274 2.35742-.02539 1.56479.39244 2.27536.26272 3.14453-.57031.3607-.34572.89142-.83014 1.17969-1.07617.60265-.51434.64183-.70095.22265-1.04883-.50336-.41775-1.68466-.09586-2.35937.64258-.51535.56402-.72574.65226-1.51172.64062-1.09601-.0162-2.5596-.61964-2.71875-1.12109-.28273-.89079 1.3124-1.65574 3.82031-1.83203 1.07235-.0754 2.04561-.21338 2.16211-.3086.29401-.24032 2.90597-.49957 2.89453-.28711-.005.0951-.38668.35925-.84765.58594-.74078.36429-.83789.49115-.83789 1.09375 0 .49876.09596.70124.35937.75195.42189.0813 1.97088-.60616 2.83594-1.25781.33252-.2505.77375-.48924.98047-.5293.20673-.0401.46333-.33516.57031-.65625.17521-.52591.12891-.64364-.48047-1.18164-.94921-.83804-1.37152-1.52501-1.37305-2.23437-.003-1.24956-.27413-1.37061-3.32617-1.49805-1.51681-.0633-2.56731-.13137-2.33398-.15039.23332-.0189.5373-.16949.67382-.33398.13653-.1645.39904-.29883.58399-.29883.18494 0 .50978-.13196.72266-.29297s.55309-.29533.75585-.29883c.20276-.004.65249-.13774.99805-.29883.34558-.1611 1.12145-.38087 1.72461-.48828s1.50065-.28592 1.99414-.39648c.59161-.13253 1.75943-.1972714 2.90625-.1972714zm-15.92383 6.5586014c.72564 0 .60347.86515-.21093 1.48632-.75708.57746-1.52735.67346-1.52735.19141 0-.49315 1.22718-1.67773 1.73828-1.67773zm-1.84179 3.8125c.10993-.00893.21863-.00711.32422.00781.43443.0614.3428.19662-.98633 1.46484-1.57309 1.50098-1.82477 1.67386-1.8300837 1.26172-.0009963-.14622.2006037-.67617.4492237-1.17773.43139-.87026 1.27341-1.49418 2.04297-1.55664zm39.42968 9.97461c.10347.02497.24227.13747.42188.33593.45811.50621.49717 5.41797.04297 5.41797-.15803 0-.35739-.11292-.44336-.25-.89464-1.42656-1.14316-3.09485-.57227-3.84961.16101-.21288.29535-.67872.29883-1.03515.00438-.45865.07952-.66078.25195-.61914zm-16.49609 4.75781c.1645 0 .29883.03502.29883.07812s-.13433.13023-.29883.19336c-.1645.0632-.29883.02622-.29883-.08008 0-.10621.13433-.1914.29883-.1914zm12.54883 2.29492c.06544-.00981.14086-.00255.21875.02734.16036.0615.24036.1909.17969.28907-.12925.20914-.36468.23299-.54493.05273-.15923-.15924-.04985-.3397.14649-.36914zm-20.92383 1.49219c.21816 0 .07977.93221-.22266 1.49609-.17647.329-.39286.82153-.48046 1.0957-.12101.37882-.16276.2248-.17579-.64648-.0134-.89582.06931-1.23528.38086-1.54687.21932-.21934.44322-.39844.49805-.39844zm23.3418.03515c.22748.03072.40893.30847.60351.86914.23924.68935.23363.87978-.04101 1.48829-.5703 1.26331-1.09383 2.2853-1.48242 2.89257-.21052.329-.46807.79014-.57227 1.02539-.1042.23523-.26222.45913-.35156.49805-.0894.0389-.42178.45189-.73828.91797s-.65135.84766-.7461.84766c-.0947 0-.17383.13432-.17383.29882 0 .16449-.15573.30794-.34765.31836-2.04889.11124-2.42468.07182-2.51367-.26757-.1121-.42761-.79124-.45686-1.19727-.05079-.1645.16449-.5305.29883-.8125.29883-.42901 0-.51172-.08992-.51172-.55859 0-.30803-.13196-.73439-.29297-.94727-.17656-.23343-.295-.84518-.2988981-1.53906-.0069319-1.23023.4580081-2.23 1.4141381-3.03711.45186-.38142 2.96675-1.30292 3.53711-1.29687.69529.007 3.43809-1.04538 4.05273-1.55469.18249-.15122.33617-.22156.47266-.20313zm-7.97461 11.55274c.29134.02112.49682.11827.56836.30469.0692.18019.10222.33788.07226.3496-.03.0118-.23575.1363-.45507.27735-.21934.14108-.64375.36246-.94532.49219-.30159.12973-.54883.29809-.54883.375 0 .0768-.26256.19893-.58398.26953s-.6916.25662-.82227.41406c-.13068.15745-.3671.28711-.52539.28711-.15828 0-.48508.10816-.72461.24219-.52924.29615-1.76242.66912-3.625 1.09375-1.54216.35157-7.12011.54889-7.77539.27539h-.00195c-.21932-.0915-.89098-.23248-1.49414-.31446-1.18365-.16088-1.38787-.32441-1.3925861-1.10937-.0029939-.55555 1.1035861-1.7832 1.6074261-1.7832.16229 0 .49535-.14097.74024-.3125.84812-.59402 5.22667-.19262 6.88672.63086.31048.154.74113.27929.95703.27929.21588 0 .6355.12361.93164.27344.69168.34999 1.84354.53473 2.25391.36133.17586-.0743.73684-.48808 1.24804-.91797 1.10899-.93258 2.75488-1.55163 3.62891-1.48828z"/></g></g></svg>