<svg height="150" viewBox="0 0 149 150" width="149" xmlns="http://www.w3.org/2000/svg"><g fill="none" fill-rule="evenodd" transform="translate(.83978 .93456)"><path d="m.82676 0h146.43925c.45802 0 .82675.36873.82675.82675v146.68107c0 .45802-.36873.82675-.82675.82675h-146.43925c-.45803 0-.82676-.36873-.82676-.82675v-146.68107c0-.45802.36873-.82675.82676-.82675z" fill="#c31f33"/><g fill="#fff"><g fill-rule="nonzero" transform="translate(43.45359 13.13333)"><path d="m.70933 11.648c-.28622-.3111133-.47910667-.6408933-.57866-.98934-.08711333-.34844-.13067-.75910667-.13067-1.232v-6.216c0-.90844.28622333-1.66755.85867-2.27733.58488667-.62222 1.31910667-.93333 2.20266-.93333.79644667 0 1.49956.29244333 2.10934.87733.59733333.58488667.896 1.28177667.896 2.09067v6.45866c0 .36089333-.01866667.62845-.056.80267-.02486667.17422-.07464667.3484433-.14934.52267l1.176.98933-.98933 1.19467-1.12-.896c-.54755333.448-1.20711.672-1.97867.672-.41066667 0-.82133333-.0995567-1.232-.29867-.39822-.1991133-.73422-.4542233-1.008-.76533zm2.968-2.688.59734.46666v-6.216c0-.39822-.112-.73422-.336-1.008-.224-.28622-.53511333-.42933-.93334-.42933-.24888667 0-.46666333.06222333-.65333.18667-.18666667.12444-.32355667.27377333-.41067.448-.07466667.17422-.11822.31110667-.13066.41066-.01246667.08711333-.0187.21778-.0187.392v6.216.13067c0 .36088667.09955667.6844433.29867.97067.21155333.2737733.53510667.4168833.97066.42933.12444667 0 .27378-.0373333.448-.112l-.82133-.69067z"/><path d="m13.20025 11.312c-.27378.4231067-.6284467.7653267-1.064 1.02666-.4231133.2613333-.8960033.392-1.41867.392-.2613333 0-.5226667-.0373333-.784-.112-.24888667-.0746667-.48533-.168-.70933-.28-.224-.12444-.42311-.2613267-.59733-.41066-.17422667-.16178-.30489333-.32978-.392-.504-.18666667-.3484467-.31111333-.6533367-.37334-.91467-.0498-.2613333-.0747-.54133333-.0747-.84v-9.55733h1.792v9.55733.24267c.01246667.0622.0249.12442.0373.18666.01246667.09956.1058.2737833.28.52267.16178.224.44178.336.84.336.3608867 0 .6284433-.1306667.80267-.392.1866667-.27378.28-.57244667.28-.896v-9.55733h1.792v9.55733c0 .29866667-.0311.58489-.0933.85867-.0622.2737733-.1679767.5351067-.31733.784z"/><path d="m14.56408 12.61866 2.8-12.50666h1.54934l2.79999 12.50666h-1.92266l-.504-2.688h-2.31467l-.52266 2.688zm2.72534-4.34933h1.68l-.84-4.55467z"/><path d="m27.98279 12.61866h-5.33867v-12.50666h1.792v10.71466h3.54667z"/><path d="m28.48572 12.61866v-12.50666h1.77333v12.50666z"/><path d="m33.35911 12.61866v-10.84533h-2.10934v-1.66133h6.02934v1.66133h-2.14667v10.84533z"/><path d="m39.90207 12.61866v-5.376l-2.42667-7.13066h1.86667l1.456 4.89066 1.47466-4.89066h1.88534l-2.48267 7.13066v5.376z"/><path d="m5.488 28.07364v1.792h-5.35733v-12.50667h5.35733v1.64267h-3.584v3.696h3.136v1.69867h-3.136v3.67733z"/><path d="m9.68531 17.35897c.8088867 0 1.4995533.2862233 2.072.85867.5848867.56.87733 1.2444433.87733 2.05333v6.496c0 .9208933-.28 1.66756-.84 2.24-.56.5724467-1.2817767.85867-2.16533.85867h-2.78134v-12.50667zm1.176 9.408v-6.496c0-.34844-.1306667-.6408833-.392-.87733-.2488933-.2364467-.55378333-.35467-.91467-.35467h-.93333v9.16534h.87733c.9084467 0 1.36267-.4791133 1.36267-1.43734z"/><path d="m19.56195 28.55897c-.27378.4231133-.6284467.7653367-1.064 1.02667-.4231133.2613333-.8960033.392-1.41867.392-.2613333 0-.5226667-.0373333-.784-.112-.2488867-.0746667-.48533-.168-.70933-.28-.224-.1244467-.42311-.2613367-.59733-.41067-.1742267-.1617733-.3048933-.3297733-.392-.504-.1866667-.34844-.3111133-.6533267-.37334-.91466-.0498-.2613333-.0747-.5413333-.0747-.84v-9.55734h1.792v9.55734.24266c.0124667.0622.0249.1244233.0373.18667.0124667.0995533.1058.2737767.28.52267.16178.224.44178.336.84.336.3608867 0 .6284433-.1306667.80267-.392.1866667-.27378.28-.5724467.28-.896v-9.55734h1.792v9.55734c0 .2986667-.0311.5848867-.0933.85866-.0622.27378-.1679767.5351133-.31733.784z"/><path d="m27.26976 26.71097c0 .3982267-.0249.74045-.0747 1.02667-.0373333.28622-.1617767.59733-.37333.93333-.112.1742267-.2551133.3422267-.42934.504-.1617733.1493333-.3484367.2862233-.55999.41067-.1991133.112-.4168933.2053333-.65334.28-.23644.0746667-.46666.112-.69066.112-.56 0-1.0702233-.1182233-1.53067-.35467-.448-.23644-.7777767-.5351067-.98933-.896-.21156-.3608867-.34845-.6968867-.41067-1.008-.0498-.3111067-.0747-.6471067-.0747-1.008v-6.44c0-.34844.0311-.65955.0933-.93333.0746667-.28622.224-.59111.448-.91467.224-.3235533.5413333-.59733.952-.82133.4106667-.2364467.84-.35467 1.288-.35467.8586667 0 1.57422.2862233 2.14666.85867.5724467.56.85867 1.2817767.85867 2.16533v.672h-1.77333v-.672c0-.34844-.0995567-.6408833-.29867-.87733-.1866667-.2364467-.4666667-.35467-.84-.35467-.3484467 0-.6222233.1182233-.82133.35467-.1866667.2364467-.28.52889-.28.87733v6.92534c.0248667.1866667.1119767.39822.26133.63466.17422.2488933.4604433.37334.85867.37334.4231067 0 .7031067-.112.84-.336.1368867-.224.2177733-.38578.24266-.48534.0248667-.112.0373-.2613333.0373-.448v-.63466h1.77333z"/><path d="m27.86184 29.86564 2.8-12.50667h1.54934l2.79999 12.50667h-1.92266l-.504-2.688h-2.31467l-.52266 2.688zm2.72534-4.34933h1.68l-.84-4.55467z"/><path d="m36.51248 29.86564v-10.84533h-2.10934v-1.66134h6.02934v1.66134h-2.14667v10.84533z"/><path d="m41.39141 29.86564v-12.50667h1.77334v12.50667z"/><path d="m45.32093 18.53497c.2862267-.39822.6471167-.70933 1.08267-.93333.448-.2364467.9084433-.35467 1.38133-.35467.4604467 0 .88978.0933333 1.288.28.4106667.1866667.75289.44178 1.02667.76534.27378.3235533.4604467.6595533.56 1.008.0995533.336.14933.70311.14933 1.10133v6.36533c0 .3733333-.0373333.7031133-.112.98934-.0622.28622-.2115333.6035533-.448.952-.224.34844-.5537767.6471067-.98933.896-.4231133.2488867-.8960033.37333-1.41867.37333-.2986667 0-.5848867-.0373333-.85866-.112-.27378-.0871133-.5288933-.1991133-.76534-.336-.23644-.1368867-.4479933-.2924433-.63466-.46667-.1742267-.17422-.3111167-.3546633-.41067-.54133-.1866667-.38578-.2986667-.69689-.336-.93333-.0373333-.2364467-.056-.5102267-.056-.82134v-6.36533c0-.3733333.0373333-.70311.112-.98933.0871133-.2986667.2302233-.5911133.42933-.87734zm3.472.98934c-.23644-.3484467-.5599933-.52267-.97066-.52267-.21156 0-.4231167.0622233-.63467.18667-.1991133.112-.3422233.2426667-.42933.392-.0746667.1493333-.1244467.2986667-.14934.448-.0248667.1493333-.0373.2737767-.0373.37333v6.36533.20534c0 .0622.0062333.1306433.0187.20533.0124667.1244467.11202.32978.29866.616.1866667.2613333.49778.392.93334.392.224 0 .42311-.0497767.59733-.14933.1866667-.112.3173333-.2364467.392-.37334.0871133-.1493333.1431133-.28622.168-.41066.0248667-.1244467.0373-.2862267.0373-.48534v-6.36533c0-.2488867-.0124333-.42311-.0373-.52267-.0124667-.0995533-.07469-.2177733-.18667-.35466z"/><path d="m56.69373 29.86564-2.78134-7.59733v7.59733h-1.792v-12.50667h1.69867l2.76267 7.57867v-7.57867h1.792v12.50667z"/></g><path d="m8.53133 29.92667v-4.556h-8.53133v-4.02l6.20866-21.35067h4.51134l-6.38734 21.35067h4.19867v-8.53134h4.288v8.53134h2.09933v4.02h-2.09933v4.556z" fill-rule="nonzero" transform="translate(15.38853 12.50294)"/><path d="m112.95905 59.8954658c-1.52074.0080542-3.04297.8417942-3.04297 2.4766142v4.45703h6.08398v-4.45703c0-1.66574-1.52028-2.48429-3.04101-2.4766142zm-3.04297 8.8496642v44.55078l3.04297 9.98242 3.04101-9.98242v-44.55078zm-70.57705-4.30688v49.26378l26.10588 8.05114v-42.13066zm25.8853 62.9397-31.598-8.93347v-51.94645l2.74921-2.09877v52.01706l29.48529 8.60218h2.39715l29.48529-8.60218v-52.01706l2.74921 2.09877v51.94645l-31.598 8.93347zm29.55545-62.9397v49.26378l-26.10588 8.05114v-42.13066z"/></g></g></svg>