<svg height="150" viewBox="0 0 149 150" width="149" xmlns="http://www.w3.org/2000/svg"><g fill="none" fill-rule="evenodd" transform="translate(.86615 .72833)"><path d="m.82675 0h146.43925c.45803 0 .82676.36873.82676.82676v146.68107c0 .45802-.36873.82675-.82676.82675h-146.43925c-.45802 0-.82675-.36873-.82675-.82675v-146.68107c0-.45803.36873-.82676.82675-.82676z" fill="#f36d25"/><g fill="#fff" fill-rule="nonzero" transform="translate(35.08271 12.61547)"><path d="m.58943 12.61866v-12.50666h1.77334v12.50666z"/><path d="m7.64239 12.61866-2.78133-7.59733v7.59733h-1.792v-12.50666h1.69866l2.76267 7.57866v-7.57866h1.792v12.50666z"/><path d="m13.0413.112c.8088933 0 1.49956.28622 2.072.85866.5848933.56.87734 1.24444667.87734 2.05334v6.496c0 .9208867-.28 1.6675533-.84 2.24-.56.57244-1.28178.85866-2.16534.85866h-2.78133v-12.50666zm1.176 9.408v-6.496c0-.34844667-.1306667-.64089333-.392-.87734-.2488867-.23644-.5537733-.35466-.91466-.35466h-.93334v9.16533h.87734c.90844 0 1.36266-.47911 1.36266-1.43733z"/><path d="m22.43152 11.312c-.2737733.4231067-.62844.7653267-1.064 1.02666-.4231067.2613333-.8959933.392-1.41866.392-.2613333 0-.5226667-.0373333-.784-.112-.2488933-.0746667-.48534-.168-.70934-.28-.224-.12444-.42311-.2613267-.59733-.41066-.17422-.16178-.3048867-.32978-.392-.504-.1866667-.3484467-.31111-.6533367-.37333-.91467-.0498-.2613333-.0747-.54133333-.0747-.84v-9.55733h1.792v9.55733.24267c.0124667.0622.0249.12442.0373.18666.0124667.09956.1058.2737833.28.52267.16178.224.44178.336.84.336.3608933 0 .62845-.1306667.80267-.392.1866667-.27378.28-.57244667.28-.896v-9.55733h1.792v9.55733c0 .29866667-.0311.58489-.0933.85867-.0622.2737733-.16798.5351067-.31734.784z"/><path d="m25.3463 9.50133v.31733c0 .08711333.0062333.16178.0187.224.0248667.1244467.1182.3048933.28.54134.17422.2488867.48533.37333.93333.37333.2488933 0 .4791167-.0497767.69067-.14933.2115533-.112.36711-.2551133.46667-.42934.0746667-.1368867.11822-.2675533.13066-.392.0248667-.12444.0373-.23644.0373-.336v-.168-.87733-.168c0-.27378-.04978-.48533667-.14934-.63467-.0995533-.16177333-.3235533-.34221667-.672-.54133-.23644-.12444667-.65955-.29867-1.26933-.52267s-1.1200033-.57866667-1.53067-1.064-.616-1.14488667-.616-1.97866v-.56c0-.85866667.2862233-1.59289.85867-2.20267.5848867-.62222 1.29422-.93333 2.128-.93333.8711133 0 1.59289.30488667 2.16533.91466.5848933.60978.87734 1.35022667.87734 2.22134v.56h-1.792v-.56c0-.08711333-.0062333-.16800333-.0187-.24267 0-.07466667-.0062333-.14311-.0187-.20533-.0124667-.0622-.0435667-.13686667-.0933-.224-.0498-.08711333-.1182433-.19289333-.20533-.31734-.1742267-.24888667-.4666733-.37333-.87734-.37333-.3608867 0-.6595533.13066667-.896.392-.224.26133333-.336.58489-.336.97067v.56.168c0 .24888667.0373333.44799667.112.59733.0871133.13688667.2862267.29244333.59734.46667.0995533.0498.2488867.11824333.448.20533.2115533.07466667.4666633.168.76533.28.5973333.19911333 1.1324433.55378 1.60533 1.064.4728933.51022.70937 1.18222.70937 2.016v1.008c0 .43555333-.0435867.8026633-.1307 1.10133-.0746667.2986667-.3297767.7342233-.76533 1.30667-.43556.5475533-1.16356.82133-2.184.82133-1.0826667 0-1.8666667-.3484433-2.352-1.04533-.4853333-.7093333-.728-1.4373333-.728-2.184v-.448h1.81066z"/><path d="m31.55984 12.61866v-10.84533h-2.10933v-1.66133h6.02933v1.66133h-2.14666v10.84533z"/><path d="m35.84823 12.61866v-12.50666h3.136c.8213333 0 1.512.28622 2.072.85866.5724467.57244667.85867 1.27556.85867 2.10934v1.15733c0 1.15733333-.4915567 2.04089-1.47467 2.65067l1.904 5.73066h-1.904l-1.68-5.35733h-1.12v5.35733zm3.976-7.336c.112-.13688667.1866667-.29244.224-.46666.0498-.17422667.0747-.36711667.0747-.57867v-1.15733c0-.38578-.1057767-.69689333-.31733-.93334-.21156-.24888667-.5102267-.37333-.896-.37333h-1.26934v3.90133h1.25067c.3733333 0 .6844433-.13066667.93333-.392z"/><path d="m44.0801 12.61866v-5.376l-2.42667-7.13066h1.86667l1.456 4.89066 1.47467-4.89066h1.88533l-2.48267 7.13066v5.376z"/><path d="m47.24603 13.944v-3.09867h1.792v1.77333z"/><path d="m51.75713 12.61866v-12.50666h1.77333v12.50666z"/><path d="m59.02195 12.61866-2.78134-7.59733v7.59733h-1.792v-12.50666h1.69867l2.76267 7.57866v-7.57866h1.792v12.50666z"/><path d="m65.77482 12.61866-2.78133-7.59733v7.59733h-1.792v-12.50666h1.69866l2.76267 7.57866v-7.57866h1.792v12.50666z"/><path d="m68.5463 1.288c.2862267-.39822667.6471167-.70934 1.08267-.93334.448-.23644.9084433-.35466 1.38133-.35466.4604467 0 .88978.09333333 1.288.28.4106667.18666667.75289.44177667 1.02667.76533s.4604467.65955333.56 1.008c.0995533.336.14933.70311.14933 1.10133v6.36534c0 .37333333-.0373333.70311-.112.98933-.0622.28622-.2115333.6035533-.448.952-.224.3484467-.5537767.6471133-.98933.896-.4231133.2488867-.8960033.37333-1.41867.37333-.2986667 0-.5848867-.0373333-.85866-.112-.27378-.0871067-.5288933-.1991067-.76534-.336-.23644-.1368867-.4479933-.29244-.63466-.46666-.1742267-.1742267-.3111167-.3546733-.41067-.54134-.1866667-.3857733-.2986667-.6968833-.336-.93333s-.056-.51022333-.056-.82133v-6.36534c0-.37333333.0373333-.70311.112-.98933.0871133-.29866667.2302233-.59111.42933-.87733zm3.472.98933c-.23644-.34844667-.5599933-.52267-.97066-.52267-.21156 0-.4231167.06222333-.63467.18667-.1991133.112-.3422233.24266667-.42933.392-.0746667.14933333-.1244467.29866667-.14934.448-.0248667.14933333-.0373.27377667-.0373.37333v6.36534.20533c0 .0622.0062333.13064333.0187.20533.0124667.1244467.11202.32978.29866.616.1866667.2613333.49778.392.93334.392.224 0 .42311-.0497767.59733-.14933.1866667-.112.3173333-.2364433.392-.37333.0871133-.1493333.1431133-.2862233.168-.41067.0248667-.12444667.0373-.28622333.0373-.48533v-6.36534c0-.24888667-.0124333-.42310667-.0373-.52266-.0124667-.09956-.07469-.21778333-.18667-.35467z"/><path d="m76.80189 12.61866-2.55734-12.50666h1.86667l1.456 8.68 1.47467-8.68h1.904l-2.61334 12.50666z"/><path d="m80.1719 12.61866 2.8-12.50666h1.54933l2.8 12.50666h-1.92267l-.504-2.688h-2.31466l-.52267 2.688zm2.72533-4.34933h1.68l-.84-4.55467z"/><path d="m88.52249 12.61866v-10.84533h-2.10934v-1.66133h6.02934v1.66133h-2.14667v10.84533z"/><path d="m92.7777 12.61866v-12.50666h1.77334v12.50666z"/><path d="m95.87986 1.288c.28622-.39822667.64711-.70934 1.08267-.93334.448-.23644.9084433-.35466 1.38133-.35466.4604467 0 .88978.09333333 1.288.28.410667.18666667.75289.44177667 1.02667.76533.273773.32355333.46044.65955333.56 1.008.099553.336.14933.70311.14933 1.10133v6.36534c0 .37333333-.037333.70311-.112.98933-.0622.28622-.211533.6035533-.448.952-.224.3484467-.553777.6471133-.98933.896-.4231133.2488867-.8960033.37333-1.41867.37333-.2986667 0-.58489-.0373333-.85867-.112-.2737733-.0871067-.5288833-.1991067-.76533-.336-.2364467-.1368867-.4480033-.29244-.63467-.46666-.17422-.1742267-.3111067-.3546733-.41066-.54134-.1866667-.3857733-.2986667-.6968833-.336-.93333s-.056-.51022333-.056-.82133v-6.36534c0-.37333333.0373333-.70311.112-.98933.0871067-.29866667.2302167-.59111.42933-.87733zm3.472.98933c-.2364467-.34844667-.5600033-.52267-.97067-.52267-.2115533 0-.4231067.06222333-.63466.18667-.1991133.112-.3422267.24266667-.42934.392-.0746667.14933333-.1244433.29866667-.14933.448-.0248667.14933333-.0373.27377667-.0373.37333v6.36534.20533c0 .0622.0062333.13064333.0187.20533.0124667.1244467.1120233.32978.29867.616.1866667.2613333.4977767.392.93333.392.224 0 .4231133-.0497767.59734-.14933.1866667-.112.3173333-.2364433.392-.37333.0871067-.1493333.1431067-.2862233.168-.41067.0248667-.12444667.0373-.28622333.0373-.48533v-6.36534c0-.24888667-.0124333-.42310667-.0373-.52266-.0124667-.09956-.07469-.21778333-.18667-.35467z"/><path d="m107.0101 12.61866-2.78133-7.59733v7.59733h-1.792v-12.50666h1.69867l2.76266 7.57866v-7.57866h1.792v12.50666z"/><path d="m0 29.86564 2.8-12.50667h1.54933l2.8 12.50667h-1.92267l-.504-2.688h-2.31466l-.52267 2.688zm2.72533-4.34933h1.68l-.84-4.55467z"/><path d="m11.84915 29.86564-2.78133-7.59733v7.59733h-1.792v-12.50667h1.69866l2.76267 7.57867v-7.57867h1.792v12.50667z"/><path d="m17.28901 17.35897c.8088933 0 1.49956.2862233 2.072.85867.5848933.56.87734 1.2444433.87734 2.05333v6.496c0 .9208933-.28 1.66756-.84 2.24-.56.5724467-1.28178.85867-2.16534.85867h-2.78133v-12.50667zm1.176 9.408v-6.496c0-.34844-.1306667-.6408833-.392-.87733-.2488867-.2364467-.5537733-.35467-.91466-.35467h-.93334v9.16534h.87734c.90844 0 1.36266-.4791133 1.36266-1.43734z"/><path d="m22.81478 29.86564v-12.50667h1.77333v12.50667z"/><path d="m30.01917 29.86564-2.78133-7.59733v7.59733h-1.792v-12.50667h1.69867l2.76266 7.57867v-7.57867h1.792v12.50667z"/><path d="m32.25914 29.86564v-12.50667h5.33866v1.68h-3.56533v3.752h3.11733v1.68h-3.11733v5.39467z"/><path d="m37.86213 29.86564v-12.50667h3.136c.8213333 0 1.512.2862233 2.072.85867.57244.5724467.85866 1.2755567.85866 2.10933v1.15734c0 1.1573333-.4915533 2.0408867-1.47466 2.65066l1.904 5.73067h-1.904l-1.68-5.35733h-1.12v5.35733zm3.976-7.336c.112-.1368867.1866667-.2924433.224-.46667.0498-.17422.0747-.3671067.0747-.57866v-1.15734c0-.3857733-.1057767-.6968833-.31733-.93333-.2115533-.2488867-.51022-.37333-.896-.37333h-1.26933v3.90133h1.25066c.3733333 0 .6844467-.1306667.93334-.392z"/><path d="m44.11411 29.86564 2.8-12.50667h1.54934l2.8 12.50667h-1.92267l-.504-2.688h-2.31467l-.52266 2.688zm2.72534-4.34933h1.68l-.84-4.55467z"/><path d="m52.71527 26.74831v.31733c0 .0871133.0062333.16178.0187.224.0248667.1244467.1182.30489.28.54133.17422.2488933.48533.37334.93333.37334.2488867 0 .47911-.04978.69067-.14934.2115533-.112.3671067-.25511.46666-.42933.0746667-.1368867.1182233-.2675533.13067-.392.0248667-.1244467.0373-.2364467.0373-.336v-.168-.87733-.168c0-.27378-.0497767-.4853367-.14933-.63467-.0995533-.16178-.3235533-.3422233-.672-.54133-.2364467-.1244467-.6595567-.29867-1.26933-.52267-.60978-.224-1.1200033-.5786667-1.53067-1.064s-.616-1.14489-.616-1.97867v-.56c0-.8586667.2862233-1.5928867.85867-2.20266.5848867-.6222267 1.29422-.93334 2.128-.93334.8711067 0 1.5928833.30489 2.16533.91467.5848867.60978.87733 1.3502233.87733 2.22133v.56h-1.792v-.56c0-.0871067-.0062333-.1679933-.0187-.24266 0-.0746667-.0062333-.1431133-.0187-.20534-.0124667-.0622-.0435667-.1368667-.0933-.224-.0498-.0871067-.1182467-.1928833-.20534-.31733-.17422-.2488867-.4666633-.37333-.87733-.37333-.3608867 0-.6595533.1306667-.896.392-.224.2613333-.336.5848867-.336.97066v.56.168c0 .2488933.0373333.4480067.112.59734.0871133.1368867.2862233.29244.59733.46666.09956.0498.2488933.1182467.448.20534.21156.0746667.4666733.168.76534.28.5973333.1991067 1.1324433.5537733 1.60533 1.064.4728867.51022.70937 1.18222.70937 2.016v1.008c0 .4355533-.0435933.8026633-.1307 1.10133-.0746667.2986667-.32978.7342233-.76534 1.30667-.4355533.5475533-1.1635533.82133-2.184.82133-1.0826667 0-1.8666667-.3484433-2.352-1.04533-.4853333-.7093333-.728-1.4373333-.728-2.184v-.448h1.81067z"/><path d="m58.87393 29.86564v-10.84533h-2.10933v-1.66134h6.02933v1.66134h-2.14667v10.84533z"/><path d="m63.11048 29.86564v-12.50667h3.136c.8213333 0 1.512.2862233 2.072.85867.5724467.5724467.85867 1.2755567.85867 2.10933v1.15734c0 1.1573333-.4915567 2.0408867-1.47467 2.65066l1.904 5.73067h-1.904l-1.68-5.35733h-1.12v5.35733zm3.976-7.336c.112-.1368867.1866667-.2924433.224-.46667.0498-.17422.0747-.3671067.0747-.57866v-1.15734c0-.3857733-.10578-.6968833-.31734-.93333-.2115533-.2488867-.51022-.37333-.896-.37333h-1.26933v3.90133h1.25067c.3733333 0 .6844433-.1306667.93333-.392z"/><path d="m75.00268 28.55897c-.27378.4231133-.6284467.7653367-1.064 1.02667-.4231133.2613333-.8960033.392-1.41867.392-.2613333 0-.5226667-.0373333-.784-.112-.2488867-.0746667-.48533-.168-.70933-.28-.224-.1244467-.4231133-.2613367-.59734-.41067-.17422-.1617733-.3048867-.3297733-.392-.504-.1866667-.34844-.31111-.6533267-.37333-.91466-.0498-.2613333-.0747-.5413333-.0747-.84v-9.55734h1.792v9.55734.24266c.0124667.0622.0249.1244233.0373.18667.0124667.0995533.1058.2737767.28.52267.1617733.224.4417733.336.84.336.3608867 0 .62844-.1306667.80266-.392.1866667-.27378.28-.5724467.28-.896v-9.55734h1.792v9.55734c0 .2986667-.0311.5848867-.0933.85866-.0622.27378-.1679767.5351133-.31733.784z"/><path d="m82.20763 26.71097c0 .3982267-.0249.74045-.0747 1.02667-.0373333.28622-.1617767.59733-.37333.93333-.112.1742267-.2551133.3422267-.42934.504-.1617733.1493333-.34844.2862233-.56.41067-.1991067.112-.4168833.2053333-.65333.28s-.46667.112-.69067.112c-.56 0-1.07022-.1182233-1.53066-.35467-.448-.23644-.77778-.5351067-.98934-.896-.2115533-.3608867-.34844-.6968867-.41066-1.008-.0498-.3111067-.0747-.6471067-.0747-1.008v-6.44c0-.34844.0311-.65955.0933-.93333.0746667-.28622.224-.59111.448-.91467.224-.3235533.5413333-.59733.952-.82133.4106667-.2364467.84-.35467 1.288-.35467.8586667 0 1.5742233.2862233 2.14667.85867.5724467.56.85867 1.2817767.85867 2.16533v.672h-1.77334v-.672c0-.34844-.0995533-.6408833-.29866-.87733-.1866667-.2364467-.4666667-.35467-.84-.35467-.3484467 0-.6222267.1182233-.82134.35467-.1866667.2364467-.28.52889-.28.87733v6.92534c.0248667.1866667.11198.39822.26134.63466.17422.2488933.46044.37334.85866.37334.4231133 0 .7031133-.112.84-.336.1368933-.224.2177833-.38578.24267-.48534.0248667-.112.0373-.2613333.0373-.448v-.63466h1.77334z"/><path d="m84.46392 29.86564v-10.84533h-2.10934v-1.66134h6.02934v1.66134h-2.14667v10.84533z"/><path d="m94.07203 28.55897c-.2737733.4231133-.62844.7653367-1.064 1.02667-.4231067.2613333-.8959933.392-1.41866.392-.2613333 0-.5226667-.0373333-.784-.112-.2488933-.0746667-.48534-.168-.70934-.28-.224-.1244467-.42311-.2613367-.59733-.41067-.17422-.1617733-.3048867-.3297733-.392-.504-.1866667-.34844-.31111-.6533267-.37333-.91466-.0498-.2613333-.0747-.5413333-.0747-.84v-9.55734h1.792v9.55734.24266c.0124667.0622.0249.1244233.0373.18667.0124667.0995533.1058.2737767.28.52267.16178.224.44178.336.84.336.3608933 0 .62845-.1306667.80267-.392.1866667-.27378.28-.5724467.28-.896v-9.55734h1.792v9.55734c0 .2986667-.0311.5848867-.0933.85866-.0622.27378-.16798.5351133-.31734.784z"/><path d="m95.34194 29.86564v-12.50667h3.136c.8213333 0 1.512.2862233 2.072.85867.57244.5724467.85866 1.2755567.85866 2.10933v1.15734c0 1.1573333-.491553 2.0408867-1.47466 2.65066l1.904 5.73067h-1.904l-1.68-5.35733h-1.12v5.35733zm3.976-7.336c.112-.1368867.1866667-.2924433.224-.46667.0498-.17422.0747-.3671067.0747-.57866v-1.15734c0-.3857733-.10578-.6968833-.31734-.93333-.2115533-.2488867-.51022-.37333-.896-.37333h-1.26933v3.90133h1.25067c.3733333 0 .6844433-.1306667.93333-.392z"/><path d="m107.29899 28.07364v1.792h-5.35733v-12.50667h5.35733v1.64267h-3.584v3.696h3.136v1.69867h-3.136v3.67733z"/></g><path d="m.4467 15.05266c-.20844667-.4168867-.34244667-.8039967-.402-1.16133-.0298-.3871133-.0447-.95289-.0447-1.69733v-6.07467c0-.65511333.10422333-1.25067.31267-1.78667.11911333-.29777333.29778-.65510667.536-1.072.268-.41688667.61044333-.92310667 1.02733-1.51866.83378-1.16133333 2.32267-1.742 4.46667-1.742 2.02488667 0 3.58822.68488667 4.69 2.05466 1.1613333 1.34 1.742 2.88844667 1.742 4.64534v4.86866c0 1.1613333-.2382233 2.3226667-.71467 3.484l-5.628 15.142h-4.86866l5.00266-12.596c-.77422.1786667-1.36977333.268-1.78666.268-.95289333 0-1.83134-.25311-2.63534-.75933-.77422-.536-1.33999667-1.22089-1.69733-2.05467zm6.03-10.854c-.71466667 0-1.25066667.25311333-1.608.75934-.35733333.47644-.536 1.05710667-.536 1.742v4.86866c0 .7444467.19355667 1.3548933.58067 1.83134.38710667.47644.95288333.71466 1.69733.71466.65511333 0 1.13155667-.2233333 1.42933-.67.32756-.47644.49134-1.1017733.49134-1.876v-4.86866c0-.74444667-.16378-1.34000333-.49134-1.78667-.29777333-.47644667-.81888333-.71467-1.56333-.71467z" fill="#fff" fill-rule="nonzero" transform="translate(14.78832 12.05891)"/><g stroke="#fff" stroke-linejoin="round" stroke-width="2.6"><path d="m94.40499 66.6161v20.98161l-18.1706 10.49079-18.1706-10.49079v-20.9816l18.1706-10.49081z"/><path d="m112.71644 98.16981v20.98161l-18.1706 10.49079-18.1706-10.49079v-20.9816l18.1706-10.49081z"/><path d="m76.23439 98.08851v20.98161l-18.1706 10.49079-18.1706-10.49079v-20.9816l18.1706-10.49081z"/><path d="m58.00247 129.75894v-42.35929l18.02975-10.40948 36.68422 21.17964-36.3412 20.9816-18.31145-10.57212-.0613 21.17965"/><path d="m76.37524 76.79213v21.21505"/><path d="m76.08304 76.96083 18.37277-10.60752-18.08057-10.43882-18.37277 10.60752z" fill="#fff" fill-rule="nonzero"/><path d="m58.00247 108.6147 18.37277-10.60752-18.08057-10.43883-18.37277 10.60753z" fill="#fff" fill-rule="nonzero"/><path d="m76.17308 119.03469 18.37276 10.60752v-20.87764l-18.37276-10.60752z" fill="#fff" fill-rule="nonzero"/></g></g></svg>