<svg height="150" viewBox="0 0 149 150" width="149" xmlns="http://www.w3.org/2000/svg"><g fill="none" fill-rule="evenodd" transform="translate(.83978 .72833)"><path d="m.82676 0h146.43925c.45802 0 .82675.36873.82675.82676v146.68107c0 .45802-.36873.82675-.82675.82675h-146.43925c-.45803 0-.82676-.36873-.82676-.82675v-146.68107c0-.45803.36873-.82676.82676-.82676z" fill="#e11484"/><g fill="#fff"><g fill-rule="nonzero" transform="translate(47.80668 12.61547)"><path d="m0 12.61866v-12.50666h3.136c.82133333 0 1.512.28622 2.072.85866.57244.57244667.85866 1.27556.85866 2.10934v1.15733c0 1.15733333-.49155333 2.04089-1.47466 2.65067l1.904 5.73066h-1.904l-1.68-5.35733h-1.12v5.35733zm3.976-7.336c.112-.13688667.18666667-.29244.224-.46666.0498-.17422667.0747-.36711667.0747-.57867v-1.15733c0-.38578-.10577667-.69689333-.31733-.93334-.21155333-.24888667-.51022-.37333-.896-.37333h-1.26933v3.90133h1.25066c.37333333 0 .68444667-.13066667.93334-.392z"/><path d="m12.62175 10.82666v1.792h-5.35734v-12.50666h5.35734v1.64266h-3.584v3.696h3.136v1.69867h-3.136v3.67733z"/><path d="m16.31619.112c.8088933 0 1.49956.28622 2.072.85866.5848933.56.87734 1.24444667.87734 2.05334v6.496c0 .9208867-.28 1.6675533-.84 2.24-.56.57244-1.28178.85866-2.16534.85866h-2.78133v-12.50666zm1.176 9.408v-6.496c0-.34844667-.1306667-.64089333-.392-.87734-.2488867-.23644-.5537733-.35466-.91466-.35466h-.93334v9.16533h.87734c.90844 0 1.36266-.47911 1.36266-1.43733z"/><path d="m26.47553 11.312c-.27378.4231067-.6284467.7653267-1.064 1.02666-.4231133.2613333-.8960033.392-1.41867.392-.2613333 0-.5226667-.0373333-.784-.112-.2488867-.0746667-.48533-.168-.70933-.28-.224-.12444-.4231133-.2613267-.59734-.41066-.17422-.16178-.3048867-.32978-.392-.504-.1866667-.3484467-.31111-.6533367-.37333-.91467-.0498-.2613333-.0747-.54133333-.0747-.84v-9.55733h1.792v9.55733.24267c.0124667.0622.0249.12442.0373.18666.0124667.09956.1058.2737833.28.52267.1617733.224.4417733.336.84.336.3608867 0 .62844-.1306667.80266-.392.1866667-.27378.28-.57244667.28-.896v-9.55733h1.792v9.55733c0 .29866667-.0311.58489-.0933.85867-.0622.2737733-.1679767.5351067-.31733.784z"/><path d="m34.10346 9.464c0 .39822-.0249.74044-.0747 1.02666-.0373333.2862267-.16178.59734-.37334.93334-.112.17422-.25511.34222-.42933.504-.16178.1493333-.3484467.28622-.56.41066-.1991133.112-.41689.2053333-.65333.28-.2364467.0746667-.46667.112-.69067.112-.56 0-1.0702233-.11822-1.53067-.35466-.448-.2364467-.7777767-.5351133-.98933-.896-.2115533-.3608933-.3484433-.6968933-.41067-1.008-.0498-.3111133-.0747-.64711333-.0747-1.008v-6.44c0-.34844667.0311-.65956.0933-.93334.0746667-.28622.224-.59110667.448-.91466.224-.32356.5413333-.59734.952-.82134.4106667-.23644.84-.35466 1.288-.35466.8586667 0 1.5742233.28622 2.14667.85866.57244.56.85866 1.28178.85866 2.16534v.672h-1.77333v-.672c0-.34844667-.0995567-.64089333-.29867-.87734-.1866667-.23644-.4666667-.35466-.84-.35466-.34844 0-.6222167.11822-.82133.35466-.1866667.23644667-.28.52889333-.28.87734v6.92533c.0248667.1866667.1119767.3982233.26133.63467.1742267.2488867.46045.37333.85867.37333.4231133 0 .7031133-.112.84-.336s.2177767-.3857767.24267-.48533c.0248667-.112.0373-.26133333.0373-.448v-.63467h1.77333z"/><path d="m40.8236 10.82666v1.792h-5.35734v-12.50666h5.35734v1.64266h-3.584v3.696h3.136v1.69867h-3.136v3.67733z"/><path d="m44.51804.112c.8088933 0 1.49956.28622 2.072.85866.5848933.56.87734 1.24444667.87734 2.05334v6.496c0 .9208867-.28 1.6675533-.84 2.24-.56.57244-1.28178.85866-2.16534.85866h-2.78133v-12.50666zm1.176 9.408v-6.496c0-.34844667-.1306667-.64089333-.392-.87734-.2488867-.23644-.5537733-.35466-.91466-.35466h-.93334v9.16533h.87734c.90844 0 1.36266-.47911 1.36266-1.43733z"/><path d="m.26037 29.86564v-12.50667h1.77334v12.50667z"/><path d="m8.06904 29.86564-2.78133-7.59733v7.59733h-1.792v-12.50667h1.69866l2.76267 7.57867v-7.57867h1.792v12.50667z"/><path d="m16.21018 28.07364v1.792h-5.35733v-12.50667h5.35733v1.64267h-3.584v3.696h3.136v1.69867h-3.136v3.67733z"/><path d="m17.52511 28.89497c-.2862267-.3111067-.4791167-.6408833-.57867-.98933-.0871133-.3484467-.13067-.7591133-.13067-1.232v-6.216c0-.9084467.2862233-1.6675567.85867-2.27733.5848867-.6222267 1.31911-.93334 2.20267-.93334.79644 0 1.49955.2924467 2.10933.87734.5973333.5848867.896 1.2817733.896 2.09066v6.45867c0 .3608867-.0186667.6284433-.056.80267-.0248667.17422-.0746433.34844-.14933.52266l1.176.98934-.98934 1.19466-1.12-.896c-.5475533.448-1.2071067.672-1.97866.672-.4106667 0-.8213333-.0995533-1.232-.29866-.3982267-.1991133-.7342267-.4542267-1.008-.76534zm2.968-2.688.59733.46667v-6.216c0-.39822-.112-.73422-.336-1.008-.224-.28622-.53511-.42933-.93333-.42933-.2488933 0-.4666733.06222-.65334.18666-.1866667.1244467-.3235533.27378-.41066.448-.0746667.1742267-.1182233.3111167-.13067.41067-.0124667.0871133-.0187.21778-.0187.392v6.216.13067c0 .3608867.0995567.68444.29867.97066.2115533.27378.53511.4168933.97067.42934.12444 0 .2737733-.0373333.448-.112l-.82134-.69067z"/><path d="m29.71389 28.55897c-.27378.4231133-.6284467.7653367-1.064 1.02667-.4231133.2613333-.8960033.392-1.41867.392-.2613333 0-.5226667-.0373333-.784-.112-.2488867-.0746667-.48533-.168-.70933-.28-.224-.1244467-.42311-.2613367-.59733-.41067-.1742267-.1617733-.3048933-.3297733-.392-.504-.1866667-.34844-.3111133-.6533267-.37334-.91466-.0498-.2613333-.0747-.5413333-.0747-.84v-9.55734h1.792v9.55734.24266c.0124667.0622.0249.1244233.0373.18667.0124667.0995533.1058.2737767.28.52267.16178.224.44178.336.84.336.3608867 0 .6284433-.1306667.80267-.392.1866667-.27378.28-.5724467.28-.896v-9.55734h1.792v9.55734c0 .2986667-.0311.5848867-.0933.85866-.0622.27378-.1679767.5351133-.31733.784z"/><path d="m30.83601 29.86564 2.8-12.50667h1.54934l2.8 12.50667h-1.92267l-.504-2.688h-2.31467l-.52266 2.688zm2.72534-4.34933h1.68l-.84-4.55467z"/><path d="m44.25472 29.86564h-5.33867v-12.50667h1.792v10.71467h3.54667z"/><path d="m44.63888 29.86564v-12.50667h1.77334v12.50667z"/><path d="m49.67411 29.86564v-10.84533h-2.10933v-1.66134h6.02933v1.66134h-2.14666v10.84533z"/><path d="m54.17104 29.86564v-12.50667h1.77333v12.50667z"/><path d="m62.82413 28.07364v1.792h-5.35733v-12.50667h5.35733v1.64267h-3.584v3.696h3.136v1.69867h-3.136v3.67733z"/><path d="m65.06701 26.74831v.31733c0 .0871133.0062333.16178.0187.224.0248667.1244467.1182.30489.28.54133.1742267.2488933.48534.37334.93334.37334.2488867 0 .4791067-.04978.69066-.14934.21156-.112.3671167-.25511.46667-.42933.0746667-.1368867.1182233-.2675533.13067-.392.0248667-.1244467.0373-.2364467.0373-.336v-.168-.87733-.168c0-.27378-.0497767-.4853367-.14933-.63467-.09956-.16178-.32356-.3422233-.672-.54133-.2364467-.1244467-.65956-.29867-1.26934-.52267-.6097733-.224-1.1199933-.5786667-1.53066-1.064s-.616-1.14489-.616-1.97867v-.56c0-.8586667.28622-1.5928867.85866-2.20266.5848933-.6222267 1.2942267-.93334 2.128-.93334.8711133 0 1.5928933.30489 2.16534.91467.5848867.60978.87733 1.3502233.87733 2.22133v.56h-1.792v-.56c0-.0871067-.0062333-.1679933-.0187-.24266 0-.0746667-.0062333-.1431133-.0187-.20534-.0124667-.0622-.0435667-.1368667-.0933-.224-.0498-.0871067-.1182433-.1928833-.20533-.31733-.17422-.2488867-.4666633-.37333-.87733-.37333-.3608933 0-.65956.1306667-.896.392-.224.2613333-.336.5848867-.336.97066v.56.168c0 .2488933.0373333.4480067.112.59734.0871067.1368867.2862167.29244.59733.46666.0995533.0498.2488867.1182467.448.20534.2115533.0746667.4666633.168.76533.28.5973333.1991067 1.1324467.5537733 1.60534 1.064.4728867.51022.70936 1.18222.70936 2.016v1.008c0 .4355533-.0435867.8026633-.1307 1.10133-.0746667.2986667-.3297767.7342233-.76533 1.30667-.4355533.5475533-1.1635533.82133-2.184.82133-1.0826667 0-1.8666667-.3484433-2.352-1.04533-.4853333-.7093333-.728-1.4373333-.728-2.184v-.448h1.81067z"/></g><g fill-rule="nonzero" transform="translate(10.28702 12.05891)"><path d="m4.288 30.19466v-25.46l-4.288 3.216v-4.556l4.288-3.12666h4.24333v29.92666z"/><path d="m18.90725 30.28403c-3.15644-.56581-4.9877733-2.4120333-5.494-5.5387v-19.25133c.3871133-2.35244667 1.4144467-3.93067 3.082-4.73467 1.10178-.50622 2.2482267-.75933 3.43934-.75933.74444 0 1.51866.08933333 2.32266.268 1.072.65510667 1.9355567 1.35488333 2.59067 2.09933.6551133.71466667 1.10178 1.75689 1.34 3.12667v19.162c-.4168867 2.91822-1.96533 4.77933-4.64533 5.58333h-.84867c-.1488867.0298-.7444433.0447-1.78667.0447zm.44667-4.28803c1.31022 0 2.1439967-.5955567 2.50133-1.78667v-18.04533c-.1786667-.56578-.37222-1.02733667-.58066-1.38467-.5062267-.38711333-.99756-.58067-1.474-.58067-.5062267 0-.9231167.19355667-1.25067.58067-.3275533.35733333-.5806633.81889-.75933 1.38467v17.956c.1786667.9231067.6997767 1.54844 1.56333 1.876z"/></g><path d="m60.48834 79.8205v9.41211h28.20704v-9.41211zm0 17.41992v9.5625h28.20704v-9.5625zm14.07422-42.94141-14.01172 14.01172h28.02344zm-24.8125 24.8125-13.98242 13.98243 13.98242 13.98242zm49.6836.0586v27.76562l13.88281-13.88281zm-38.62305 38.96679 13.71094 13.71094 13.71094-13.71094z"/></g></g></svg>