<svg height="150" viewBox="0 0 149 150" width="149" xmlns="http://www.w3.org/2000/svg"><g fill="none" fill-rule="evenodd" transform="translate(.78705 .72833)"><path d="m.82675 0h146.4393c.458 0 .8267.36873.8267.82676v146.68107c0 .45802-.3687.82675-.8267.82675h-146.4393c-.45802 0-.82675-.36873-.82675-.82675v-146.68107c0-.45803.36873-.82676.82675-.82676z" fill="#cf8d2a"/><g fill="#fff"><g fill-rule="nonzero" transform="translate(46.97877 12.61547)"><path d="m.67696 12.61866v-12.50666h3.136c.82133333 0 1.512.28622 2.072.85866.57244667.57244667.85867 1.27556.85867 2.10934v1.15733c0 1.15733333-.49155667 2.04089-1.47467 2.65067l1.904 5.73066h-1.904l-1.68-5.35733h-1.12v5.35733zm3.976-7.336c.112-.13688667.18666667-.29244.224-.46666.0498-.17422667.0747-.36711667.0747-.57867v-1.15733c0-.38578-.10577667-.69689333-.31733-.93334-.21156-.24888667-.51022667-.37333-.896-.37333h-1.26934v3.90133h1.25067c.37333333 0 .68444333-.13066667.93333-.392z"/><path d="m13.01302 10.82666v1.792h-5.35734v-12.50666h5.35734v1.64266h-3.584v3.696h3.136v1.69867h-3.136v3.67733z"/><path d="m15.04099 9.50133v.31733c0 .08711333.0062333.16178.0187.224.0248667.1244467.1182.3048933.28.54134.17422.2488867.48533.37333.93333.37333.2488867 0 .47911-.0497767.69067-.14933.2115533-.112.3671067-.2551133.46666-.42934.0746667-.1368867.1182233-.2675533.13067-.392.0248667-.12444.0373-.23644.0373-.336v-.168-.87733-.168c0-.27378-.0497767-.48533667-.14933-.63467-.0995533-.16177333-.3235533-.34221667-.672-.54133-.2364467-.12444667-.6595567-.29867-1.26933-.52267-.60978-.224-1.1200033-.57866667-1.53067-1.064s-.616-1.14488667-.616-1.97866v-.56c0-.85866667.2862233-1.59289.85867-2.20267.5848867-.62222 1.29422-.93333 2.128-.93333.8711067 0 1.5928833.30488667 2.16533.91466.5848867.60978.87733 1.35022667.87733 2.22134v.56h-1.792v-.56c0-.08711333-.0062333-.16800333-.0187-.24267 0-.07466667-.0062333-.14311-.0187-.20533-.0124667-.0622-.0435667-.13686667-.0933-.224-.0498-.08711333-.1182467-.19289333-.20534-.31734-.17422-.24888667-.4666633-.37333-.87733-.37333-.3608867 0-.6595533.13066667-.896.392-.224.26133333-.336.58489-.336.97067v.56.168c0 .24888667.0373333.44799667.112.59733.0871133.13688667.2862233.29244333.59733.46667.09956.0498.2488933.11824333.448.20533.21156.07466667.4666733.168.76534.28.5973333.19911333 1.1324433.55378 1.60533 1.064s.70937 1.18222.70937 2.016v1.008c0 .43555333-.0435933.8026633-.1307 1.10133-.0746667.2986667-.32978.7342233-.76534 1.30667-.4355533.5475533-1.1635533.82133-2.184.82133-1.0826667 0-1.8666667-.3484433-2.352-1.04533-.4853333-.7093333-.728-1.4373333-.728-2.184v-.448h1.81067z"/><path d="m20.20175 12.61866v-12.50666h2.93067.0373c.3733333 0 .728.08088667 1.064.24266.336.14933333.6346667.34844667.896.59734.2613333.24888667.4666667.53510667.616.85866.16178.31111333.2488933.63467.26134.97067v1.81067.18666c0 .41066667-.08089.79644667-.24267 1.15734-.1493333.34844-.3546667.65332667-.616.91466-.2613333.26134-.5724433.46666667-.93333.616-.3484467.14933333-.72178.224-1.12.224h-.168-.93334v4.928zm3.78934-6.98133c.112-.112.1804433-.23022333.20533-.35467.0373333-.12444.056-.27999333.056-.46666v-1.848c0-.34844667-.1057767-.63467-.31733-.85867-.21156-.23644667-.4977833-.35467-.85867-.35467h-1.08267v4.23734h.93334c.2488867 0 .4479967-.01866667.59733-.056.16178-.0498.3173367-.14935667.46667-.29867z"/><path d="m27.42897 1.288c.28622-.39822667.6471067-.70934 1.08266-.93334.448-.23644.9084433-.35466 1.38133-.35466.4604467 0 .88978.09333333 1.288.28.4106667.18666667.75289.44177667 1.02667.76533s.4604467.65955333.56 1.008c.0995533.336.14933.70311.14933 1.10133v6.36534c0 .37333333-.0373333.70311-.112.98933-.0622.28622-.2115333.6035533-.448.952-.224.3484467-.5537767.6471133-.98933.896-.4231133.2488867-.8960033.37333-1.41867.37333-.2986667 0-.5848867-.0373333-.85866-.112-.27378-.0871067-.52889-.1991067-.76533-.336-.2364467-.1368867-.4480033-.29244-.63467-.46666-.17422-.1742267-.31111-.3546733-.41067-.54134-.1866667-.3857733-.2986667-.6968833-.336-.93333s-.056-.51022333-.056-.82133v-6.36534c0-.37333333.0373333-.70311.112-.98933.0871133-.29866667.2302267-.59111.42934-.87733zm3.47199.98933c-.23644-.34844667-.5599933-.52267-.97066-.52267-.21156 0-.4231167.06222333-.63467.18667-.1991133.112-.3422233.24266667-.42933.392-.0746667.14933333-.1244433.29866667-.14933.448-.0248667.14933333-.0373.27377667-.0373.37333v6.36534.20533c0 .0622.0062333.13064333.0187.20533.0124667.1244467.11202.32978.29866.616.1866667.2613333.49778.392.93334.392.224 0 .42311-.0497767.59733-.14933.1866667-.112.3173333-.2364433.392-.37333.0871133-.1493333.1431133-.2862233.168-.41067.0248667-.12444667.0373-.28622333.0373-.48533v-6.36534c0-.24888667-.0124333-.42310667-.0373-.52266-.0124667-.09956-.07469-.21778333-.18667-.35467z"/><path d="m38.7716 12.61866-2.78134-7.59733v7.59733h-1.792v-12.50666h1.69867l2.76267 7.57866v-7.57866h1.792v12.50666z"/><path d="m42.7867 9.50133v.31733c0 .08711333.0062333.16178.0187.224.0248667.1244467.1182.3048933.28.54134.1742267.2488867.48534.37333.93334.37333.2488867 0 .4791067-.0497767.69066-.14933.21156-.112.3671167-.2551133.46667-.42934.0746667-.1368867.1182233-.2675533.13067-.392.0248667-.12444.0373-.23644.0373-.336v-.168-.87733-.168c0-.27378-.0497767-.48533667-.14933-.63467-.09956-.16177333-.32356-.34221667-.672-.54133-.2364467-.12444667-.65956-.29867-1.26934-.52267-.6097733-.224-1.1199933-.57866667-1.53066-1.064s-.616-1.14488667-.616-1.97866v-.56c0-.85866667.28622-1.59289.85866-2.20267.5848933-.62222 1.2942267-.93333 2.128-.93333.8711133 0 1.5928933.30488667 2.16534.91466.5848867.60978.87733 1.35022667.87733 2.22134v.56h-1.792v-.56c0-.08711333-.0062333-.16800333-.0187-.24267 0-.07466667-.0062333-.14311-.0187-.20533-.0124667-.0622-.0435667-.13686667-.0933-.224-.0498-.08711333-.1182433-.19289333-.20533-.31734-.17422-.24888667-.4666633-.37333-.87733-.37333-.3608933 0-.65956.13066667-.896.392-.224.26133333-.336.58489-.336.97067v.56.168c0 .24888667.0373333.44799667.112.59733.0871067.13688667.2862167.29244333.59733.46667.0995533.0498.2488867.11824333.448.20533.2115533.07466667.4666633.168.76533.28.5973333.19911333 1.1324467.55378 1.60534 1.064.4728867.51022.70936 1.18222.70936 2.016v1.008c0 .43555333-.0435867.8026633-.1307 1.10133-.0746667.2986667-.3297767.7342233-.76533 1.30667-.4355533.5475533-1.1635533.82133-2.184.82133-1.0826667 0-1.8666667-.3484433-2.352-1.04533-.4853333-.7093333-.728-1.4373333-.728-2.184v-.448h1.81067z"/><path d="m48.11837 12.61866v-12.50666h1.77333v12.50666z"/><path d="m54.1028.112c.38578 0 .74667.08088667 1.08267.24266.3733333.17422667.7528867.45422667 1.13866.84.4106667.39822667.616 1.02045.616 1.86667v.952c0 .95822-.3795533 1.63022-1.13866 2.016.7591067.448 1.13866 1.14489 1.13866 2.09067v1.456c0 .8835533-.28622 1.6115533-.85866 2.184-.56.57244-1.28178.85866-2.16534.85866h-2.76266v-12.50666zm1.064 3.71466v-.76533c0-.38578-.112-.69067-.336-.91467-.224-.23644-.5226667-.35466-.896-.35466h-1.008v3.45333h1.064c.4106667 0 .7093333-.12444333.896-.37333.1866667-.26133333.28-.60978.28-1.04534zm0 5.74934v-1.456c0-.39822667-.112-.70934-.336-.93334-.2115533-.23644-.51022-.35466-.896-.35466h-1.008v4.01333h1.02667c.3608867 0 .65333-.1182233.87733-.35467.224-.2488867.336-.55377333.336-.91466z"/><path d="m63.2031 12.61866h-5.33866v-12.50666h1.792v10.71466h3.54666z"/><path d="m69.05687 10.82666v1.792h-5.35734v-12.50666h5.35734v1.64266h-3.584v3.696h3.136v1.69867h-3.136v3.67733z"/><path d="m6.3703 26.71097c0 .3982267-.0249.74045-.0747 1.02667-.03733333.28622-.16177667.59733-.37333.93333-.112.1742267-.25511333.3422267-.42934.504-.16177333.1493333-.34844.2862233-.56.41067-.19910667.112-.41688333.2053333-.65333.28s-.46667.112-.69067.112c-.56 0-1.07022-.1182233-1.53066-.35467-.448-.23644-.77778-.5351067-.98934-.896-.21155333-.3608867-.34844-.6968867-.41066-1.008-.0498-.3111067-.0747-.6471067-.0747-1.008v-6.44c0-.34844.0311-.65955.0933-.93333.07466667-.28622.224-.59111.448-.91467.224-.3235533.54133333-.59733.952-.82133.41066667-.2364467.84-.35467 1.288-.35467.85866667 0 1.57422333.2862233 2.14667.85867.57244667.56.85867 1.2817767.85867 2.16533v.672h-1.77334v-.672c0-.34844-.09955333-.6408833-.29866-.87733-.18666667-.2364467-.46666667-.35467-.84-.35467-.34844667 0-.62222667.1182233-.82134.35467-.18666667.2364467-.28.52889-.28.87733v6.92534c.02486667.1866667.11198.39822.26134.63466.17422.2488933.46044.37334.85866.37334.42311333 0 .70311333-.112.84-.336.13689333-.224.21778333-.38578.24267-.48534.02486667-.112.0373-.2613333.0373-.448v-.63466h1.77334z"/><path d="m8.32505 18.53497c.28622-.39822.64710667-.70933 1.08266-.93333.448-.2364467.9084467-.35467 1.38134-.35467.46044 0 .8897733.0933333 1.288.28.4106667.1866667.7528867.44178 1.02666.76534.27378.3235533.4604467.6595533.56 1.008.09956.336.14934.70311.14934 1.10133v6.36533c0 .3733333-.0373333.7031133-.112.98934-.0622.28622-.2115333.6035533-.448.952-.224.34844-.55378.6471067-.98934.896-.4231067.2488867-.8959933.37333-1.41866.37333-.2986667 0-.58489-.0373333-.85867-.112-.27378-.0871133-.52889-.1991133-.76533-.336-.23644667-.1368867-.44800333-.2924433-.63467-.46667-.17422-.17422-.31111-.3546633-.41067-.54133-.18666667-.38578-.29866667-.69689-.336-.93333-.03733333-.2364467-.056-.5102267-.056-.82134v-6.36533c0-.3733333.03733333-.70311.112-.98933.08711333-.2986667.23022667-.5911133.42934-.87734zm3.472.98934c-.2364467-.3484467-.5600033-.52267-.97067-.52267-.2115533 0-.42311.0622233-.63467.18667-.19910667.112-.34221667.2426667-.42933.392-.07466667.1493333-.12444333.2986667-.14933.448-.02486667.1493333-.0373.2737767-.0373.37333v6.36533.20534c0 .0622.00623333.1306433.0187.20533.01246667.1244467.11202333.32978.29867.616.1866667.2613333.4977767.392.93333.392.224 0 .42311-.0497767.59733-.14933.1866667-.112.3173333-.2364467.392-.37334.0871133-.1493333.1431133-.28622.168-.41066.0248667-.1244467.0373-.2862267.0373-.48534v-6.36533c0-.2488867-.0124333-.42311-.0373-.52267-.0124667-.0995533-.0746867-.2177733-.18666-.35466z"/><path d="m19.58222 29.86564-2.78133-7.59733v7.59733h-1.792v-12.50667h1.69867l2.76266 7.57867v-7.57867h1.792v12.50667z"/><path d="m23.51186 26.74831v.31733c0 .0871133.0062333.16178.0187.224.0248667.1244467.1182.30489.28.54133.17422.2488933.48533.37334.93333.37334.2488933 0 .4791167-.04978.69067-.14934.2115533-.112.36711-.25511.46667-.42933.0746667-.1368867.11822-.2675533.13066-.392.0248667-.1244467.0373-.2364467.0373-.336v-.168-.87733-.168c0-.27378-.04978-.4853367-.14934-.63467-.0995533-.16178-.3235533-.3422233-.672-.54133-.23644-.1244467-.65955-.29867-1.26933-.52267s-1.1200033-.5786667-1.53067-1.064-.616-1.14489-.616-1.97867v-.56c0-.8586667.2862233-1.5928867.85867-2.20266.5848867-.6222267 1.29422-.93334 2.128-.93334.8711133 0 1.59289.30489 2.16533.91467.5848933.60978.87734 1.3502233.87734 2.22133v.56h-1.792v-.56c0-.0871067-.0062333-.1679933-.0187-.24266 0-.0746667-.0062333-.1431133-.0187-.20534-.0124667-.0622-.0435667-.1368667-.0933-.224-.0498-.0871067-.1182433-.1928833-.20533-.31733-.1742267-.2488867-.4666733-.37333-.87734-.37333-.3608867 0-.6595533.1306667-.896.392-.224.2613333-.336.5848867-.336.97066v.56.168c0 .2488933.0373333.4480067.112.59734.0871133.1368867.2862267.29244.59734.46666.0995533.0498.2488867.1182467.448.20534.2115533.0746667.4666633.168.76533.28.5973333.1991067 1.1324433.5537733 1.60533 1.064.4728933.51022.70937 1.18222.70937 2.016v1.008c0 .4355533-.0435867.8026633-.1307 1.10133-.0746667.2986667-.3297767.7342233-.76533 1.30667-.43556.5475533-1.16356.82133-2.184.82133-1.0826667 0-1.8666667-.3484433-2.352-1.04533-.4853333-.7093333-.728-1.4373333-.728-2.184v-.448h1.81066z"/><path d="m34.08596 28.55897c-.27378.4231133-.6284467.7653367-1.064 1.02667-.4231133.2613333-.8960033.392-1.41867.392-.2613333 0-.5226667-.0373333-.784-.112-.2488867-.0746667-.48533-.168-.70933-.28-.224-.1244467-.42311-.2613367-.59733-.41067-.1742267-.1617733-.3048933-.3297733-.392-.504-.1866667-.34844-.3111133-.6533267-.37334-.91466-.0498-.2613333-.0747-.5413333-.0747-.84v-9.55734h1.792v9.55734.24266c.0124667.0622.0249.1244233.0373.18667.0124667.0995533.1058.2737767.28.52267.16178.224.44178.336.84.336.3608867 0 .6284433-.1306667.80267-.392.1866667-.27378.28-.5724467.28-.896v-9.55734h1.792v9.55734c0 .2986667-.0311.5848867-.0933.85866-.0622.27378-.1679767.5351133-.31733.784z"/><path d="m41.37327 29.86564v-7.616l-1.792 5.33867h-.896l-1.77333-5.33867v7.616h-1.792v-12.50667h1.68l2.37067 6.664 2.33333-6.664h1.64267v12.50667z"/><path d="m44.38941 29.86564v-12.50667h2.93066.0373c.3733333 0 .728.08089 1.064.24267.336.1493333.6346667.3484433.896.59733.2613333.2488933.4666667.5351167.616.85867.1617733.3111133.2488833.63467.26133.97067v1.81066.18667c0 .4106667-.08089.7964433-.24267 1.15733-.1493333.3484467-.3546667.6533367-.616.91467-.2613333.26133-.5724433.4666667-.93333.616-.3484467.1493333-.72178.224-1.12.224h-.168-.93333v4.928zm3.78933-6.98133c.112-.112.1804433-.2302233.20533-.35467.0373333-.1244467.056-.2800033.056-.46667v-1.848c0-.34844-.1057767-.63466-.31733-.85866-.2115533-.2364467-.4977767-.35467-.85867-.35467h-1.08266v4.23733h.93333c.2488867 0 .4479967-.0186667.59733-.056.16178-.0498.3173367-.1493533.46667-.29866z"/><path d="m52.64329 29.86564v-10.84533h-2.10934v-1.66134h6.02934v1.66134h-2.14667v10.84533z"/><path d="m57.20671 29.86564v-12.50667h1.77334v12.50667z"/><path d="m60.82338 18.53497c.2862267-.39822.6471167-.70933 1.08267-.93333.448-.2364467.9084433-.35467 1.38133-.35467.4604467 0 .88978.0933333 1.288.28.4106667.1866667.75289.44178 1.02667.76534.27378.3235533.4604467.6595533.56 1.008.0995533.336.14933.70311.14933 1.10133v6.36533c0 .3733333-.0373333.7031133-.112.98934-.0622.28622-.2115333.6035533-.448.952-.224.34844-.5537767.6471067-.98933.896-.4231133.2488867-.8960033.37333-1.41867.37333-.2986667 0-.5848867-.0373333-.85866-.112-.27378-.0871133-.5288933-.1991133-.76534-.336-.23644-.1368867-.4479933-.2924433-.63466-.46667-.1742267-.17422-.3111167-.3546633-.41067-.54133-.1866667-.38578-.2986667-.69689-.336-.93333-.0373333-.2364467-.056-.5102267-.056-.82134v-6.36533c0-.3733333.0373333-.70311.112-.98933.0871133-.2986667.2302233-.5911133.42933-.87734zm3.472.98934c-.23644-.3484467-.5599933-.52267-.97066-.52267-.21156 0-.4231167.0622233-.63467.18667-.1991133.112-.3422233.2426667-.42933.392-.0746667.1493333-.1244467.2986667-.14934.448-.0248667.1493333-.0373.2737767-.0373.37333v6.36533.20534c0 .0622.0062333.1306433.0187.20533.0124667.1244467.11202.32978.29866.616.1866667.2613333.49778.392.93334.392.224 0 .42311-.0497767.59733-.14933.1866667-.112.3173333-.2364467.392-.37334.0871133-.1493333.1431133-.28622.168-.41066.0248667-.1244467.0373-.2862267.0373-.48534v-6.36533c0-.2488867-.0124333-.42311-.0373-.52267-.0124667-.0995533-.07469-.2177733-.18667-.35466z"/><path d="m72.25148 29.86564-2.78134-7.59733v7.59733h-1.792v-12.50667h1.69867l2.76267 7.57867v-7.57867h1.792v12.50667z"/><path d="m0 47.11262 2.8-12.50667h1.54933l2.8 12.50667h-1.92266l-.504-2.688h-2.31467l-.52267 2.688zm2.72533-4.34934h1.68l-.84-4.55466z"/><path d="m12.54925 47.11262-2.78133-7.59734v7.59734h-1.792v-12.50667h1.69867l2.76266 7.57867v-7.57867h1.792v12.50667z"/><path d="m18.07635 34.60595c.8088867 0 1.4995533.2862233 2.072.85867.5848867.56.87733 1.2444433.87733 2.05333v6.496c0 .9208867-.28 1.6675533-.84 2.24s-1.2817767.85867-2.16533.85867h-2.78133v-12.50667zm1.176 9.408v-6.496c0-.3484467-.1306667-.64089-.392-.87733-.2488867-.2364467-.5537767-.35467-.91467-.35467h-.93333v9.16533h.87733c.9084467 0 1.36267-.47911 1.36267-1.43733z"/><path d="m24.00363 47.11262v-12.50667h2.93067.0373c.3733333 0 .728.08089 1.064.24267.336.1493333.6346667.3484433.896.59733s.4666667.53511.616.85867c.16178.3111067.2488933.63466.26134.97066v1.81067.18667c0 .4106667-.08089.7964433-.24267 1.15733-.1493333.3484467-.3546667.6533367-.616.91467-.2613333.26133-.5724433.4666667-.93333.616-.3484467.1493333-.72178.224-1.12.224h-.168-.93334v4.928zm3.78934-6.98134c.112-.112.1804433-.23022.20533-.35466.0373333-.1244467.056-.2800033.056-.46667v-1.848c0-.3484467-.1057767-.63467-.31733-.85867-.21156-.23644-.4977833-.35466-.85867-.35466h-1.08267v4.23733h.93334c.2488867 0 .4479967-.0186667.59733-.056.16178-.0498.3173367-.1493567.46667-.29867z"/><path d="m30.88697 47.11262v-12.50667h3.136c.8213333 0 1.512.2862233 2.072.85867.5724467.57244.85867 1.27555.85867 2.10933v1.15733c0 1.1573333-.4915567 2.04089-1.47467 2.65067l1.904 5.73067h-1.904l-1.68-5.35734h-1.12v5.35734zm3.976-7.336c.112-.1368933.1866667-.29245.224-.46667.0498-.17422.0747-.36711.0747-.57867v-1.15733c0-.38578-.10578-.69689-.31734-.93333-.2115533-.2488933-.51022-.37334-.896-.37334h-1.26933v3.90134h1.25067c.3733333 0 .6844433-.1306667.93333-.392z"/><path d="m38.27636 35.78195c.28622-.39822.6471067-.70933 1.08266-.93333.448-.2364467.9084467-.35467 1.38134-.35467.46044 0 .8897733.0933333 1.288.28.4106667.1866667.7528867.4417767 1.02666.76533.27378.32356.4604467.65956.56 1.008.09956.336.14934.7031133.14934 1.10134v6.36533c0 .3733333-.0373333.70311-.112.98933-.0622.2862267-.2115333.60356-.448.952-.224.3484467-.55378.6471133-.98934.896-.4231067.2488933-.8959933.37334-1.41866.37334-.2986667 0-.58489-.0373333-.85867-.112-.27378-.0871133-.52889-.1991133-.76533-.336-.2364467-.1368933-.4480033-.29245-.63467-.46667-.17422-.17422-.31111-.3546633-.41067-.54133-.1866667-.38578-.2986667-.6968933-.336-.93334-.0373333-.23644-.056-.5102167-.056-.82133v-6.36533c0-.3733333.0373333-.7031133.112-.98934.0871133-.2986667.2302267-.59111.42934-.87733zm3.472.98933c-.2364467-.34844-.5600033-.52266-.97067-.52266-.2115533 0-.42311.06222-.63467.18666-.1991067.112-.3422167.2426667-.42933.392-.0746667.1493333-.1244433.2986667-.14933.448-.0248667.1493333-.0373.27378-.0373.37334v6.36533.20533c0 .0622.0062333.1306467.0187.20534.0124667.12444.1120233.3297733.29867.616.1866667.2613333.4977767.392.93333.392.224 0 .42311-.04978.59733-.14934.1866667-.112.3173333-.2364433.392-.37333.0871133-.1493333.1431133-.2862233.168-.41067.0248667-.12444.0373-.2862167.0373-.48533v-6.36533c0-.2488933-.0124333-.4231167-.0373-.52267-.0124667-.0995533-.0746867-.2177767-.18666-.35467z"/><path d="m47.79753 34.60595c.8088933 0 1.49956.2862233 2.072.85867.5848933.56.87734 1.2444433.87734 2.05333v6.496c0 .9208867-.28 1.6675533-.84 2.24s-1.28178.85867-2.16534.85867h-2.78133v-12.50667zm1.176 9.408v-6.496c0-.3484467-.1306667-.64089-.392-.87733-.2488867-.2364467-.5537733-.35467-.91466-.35467h-.93334v9.16533h.87734c.90844 0 1.36266-.47911 1.36266-1.43733z"/><path d="m57.61504 45.80595c-.27378.4231133-.6284467.7653367-1.064 1.02667-.4231133.2613333-.8960033.392-1.41867.392-.2613333 0-.5226667-.0373333-.784-.112-.2488867-.0746667-.48533-.168-.70933-.28-.224-.1244467-.4231133-.2613367-.59734-.41067-.17422-.16178-.3048867-.32978-.392-.504-.1866667-.3484467-.31111-.6533367-.37333-.91467-.0498-.2613333-.0747-.5413333-.0747-.84v-9.55733h1.792v9.55733.24267c.0124667.0622.0249.1244233.0373.18667.0124667.0995533.1058.2737733.28.52266.1617733.224.4417733.336.84.336.3608867 0 .62844-.1306667.80266-.392.1866667-.2737733.28-.57244.28-.896v-9.55733h1.792v9.55733c0 .2986667-.0311.58489-.0933.85867s-.1679767.5351133-.31733.784z"/><path d="m65.17825 43.95795c0 .39822-.0249.7404433-.0747 1.02667-.0373333.28622-.16178.59733-.37334.93333-.112.17422-.25511.34222-.42933.504-.16178.1493333-.3484467.2862233-.56.41067-.1991133.112-.41689.2053333-.65333.28-.2364467.0746667-.46667.112-.69067.112-.56 0-1.0702233-.1182233-1.53067-.35467-.448-.2364467-.7777767-.5351133-.98933-.896s-.3484433-.6968867-.41067-1.008c-.0498-.3111133-.0747-.6471133-.0747-1.008v-6.44c0-.3484467.0311-.6595567.0933-.93333.0746667-.2862267.224-.5911167.448-.91467s.5413333-.59733.952-.82133c.4106667-.2364467.84-.35467 1.288-.35467.8586667 0 1.5742233.2862233 2.14667.85867.57244.56.85866 1.2817767.85866 2.16533v.672h-1.77333v-.672c0-.3484467-.0995567-.64089-.29867-.87733-.1866667-.2364467-.4666667-.35467-.84-.35467-.34844 0-.6222167.1182233-.82133.35467-.1866667.23644-.28.5288833-.28.87733v6.92533c.0248667.1866667.1119767.3982233.26133.63467.1742267.2488867.46045.37333.85867.37333.4231133 0 .7031133-.112.84-.336s.2177767-.3857767.24267-.48533c.0248667-.112.0373-.2613333.0373-.448v-.63467h1.77333z"/><path d="m67.56147 47.11262v-10.84534h-2.10933v-1.66133h6.02933v1.66133h-2.14667v10.84534z"/><path d="m72.21036 47.11262v-12.50667h1.77333v12.50667z"/><path d="m75.65611 35.78195c.28622-.39822.64711-.70933 1.08267-.93333.448-.2364467.9084433-.35467 1.38133-.35467.4604467 0 .88978.0933333 1.288.28.4106667.1866667.75289.4417767 1.02667.76533.2737733.32356.46044.65956.56 1.008.0995533.336.14933.7031133.14933 1.10134v6.36533c0 .3733333-.0373333.70311-.112.98933-.0622.2862267-.2115333.60356-.448.952-.224.3484467-.5537767.6471133-.98933.896-.4231133.2488933-.8960033.37334-1.41867.37334-.2986667 0-.58489-.0373333-.85867-.112-.2737733-.0871133-.5288833-.1991133-.76533-.336-.2364467-.1368933-.4480033-.29245-.63467-.46667-.17422-.17422-.3111067-.3546633-.41066-.54133-.1866667-.38578-.2986667-.6968933-.336-.93334-.0373333-.23644-.056-.5102167-.056-.82133v-6.36533c0-.3733333.0373333-.7031133.112-.98934.0871067-.2986667.2302167-.59111.42933-.87733zm3.472.98933c-.2364467-.34844-.5600033-.52266-.97067-.52266-.2115533 0-.4231067.06222-.63466.18666-.1991133.112-.3422267.2426667-.42934.392-.0746667.1493333-.1244433.2986667-.14933.448-.0248667.1493333-.0373.27378-.0373.37334v6.36533.20533c0 .0622.0062333.1306467.0187.20534.0124667.12444.1120233.3297733.29867.616.1866667.2613333.4977767.392.93333.392.224 0 .4231133-.04978.59734-.14934.1866667-.112.3173333-.2364433.392-.37333.0871067-.1493333.1431067-.2862233.168-.41067.0248667-.12444.0373-.2862167.0373-.48533v-6.36533c0-.2488933-.0124333-.4231167-.0373-.52267-.0124667-.0995533-.07469-.2177767-.18667-.35467z"/><path d="m86.91329 47.11262-2.78133-7.59734v7.59734h-1.792v-12.50667h1.69866l2.76267 7.57867v-7.57867h1.79199v12.50667z"/></g><g fill-rule="nonzero" transform="translate(11.00735 12.05891)"><path d="m4.288 30.19466v-25.46l-4.288 3.216v-4.556l4.288-3.12666h4.24334v29.92666z"/><path d="m24.84738 30.19466h-12.73v-3.93066l7.95067-15.45467c.3573333-.7146667.536-1.44422333.536-2.18867v-2.23333c0-.59555333-.2084433-1.10177667-.62533-1.51867-.4168933-.44666667-.9231167-.67-1.51867-.67-.536 0-1.0273333.19355667-1.474.58067-.4168867.38711333-.62533.86355667-.62533 1.42933v2.63534h-4.33267v-2.144c0-1.16133333.4317767-2.57578 1.29533-4.24334.8933333-1.63777333 2.68-2.45666 5.36-2.45666 1.6973333 0 3.1415567.64022 4.33267 1.92066 1.2208867 1.31022667 1.83133 2.79911667 1.83133 4.46667v2.72467c0 1.2208867-.3275533 2.4417733-.98266 3.66266l-6.7 13.17667h7.68266z"/></g><path d="m68.58135 101.32572-13.21631 4.39055c-.58404.19423-.73921.94763-.27945 1.35684l10.40893 9.25007c.45986.40885 1.18985.16722 1.31497-.43525l2.80739-13.64062c.12499-.6035-.45061-1.11577-1.03553-.92159zm28.6023-29.45053c-10.72611 0-17.68448 7.71578-21.1113 11.72885 0 0 2.62262 5.43343 4.08982 6.24185 0 0 6.81999-11.07031 17.02148-11.07031 3.59758 0 7.5673 1.17898 10.5293 3.83398s5.17773 6.78112 5.17773 13.70313c0 4.1643-1.37211 8.22433-3.73828 11.10351-2.36616 2.87918-5.57748 4.67774-10.03711 4.67774-4.80738 0-8.61675-1.37713-12.28125-4.3086-3.66449-2.93147-7.1286-7.54789-10.46289-13.93164-1.71102-3.27588-4.47155-8.58205-8.79297-13.19922-4.32141-4.61717-10.48182-8.63867-18.42578-8.63867-5.32164 0-10.85706 1.65562-15.09179 5.63086-4.23474 3.97524-6.91486 10.17671-6.9514483 18.29883-.0607317 13.63019 10.2888183 22.83398 22.1135583 22.83398 8.51054 0 14.23632-5.25 14.23632-5.25l-4.625-5.12109s-3.92609 3.4707-9.61132 3.4707c-8.47629 0-15.26106-5.57438-15.21485-15.90234.0299-6.68065 2.03609-10.72739 4.77539-13.29883 2.73931-2.57144 6.46679-3.76172 10.36914-3.76172 5.66999 0 9.88453 2.70916 13.38867 6.45313 3.50415 3.74396 6.01792 8.43079 7.71485 11.67968 3.60336 6.89891 7.52453 12.32878 12.26758 16.12305 4.74304 3.79427 10.36489 5.82227 16.59179 5.82227 6.44632 0 11.84691-2.91374 15.36719-7.19727s5.30859-9.83838 5.30859-15.48437c0-8.48665-3.02496-14.85314-7.47265-18.83985s-10.05791-5.59765-15.13477-5.59765z"/></g></g></svg>