<svg height="150" viewBox="0 0 150 150" width="150" xmlns="http://www.w3.org/2000/svg"><g fill="none" fill-rule="evenodd" transform="translate(.918877 .93456)"><path d="m.826754 0h146.439249c.45802 0 .82675.36873.82675.82675v146.68107c0 .45802-.36873.82675-.82675.82675h-146.439249c-.458022 0-.826754-.36873-.826754-.82675v-146.68107c0-.45802.368732-.82675.826754-.82675z" fill="#eb1c2d"/><g fill="#fff"><g fill-rule="nonzero" transform="translate(42.276346 13.13333)"><path d="m4.573333 12.61866-2.781333-7.59733v7.59733h-1.792v-12.50666h1.698666l2.762667 7.57866v-7.57866h1.792v12.50666z"/><path d="m8.183791 1.288c.28622267-.39822667.64711167-.70934 1.082667-.93334.448-.23644.9084443-.35466 1.381333-.35466.4604447 0 .8897767.09333333 1.287996.28.4106667.18666667.75289.44177667 1.02667.76533s.4604467.65955333.56 1.008c.0995533.336.14933.70311.14933 1.10133v6.36534c0 .37333333-.0373333.70311-.112.98933-.0622.28622-.2115333.6035533-.448.952-.224.3484467-.5537767.6471133-.98933.896-.4231107.2488867-.8959993.37333-1.418666.37333-.2986667 0-.5848887-.0373333-.858666-.112-.273778-.0871067-.52888933-.1991067-.765334-.336-.236444-.1368867-.44799933-.29244-.634666-.46666-.17422267-.1742267-.31111167-.3546733-.410667-.54134-.18666667-.3857733-.29866667-.6968833-.336-.93333s-.056-.51022333-.056-.82133v-6.36534c0-.37333333.03733333-.70311.112-.98933.08711133-.29866667.23022233-.59111.429333-.87733zm3.472.98933c-.236444-.34844667-.5599993-.52267-.970666-.52267-.211556 0-.4231117.06222333-.634667.18667-.19911133.112-.34222233.24266667-.429333.392-.07466667.14933333-.12444467.29866667-.149334.448-.02488667.14933333-.03733.27377667-.03733.37333v6.36534.20533c0 .0622.00622333.13064333.01867.20533.01244667.1244467.112002.32978.298666.616.18666667.2613333.497778.392.933334.392.224 0 .423111-.0497767.597333-.14933.1866667-.112.3173333-.2364433.392-.37333.0871127-.1493333.1431123-.2862233.167999-.41067.0248667-.12444667.0373-.28622333.0373-.48533v-6.36534c0-.24888667-.0124333-.42310667-.0373-.52266-.0124667-.09956-.0746887-.21778333-.186666-.35467z"/><path d="m0 29.86564v-12.50667h2.930666.03733c.37333267 0 .727999.08089 1.063999.24267.336.1493333.63466667.3484433.896.59733.26133333.2488933.46666667.5351167.616.85867.161778.3111133.24888933.63467.261334.97067v1.81066.18667c0 .4106667-.080889.7964433-.242667 1.15733-.14933333.3484467-.35466667.6533367-.616.91467-.26133333.26133-.57244433.4666667-.933333.616-.34844467.1493333-.721778.224-1.12.224h-.168-.933333v4.928zm3.789333-6.98133c.112-.112.18044433-.2302233.205333-.35467.03733333-.1244467.056-.2800033.056-.46667v-1.848c0-.34844-.10577767-.63466-.317333-.85866-.211556-.2364467-.49777833-.35467-.858667-.35467h-1.082666v4.23733h.933333c.24888867 0 .44799967-.0186667.597333-.056.161778-.0498.31733367-.1493533.466667-.29866z"/><path d="m7.907619 18.53497c.28622267-.39822.64711167-.70933 1.082667-.93333.448-.2364467.90844433-.35467 1.381333-.35467.4604447 0 .889778.0933333 1.288.28.4106653.1866667.752888.44178 1.026668.76534.27378.3235533.4604467.6595533.56 1.008.0995533.336.14933.70311.14933 1.10133v6.36533c0 .3733333-.0373333.7031133-.112.98934-.0622.28622-.2115333.6035533-.448.952-.224.34844-.5537767.6471067-.98933.896-.423112.2488867-.8960013.37333-1.418668.37333-.2986667 0-.58488867-.0373333-.858666-.112-.273778-.0871133-.52888933-.1991133-.765334-.336-.236444-.1368867-.44799933-.2924433-.634666-.46667-.17422267-.17422-.31111167-.3546633-.410667-.54133-.18666667-.38578-.29866667-.69689-.336-.93333-.03733333-.2364467-.056-.5102267-.056-.82134v-6.36533c0-.3733333.03733333-.70311.112-.98933.08711133-.2986667.23022233-.5911133.429333-.87734zm3.472.98934c-.2364447-.3484467-.56-.52267-.970666-.52267-.211556 0-.42311167.0622233-.634667.18667-.19911133.112-.34222233.2426667-.429333.392-.07466667.1493333-.12444467.2986667-.149334.448-.02488667.1493333-.03733.2737767-.03733.37333v6.36533.20534c0 .0622.00622333.1306433.01867.20533.01244667.1244467.112002.32978.298666.616.18666667.2613333.497778.392.933334.392.224 0 .423111-.0497767.597333-.14933.1866667-.112.3173333-.2364467.392-.37334.0871107-.1493333.1431107-.28622.168-.41066.0248867-.1244467.03733-.2862267.03733-.48534v-6.36533c0-.2488867-.0124433-.42311-.03733-.52267-.0124467-.0995533-.074669-.2177733-.186667-.35466z"/><path d="m16.888327 29.86564-2.55733-12.50667h1.86666l1.456 8.68 1.47467-8.68h1.904l-2.61333 12.50667z"/><path d="m27.474077 28.07364v1.792h-5.35733v-12.50667h5.35733v1.64267h-3.584v3.696h3.136v1.69867h-3.136v3.67733z"/><path d="m28.320677 29.86564v-12.50667h3.136c.8213333 0 1.512.2862233 2.072.85867.5724467.5724467.85867 1.2755567.85867 2.10933v1.15734c0 1.1573333-.4915567 2.0408867-1.47467 2.65066l1.904 5.73067h-1.904l-1.68-5.35733h-1.12v5.35733zm3.976-7.336c.112-.1368867.1866667-.2924433.224-.46667.0498-.17422.0747-.3671067.0747-.57866v-1.15734c0-.3857733-.10578-.6968833-.31734-.93333-.2115533-.2488867-.51022-.37333-.896-.37333h-1.26933v3.90133h1.25067c.3733333 0 .6844433-.1306667.93333-.392z"/><path d="m36.940457 29.86564v-10.84533h-2.10933v-1.66134h6.02933v1.66134h-2.14666v10.84533z"/><path d="m43.483417 29.86564v-5.376l-2.42667-7.13067h1.86667l1.456 4.89067 1.47467-4.89067h1.88533l-2.48267 7.13067v5.376z"/></g><path d="m4.288 29.92667v-25.46l-4.288 3.216v-4.556l4.288-3.12667h4.243334v29.92667z" fill-rule="nonzero" transform="translate(16.937281 12.50294)"/><path d="m31.98235 70.90254c0 2.2745303-1.8438747 4.1184-4.118405 4.1184-2.2745306 0-4.118406-1.8438694-4.118406-4.1184 0-1.0922699.4339005-2.1398037 1.2062516-2.9121556s1.8198845-1.2062544 2.9121544-1.2062544c1.0922698 0 2.1398029.4339029 2.9121538 1.2062548.7723509.7723518 1.2062512 1.8198854 1.2062512 2.9121552z"/><path d="m66.858343 73.18257c0 2.2745322-1.8438778 4.1184-4.11841 4.1184-2.2745283 0-4.1184-1.8438717-4.1184-4.1184 0-2.2745322 1.8438678-4.11841 4.1184-4.11841 1.0922706 0 2.139805.433901 2.912157 1.206253s1.206253 1.8198864 1.206253 2.912157z"/><path d="m89.954613 73.18257c0 2.2745322-1.8438778 4.1184-4.11841 4.1184-2.2745283 0-4.1184-1.8438717-4.1184-4.1184 0-2.2745322 1.8438678-4.11841 4.1184-4.11841 1.0922706 0 2.139805.433901 2.912157 1.206253s1.206253 1.8198864 1.206253 2.912157z"/><path d="m122.302143 70.99757c0 2.2745283-1.843872 4.1184-4.1184 4.1184-2.274532 0-4.11841-1.8438678-4.11841-4.1184 0-1.0922706.433901-2.139805 1.206253-2.912157s1.819886-1.206253 2.912157-1.206253c2.274532 0 4.1184 1.8438778 4.1184 4.11841z"/><path d="m47.695649 91.62129c0 1.8196245-1.4751005 3.29472-3.294725 3.29472-1.8196241 0-3.294724-1.4750959-3.294724-3.29472 0-.8738161.3471196-1.7118435.9650003-2.3297254.6178808-.6178819 1.4559076-.9650046 2.3297237-.9650046.8738163 0 1.7118433.3471223 2.3297243.9650042s.9650007 1.4559095.9650007 2.3297258z"/><path d="m106.028303 91.62129c0 .8738154-.347124 1.7118412-.965006 2.3297211s-1.455909.9649989-2.329724.9649989c-1.819623 0-3.29472-1.4750974-3.29472-3.29472 0-.8738154.347119-1.7118422.964999-2.329724s1.455906-.965006 2.329721-.965006c.873817 0 1.711845.3471204 2.329728.9650025.617882.617882.965002 1.4559103.965002 2.3297275z"/><path d="m117.360053 96.15152v16.85379c0 2.88369-4.24512 2.89661-4.24512 0v-29.5258c0-1.06759-1.45729-1.15565-1.45729 0v9.94753c0 2.35313-3.10464 2.45191-3.10464 0v-12.10178c0-2.47724 1.87488-4.62528 4.62529-4.62528h10.01089c2.75041 0 4.62529 2.14804 4.62529 4.62528v12.10178c0 2.45191-3.10464 2.35313-3.10464 0v-9.94753c0-1.15565-1.45729-1.06759-1.45729 0v29.5258c0 2.89661-4.24512 2.88369-4.24512 0v-16.85379c0-.93298-1.64737-.96453-1.64737 0z"/><path d="m22.721748 76.70021c-2.75041 0-4.625 2.14776-4.625 4.625v12.10156c0 .83151.358138 1.36277.830078 1.61914l-3.744141 18.71875c-.2196 1.09801 1.249233 1.33794 1.44336.27344l3.443359-18.88282c.612351-.18908 1.13086-.7679 1.13086-1.72851v-9.94727c0-1.15565 1.457031-1.06759 1.457031 0v29.52539c0 2.89661 4.246094 2.88369 4.246094 0v-16.85351c0-.96453 1.646484-.93298 1.646484 0v16.85351c0 2.88369 4.246094 2.89661 4.246094 0v-29.52539c0-1.06759 1.457031-1.15565 1.457031 0v9.94727c0 2.35313 3.103516 2.45191 3.103516 0v-12.10156c0-2.47724-1.87459-4.625-4.625-4.625z"/><path d="m62.010693 101.18758v11.93165c0 2.95484-4.1234 2.90619-4.1234 0v-11.93165h-3.952012l4.478942-15.89587c.20244-.71847-.97798-1.25089-1.27342-.30738l-2.7225 8.69443c-.643776 2.05593-3.403831 1.32643-2.678584-1.05387l3.425074-11.24128c.39114-1.28373 1.70041-2.28338 3.1177-2.28338h8.74084c1.41729 0 2.72656.99965 3.1177 2.28338l3.42507 11.24128c.72525 2.3803-2.03481 3.1098-2.67858 1.05387l-2.7225-8.69443c-.29544-.94351-1.47586-.41109-1.27342.30738l4.47894 15.89587h-3.95201v11.93165c0 2.90619-4.12341 2.95484-4.12341 0v-11.93165z"/><path d="m85.236043 101.18758v11.93165c0 2.95484-4.1234 2.90619-4.1234 0v-11.93165h-3.95201l4.47894-15.89587c.20244-.71847-.97798-1.25089-1.27342-.30738l-2.7225 8.69443c-.64377 2.05593-3.40383 1.32643-2.67858-1.05387l3.42507-11.24128c.39114-1.28373 1.70041-2.28338 3.1177-2.28338h8.74084c1.41729 0 2.72656.99965 3.1177 2.28338l3.42507 11.24128c.72525 2.3803-2.03481 3.1098-2.67858 1.05387l-2.7225-8.69443c-.29544-.94351-1.47586-.41109-1.27342.30738l4.47894 15.89587h-3.95201v11.93165c0 2.90619-4.12341 2.95484-4.12341 0v-11.93165z"/><path d="m103.525843 108.43292v4.96197c0 2.10709 2.89815 2.37078 2.89815 0v-11.83408c0-.62722.67204-.64583.90018-.0439l1.518 4.00512c.51698 1.36401 2.10676.7832 1.53689-.61476l-3.01098-7.38628c-.26121-.64079-.89914-1.16365-1.75645-1.16365h-5.63542c-.85731 0-1.49524.52286-1.75645 1.16365l-3.01098 7.38628c-.56987 1.39796 1.01991 1.97877 1.53689.61476l1.518-4.00512c.22814-.60193.90018-.58332.90018.0439v11.83408c0 2.37078 2.89815 2.10709 2.89815 0v-4.96197c0-.88013 1.46384-.94265 1.46384 0z"/><path d="m43.804704 108.73464v5.06913c0 1.82095-2.651544 2.12845-2.651544 0v-5.57604h-1.832685l1.598725-5.81001c.274838-.9988.06362-2.01834-.428926-2.8855l-2.768524-4.87416c-.829815-1.46094 1.189593-2.27427 1.832685-1.24779l2.027651 3.23645c.299693.47832.671558.42892 1.130806.42892h3.780504c.459248 0 .831113.0494 1.130806-.42892l2.027651-3.23645c.643092-1.02648 2.6625-.21315 1.832685 1.24779l-2.768524 4.87416c-.492549.86716-.703764 1.8867-.428926 2.8855l1.598725 5.81001h-1.832685v5.57604c0 2.12845-2.651544 1.82095-2.651544 0v-5.06913c0-1.1454-1.59688-1.11387-1.59688 0z"/></g></g></svg>