<svg height="150" viewBox="0 0 149 150" width="149" xmlns="http://www.w3.org/2000/svg"><g fill="none" fill-rule="evenodd" transform="translate(.81342 .93456)"><path d="m.82675 0h146.43925c.45802 0 .82675.36873.82675.82675v146.68107c0 .45802-.36873.82675-.82675.82675h-146.43925c-.45802 0-.82675-.36873-.82675-.82675v-146.68107c0-.45802.36873-.82675.82675-.82675z" fill="#ef402b"/><g fill="#fff"><g fill-rule="nonzero" transform="translate(44.00607 13.13333)"><path d="m5.58134 11.312c-.28622667.448-.65334.7964433-1.10134 1.04533s-.93955333.37333-1.47466.37333c-.47289333 0-.93334-.112-1.38134-.336-.43555333-.224-.77777333-.4977767-1.02666-.82133-.23644667-.336-.39822667-.672-.48534-1.008-.07466667-.336-.112-.71555667-.112-1.13867v-6.25333c0-.31111333.0311-.62222333.0933-.93333.08710667-.31111333.31732667-.75289333.69066-1.32534.38578-.60977333 1.14489333-.91466 2.27734-.91466.49777333 0 .96444.11822 1.4.35466.43555333.23644667.76533.52889333.98933.87734.23644667.336.38578.65955333.448.97066.07466667.29866667.11201.62222333.11201.97067v.52267h-1.77334v-.52267c0-.09955333-.00623333-.18666333-.0187-.26133 0-.08711333-.00623333-.16178-.0187-.224-.01246667-.112-.1058-.29244667-.28-.54134-.17422-.24888667-.46666333-.37333-.87733-.37333-.48533333 0-.80889.13066667-.97067.392-.14933333.26133333-.23644333.45422333-.26133.57867-.02486667.12444-.0373.26755-.0373.42933v6.25333.31734c0 .08710667.00623333.16177333.0187.224.01246667.0995533.1058.29244.28.57866.16178.2613333.47911333.392.952.392.48533333 0 .79644667-.1306667.93334-.392.07466667-.1368867.13066667-.2488867.168-.336.03733333-.0995533.06223333-.1866633.0747-.26133.02486667-.07466667.0373-.14933333.0373-.224 0-.08711333 0-.18667 0-.29867v-2.184h-1.43734v-1.568h3.21067v3.752c0 .26133333-.00623333.48533333-.0187.672-.01246667.1742267-.03736667.3297833-.0747.46667s-.08711333.2675533-.14934.392c-.0498.112-.11202.2302233-.18666.35467z"/><path d="m13.14425 10.82666v1.792h-5.35733v-12.50666h5.35733v1.64266h-3.584v3.696h3.136v1.69867h-3.136v3.67733z"/><path d="m18.37083 12.61866-2.78133-7.59733v7.59733h-1.792v-12.50666h1.69867l2.76266 7.57866v-7.57866h1.792v12.50666z"/><path d="m24.13123.112c.8088867 0 1.4995533.28622 2.072.85866.5848867.56.87733 1.24444667.87733 2.05334v6.496c0 .9208867-.28 1.6675533-.84 2.24-.56.57244-1.2817767.85866-2.16533.85866h-2.78133v-12.50666zm1.176 9.408v-6.496c0-.34844667-.1306667-.64089333-.392-.87734-.2488867-.23644-.5537767-.35466-.91467-.35466h-.93333v9.16533h.87733c.9084467 0 1.36267-.47911 1.36267-1.43733z"/><path d="m33.66918 10.82666v1.792h-5.35733v-12.50666h5.35733v1.64266h-3.584v3.696h3.136v1.69867h-3.136v3.67733z"/><path d="m34.58646 12.61866v-12.50666h3.136c.8213267 0 1.51199.28622 2.07199.85866.5724467.57244667.85867 1.27556.85867 2.10934v1.15733c0 1.15733333-.4915567 2.04089-1.47467 2.65067l1.904 5.73066h-1.904l-1.67999-5.35733h-1.12v5.35733zm3.97599-7.336c.112-.13688667.1866667-.29244.224-.46666.0498-.17422667.0747-.36711667.0747-.57867v-1.15733c0-.38578-.1057767-.69689333-.31733-.93334-.2115533-.24888667-.51022-.37333-.896-.37333h-1.26933v3.90133h1.25066c.3733333 0 .6844433-.13066667.93333-.392z"/><path d="m5.488 28.07364v1.792h-5.35733v-12.50667h5.35733v1.64267h-3.584v3.696h3.136v1.69867h-3.136v3.67733z"/><path d="m6.86126 28.89497c-.28622-.3111067-.47910667-.6408833-.57866-.98933-.08711333-.3484467-.13067-.7591133-.13067-1.232v-6.216c0-.9084467.28622333-1.6675567.85867-2.27733.58488667-.6222267 1.31910667-.93334 2.20266-.93334.7964467 0 1.49956.2924467 2.10934.87734.5973333.5848867.896 1.2817733.896 2.09066v6.45867c0 .3608867-.0186667.6284433-.056.80267-.0248667.17422-.0746467.34844-.14934.52266l1.176.98934-.98933 1.19466-1.12-.896c-.5475533.448-1.20711.672-1.97867.672-.41066667 0-.82133333-.0995533-1.232-.29866-.39822-.1991133-.73422-.4542267-1.008-.76534zm2.968-2.688.59734.46667v-6.216c0-.39822-.112-.73422-.336-1.008-.224-.28622-.53511333-.42933-.93334-.42933-.24888667 0-.46666333.06222-.65333.18666-.18666667.1244467-.32355667.27378-.41067.448-.07466667.1742267-.11822.3111167-.13066.41067-.01246667.0871133-.0187.21778-.0187.392v6.216.13067c0 .3608867.09955667.68444.29867.97066.21155333.27378.53510667.4168933.97066.42934.12444667 0 .27378-.0373333.448-.112l-.82133-.69067z"/><path d="m19.35218 28.55897c-.27378.4231133-.6284467.7653367-1.064 1.02667-.4231133.2613333-.8960033.392-1.41867.392-.2613333 0-.5226667-.0373333-.784-.112-.2488867-.0746667-.48533-.168-.70933-.28-.224-.1244467-.42311-.2613367-.59733-.41067-.1742267-.1617733-.3048933-.3297733-.392-.504-.1866667-.34844-.3111133-.6533267-.37334-.91466-.0498-.2613333-.0747-.5413333-.0747-.84v-9.55734h1.792v9.55734.24266c.0124667.0622.0249.1244233.0373.18667.0124667.0995533.1058.2737767.28.52267.16178.224.44178.336.84.336.3608867 0 .6284433-.1306667.80267-.392.1866667-.27378.28-.5724467.28-.896v-9.55734h1.792v9.55734c0 .2986667-.0311.5848867-.0933.85866-.0622.27378-.1679767.5351133-.31733.784z"/><path d="m20.15063 29.86564 2.8-12.50667h1.54933l2.8 12.50667h-1.92266l-.504-2.688h-2.31467l-.52267 2.688zm2.72533-4.34933h1.68l-.84-4.55467z"/><path d="m33.56934 29.86564h-5.33867v-12.50667h1.792v10.71467h3.54667z"/><path d="m34.07227 29.86564v-12.50667h1.77333v12.50667z"/><path d="m38.94566 29.86564v-10.84533h-2.10934v-1.66134h6.02934v1.66134h-2.14667v10.84533z"/><path d="m45.48861 29.86564v-5.376l-2.42666-7.13067h1.86666l1.456 4.89067 1.47467-4.89067h1.88533l-2.48266 7.13067v5.376z"/></g><path d="m7.86131 10.67533c.74444 0 1.48888333.2084467 2.23333.62534.77422.4168867 1.3399967.90822 1.69733 1.474.3871133.5657733.6402267 1.1613267.75934 1.78666.1488867.59556.22336 1.2357833.22336 1.92067v6.7c0 .6551133-.0297967 1.22089-.08933 1.69733-.0298.4466667-.19358 1.072-.49134 1.876-.2977733.804-1.0273267 1.5782233-2.18866 2.32267-1.10178.7444467-2.32267 1.11667-3.66267 1.11667-1.01244667 0-1.98022333-.2382233-2.90333-.71467-.92311333-.50622-1.63778-1.1166633-2.144-1.83133-.50622667-.7146667-.84867333-1.4442233-1.02734-2.18867s-.268-1.50378-.268-2.278v-.75933h4.37734v1.65266c0 .1488933.04466667.32756.134.536.08933333.2084467.20844333.4168933.35733.62534.14888667.1786667.35733.3424433.62533.49133.268.1191133.58066667.17867.938.17867.804 0 1.34-.2233333 1.608-.67s.41689-.7891133.44667-1.02734c.0298-.268.0447-.5508867.0447-.84866v-6.298c0-.1488933 0-.2828933 0-.402 0-.1488933-.0149-.2977833-.0447-.44667 0-.1488867-.04466667-.3275533-.134-.536-.05953333-.2084467-.17864333-.4020033-.35733-.58067-.14889333-.20844-.35734-.3722167-.62534-.49133-.23822-.1488867-.53599667-.22333-.89333-.22333-1.04222 0-1.74199667.536-2.09933 1.608h-3.84134v-15.99067h12.23867v3.97533h-8.39733v8.04c1.01244-.8933333 2.17377333-1.34 3.484-1.34z" fill-rule="nonzero" transform="translate(16.29837 12.50294)"/><path d="m62.76666 82.64747v5.88281h22.38281v-5.88281zm0 9.125v6.16016h22.38281v-6.16016zm26.47265-35.25586v6.39649h7.60938l-8.10547 8.10742c-4.2443092-3.3417103-9.4867184-5.1634535-14.88867-5.17383-13.3335081.0001707-24.14258 10.8090719-24.14258 24.14258.0145391 12.107091 8.9941024 22.331145 20.99805 23.9082v7.08399h-7.60938v7.11328h7.60938v6.94922h7.05859v-6.94922h7.55469v-7.11328h-7.55469v-7.19727c11.6558845-1.915139 20.2145597-11.982756 20.22852-23.79492-.0107175-4.9698868-1.5549451-9.8153727-4.42188-13.875l8.01758-8.01758v7.00391h6.56055v-18.58399zm-15.38476 15.91797c9.6949629.0005423 17.5541477 7.8597271 17.55469 17.55469.0005346 9.6957245-7.8589655 17.556098-17.55469 17.55664-4.6563891 0-9.1221384-1.849373-12.4147027-5.141937-3.2925644-3.2925646-5.1419373-7.7583139-5.1419373-12.414703.0005423-9.6957245 7.8609155-17.5552246 17.55664-17.55469z"/></g></g></svg>