<svg height="150" viewBox="0 0 149 150" width="149" xmlns="http://www.w3.org/2000/svg"><g fill="none" fill-rule="evenodd" transform="translate(.89253 .72833)"><path d="m.82676 0h146.43925c.45802 0 .82675.36873.82675.82676v146.68107c0 .45802-.36873.82675-.82675.82675h-146.43925c-.45803 0-.82676-.36873-.82676-.82675v-146.68107c0-.45803.36873-.82676.82676-.82676z" fill="#8f1838"/><g fill="#fff" fill-rule="nonzero"><g transform="translate(39.96797 12.95729)"><path d="m2.83733.112c.80888667 0 1.49955333.28622333 2.072.85867.58488667.56.87733 1.24444333.87733 2.05333v6.496c0 .9208933-.28 1.66756-.84 2.24-.56.5724467-1.28177667.85867-2.16533.85867h-2.78133v-12.50667zm1.176 9.408v-6.496c0-.34844-.13066667-.64088333-.392-.87733-.24888667-.23644667-.55377667-.35467-.91467-.35467h-.93333v9.16534h.87733c.90844667 0 1.36267-.4791133 1.36267-1.43734z"/><path d="m12.68429 10.82667v1.792h-5.35733v-12.50667h5.35733v1.64267h-3.584v3.696h3.136v1.69867h-3.136v3.67733z"/><path d="m19.23251 9.464c0 .39822667-.0249.74045-.0747 1.02667-.0373333.28622-.16178.59733-.37334.93333-.112.1742267-.25511.3422267-.42933.504-.16178.1493333-.3484467.2862233-.56.41067-.1991133.112-.41689.2053333-.65333.28-.2364467.0746667-.46667.112-.69067.112-.56 0-1.0702233-.1182233-1.53067-.35467-.448-.23644-.7777767-.5351067-.98933-.896-.2115533-.3608867-.3484433-.6968867-.41067-1.008-.0498-.3111067-.0747-.64710667-.0747-1.008v-6.44c0-.34844.0311-.65955.0933-.93333.0746667-.28622.224-.59111.448-.91467.224-.32355333.5413333-.59733.952-.82133.4106667-.23644667.84-.35467 1.288-.35467.8586667 0 1.5742233.28622333 2.14667.85867.57244.56.85866 1.28177667.85866 2.16533v.672h-1.77333v-.672c0-.34844-.0995567-.64088333-.29867-.87733-.1866667-.23644667-.4666667-.35467-.84-.35467-.34844 0-.6222167.11822333-.82133.35467-.1866667.23644667-.28.52889-.28.87733v6.92534c.0248667.1866667.1119767.39822.26133.63466.1742267.2488933.46045.37334.85867.37334.4231133 0 .7031133-.112.84-.336s.2177767-.38578.24267-.48534c.0248667-.112.0373-.26133333.0373-.448v-.63466h1.77333z"/><path d="m25.7921 10.82667v1.792h-5.35733v-12.50667h5.35733v1.64267h-3.584v3.696h3.136v1.69867h-3.136v3.67733z"/><path d="m31.4099 12.61867-2.78133-7.59733v7.59733h-1.792v-12.50667h1.69867l2.76266 7.57867v-7.57867h1.792v12.50667z"/><path d="m35.62246 12.61867v-10.84533h-2.10933v-1.66134h6.02933v1.66134h-2.14667v10.84533z"/><path d="m48.25981 12.61867-1.47466-7.616-1.43734 7.616h-1.66133l-1.81067-12.50667h1.904l.896 7.56 1.43734-7.56h1.32533l1.47467 7.56.896-7.56h1.88533l-1.75467 12.50667z"/><path d="m52.82936 1.288c.28622-.39822.64711-.70933 1.08267-.93333.4479933-.23644667.9084367-.35467 1.38133-.35467.46044 0 .8897733.09333333 1.288.28.4106667.18666667.7528867.44178 1.02666.76534.27378.32355333.4604467.65955333.56 1.008.09956.336.14934.70311.14934 1.10133v6.36533c0 .37333333-.0373333.7031133-.112.98934-.0622.28622-.2115333.6035533-.448.952-.224.34844-.55378.6471067-.98934.896-.4231067.2488867-.8959933.37333-1.41866.37333-.2986667 0-.58489-.0373333-.85867-.112-.27378-.0871133-.52889-.1991133-.76533-.336-.2364467-.1368867-.4480033-.2924433-.63467-.46667-.17422-.17422-.3111067-.3546633-.41066-.54133-.1866667-.38578-.2986667-.69689-.336-.93333-.0373333-.2364467-.056-.51022667-.056-.82134v-6.36533c0-.37333333.0373333-.70311.112-.98933.0871067-.29866667.2302167-.59111333.42933-.87734zm3.472.98934c-.2364467-.34844667-.5600033-.52267-.97067-.52267-.2115533 0-.42311.06222333-.63467.18667-.1991067.112-.3422167.24266667-.42933.392-.0746667.14933333-.1244433.29866667-.14933.448-.0248667.14933333-.0373.27377667-.0373.37333v6.36533.20534c0 .0622.0062333.13064333.0187.20533.0124667.1244467.1120233.32978.29867.616.1866667.2613333.4977767.392.93333.392.224 0 .42311-.0497767.59733-.14933.1866667-.112.3173333-.2364467.392-.37334.0871133-.1493333.1431133-.28622.168-.41066.0248667-.12444667.0373-.28622667.0373-.48534v-6.36533c0-.24888667-.0124333-.42311-.0373-.52267-.0124667-.09955333-.0746867-.21777333-.18666-.35466z"/><path d="m59.83636 12.61867v-12.50667h3.136c.8213333 0 1.512.28622333 2.072.85867.5724467.57244667.85867 1.27555667.85867 2.10933v1.15734c0 1.15733333-.4915567 2.04088667-1.47467 2.65066l1.904 5.73067h-1.904l-1.68-5.35733h-1.12v5.35733zm3.976-7.336c.112-.13688667.1866667-.29244333.224-.46667.0498-.17422.0747-.36710667.0747-.57866v-1.15734c0-.38577333-.10578-.69688333-.31734-.93333-.2115533-.24888667-.51022-.37333-.896-.37333h-1.26933v3.90133h1.25067c.3733333 0 .6844433-.13066667.93333-.392z"/><path d="m71.69787 12.61867-1.99733-5.58133-.98933 1.848v3.73333h-1.77334v-12.50667h1.792v5.74934l2.66934-5.74934h1.77333l-2.44533 4.984 2.87466 7.52267z"/><path d="m75.40084 12.61867 2.8-12.50667h1.54934l2.8 12.50667h-1.92267l-.504-2.688h-2.31467l-.52266 2.688zm2.72534-4.34933h1.68l-.84-4.55467z"/><path d="m88.03555 12.61867-2.78133-7.59733v7.59733h-1.792v-12.50667h1.69866l2.76267 7.57867v-7.57867h1.792v12.50667z"/><path d="m93.81278.112c.8088867 0 1.4995533.28622333 2.072.85867.5848867.56.87733 1.24444333.87733 2.05333v6.496c0 .9208933-.28 1.66756-.84 2.24-.56.5724467-1.2817767.85867-2.16533.85867h-2.78133v-12.50667zm1.176 9.408v-6.496c0-.34844-.1306667-.64088333-.392-.87733-.2488867-.23644667-.5537767-.35467-.91467-.35467h-.93333v9.16534h.87733c.9084467 0 1.36267-.4791133 1.36267-1.43734z"/><path d="m5.35733 28.07365v1.792h-5.35733v-12.50667h5.35733v1.64267h-3.584v3.696h3.136v1.69866h-3.136v3.67734z"/><path d="m11.82868 26.71098c0 .39822-.0249.7404433-.0747 1.02667-.0373333.28622-.16178.59733-.37334.93333-.112.17422-.25511.34222-.42933.504-.16178.1493333-.3484467.2862233-.56.41067-.1991133.112-.41689.2053333-.65333.28-.23644667.0746667-.46667.112-.69067.112-.56 0-1.07022333-.1182233-1.53067-.35467-.448-.2364467-.77777667-.5351133-.98933-.896s-.34844333-.6968867-.41067-1.008c-.0498-.3111133-.0747-.6471133-.0747-1.008v-6.44c0-.3484467.0311-.6595567.0933-.93333.07466667-.2862267.224-.5911167.448-.91467s.54133333-.59733.952-.82133c.41066667-.2364467.84-.35467 1.288-.35467.85866667 0 1.5742233.2862233 2.14667.85867.57244.56.85866 1.2817767.85866 2.16533v.672h-1.77333v-.672c0-.3484467-.09955667-.64089-.29867-.87733-.18666667-.2364467-.46666667-.35467-.84-.35467-.34844 0-.62221667.1182233-.82133.35467-.18666667.23644-.28.5288833-.28.87733v6.92533c.02486667.1866667.11197667.3982233.26133.63467.17422667.2488867.46045.37333.85867.37333.42311333 0 .70311333-.112.84-.336s.21777667-.3857767.24267-.48533c.0248667-.112.0373-.2613333.0373-.448v-.63467h1.77333z"/><path d="m13.66258 18.53498c.28622-.39822.64711-.70933 1.08267-.93333.448-.2364467.9084433-.35467 1.38133-.35467.4604467 0 .88978.0933333 1.288.28.4106667.1866667.75289.4417767 1.02667.76533.2737733.32356.46044.65956.56 1.008.0995533.336.14933.7031133.14933 1.10134v6.36533c0 .3733333-.0373333.70311-.112.98933-.0622.2862267-.2115333.60356-.448.952-.224.3484467-.5537767.6471133-.98933.896-.4231133.2488933-.8960033.37334-1.41867.37334-.2986667 0-.58489-.0373333-.85867-.112-.2737733-.0871133-.5288833-.1991133-.76533-.336-.2364467-.1368933-.4480033-.29245-.63467-.46667-.17422-.17422-.3111067-.3546633-.41066-.54133-.1866667-.38578-.2986667-.6968933-.336-.93334-.0373333-.23644-.056-.5102167-.056-.82133v-6.36533c0-.3733333.0373333-.7031133.112-.98934.0871067-.2986667.2302167-.59111.42933-.87733zm3.472.98933c-.2364467-.34844-.5600033-.52266-.97067-.52266-.2115533 0-.4231067.06222-.63466.18666-.1991133.112-.3422267.2426667-.42934.392-.0746667.1493333-.1244433.2986667-.14933.448-.0248667.1493333-.0373.27378-.0373.37334v6.36533.20533c0 .0622.0062333.1306467.0187.20534.0124667.12444.1120233.3297733.29867.616.1866667.2613333.4977767.392.93333.392.224 0 .4231133-.04978.59734-.14934.1866667-.112.3173333-.2364433.392-.37333.0871067-.1493333.1431067-.2862233.168-.41067.0248667-.12444.0373-.2862167.0373-.48533v-6.36533c0-.2488933-.0124333-.4231167-.0373-.52267-.0124667-.0995533-.07469-.2177767-.18667-.35467z"/><path d="m25.15539 29.86565-2.78133-7.59734v7.59734h-1.792v-12.50667h1.69866l2.76267 7.57867v-7.57867h1.792v12.50667z"/><path d="m28.47072 18.53498c.28622-.39822.64711-.70933 1.08267-.93333.448-.2364467.9084433-.35467 1.38133-.35467.4604467 0 .88978.0933333 1.288.28.4106667.1866667.75289.4417767 1.02667.76533.2737733.32356.46044.65956.56 1.008.0995533.336.14933.7031133.14933 1.10134v6.36533c0 .3733333-.0373333.70311-.112.98933-.0622.2862267-.2115333.60356-.448.952-.224.3484467-.5537767.6471133-.98933.896-.4231133.2488933-.8960033.37334-1.41867.37334-.2986667 0-.58489-.0373333-.85867-.112-.2737733-.0871133-.5288833-.1991133-.76533-.336-.2364467-.1368933-.4480033-.29245-.63467-.46667-.17422-.17422-.3111067-.3546633-.41066-.54133-.1866667-.38578-.2986667-.6968933-.336-.93334-.0373333-.23644-.056-.5102167-.056-.82133v-6.36533c0-.3733333.0373333-.7031133.112-.98934.0871067-.2986667.2302167-.59111.42933-.87733zm3.472.98933c-.2364467-.34844-.5600033-.52266-.97067-.52266-.2115533 0-.4231067.06222-.63466.18666-.1991133.112-.3422267.2426667-.42934.392-.0746667.1493333-.1244433.2986667-.14933.448-.0248667.1493333-.0373.27378-.0373.37334v6.36533.20533c0 .0622.0062333.1306467.0187.20534.0124667.12444.1120233.3297733.29867.616.1866667.2613333.4977767.392.93333.392.224 0 .4231133-.04978.59734-.14934.1866667-.112.3173333-.2364433.392-.37333.0871067-.1493333.1431067-.2862233.168-.41067.0248667-.12444.0373-.2862167.0373-.48533v-6.36533c0-.2488933-.0124333-.4231167-.0373-.52267-.0124667-.0995533-.07469-.2177767-.18667-.35467z"/><path d="m41.52268 29.86565v-7.616l-1.792 5.33866h-.896l-1.77333-5.33866v7.616h-1.792v-12.50667h1.68l2.37066 6.664 2.33334-6.664h1.64266v12.50667z"/><path d="m44.37649 29.86565v-12.50667h1.77333v12.50667z"/><path d="m53.5282 26.71098c0 .39822-.0249.7404433-.0747 1.02667-.0373333.28622-.1617767.59733-.37333.93333-.112.17422-.2551133.34222-.42934.504-.1617733.1493333-.34844.2862233-.56.41067-.1991067.112-.4168833.2053333-.65333.28s-.46667.112-.69067.112c-.56 0-1.07022-.1182233-1.53066-.35467-.448-.2364467-.77778-.5351133-.98934-.896-.2115533-.3608867-.34844-.6968867-.41066-1.008-.0498-.3111133-.0747-.6471133-.0747-1.008v-6.44c0-.3484467.0311-.6595567.0933-.93333.0746667-.2862267.224-.5911167.448-.91467s.5413333-.59733.952-.82133c.4106667-.2364467.84-.35467 1.288-.35467.8586667 0 1.5742233.2862233 2.14667.85867.5724467.56.85867 1.2817767.85867 2.16533v.672h-1.77334v-.672c0-.3484467-.0995533-.64089-.29866-.87733-.1866667-.2364467-.4666667-.35467-.84-.35467-.3484467 0-.6222267.1182233-.82134.35467-.1866667.23644-.28.5288833-.28.87733v6.92533c.0248667.1866667.11198.3982233.26134.63467.17422.2488867.46044.37333.85866.37333.4231133 0 .7031133-.112.84-.336.1368933-.224.2177833-.3857767.24267-.48533.0248667-.112.0373-.2613333.0373-.448v-.63467h1.77334z"/><path d="m62.3904 28.55898c-.28622.448-.65333.7964433-1.10133 1.04533-.448.2488933-.9395567.37334-1.47467.37334-.4728867 0-.93333-.112-1.38133-.336-.43556-.224-.7777833-.49778-1.02667-.82134-.2364467-.336-.3982233-.672-.48533-1.008-.0746667-.336-.112-.7155533-.112-1.13866v-6.25334c0-.3111067.0311-.6222167.0933-.93333.0871133-.3111133.3173367-.75289.69067-1.32533.3857733-.60978 1.1448833-.91467 2.27733-.91467.49778 0 .9644467.1182233 1.4.35467.4355533.23644.76533.5288833.98933.87733.2364467.336.38578.6595567.448.97067.0746667.2986667.112.62222.112.97066v.52267h-1.77333v-.52267c0-.0995533-.0062333-.1866633-.0187-.26133 0-.0871133-.0062333-.16178-.0187-.224-.0124667-.112-.1058-.2924433-.28-.54133-.1742267-.2488933-.4666733-.37334-.87734-.37334-.4853333 0-.8088867.1306667-.97066.392-.1493333.2613333-.2364467.4542233-.26134.57867-.0248667.1244467-.0373.2675567-.0373.42933v6.25334.31733c0 .0871133.0062333.16178.0187.224.0124667.0995533.1058.2924433.28.57867.1617733.2613333.4791067.392.952.392.4853333 0 .7964433-.1306667.93333-.392.0746667-.1368933.1306667-.2488933.168-.336.0373333-.09956.0622333-.1866733.0747-.26134.0248667-.0746667.0373-.1493333.0373-.224 0-.0871067 0-.18666 0-.29866v-2.184h-1.43733v-1.568h3.21067v3.752c0 .2613333-.0062433.4853333-.01871.672-.0124667.17422-.0373667.3297733-.0747.46666-.0373333.1368933-.08711.26756-.14933.392-.0498.112-.1120233.2302233-.18667.35467z"/><path d="m64.0939 29.86565v-12.50667h3.136c.8213333 0 1.512.2862233 2.072.85867.5724467.57244.85867 1.27555.85867 2.10933v1.15733c0 1.1573333-.4915567 2.04089-1.47467 2.65067l1.904 5.73067h-1.904l-1.68-5.35734h-1.12v5.35734zm3.976-7.336c.112-.1368933.1866667-.29245.224-.46667.0498-.17422.0747-.36711.0747-.57867v-1.15733c0-.38578-.1057767-.69689-.31733-.93333-.21156-.2488933-.5102267-.37334-.896-.37334h-1.26934v3.90134h1.25067c.3733333 0 .6844433-.1306667.93333-.392z"/><path d="m71.64813 18.53498c.28622-.39822.64711-.70933 1.08267-.93333.448-.2364467.9084433-.35467 1.38133-.35467.4604467 0 .88978.0933333 1.288.28.4106667.1866667.75289.4417767 1.02667.76533.2737733.32356.46044.65956.56 1.008.0995533.336.14933.7031133.14933 1.10134v6.36533c0 .3733333-.0373333.70311-.112.98933-.0622.2862267-.2115333.60356-.448.952-.224.3484467-.5537767.6471133-.98933.896-.4231133.2488933-.8960033.37334-1.41867.37334-.2986667 0-.58489-.0373333-.85867-.112-.2737733-.0871133-.5288833-.1991133-.76533-.336-.2364467-.1368933-.4480033-.29245-.63467-.46667-.17422-.17422-.3111067-.3546633-.41066-.54133-.1866667-.38578-.2986667-.6968933-.336-.93334-.0373333-.23644-.056-.5102167-.056-.82133v-6.36533c0-.3733333.0373333-.7031133.112-.98934.0871067-.2986667.2302167-.59111.42933-.87733zm3.472.98933c-.2364467-.34844-.5600033-.52266-.97067-.52266-.2115533 0-.4231067.06222-.63466.18666-.1991133.112-.3422267.2426667-.42934.392-.0746667.1493333-.1244433.2986667-.14933.448-.0248667.1493333-.0373.27378-.0373.37334v6.36533.20533c0 .0622.0062333.1306467.0187.20534.0124667.12444.1120233.3297733.29867.616.1866667.2613333.4977767.392.93333.392.224 0 .4231133-.04978.59734-.14934.1866667-.112.3173333-.2364433.392-.37333.0871067-.1493333.1431067-.2862233.168-.41067.0248667-.12444.0373-.2862167.0373-.48533v-6.36533c0-.2488933-.0124333-.4231167-.0373-.52267-.0124667-.0995533-.07469-.2177767-.18667-.35467z"/><path d="m84.4555 29.86565-1.47467-7.616-1.43733 7.616h-1.66133l-1.81067-12.50667h1.904l.896 7.56 1.43733-7.56h1.32534l1.47466 7.56.896-7.56h1.88534l-1.75467 12.50667z"/><path d="m90.39355 29.86565v-10.84534h-2.10934v-1.66133h6.02934v1.66133h-2.14667v10.84534z"/><path d="m95.1926 29.86565v-12.50667h1.77334v5.33867h2.27733v-5.33867h1.77333v12.50667h-1.77333v-5.58134h-2.27733v5.58134z"/></g><path d="m12.77467 24.03066v.31267c0 .6551133-.14889 1.3400033-.44667 2.05467s-.71467 1.3846667-1.25067 2.01c-.536.5955533-1.17622 1.0868867-1.92066 1.474-.74444667.3871067-1.54844667.58066-2.412.58066h-.134c-.62533333 0-1.25066667-.0893333-1.876-.268-.59556-.1786667-1.16134-.4168867-1.69734-.71466-.50622-.29778-.95288667-.6253367-1.34-.98267-.38710667-.3871133-.66999333-.7891133-.84866-1.206-.38711333-.83378-.62533667-1.51867-.71467-2.05467-.08933333-.5657733-.134-1.13155-.134-1.69733v-5.226c0-1.5484467.71466667-2.85867 2.144-3.93067-1.42933333-1.072-2.144-2.546-2.144-4.422v-4.02c0-.62533333.10422333-1.206.31267-1.742.20844-.56577333.74444-1.41444 1.608-2.546.83377333-1.10177333 2.36732667-1.65266 4.60066-1.65266.804 0 1.59311333.17866667 2.36734.536.74444.35733333 1.5782167 1.01244333 2.50133 1.96533.9231133.92311333 1.38467 2.23333667 1.38467 3.93067v3.84133c0 1.7271133-.7146667 3.09689-2.144 4.10933 1.4293333 1.0422267 2.144 2.4566733 2.144 4.24334zm-6.34267-19.78733c-.62533333 0-1.14644333.22333333-1.56333.67-.41689333.41688667-.62534.92311-.62534 1.51867v3.84133c0 .6848867.17866667 1.2804433.536 1.78667.38711333.47644.92311333.71466 1.608.71466.74444667 0 1.28044667-.2233333 1.608-.67.35733333-.47644.536-1.0868833.536-1.83133v-3.84133c0-.56578-.20844333-1.07200333-.62533-1.51867-.38711333-.44666667-.87844667-.67-1.474-.67zm0 11.792c-.65511333 0-1.19111333.2233333-1.608.67-.38711333.4168867-.58067.9528867-.58067 1.608v5.226c0 .77422.17866667 1.4144433.536 1.92067.35733333.47644.938.71466 1.742.71466.77422667 0 1.29534-.25311 1.56334-.75933.29777333-.536.44666-1.1613333.44666-1.876v-5.226c0-.6551133-.19355333-1.1911133-.58066-1.608-.35733333-.4466667-.86355667-.67-1.51867-.67z" transform="translate(15.3668 12.05891)"/><path d="m109.28911 54.3321793c-.0615-.0005893-.12555.0060407-.18945.0234407l-12.21875 3.27344c-.51147.13708-.68202.77692-.30664 1.15039l2.64062 2.64063-26.08984 26.10742-10.38477-10.38281c-.97632-.97592-2.55883-.97592-3.53515 0l-20.9668 20.96679 3.53711 3.53516 19.19726-19.19922 10.38282 10.38477c.97655.97722 2.56056.97722 3.53711 0l27.85742-27.87696 2.76758 2.76758c.13135.13139.31033.20396.49609.20117.3071-.004.57426-.2113.6543-.50781l3.27343-12.21875c.12041-.44734-.22212-.86082-.65234-.8652407zm-6.53906 17.6953507-16.46094 16.47266v40.23828c0 1.058.85215 1.9082 1.91016 1.9082h14c1.058 0 1.91015-.8502 1.91015-1.9082v-55.35157zm-42.26758 17.98242-17.81836 17.82031v20.90821c0 1.058.85216 1.9082 1.91016 1.9082h14c1.058 0 1.9082-.8502 1.9082-1.9082zm21.8125 2.48633-7.40234 7.4082c-.97655.97722-2.56056.97722-3.53711 0l-6.87891-6.88086v35.71485c0 1.058.85216 1.9082 1.91016 1.9082h14c1.058 0 1.9082-.8502 1.9082-1.9082z"/><path d="m109.28911 54.3321793c-.0615-.0005893-.12555.0060407-.18945.0234407l-12.21875 3.27344c-.51147.13708-.68202.77692-.30664 1.15039l2.64062 2.64063-26.08984 26.10742-10.38477-10.38281c-.97632-.97592-2.55883-.97592-3.53515 0l-20.9668 20.96679 3.53711 3.53516 19.19726-19.19922 10.38282 10.38477c.97655.97722 2.56056.97722 3.53711 0l27.85742-27.87696 2.76758 2.76758c.13135.13139.31033.20396.49609.20117.3071-.004.57426-.2113.6543-.50781l3.27343-12.21875c.12041-.44734-.22212-.86082-.65234-.8652407z"/></g></g></svg>