<svg height="150" viewBox="0 0 149 150" width="149" xmlns="http://www.w3.org/2000/svg"><g fill="none" fill-rule="evenodd" transform="translate(.81342 .72833)"><path d="m.82675 0h146.43925c.45802 0 .82675.36873.82675.82676v146.68107c0 .45802-.36873.82675-.82675.82675h-146.43925c-.45802 0-.82675-.36873-.82675-.82675v-146.68107c0-.45803.36873-.82676.82675-.82676z" fill="#f99d26"/><g fill="#fff" fill-rule="nonzero"><g transform="translate(40.84688 12.61547)"><path d="m1.81069 9.50133v.31733c0 .08711333.00623333.16178.0187.224.02486667.1244467.1182.3048933.28.54134.17422667.2488867.48534.37333.93334.37333.24888667 0 .47910667-.0497767.69066-.14933.21156-.112.36711667-.2551133.46667-.42934.07466667-.1368867.11822333-.2675533.13067-.392.02486667-.12444.0373-.23644.0373-.336v-.168-.87733-.168c0-.27378-.04977667-.48533667-.14933-.63467-.09956-.16177333-.32356-.34221667-.672-.54133-.23644667-.12444667-.65956-.29867-1.26934-.52267-.60977333-.224-1.11999333-.57866667-1.53066-1.064s-.616-1.14488667-.616-1.97866v-.56c0-.85866667.28622-1.59289.85866-2.20267.58489333-.62222 1.29422667-.93333 2.128-.93333.87111333 0 1.59289333.30488667 2.16534.91466.58488667.60978.87733 1.35022667.87733 2.22134v.56h-1.792v-.56c0-.08711333-.00623333-.16800333-.0187-.24267 0-.07466667-.00623333-.14311-.0187-.20533-.01246667-.0622-.04356667-.13686667-.0933-.224-.0498-.08711333-.11824333-.19289333-.20533-.31734-.17422-.24888667-.46666333-.37333-.87733-.37333-.36089333 0-.65956.13066667-.896.392-.224.26133333-.336.58489-.336.97067v.56.168c0 .24888667.03733333.44799667.112.59733.08710667.13688667.28621667.29244333.59733.46667.09955333.0498.24888667.11824333.448.20533.21155333.07466667.46666333.168.76533.28.59733333.19911333 1.13244667.55378 1.60534 1.064.47288667.51022.70936 1.18222.70936 2.016v1.008c0 .43555333-.04358667.8026633-.1307 1.10133-.07466667.2986667-.32977667.7342233-.76533 1.30667-.43555333.5475533-1.16355333.82133-2.184.82133-1.08266667 0-1.86666667-.3484433-2.352-1.04533-.48533333-.7093333-.728-1.4373333-.728-2.184v-.448h1.81067z"/><path d="m12.79133 11.312c-.2737733.4231067-.62844.7653267-1.064 1.02666-.4231067.2613333-.8959933.392-1.41866.392-.2613333 0-.52266667-.0373333-.784-.112-.24889333-.0746667-.48534-.168-.70934-.28-.224-.12444-.42311-.2613267-.59733-.41066-.17422-.16178-.30488667-.32978-.392-.504-.18666667-.3484467-.31111-.6533367-.37333-.91467-.0498-.2613333-.0747-.54133333-.0747-.84v-9.55733h1.792v9.55733.24267c.01246667.0622.0249.12442.0373.18666.01246667.09956.1058.2737833.28.52267.16178.224.44178.336.84.336.3608933 0 .62845-.1306667.80267-.392.1866667-.27378.28-.57244667.28-.896v-9.55733h1.792v9.55733c0 .29866667-.0311.58489-.0933.85867-.0622.2737733-.16798.5351067-.31734.784z"/><path d="m15.82823 9.50133v.31733c0 .08711333.0062333.16178.0187.224.0248667.1244467.1182.3048933.28.54134.1742267.2488867.48534.37333.93334.37333.2488867 0 .4791067-.0497767.69066-.14933.21156-.112.3671167-.2551133.46667-.42934.0746667-.1368867.1182233-.2675533.13067-.392.0248667-.12444.0373-.23644.0373-.336v-.168-.87733-.168c0-.27378-.0497767-.48533667-.14933-.63467-.09956-.16177333-.32356-.34221667-.672-.54133-.2364467-.12444667-.65956-.29867-1.26934-.52267-.6097733-.224-1.1199933-.57866667-1.53066-1.064s-.616-1.14488667-.616-1.97866v-.56c0-.85866667.28622-1.59289.85866-2.20267.5848933-.62222 1.2942267-.93333 2.128-.93333.8711133 0 1.5928933.30488667 2.16534.91466.5848867.60978.87733 1.35022667.87733 2.22134v.56h-1.792v-.56c0-.08711333-.0062333-.16800333-.0187-.24267 0-.07466667-.0062333-.14311-.0187-.20533-.0124667-.0622-.0435667-.13686667-.0933-.224-.0498-.08711333-.1182433-.19289333-.20533-.31734-.17422-.24888667-.4666633-.37333-.87733-.37333-.3608933 0-.65956.13066667-.896.392-.224.26133333-.336.58489-.336.97067v.56.168c0 .24888667.0373333.44799667.112.59733.0871067.13688667.2862167.29244333.59733.46667.0995533.0498.2488867.11824333.448.20533.2115533.07466667.4666633.168.76533.28.5973333.19911333 1.1324467.55378 1.60534 1.064.4728867.51022.70936 1.18222.70936 2.016v1.008c0 .43555333-.0435867.8026633-.1307 1.10133-.0746667.2986667-.3297767.7342233-.76533 1.30667-.4355533.5475533-1.1635533.82133-2.184.82133-1.0826667 0-1.8666667-.3484433-2.352-1.04533-.4853333-.7093333-.728-1.4373333-.728-2.184v-.448h1.81067z"/><path d="m22.59116 12.61866v-10.84533h-2.10933v-1.66133h6.02933v1.66133h-2.14666v10.84533z"/><path d="m25.59224 12.61866 2.8-12.50666h1.54934l2.8 12.50666h-1.92267l-.504-2.688h-2.31467l-.52266 2.688zm2.72534-4.34933h1.68l-.84-4.55467z"/><path d="m33.65362 12.61866v-12.50666h1.77333v12.50666z"/><path d="m41.34143 12.61866-2.78133-7.59733v7.59733h-1.792v-12.50666h1.69866l2.76267 7.57866v-7.57866h1.792v12.50666z"/><path d="m43.29409 12.61866 2.8-12.50666h1.54934l2.8 12.50666h-1.92267l-.504-2.688h-2.31467l-.52266 2.688zm2.72534-4.34933h1.68l-.84-4.55467z"/><path d="m54.06309.112c.38578 0 .74667.08088667 1.08267.24266.3733333.17422667.75289.45422667 1.13867.84.4106667.39822667.616 1.02045.616 1.86667v.952c0 .95822-.3795567 1.63022-1.13867 2.016.7591133.448 1.13867 1.14489 1.13867 2.09067v1.456c0 .8835533-.2862233 1.6115533-.85867 2.184-.56.57244-1.2817767.85866-2.16533.85866h-2.76267v-12.50666zm1.064 3.71466v-.76533c0-.38578-.112-.69067-.336-.91467-.224-.23644-.5226667-.35466-.896-.35466h-1.008v3.45333h1.064c.4106667 0 .7093333-.12444333.896-.37333.1866667-.26133333.28-.60978.28-1.04534zm0 5.74934v-1.456c0-.39822667-.112-.70934-.336-.93334-.2115533-.23644-.51022-.35466-.896-.35466h-1.008v4.01333h1.02667c.3608867 0 .65333-.1182233.87733-.35467.224-.2488867.336-.55377333.336-.91466z"/><path d="m63.17199 12.61866h-5.33867v-12.50666h1.792v10.71466h3.54667z"/><path d="m69.03434 10.82666v1.792h-5.35734v-12.50666h5.35734v1.64266h-3.584v3.696h3.136v1.69867h-3.136v3.67733z"/><path d="m77.13143 9.464c0 .39822-.0249.74044-.0747 1.02666-.0373333.2862267-.16178.59734-.37334.93334-.112.17422-.25511.34222-.42933.504-.16178.1493333-.3484467.28622-.56.41066-.1991133.112-.41689.2053333-.65333.28-.2364467.0746667-.46667.112-.69067.112-.56 0-1.0702233-.11822-1.53067-.35466-.448-.2364467-.7777767-.5351133-.98933-.896-.2115533-.3608933-.3484433-.6968933-.41067-1.008-.0498-.3111133-.0747-.64711333-.0747-1.008v-6.44c0-.34844667.0311-.65956.0933-.93334.0746667-.28622.224-.59110667.448-.91466.224-.32356.5413333-.59734.952-.82134.4106667-.23644.84-.35466 1.288-.35466.8586667 0 1.5742233.28622 2.14667.85866.57244.56.85866 1.28178.85866 2.16534v.672h-1.77333v-.672c0-.34844667-.0995567-.64089333-.29867-.87734-.1866667-.23644-.4666667-.35466-.84-.35466-.34844 0-.6222167.11822-.82133.35466-.1866667.23644667-.28.52889333-.28.87734v6.92533c.0248667.1866667.1119767.3982233.26133.63467.1742267.2488867.46045.37333.85867.37333.4231133 0 .7031133-.112.84-.336s.2177767-.3857767.24267-.48533c.0248667-.112.0373-.26133333.0373-.448v-.63467h1.77333z"/><path d="m78.1921 12.61866v-12.50666h1.77334v12.50666z"/><path d="m82.86477 12.61866v-10.84533h-2.10934v-1.66133h6.02934v1.66133h-2.14667v10.84533z"/><path d="m87.54297 12.61866v-12.50666h1.77333v12.50666z"/><path d="m95.65222 10.82666v1.792h-5.35733v-12.50666h5.35733v1.64266h-3.584v3.696h3.136v1.69867h-3.136v3.67733z"/><path d="m98.01595 9.50133v.31733c0 .08711333.0062333.16178.0187.224.0248667.1244467.1182.3048933.28.54134.17422.2488867.48533.37333.93333.37333.2488867 0 .47911-.0497767.69067-.14933.211553-.112.367107-.2551133.46666-.42934.074667-.1368867.118223-.2675533.13067-.392.024867-.12444.0373-.23644.0373-.336v-.168-.87733-.168c0-.27378-.049777-.48533667-.14933-.63467-.099553-.16177333-.323553-.34221667-.672-.54133-.2364467-.12444667-.6595567-.29867-1.26933-.52267-.60978-.224-1.1200033-.57866667-1.53067-1.064s-.616-1.14488667-.616-1.97866v-.56c0-.85866667.2862233-1.59289.85867-2.20267.5848867-.62222 1.29422-.93333 2.128-.93333.871107 0 1.592883.30488667 2.16533.91466.584887.60978.87733 1.35022667.87733 2.22134v.56h-1.792v-.56c0-.08711333-.006233-.16800333-.0187-.24267 0-.07466667-.006233-.14311-.0187-.20533-.012467-.0622-.043567-.13686667-.0933-.224-.0498-.08711333-.118247-.19289333-.20534-.31734-.17422-.24888667-.4666633-.37333-.87733-.37333-.3608867 0-.6595533.13066667-.896.392-.224.26133333-.336.58489-.336.97067v.56.168c0 .24888667.0373333.44799667.112.59733.0871133.13688667.2862233.29244333.59733.46667.09956.0498.2488933.11824333.448.20533.21156.07466667.4666733.168.76534.28.597333.19911333 1.132443.55378 1.60533 1.064s.70937 1.18222.70937 2.016v1.008c0 .43555333-.043593.8026633-.1307 1.10133-.074667.2986667-.32978.7342233-.76534 1.30667-.435553.5475533-1.163553.82133-2.184.82133-1.0826667 0-1.8666667-.3484433-2.352-1.04533-.4853333-.7093333-.728-1.4373333-.728-2.184v-.448h1.81067z"/><path d="m.01677 29.86564 2.8-12.50667h1.54934l2.8 12.50667h-1.92267l-.504-2.688h-2.31467l-.52266 2.688zm2.72534-4.34933h1.68l-.84-4.55467z"/><path d="m12.40977 29.86564-2.78133-7.59733v7.59733h-1.792v-12.50667h1.69866l2.76267 7.57867v-7.57867h1.792v12.50667z"/><path d="m18.03091 17.35897c.8088933 0 1.49956.2862233 2.072.85867.5848933.56.87734 1.2444433.87734 2.05333v6.496c0 .9208933-.28 1.66756-.84 2.24-.56.5724467-1.28178.85867-2.16534.85867h-2.78133v-12.50667zm1.176 9.408v-6.496c0-.34844-.1306667-.6408833-.392-.87733-.2488867-.2364467-.5537733-.35467-.91466-.35467h-.93334v9.16534h.87734c.90844 0 1.36266-.4791133 1.36266-1.43734z"/><path d="m29.83562 26.71097c0 .3982267-.0249.74045-.0747 1.02667-.0373333.28622-.1617767.59733-.37333.93333-.112.1742267-.25511.3422267-.42933.504-.16178.1493333-.3484467.2862233-.56.41067-.1991133.112-.4168933.2053333-.65334.28-.23644.0746667-.46666.112-.69066.112-.56 0-1.0702233-.1182233-1.53067-.35467-.448-.23644-.7777767-.5351067-.98933-.896-.21156-.3608867-.34845-.6968867-.41067-1.008-.0498-.3111067-.0747-.6471067-.0747-1.008v-6.44c0-.34844.0311-.65955.0933-.93333.0746667-.28622.224-.59111.448-.91467.224-.3235533.5413333-.59733.952-.82133.4106667-.2364467.84-.35467 1.288-.35467.8586667 0 1.57422.2862233 2.14666.85867.5724467.56.85867 1.2817767.85867 2.16533v.672h-1.77333v-.672c0-.34844-.0995567-.6408833-.29867-.87733-.1866667-.2364467-.4666667-.35467-.84-.35467-.3484467 0-.6222233.1182233-.82133.35467-.1866667.2364467-.28.52889-.28.87733v6.92534c.0248667.1866667.1119767.39822.26133.63466.17422.2488933.4604433.37334.85867.37334.4231067 0 .7031067-.112.84-.336.1368867-.224.2177733-.38578.24266-.48534.0248667-.112.0373-.2613333.0373-.448v-.63466h1.77333z"/><path d="m31.54866 18.53497c.28622-.39822.64711-.70933 1.08267-.93333.448-.2364467.9084433-.35467 1.38133-.35467.4604467 0 .88978.0933333 1.288.28.4106667.1866667.75289.44178 1.02667.76534.2737733.3235533.46044.6595533.56 1.008.0995533.336.14933.70311.14933 1.10133v6.36533c0 .3733333-.0373333.7031133-.112.98934-.0622.28622-.2115333.6035533-.448.952-.224.34844-.5537767.6471067-.98933.896-.4231133.2488867-.8960033.37333-1.41867.37333-.2986667 0-.58489-.0373333-.85867-.112-.2737733-.0871133-.5288833-.1991133-.76533-.336s-.4480033-.2924433-.63467-.46667c-.17422-.17422-.3111067-.3546633-.41066-.54133-.1866667-.38578-.2986667-.69689-.336-.93333-.0373333-.2364467-.056-.5102267-.056-.82134v-6.36533c0-.3733333.0373333-.70311.112-.98933.0871067-.2986667.2302167-.5911133.42933-.87734zm3.472.98934c-.2364467-.3484467-.5600033-.52267-.97067-.52267-.2115533 0-.4231067.0622233-.63466.18667-.1991133.112-.3422267.2426667-.42934.392-.0746667.1493333-.1244433.2986667-.14933.448-.0248667.1493333-.0373.2737767-.0373.37333v6.36533.20534c0 .0622.0062333.1306433.0187.20533.0124667.1244467.1120233.32978.29867.616.1866667.2613333.4977767.392.93333.392.224 0 .4231133-.0497767.59734-.14933.1866667-.112.3173333-.2364467.392-.37334.0871067-.1493333.1431067-.28622.168-.41066.0248667-.1244467.0373-.2862267.0373-.48534v-6.36533c0-.2488867-.0124333-.42311-.0373-.52267-.0124667-.0995533-.07469-.2177733-.18667-.35466z"/><path d="m43.99634 29.86564v-7.616l-1.792 5.33867h-.896l-1.77333-5.33867v7.616h-1.792v-12.50667h1.68l2.37067 6.664 2.33333-6.664h1.64267v12.50667z"/><path d="m52.74093 29.86564v-7.616l-1.792 5.33867h-.896l-1.77334-5.33867v7.616h-1.792v-12.50667h1.68l2.37067 6.664 2.33333-6.664h1.64267v12.50667z"/><path d="m61.24978 28.55897c-.27378.4231133-.6284467.7653367-1.064 1.02667-.4231133.2613333-.8960033.392-1.41867.392-.2613333 0-.5226667-.0373333-.784-.112-.2488867-.0746667-.48533-.168-.70933-.28-.224-.1244467-.4231133-.2613367-.59734-.41067-.17422-.1617733-.3048867-.3297733-.392-.504-.1866667-.34844-.31111-.6533267-.37333-.91466-.0498-.2613333-.0747-.5413333-.0747-.84v-9.55734h1.792v9.55734.24266c.0124667.0622.0249.1244233.0373.18667.0124667.0995533.1058.2737767.28.52267.1617733.224.4417733.336.84.336.3608867 0 .62844-.1306667.80266-.392.1866667-.27378.28-.5724467.28-.896v-9.55734h1.792v9.55734c0 .2986667-.0311.5848867-.0933.85866-.0622.27378-.1679767.5351133-.31733.784z"/><path d="m67.29296 29.86564-2.78133-7.59733v7.59733h-1.792v-12.50667h1.69867l2.76266 7.57867v-7.57867h1.792v12.50667z"/><path d="m69.95592 29.86564v-12.50667h1.77333v12.50667z"/><path d="m74.99115 29.86564v-10.84533h-2.10934v-1.66134h6.02934v1.66134h-2.14667v10.84533z"/><path d="m79.3068 29.86564v-12.50667h1.77333v12.50667z"/><path d="m87.53689 28.07364v1.792h-5.35733v-12.50667h5.35733v1.64267h-3.584v3.696h3.136v1.69867h-3.136v3.67733z"/><path d="m89.65892 26.74831v.31733c0 .0871133.0062333.16178.0187.224.0248667.1244467.1182.30489.28.54133.1742267.2488933.48534.37334.93334.37334.2488867 0 .4791067-.04978.69066-.14934.21156-.112.3671167-.25511.46667-.42933.0746667-.1368867.1182233-.2675533.13067-.392.0248667-.1244467.0373-.2364467.0373-.336v-.168-.87733-.168c0-.27378-.0497767-.4853367-.14933-.63467-.09956-.16178-.32356-.3422233-.672-.54133-.2364467-.1244467-.65956-.29867-1.26934-.52267-.6097733-.224-1.1199933-.5786667-1.53066-1.064s-.616-1.14489-.616-1.97867v-.56c0-.8586667.28622-1.5928867.85866-2.20266.5848933-.6222267 1.2942267-.93334 2.128-.93334.8711133 0 1.5928933.30489 2.16534.91467.5848867.60978.87733 1.3502233.87733 2.22133v.56h-1.792v-.56c0-.0871067-.0062333-.1679933-.0187-.24266 0-.0746667-.0062333-.1431133-.0187-.20534-.0124667-.0622-.0435667-.1368667-.0933-.224-.0498-.0871067-.1182433-.1928833-.20533-.31733-.17422-.2488867-.4666633-.37333-.87733-.37333-.3608933 0-.65956.1306667-.896.392-.224.2613333-.336.5848867-.336.97066v.56.168c0 .2488933.0373333.4480067.112.59734.0871067.1368867.2862167.29244.59733.46666.0995533.0498.2488867.1182467.448.20534.2115533.0746667.4666633.168.76533.28.5973333.1991067 1.1324467.5537733 1.60534 1.064.4728867.51022.70936 1.18222.70936 2.016v1.008c0 .4355533-.0435867.8026633-.1307 1.10133-.0746667.2986667-.3297767.7342233-.76533 1.30667-.4355533.5475533-1.1635533.82133-2.184.82133-1.0826667 0-1.8666667-.3484433-2.352-1.04533-.4853333-.7093333-.728-1.4373333-.728-2.184v-.448h1.81067z"/></g><g transform="translate(10.56173 12.32691)"><path d="m4.288 29.92666v-25.46l-4.288 3.216v-4.556l4.288-3.12666h4.24334v29.92666z"/><path d="m15.6346 29.92666v-25.46l-4.288 3.216v-4.556l4.288-3.12666h4.24334v29.92666z"/></g><path d="m37.54308 97.78696 10.48716 13.77229c.38996.51212.28363 1.11809-.5497 1.11809h-21.38584c-.83333 0-.93966-.60597-.5497-1.11809l10.48716-13.77229c.50796-.66709 1.00991-.65796 1.51092 0zm65.65826 5.17242h21.20321c.49661 0 .89641.3998.89641.89641v3.75614c0 .49661-.3998.89641-.89641.89641h-21.20321c-.49661 0-.89641-.3998-.89641-.89641v-3.75614c0-.49661.3998-.89641.89641-.89641zm.00086 7.07206c-.49661 0-.89648.39987-.89648.89648v21.58398c0 .49662.39987.89649.89648.89649h21.20313c.49661 0 .89648-.39987.89648-.89649v-21.58398c0-.49661-.39987-.89648-.89648-.89648zm3.10352 3.25781h5.41797c.49661 0 .89648.39987.89648.89648v2.51172c0 .49661-.39987.89649-.89648.89649h-5.41797c-.49661 0-.89453-.39988-.89453-.89649v-2.51172c0-.49661.39792-.89648.89453-.89648zm9.96094 0h5.41601c.49661 0 .89649.39987.89649.89648v2.51172c0 .49661-.39988.89649-.89649.89649h-5.41601c-.49661 0-.89649-.39988-.89649-.89649v-2.51172c0-.49661.39988-.89648.89649-.89648zm-9.96094 7.37109h5.41797c.49661 0 .89648.39988.89648.89649v2.50976c0 .49661-.39987.89649-.89648.89649h-5.41797c-.49661 0-.89453-.39988-.89453-.89649v-2.50976c0-.49661.39792-.89649.89453-.89649zm9.96094 0h5.41601c.49661 0 .89649.39988.89649.89649v2.50976c0 .49661-.39988.89649-.89649.89649h-5.41601c-.49661 0-.89649-.39988-.89649-.89649v-2.50976c0-.49661.39988-.89649.89649-.89649zm-64.02735-62.32226c-.49661 0-.89648.39987-.89648.89648v73.27734c0 .49662.39987.89649.89648.89649h20.70508c.49661 0 .89649-.39987.89649-.89649v-73.27734c0-.49661-.39988-.89648-.89649-.89648zm4.04493 10.25195h3.16211c.49661 0 .89648.39986.89648.89648v3.8125c0 .49661-.39987.89649-.89648.89649h-3.16211c-.49661 0-.89649-.39988-.89649-.89649v-3.8125c0-.49662.39988-.89648.89649-.89648zm9.66211 0h3.16211c.49661 0 .89648.39986.89648.89648v3.8125c0 .49661-.39987.89649-.89648.89649h-3.16211c-.49661 0-.89649-.39988-.89649-.89649v-3.8125c0-.49662.39988-.89648.89649-.89648zm-9.66211 12.6875h3.16211c.49661 0 .89648.39987.89648.89648v3.8125c0 .49661-.39987.89649-.89648.89649h-3.16211c-.49661 0-.89649-.39988-.89649-.89649v-3.8125c0-.49661.39988-.89648.89649-.89648zm9.66211 0h3.16211c.49661 0 .89648.39987.89648.89648v3.8125c0 .49661-.39987.89649-.89648.89649h-3.16211c-.49661 0-.89649-.39988-.89649-.89649v-3.8125c0-.49661.39988-.89648.89649-.89648zm-9.66211 12.6875h3.16211c.49661 0 .89648.39987.89648.89648v3.8125c0 .49661-.39987.89649-.89648.89649h-3.16211c-.49661 0-.89649-.39988-.89649-.89649v-3.8125c0-.49661.39988-.89648.89649-.89648zm9.66211 0h3.16211c.49661 0 .89648.39987.89648.89648v3.8125c0 .49661-.39987.89649-.89648.89649h-3.16211c-.49661 0-.89649-.39988-.89649-.89649v-3.8125c0-.49661.39988-.89648.89649-.89648zm-9.66211 12.6875h3.16211c.49661 0 .89648.39987.89648.89648v3.8125c0 .49661-.39987.89649-.89648.89649h-3.16211c-.49661 0-.89649-.39988-.89649-.89649v-3.8125c0-.49661.39988-.89648.89649-.89648zm9.66211 0h3.16211c.49661 0 .89648.39987.89648.89648v3.8125c0 .49661-.39987.89649-.89648.89649h-3.16211c-.49661 0-.89649-.39988-.89649-.89649v-3.8125c0-.49661.39988-.89648.89649-.89648zm-9.66211 12.6875h3.16211c.49661 0 .89648.39987.89648.89648v3.81446c0 .49661-.39987.89648-.89648.89648h-3.16211c-.49661 0-.89649-.39987-.89649-.89648v-3.81446c0-.49661.39988-.89648.89649-.89648zm9.66211 0h3.16211c.49661 0 .89648.39987.89648.89648v3.81446c0 .49661-.39987.89648-.89648.89648h-3.16211c-.49661 0-.89649-.39987-.89649-.89648v-3.81446c0-.49661.39988-.89648.89649-.89648zm11.42578-18.92609v32.09796c0 .49662.39987.89649.89648.89649h20.40625c.49661 0 .89649-.39987.89649-.89649v-59.33398c0-.49661-.65682-1.18349-1.44393-.18665l-19.97036 25.29154c-.68133.86288-.78493 1.12593-.78493 2.13113zm19.13672-20.0778234c.36295-.0019966.42382.8677734.42382 1.2402434v5.40039c0 .49661-.39987.89648-.89648.89648h-4.17188c-.53128 0-1.43646-.22565-.89648-.89648l5.06836-6.29688c.19705-.2448.35167-.34309.47266-.3437534zm-5.88868 10.6035234h5.41602c.49661 0 .89648.39986.89648.89648v2.50977c0 .49661-.39987.89648-.89648.89648h-5.41602c-.49661 0-.89648-.39987-.89648-.89648v-2.50977c0-.49662.39987-.89648.89648-.89648zm-4.09179 1.98242c.35618-.0737.44336.74005.44336 1.30859v7.6875c0 .49661-.39987.89649-.89649.89649h-5.13476c-.49661 0-1.24941-.39418-.89649-.89649l6.03125-8.58398c.18502-.26333.3344-.38755.45313-.41211zm4.09179 5.36523h5.41602c.49661 0 .89648.39988.89648.89649v2.51172c0 .49661-.39987.89648-.89648.89648h-5.41602c-.49661 0-.89648-.39987-.89648-.89648v-2.51172c0-.49661.39987-.89649.89648-.89649zm-9.67968 7.3711h5.13476c.49661 0 .89649.39987.89649.89648v2.51172c0 .49662-.39988.89649-.89649.89649h-5.13476c-.49661 0-.89649-.39987-.89649-.89649v-2.51172c0-.49661.39988-.89648.89649-.89648zm9.67968 0h5.41602c.49661 0 .89648.39987.89648.89648v2.51172c0 .49661-.39987.89649-.89648.89649h-5.41602c-.49661 0-.89648-.39988-.89648-.89649v-2.51172c0-.49661.39987-.89648.89648-.89648zm-9.67968 7.63086h5.13476c.49661 0 .89649.39987.89649.89648v2.51172c0 .49661-.39988.89649-.89649.89649h-5.13476c-.49661 0-.89649-.39988-.89649-.89649v-2.51172c0-.49661.39988-.89648.89649-.89648zm9.67968 0h5.41602c.49661 0 .89648.39987.89648.89648v2.51172c0 .49661-.39987.89649-.89648.89649h-5.41602c-.49661 0-.89648-.39988-.89648-.89649v-2.51172c0-.49661.39987-.89648.89648-.89648zm-9.67968 7.37109h5.13476c.49661 0 .89649.39988.89649.89649v2.50976c0 .49661-.39988.89649-.89649.89649h-5.13476c-.49661 0-.89649-.39988-.89649-.89649v-2.50976c0-.49661.39988-.89649.89649-.89649zm9.67968 0h5.41602c.49661 0 .89648.39988.89648.89649v2.50976c0 .49661-.39987.89649-.89648.89649h-5.41602c-.49661 0-.89648-.39988-.89648-.89649v-2.50976c0-.49661.39987-.89649.89648-.89649zm-64.80859-5.94726c-.49661 0-.89648.39987-.89648.89648v16.90234c0 .49662.39987.89649.89648.89649h7.23828c-.002-.0333-.01-.0656-.01-.0996v-9.83984c0-.7725.62203-1.39454 1.39453-1.39454h4.55664c.77249 0 1.39453.62204 1.39453 1.39454v9.83984c0 .0339-.007.0663-.01.0996h6.83789c.49662 0 .89649-.39987.89649-.89649v-16.90234c0-.49661-.39987-.89648-.89649-.89648z"/></g></g></svg>