<svg height="149" viewBox="0 0 149 149" width="149" xmlns="http://www.w3.org/2000/svg"><g fill="none" fill-rule="evenodd" transform="translate(.89253 .03992)"><path d="m.82676 0h146.43925c.45802 0 .82675.36873.82675.82675v146.68107c0 .45802-.36873.82676-.82675.82676h-146.43925c-.45803 0-.82676-.36874-.82676-.82676v-146.68107c0-.45802.36873-.82675.82676-.82675z" fill="#007dbc"/><g fill="#fff" fill-rule="nonzero"><g transform="translate(48.36375 13.03355)"><path d="m5.35733 12.50667h-5.33866v-12.50667h1.792v10.71467h3.54666z"/><path d="m5.93922 12.50667v-12.50667h1.77333v12.50667z"/><path d="m9.23069 12.50667v-12.50667h5.33866v1.68h-3.56533v3.752h3.11733v1.68h-3.11733v5.39467z"/><path d="m20.53862 10.71467v1.792h-5.35734v-12.50667h5.35734v1.64267h-3.584v3.696h3.136v1.69867h-3.136v3.67733z"/><path d="m2.94933 17.24698c.38578 0 .74667.08089 1.08267.24267.37333333.17422.75289.45422 1.13867.84.41066667.39822.616 1.02044.616 1.86666v.952c0 .9582267-.37955667 1.6302267-1.13867 2.016.75911333.448 1.13867 1.14489 1.13867 2.09067v1.456c0 .8835533-.28622333 1.6115533-.85867 2.184-.56.5724467-1.28177667.85867-2.16533.85867h-2.76267v-12.50667zm1.064 3.71467v-.76534c0-.3857733-.112-.69066-.336-.91466-.224-.2364467-.52266667-.35467-.896-.35467h-1.008v3.45333h1.064c.41066667 0 .70933333-.1244433.896-.37333.18666667-.2613333.28-.6097767.28-1.04533zm0 5.74933v-1.456c0-.39822-.112-.70933-.336-.93333-.21155333-.2364467-.51022-.35467-.896-.35467h-1.008v4.01333h1.02667c.36088667 0 .65333-.11822.87733-.35466.224-.2488933.336-.5537833.336-.91467z"/><path d="m12.90421 27.96165v1.792h-5.35733v-12.50667h5.35733v1.64267h-3.584v3.696h3.136v1.69866h-3.136v3.67734z"/><path d="m18.96418 29.75365h-5.33866v-12.50667h1.792v10.71467h3.54666z"/><path d="m19.70036 18.42298c.2862267-.39822.6471167-.70933 1.08267-.93333.448-.2364467.9084433-.35467 1.38133-.35467.4604467 0 .88978.0933333 1.288.28.4106667.1866667.75289.4417767 1.02667.76533.27378.32356.4604467.65956.56 1.008.0995533.336.14933.7031133.14933 1.10134v6.36533c0 .3733333-.0373333.70311-.112.98933-.0622.2862267-.2115333.60356-.448.952-.224.3484467-.5537767.6471133-.98933.896-.4231133.2488933-.8960033.37334-1.41867.37334-.2986667 0-.5848867-.0373333-.85866-.112-.27378-.0871133-.5288933-.1991133-.76534-.336-.23644-.1368933-.4479933-.29245-.63466-.46667-.1742267-.17422-.3111167-.3546633-.41067-.54133-.1866667-.38578-.2986667-.6968933-.336-.93334-.0373333-.23644-.056-.5102167-.056-.82133v-6.36533c0-.3733333.0373333-.7031133.112-.98934.0871133-.2986667.2302233-.59111.42933-.87733zm3.472.98933c-.23644-.34844-.5599933-.52266-.97066-.52266-.21156 0-.4231167.06222-.63467.18666-.1991133.112-.3422233.2426667-.42933.392-.0746667.1493333-.1244467.2986667-.14934.448-.0248667.1493333-.0373.27378-.0373.37334v6.36533.20533c0 .0622.0062333.1306467.0187.20534.0124667.12444.11202.3297733.29866.616.1866667.2613333.49778.392.93334.392.224 0 .42311-.04978.59733-.14934.1866667-.112.3173333-.2364433.392-.37333.0871133-.1493333.1431133-.2862233.168-.41067.0248667-.12444.0373-.2862167.0373-.48533v-6.36533c0-.2488933-.0124333-.4231167-.0373-.52267-.0124667-.0995533-.07469-.2177767-.18667-.35467z"/><path d="m32.50774 29.75365-1.47467-7.616-1.43733 7.616h-1.66133l-1.81067-12.50667h1.904l.896 7.56 1.43733-7.56h1.32534l1.47466 7.56.896-7.56h1.88534l-1.75467 12.50667z"/><path d="m44.65509 29.75365-1.47467-7.616-1.43733 7.616h-1.66133l-1.81067-12.50667h1.904l.896 7.56 1.43733-7.56h1.32534l1.47466 7.56.896-7.56h1.88534l-1.75467 12.50667z"/><path d="m47.69106 29.75365 2.8-12.50667h1.54933l2.8 12.50667h-1.92267l-.504-2.688h-2.31466l-.52267 2.688zm2.72533-4.34934h1.68l-.84-4.55466z"/><path d="m56.3352 29.75365v-10.84534h-2.10934v-1.66133h6.02934v1.66133h-2.14667v10.84534z"/><path d="m66.59778 27.96165v1.792h-5.35733v-12.50667h5.35733v1.64267h-3.584v3.696h3.136v1.69866h-3.136v3.67734z"/><path d="m67.28176 29.75365v-12.50667h3.136c.8213333 0 1.512.2862233 2.072.85867.57244.57244.85866 1.27555.85866 2.10933v1.15733c0 1.1573333-.4915533 2.04089-1.47466 2.65067l1.904 5.73067h-1.904l-1.68-5.35734h-1.12v5.35734zm3.976-7.336c.112-.1368933.1866667-.29245.224-.46667.0498-.17422.0747-.36711.0747-.57867v-1.15733c0-.38578-.1057767-.69689-.31733-.93333-.2115533-.2488933-.51022-.37334-.896-.37334h-1.26933v3.90134h1.25066c.3733333 0 .6844467-.1306667.93334-.392z"/></g><g transform="translate(10.36481 13.01626)"><path d="m4.288 29.92667v-25.46l-4.288 3.216v-4.556l4.288-3.12667h4.24333v29.92667z"/><path d="m19.84507 29.92667v-4.556h-8.53133v-4.02l6.20867-21.35067h4.51133l-6.38733 21.35067h4.19866v-8.53133h4.288v8.53133h2.09934v4.02h-2.09934v4.556z"/></g><path d="m82.69145 91.04992c-10.10214.2348-20.00686 5.57025-29.83593 12.85938-4.32771-7.43351-10.03439-12.7224-19.12305-12.75 8.68662 12.93079 6.94288 24.44823 0 35.25976 9.08866-.0276 14.79534-5.31649 19.12305-12.75 19.65815 14.57826 39.61813 21.33868 60.85547-4.8789-10.61867-13.10879-20.91739-17.97504-31.01954-17.74024zm9.78125 10.19922c1.2852391-.000251 2.5179101.510197 3.4267114 1.418999.9088012.908801 1.4192494 2.141472 1.4189987 3.426711-.0005604 2.675663-2.1700475 4.844272-4.8457101 4.84375-2.6748972-.00056-4.8431898-2.168853-4.8437501-4.84375-.000522-2.675663 2.1680875-4.84515 4.8437501-4.84571zm20.49201-27.07114.34861 3.98405c-7.54085 5.18856-13.14156 3.12714-18.17722-1.04581-6.22279 4.59131-13.07486 5.95752-21.41426-.29881-6.15403 3.76753-12.45429 7.05546-21.86246.14941-4.90965 3.8293-9.83642 7.60128-17.72901 1.44421l-.1992-4.18325c7.25245 4.24711 12.95871 1.82536 18.37642-2.49003 7.18789 4.86393 14.29193 6.29026 21.21505.29881 8.02938 7.36181 14.77437 4.21498 21.36446-.19921 4.82869 3.09212 9.27682 7.05546 18.07761 2.34063zm0-12.25095.34861 3.98405c-7.54085 5.18856-13.14156 3.12714-18.17722-1.04581-6.22279 4.59131-13.07486 5.95752-21.41426-.29881-6.15403 3.76753-12.45429 7.05546-21.86246.14941-4.90965 3.8293-9.83642 7.60128-17.72901 1.44421l-.1992-4.18325c7.25245 4.24711 12.95871 1.82536 18.37642-2.49003 7.18789 4.86393 14.29193 6.29026 21.21505.29881 8.02938 7.36181 14.77437 4.21498 21.36446-.19921 4.82869 3.09212 9.27682 7.05546 18.07761 2.34063z"/></g></g></svg>