<svg height="149" viewBox="0 0 149 149" width="149" xmlns="http://www.w3.org/2000/svg"><g fill="none" fill-rule="evenodd" transform="translate(.83978 .03992)"><path d="m.82676 0h146.43925c.45802 0 .82675.36873.82675.82675v146.68107c0 .45802-.36873.82676-.82675.82676h-146.43925c-.45803 0-.82676-.36874-.82676-.82676v-146.68107c0-.45802.36873-.82675.82676-.82675z" fill="#02558b"/><g fill="#fff"><g fill-rule="nonzero" transform="translate(46.36641 12.92155)"><path d="m.59358 12.61867v-12.50667h2.93066.0373c.37333333 0 .728.08089 1.064.24267.336.14933333.63466667.34844333.896.59733.26133333.24889333.46666667.53511667.616.85867.16177333.31111333.24888333.63467.26133.97067v1.81066.18667c0 .41066667-.08089.79644333-.24267 1.15733-.14933333.34844667-.35466667.65333667-.616.91467-.26133333.26133-.57244333.46666667-.93333.616-.34844667.14933333-.72178.224-1.12.224h-.168-.93333v4.928zm3.78933-6.98133c.112-.112.18044333-.23022333.20533-.35467.03733333-.12444667.056-.28000333.056-.46667v-1.848c0-.34844-.10577667-.63466-.31733-.85866-.21155333-.23644667-.49777667-.35467-.85867-.35467h-1.08266v4.23733h.93333c.24888667 0 .44799667-.01866667.59733-.056.16178-.0498.31733667-.14935333.46667-.29866z"/><path d="m13.02383 10.82667v1.792h-5.35734v-12.50667h5.35734v1.64267h-3.584v3.696h3.136v1.69867h-3.136v3.67733z"/><path d="m13.53529 12.61867 2.8-12.50667h1.54933l2.8 12.50667h-1.92267l-.504-2.688h-2.31466l-.52267 2.688zm2.72533-4.34933h1.68l-.84-4.55467z"/><path d="m27.18172 9.464c0 .39822667-.0249.74045-.0747 1.02667-.0373333.28622-.1617767.59733-.37333.93333-.112.1742267-.25511.3422267-.42933.504-.16178.1493333-.3484467.2862233-.56.41067-.1991133.112-.41689.2053333-.65333.28-.2364467.0746667-.46667.112-.69067.112-.56 0-1.0702233-.1182233-1.53067-.35467-.448-.23644-.7777767-.5351067-.98933-.896-.2115533-.3608867-.3484433-.6968867-.41067-1.008-.0498-.3111067-.0747-.64710667-.0747-1.008v-6.44c0-.34844.0311-.65955.0933-.93333.0746667-.28622.224-.59111.448-.91467.224-.32355333.5413333-.59733.952-.82133.4106667-.23644667.84-.35467 1.288-.35467.8586667 0 1.57422.28622333 2.14666.85867.5724467.56.85867 1.28177667.85867 2.16533v.672h-1.77333v-.672c0-.34844-.0995567-.64088333-.29867-.87733-.1866667-.23644667-.4666667-.35467-.84-.35467-.34844 0-.6222167.11822333-.82133.35467-.1866667.23644667-.28.52889-.28.87733v6.92534c.0248667.1866667.1119767.39822.26133.63466.1742267.2488933.46045.37334.85867.37334.4231133 0 .7031133-.112.84-.336s.2177767-.38578.24267-.48534c.0248667-.112.0373-.26133333.0373-.448v-.63466h1.77333z"/><path d="m33.81432 10.82667v1.792h-5.35733v-12.50667h5.35733v1.64267h-3.584v3.696h3.136v1.69867h-3.136v3.67733z"/><path d="m34.68415 13.944v-3.09866h1.792v1.77333z"/><path d="m44.651 11.368c-.2737733.4106667-.62844.7404467-1.064.98934-.4355533.2488867-.8959967.37333-1.38133.37333-.4728867 0-.9208867-.0995567-1.344-.29867-.4106667-.2115533-.7777767-.4977733-1.10133-.85866l1.38133-1.12c.2986667.3111067.64089.46666 1.02667.46666.5226667 0 .84622-.1368867.97066-.41066.1368933-.2862267.21156-.48534.224-.59734.0124667-.112.0187-.24266667.0187-.392v-9.408h1.75467v9.24c0 .58489333-.0373333.99556-.112 1.232-.0498.224-.1742467.4853333-.37334.784z"/><path d="m52.18346 11.312c-.27378.4231133-.6284467.7653367-1.064 1.02667-.4231133.2613333-.8960033.392-1.41867.392-.2613333 0-.5226667-.0373333-.784-.112-.2488867-.0746667-.48533-.168-.70933-.28-.224-.1244467-.42311-.2613367-.59733-.41067-.1742267-.1617733-.3048933-.3297733-.392-.504-.1866667-.34844-.3111133-.6533267-.37334-.91466-.0498-.2613333-.0747-.54133333-.0747-.84v-9.55734h1.792v9.55734.24266c.0124667.0622.0249.1244233.0373.18667.0124667.0995533.1058.2737767.28.52267.16178.224.44178.336.84.336.3608867 0 .6284433-.1306667.80267-.392.1866667-.27378.28-.57244667.28-.896v-9.55734h1.792v9.55734c0 .29866667-.0311.5848867-.0933.85866-.0622.27378-.1679767.5351133-.31733.784z"/><path d="m55.55581 9.50134v.31733c0 .08711333.0062333.16178.0187.224.0248667.1244467.1182.30489.28.54133.17422.2488933.48533.37334.93333.37334.2488933 0 .4791167-.04978.69067-.14934.2115533-.112.36711-.25511.46667-.42933.0746667-.1368867.11822-.2675533.13066-.392.0248667-.12444667.0373-.23644667.0373-.336v-.168-.87733-.168c0-.27378-.04978-.48533667-.14934-.63467-.0995533-.16178-.3235533-.34222333-.672-.54133-.23644-.12444667-.65955-.29867-1.26933-.52267s-1.1200033-.57866667-1.53067-1.064-.616-1.14489-.616-1.97867v-.56c0-.85866667.2862233-1.59288667.85867-2.20266.5848867-.62222667 1.29422-.93334 2.128-.93334.8711133 0 1.59289.30489 2.16533.91467.5848933.60978.87734 1.35022333.87734 2.22133v.56h-1.792v-.56c0-.08710667-.0062333-.16799333-.0187-.24266 0-.07466667-.0062333-.14311333-.0187-.20534-.0124667-.0622-.0435667-.13686667-.0933-.224-.0498-.08710667-.1182433-.19288333-.20533-.31733-.1742267-.24888667-.4666733-.37333-.87734-.37333-.3608867 0-.6595533.13066667-.896.392-.224.26133333-.336.58488667-.336.97066v.56.168c0 .24889333.0373333.44800667.112.59734.0871133.13688667.2862267.29244.59734.46666.0995533.0498.2488867.11824667.448.20534.2115533.07466667.4666633.168.76533.28.5973333.19910667 1.1324433.55377333 1.60533 1.064.4728933.51022.70937 1.18222.70937 2.016v1.008c0 .43555333-.0435867.8026633-.1307 1.10133-.0746667.2986667-.3297767.7342233-.76533 1.30667-.43556.5475533-1.16356.82133-2.184.82133-1.0826667 0-1.8666667-.3484433-2.352-1.04533-.4853333-.7093333-.728-1.4373333-.728-2.184v-.448h1.81066z"/><path d="m62.20618 12.61867v-10.84533h-2.10933v-1.66134h6.02933v1.66134h-2.14667v10.84533z"/><path d="m67.099 12.61867v-12.50667h1.77333v12.50667z"/><path d="m76.13399 9.464c0 .39822667-.0249.74045-.0747 1.02667-.0373333.28622-.1617767.59733-.37333.93333-.112.1742267-.25511.3422267-.42933.504-.16178.1493333-.3484467.2862233-.56.41067-.1991133.112-.4168933.2053333-.65334.28-.23644.0746667-.46666.112-.69066.112-.56 0-1.0702233-.1182233-1.53067-.35467-.448-.23644-.7777767-.5351067-.98933-.896-.21156-.3608867-.34845-.6968867-.41067-1.008-.0498-.3111067-.0747-.64710667-.0747-1.008v-6.44c0-.34844.0311-.65955.0933-.93333.0746667-.28622.224-.59111.448-.91467.224-.32355333.5413333-.59733.952-.82133.4106667-.23644667.84-.35467 1.288-.35467.8586667 0 1.57422.28622333 2.14666.85867.5724467.56.85867 1.28177667.85867 2.16533v.672h-1.77333v-.672c0-.34844-.0995567-.64088333-.29867-.87733-.1866667-.23644667-.4666667-.35467-.84-.35467-.3484467 0-.6222233.11822333-.82133.35467-.1866667.23644667-.28.52889-.28.87733v6.92534c.0248667.1866667.1119767.39822.26133.63466.17422.2488933.4604433.37334.85867.37334.4231067 0 .7031067-.112.84-.336.1368867-.224.2177733-.38578.24266-.48534.0248667-.112.0373-.26133333.0373-.448v-.63466h1.77333z"/><path d="m82.8562 10.82667v1.792h-5.35733v-12.50667h5.35733v1.64267h-3.584v3.696h3.136v1.69867h-3.136v3.67733z"/><path d="m0 29.86565 2.8-12.50667h1.54933l2.8 12.50667h-1.92267l-.504-2.688h-2.31466l-.52267 2.688zm2.72533-4.34934h1.68l-.84-4.55466z"/><path d="m12.6347 29.86565-2.78133-7.59734v7.59734h-1.792v-12.50667h1.69867l2.76266 7.57867v-7.57867h1.792v12.50667z"/><path d="m18.4746 17.35898c.8088867 0 1.4995533.2862233 2.072.85867.5848867.56.87733 1.2444433.87733 2.05333v6.496c0 .9208867-.28 1.6675533-.84 2.24s-1.2817767.85867-2.16533.85867h-2.78134v-12.50667zm1.176 9.408v-6.496c0-.3484467-.1306667-.64089-.392-.87733-.2488933-.2364467-.5537833-.35467-.91467-.35467h-.93333v9.16533h.87733c.9084467 0 1.36267-.47911 1.36267-1.43733z"/><path d="m26.34036 26.74831v.31734c0 .0871067.0062333.1617733.0187.224.0248667.12444.1182.3048833.28.54133.17422.2488867.48533.37333.93333.37333.2488867 0 .47911-.0497767.69067-.14933.2115533-.112.3671067-.25511.46666-.42933.0746667-.1368933.1182233-.26756.13067-.392.0248667-.1244467.0373-.2364467.0373-.336v-.168-.87734-.168c0-.2737733-.0497767-.4853267-.14933-.63466-.0995533-.16178-.3235533-.3422267-.672-.54134-.2364467-.12444-.6595567-.29866-1.26933-.52266-.60978-.224-1.1200033-.5786667-1.53067-1.064s-.616-1.14489-.616-1.97867v-.56c0-.8586667.2862233-1.59289.85867-2.20267.5848867-.62222 1.29422-.93333 2.128-.93333.8711067 0 1.5928833.30489 2.16533.91467.5848867.6097733.87733 1.3502167.87733 2.22133v.56h-1.792v-.56c0-.0871133-.0062333-.1680033-.0187-.24267 0-.0746667-.0062333-.14311-.0187-.20533-.0124667-.0622-.0435667-.1368667-.0933-.224-.0498-.0871133-.1182467-.19289-.20534-.31733-.17422-.2488933-.4666633-.37334-.87733-.37334-.3608867 0-.6595533.1306667-.896.392-.224.2613333-.336.58489-.336.97067v.56.168c0 .2488867.0373333.4479967.112.59733.0871133.1368933.2862233.29245.59733.46667.09956.0498.2488933.1182433.448.20533.21156.0746667.4666733.168.76534.28.5973333.1991133 1.1324433.55378 1.60533 1.064.4728867.5102267.70937 1.1822267.70937 2.016v1.008c0 .43556-.0435933.8026733-.1307 1.10134-.0746667.2986667-.32978.73422-.76534 1.30666-.4355533.54756-1.1635533.82134-2.184.82134-1.0826667 0-1.8666667-.3484467-2.352-1.04534-.4853333-.7093333-.728-1.4373333-.728-2.184v-.448h1.81067z"/><path d="m33.25954 29.86565v-10.84534h-2.10933v-1.66133h6.02933v1.66133h-2.14666v10.84534z"/><path d="m37.95448 29.86565v-12.50667h3.136c.8213333 0 1.512.2862233 2.072.85867.57244.57244.85866 1.27555.85866 2.10933v1.15733c0 1.1573333-.4915533 2.04089-1.47466 2.65067l1.904 5.73067h-1.904l-1.68-5.35734h-1.12v5.35734zm3.976-7.336c.112-.1368933.1866667-.29245.224-.46667.0498-.17422.0747-.36711.0747-.57867v-1.15733c0-.38578-.1057767-.69689-.31733-.93333-.2115533-.2488933-.51022-.37334-.896-.37334h-1.26933v3.90134h1.25066c.3733333 0 .6844467-.1306667.93334-.392z"/><path d="m45.57535 18.53498c.28622-.39822.64711-.70933 1.08267-.93333.448-.2364467.9084433-.35467 1.38133-.35467.4604467 0 .88978.0933333 1.288.28.4106667.1866667.75289.4417767 1.02667.76533.2737733.32356.46044.65956.56 1.008.0995533.336.14933.7031133.14933 1.10134v6.36533c0 .3733333-.0373333.70311-.112.98933-.0622.2862267-.2115333.60356-.448.952-.224.3484467-.5537767.6471133-.98933.896-.4231133.2488933-.8960033.37334-1.41867.37334-.2986667 0-.58489-.0373333-.85867-.112-.2737733-.0871133-.5288833-.1991133-.76533-.336-.2364467-.1368933-.4480033-.29245-.63467-.46667-.17422-.17422-.3111067-.3546633-.41066-.54133-.1866667-.38578-.2986667-.6968933-.336-.93334-.0373333-.23644-.056-.5102167-.056-.82133v-6.36533c0-.3733333.0373333-.7031133.112-.98934.0871067-.2986667.2302167-.59111.42933-.87733zm3.472.98933c-.2364467-.34844-.5600033-.52266-.97067-.52266-.2115533 0-.4231067.06222-.63466.18666-.1991133.112-.3422267.2426667-.42934.392-.0746667.1493333-.1244433.2986667-.14933.448-.0248667.1493333-.0373.27378-.0373.37334v6.36533.20533c0 .0622.0062333.1306467.0187.20534.0124667.12444.1120233.3297733.29867.616.1866667.2613333.4977767.392.93333.392.224 0 .4231133-.04978.59734-.14934.1866667-.112.3173333-.2364433.392-.37333.0871067-.1493333.1431067-.2862233.168-.41067.0248667-.12444.0373-.2862167.0373-.48533v-6.36533c0-.2488933-.0124333-.4231167-.0373-.52267-.0124667-.0995533-.07469-.2177767-.18667-.35467z"/><path d="m57.16191 29.86565-2.78133-7.59734v7.59734h-1.792v-12.50667h1.69866l2.76267 7.57867v-7.57867h1.792v12.50667z"/><path d="m65.52553 28.55898c-.28622.448-.65333.7964433-1.10133 1.04533-.448.2488933-.9395567.37334-1.47467.37334-.4728867 0-.93333-.112-1.38133-.336-.43556-.224-.7777833-.49778-1.02667-.82134-.2364467-.336-.3982233-.672-.48533-1.008-.0746667-.336-.112-.7155533-.112-1.13866v-6.25334c0-.3111067.0311-.6222167.0933-.93333.0871133-.3111133.3173367-.75289.69067-1.32533.3857733-.60978 1.1448833-.91467 2.27733-.91467.49778 0 .9644467.1182233 1.4.35467.4355533.23644.76533.5288833.98933.87733.2364467.336.38578.6595567.448.97067.0746667.2986667.112.62222.112.97066v.52267h-1.77333v-.52267c0-.0995533-.0062333-.1866633-.0187-.26133 0-.0871133-.0062333-.16178-.0187-.224-.0124667-.112-.1058-.2924433-.28-.54133-.1742267-.2488933-.4666733-.37334-.87734-.37334-.4853333 0-.8088867.1306667-.97066.392-.1493333.2613333-.2364467.4542233-.26134.57867-.0248667.1244467-.0373.2675567-.0373.42933v6.25334.31733c0 .0871133.0062333.16178.0187.224.0124667.0995533.1058.2924433.28.57867.1617733.2613333.4791067.392.952.392.4853333 0 .7964433-.1306667.93333-.392.0746667-.1368933.1306667-.2488933.168-.336.0373333-.09956.0622333-.1866733.0747-.26134.0248667-.0746667.0373-.1493333.0373-.224 0-.0871067 0-.18666 0-.29866v-2.184h-1.43733v-1.568h3.21067v3.752c0 .2613333-.0062433.4853333-.01871.672-.0124667.17422-.0373667.3297733-.0747.46666-.0373333.1368933-.08711.26756-.14933.392-.0498.112-.1120233.2302233-.18667.35467z"/><path d="m.59358 47.11262v-12.50666h1.77333v12.50666z"/><path d="m8.43764 47.11262-2.78134-7.59733v7.59733h-1.792v-12.50666h1.69867l2.76267 7.57866v-7.57866h1.792v12.50666z"/><path d="m12.67593 43.99529v.31733c0 .0871133.0062333.16178.0187.224.0248667.1244467.1182.30489.28.54133.1742267.2488933.48534.37334.93334.37334.2488867 0 .4791067-.04978.69066-.14934.21156-.112.3671167-.25511.46667-.42933.0746667-.1368867.1182233-.2675533.13067-.392.0248667-.1244467.0373-.2364467.0373-.336v-.168-.87733-.168c0-.27378-.0497767-.4853367-.14933-.63467-.09956-.1617733-.32356-.3422167-.672-.54133-.2364467-.1244467-.65956-.29867-1.26934-.52267-.6097733-.224-1.1199933-.5786667-1.53066-1.064s-.616-1.1448867-.616-1.97866v-.56c0-.8586667.28622-1.59289.85866-2.20267.5848933-.62222 1.2942267-.93333 2.128-.93333.8711133 0 1.5928933.3048867 2.16534.91466.5848867.60978.87733 1.3502267.87733 2.22134v.56h-1.792v-.56c0-.0871133-.0062333-.1680033-.0187-.24267 0-.0746667-.0062333-.14311-.0187-.20533-.0124667-.0622-.0435667-.1368667-.0933-.224-.0498-.0871133-.1182433-.1928933-.20533-.31734-.17422-.2488867-.4666633-.37333-.87733-.37333-.3608933 0-.65956.1306667-.896.392-.224.2613333-.336.58489-.336.97067v.56.168c0 .2488867.0373333.4479967.112.59733.0871067.1368867.2862167.2924433.59733.46667.0995533.0498.2488867.1182433.448.20533.2115533.0746667.4666633.168.76533.28.5973333.1991133 1.1324467.55378 1.60534 1.064.4728867.51022.70936 1.18222.70936 2.016v1.008c0 .4355533-.0435867.8026633-.1307 1.10133-.0746667.2986667-.3297767.7342233-.76533 1.30667-.4355533.5475533-1.1635533.82133-2.184.82133-1.0826667 0-1.8666667-.3484433-2.352-1.04533-.4853333-.7093333-.728-1.4373333-.728-2.184v-.448h1.81067z"/><path d="m19.50551 47.11262v-10.84533h-2.10934v-1.66133h6.02934v1.66133h-2.14667v10.84533z"/><path d="m24.30871 47.11262v-12.50666h1.77334v12.50666z"/><path d="m29.10638 47.11262v-10.84533h-2.10934v-1.66133h6.02934v1.66133h-2.14667v10.84533z"/><path d="m39.41252 45.80595c-.27378.4231133-.6284467.7653367-1.064 1.02667-.4231133.2613333-.8960033.392-1.41867.392-.2613333 0-.5226667-.0373333-.784-.112-.2488867-.0746667-.48533-.168-.70933-.28-.224-.1244467-.42311-.2613367-.59733-.41067-.1742267-.1617733-.3048933-.3297733-.392-.504-.1866667-.34844-.3111133-.6533267-.37334-.91466-.0498-.2613333-.0747-.5413333-.0747-.84v-9.55733h1.792v9.55733.24266c.0124667.0622.0249.1244233.0373.18667.0124667.0995533.1058.2737767.28.52267.16178.224.44178.336.84.336.3608867 0 .6284433-.1306667.80267-.392.1866667-.27378.28-.5724467.28-.896v-9.55733h1.792v9.55733c0 .2986667-.0311.5848867-.0933.85866-.0622.27378-.1679767.5351133-.31733.784z"/><path d="m42.71766 47.11262v-10.84533h-2.10933v-1.66133h6.02933v1.66133h-2.14666v10.84533z"/><path d="m47.52087 47.11262v-12.50666h1.77333v12.50666z"/><path d="m51.38147 35.78196c.2862267-.3982267.6471167-.70934 1.08267-.93334.448-.23644.9084433-.35466 1.38133-.35466.4604467 0 .88978.0933333 1.288.28.4106667.1866667.75289.4417767 1.02667.76533s.4604467.6595533.56 1.008c.0995533.336.14933.70311.14933 1.10133v6.36533c0 .3733333-.0373333.7031133-.112.98934-.0622.28622-.2115333.6035533-.448.952-.224.34844-.5537767.6471067-.98933.896-.4231133.2488867-.8960033.37333-1.41867.37333-.2986667 0-.5848867-.0373333-.85866-.112-.27378-.0871133-.5288933-.1991133-.76534-.336-.23644-.1368867-.4479933-.2924433-.63466-.46667-.1742267-.17422-.3111167-.3546633-.41067-.54133-.1866667-.38578-.2986667-.69689-.336-.93333-.0373333-.2364467-.056-.5102267-.056-.82134v-6.36533c0-.3733333.0373333-.70311.112-.98933.0871133-.2986667.2302233-.59111.42933-.87733zm3.472.98933c-.23644-.3484467-.5599933-.52267-.97066-.52267-.21156 0-.4231167.0622233-.63467.18667-.1991133.112-.3422233.2426667-.42933.392-.0746667.1493333-.1244467.2986667-.14934.448-.0248667.1493333-.0373.2737767-.0373.37333v6.36533.20534c0 .0622.0062333.1306433.0187.20533.0124667.1244467.11202.32978.29866.616.1866667.2613333.49778.392.93334.392.224 0 .42311-.0497767.59733-.14933.1866667-.112.3173333-.2364467.392-.37334.0871133-.1493333.1431133-.28622.168-.41066.0248667-.1244467.0373-.2862267.0373-.48534v-6.36533c0-.2488867-.0124333-.4231067-.0373-.52266-.0124667-.09956-.07469-.2177833-.18667-.35467z"/><path d="m62.78882 47.11262-2.78133-7.59733v7.59733h-1.792v-12.50666h1.69866l2.76267 7.57866v-7.57866h1.792v12.50666z"/><path d="m67.11671 43.99529v.31733c0 .0871133.0062333.16178.0187.224.0248667.1244467.1182.30489.28.54133.17422.2488933.48533.37334.93333.37334.2488867 0 .47911-.04978.69067-.14934.2115533-.112.3671067-.25511.46666-.42933.0746667-.1368867.1182233-.2675533.13067-.392.0248667-.1244467.0373-.2364467.0373-.336v-.168-.87733-.168c0-.27378-.0497767-.4853367-.14933-.63467-.0995533-.1617733-.3235533-.3422167-.672-.54133-.2364467-.1244467-.6595567-.29867-1.26933-.52267-.60978-.224-1.1200033-.5786667-1.53067-1.064s-.616-1.1448867-.616-1.97866v-.56c0-.8586667.2862233-1.59289.85867-2.20267.5848867-.62222 1.29422-.93333 2.128-.93333.8711067 0 1.5928833.3048867 2.16533.91466.5848867.60978.87733 1.3502267.87733 2.22134v.56h-1.792v-.56c0-.0871133-.0062333-.1680033-.0187-.24267 0-.0746667-.0062333-.14311-.0187-.20533-.0124667-.0622-.0435667-.1368667-.0933-.224-.0498-.0871133-.1182467-.1928933-.20534-.31734-.17422-.2488867-.4666633-.37333-.87733-.37333-.3608867 0-.6595533.1306667-.896.392-.224.2613333-.336.58489-.336.97067v.56.168c0 .2488867.0373333.4479967.112.59733.0871133.1368867.2862233.2924433.59733.46667.09956.0498.2488933.1182433.448.20533.21156.0746667.4666733.168.76534.28.5973333.1991133 1.1324433.55378 1.60533 1.064s.70937 1.18222.70937 2.016v1.008c0 .4355533-.0435933.8026633-.1307 1.10133-.0746667.2986667-.32978.7342233-.76534 1.30667-.4355533.5475533-1.1635533.82133-2.184.82133-1.0826667 0-1.8666667-.3484433-2.352-1.04533-.4853333-.7093333-.728-1.4373333-.728-2.184v-.448h1.81067z"/></g><g fill-rule="nonzero" transform="translate(11.72 13.01626)"><path d="m4.288 29.92667v-25.46l-4.288 3.216v-4.556l4.288-3.12667h4.24334v29.92667z"/><path d="m24.31375 14.606c.2382267.4168933.3871167.8486733.44667 1.29534.0893333.4466667.134.9975533.134 1.65266v5.71734c0 .6848867-.0744433 1.3697733-.22333 2.05466-.1488933.6551133-.59556 1.5782267-1.34 2.76934-.7742267 1.2208867-2.23334 1.9206633-4.37734 2.09933-1.34 0-2.56089-.28289-3.66267-.84867-1.072-.5955533-1.8313333-1.29533-2.278-2.09933-.4168867-.83378-.6848867-1.5335567-.804-2.09933-.0893333-.56578-.134-1.1911133-.134-1.876v-4.69c0-.6551133.0149-1.11667.0447-1.38467.0298-.29778.1340233-.68489.31267-1.16133l5.94066-16.03534h4.82401l-4.82401 12.55134c.536-.2084467 1.1762233-.31267 1.92067-.31267h.402c1.63778.23822 2.84378 1.02733 3.618 2.36733zm-4.06467 2.278c-.4466667-.5955533-1.04222-.89333-1.78666-.89333-.6551133 0-1.1613367.2382233-1.51867.71467-.3573333.47644-.536 1.1017733-.536 1.876v4.69c0 .6253333.14889 1.2208867.44667 1.78666.3275533.536.87844.804 1.65266.804h.268c.7742267 0 1.28045-.268 1.51867-.804s.35733-1.1315533.35733-1.78666v-4.69c0-.3871133-.0297667-.69978-.0893-.938-.0298-.268-.1340233-.5211133-.31267-.75934z"/></g><path d="m107.76764 66.45422c-3.38889-.031-3.90207 1.92234-3.97265 4.18164 3.38889.031 3.90207-1.92234 3.97265-4.18164zm-9.10937.5332c-1.96317 2.76252-.653 4.30062 1.16015 5.65039 1.96317-2.76252.653-4.30062-1.16015-5.65039zm-3.95117 4.13672c-1.95075 2.7713-.63366 4.30292 1.18554 5.64453 1.95075-2.7713.63366-4.30292-1.18554-5.64453zm7.82617.5429398c-.116818-.0013227-.229584.0428034-.31446.1230802-2.65031 2.43473-4.94407 5.00647-6.20312 7.94531-.29616.69128-.5278 1.40513-.69727 2.13867-1.76374-1.7604-2.40506-3.63948-4.68164-3.59961-5.45212.0955-8.28852 8.57568-15.86718 8.62891-10.71026.0752-9.86133-12.92206-30.00977-13.02734 12.06865 9.65877-.17141 18.53377 17.70508 25.38867-7.58621 1.41743-7.75371 7.90527-17.75781 4.6914 4.6626 1.80935 9.69174 7.69814 19.08007 8.03907v7.04101c-10.68537-.31824-21.04883-.75-21.04883-.75v4.4668s24.93522-1.07813 37.45899-1.07813c4.14365 0 7.58875.83726 9.07031 1.26172v2.82617c0 1.03602.83508 1.86915 1.8711 1.86915h10.54882c1.03602 0 1.8711-.83313 1.8711-1.86915v-10.43164c0-1.03601-.83508-1.86914-1.8711-1.86914h-10.54882c-1.03602 0-1.8711.83313-1.8711 1.86914v2.76953c-1.48156.42448-4.92666 1.26368-9.07031 1.26368-2.81444 0-6.2933-.05816-9.9375-.14258v-7.52539c18.28155-2.11021 17.65906-13.77644 17.59375-16.44141-.2173-8.86637 3.90916-10.76938 7.18359-11.26953-.08367 1.79651.22336 3.7103 1.05664 5.76172.0607066.148978.1962805.2542528.3556525.2761683.159372.0219156.3183297-.0428576.4169951-.16992s.122049-.2971103.0613424-.4460883c-.81313-2.00176-1.09649-3.81982-.99414-5.51954.79716-.07275 1.53223-.10353 2.05273-.15625-.75411-.33888-1.3688-.73578-1.89453-1.15429.1587-.85509.40556-1.68433.75-2.48828 1.17738-2.74819 3.3785-5.23906 5.98633-7.63477.139646-.1235371.188658-.3203893.12324-.4949827-.065418-.1745933-.231718-.2907709-.41816-.2921575zm2.5664 1.8027702c-1.08152.0575-2.01353.79381-2.9082 1.69726 2.46017 2.3309 4.16729 1.25066 5.75781-.35547-1.07632-1.01977-2.00842-1.38652-2.84961-1.34179zm-3.58398 4.3027299c-.9501.0002301-1.88761.5042801-2.82031 1.1425801 1.97532 2.75385 3.8553 2.01487 5.7207.73828-.98766-1.37693-1.95029-1.88109-2.90039-1.8808601zm-11.63086 30.5488301c-1.03602 0-1.87109.83507-1.87109 1.87109v.38086c0 1.03602.83507 1.86914 1.87109 1.86914h12.9707c1.03602 0 1.86914-.83312 1.86914-1.86914v-.38086c0-1.03602-.83312-1.87109-1.86914-1.87109zm-21.6875 3.56445v7.28516c-.78765-.02018-1.55304-.05003-2.34766-.07227v-7.09961c.81149-.02231 1.59473-.05996 2.34766-.11328zm-29.17969 5.07422c-1.03602 0-1.87109.83312-1.87109 1.86914v3.16602c0 1.03601.83507 1.86914 1.87109 1.86914h.52735c1.03601 0 1.86914-.83313 1.86914-1.86914v-3.16602c0-1.03602-.83313-1.86914-1.86914-1.86914zm50.86719 11.4043c-1.03602 0-1.87109.83507-1.87109 1.87109v.38086c0 1.03602.83507 1.87109 1.87109 1.87109h12.9707c1.03602 0 1.86914-.83507 1.86914-1.87109v-.38086c0-1.03602-.83312-1.87109-1.86914-1.87109z"/></g></g></svg>