<svg height="150" viewBox="0 0 149 150" width="149" xmlns="http://www.w3.org/2000/svg"><g fill="none" fill-rule="evenodd" transform="translate(.78705 .93456)"><path d="m.82675 0h146.4393c.458 0 .8267.36873.8267.82675v146.68107c0 .45802-.3687.82675-.8267.82675h-146.4393c-.45802 0-.82675-.36873-.82675-.82675v-146.68107c0-.45802.36873-.82675.82675-.82675z" fill="#00aed9"/><g fill="#fff" fill-rule="nonzero"><g transform="translate(42.83416 13.13333)"><path d="m6.20263 9.464c0 .39822-.0249.74044-.0747 1.02666-.03733333.2862267-.16177667.59734-.37333.93334-.112.17422-.25511333.34222-.42934.504-.16177333.1493333-.34844.28622-.56.41066-.19910667.112-.41688333.2053333-.65333.28s-.46667.112-.69067.112c-.56 0-1.07022-.11822-1.53066-.35466-.448-.2364467-.77778-.5351133-.98934-.896-.21155333-.3608933-.34844-.6968933-.41066-1.008-.0498-.3111133-.0747-.64711333-.0747-1.008v-6.44c0-.34844667.0311-.65956.0933-.93334.07466667-.28622.224-.59110667.448-.91466.224-.32356.54133333-.59734.952-.82134.41066667-.23644.84-.35466 1.288-.35466.85866667 0 1.57422333.28622 2.14667.85866.57244667.56.85867 1.28178.85867 2.16534v.672h-1.77334v-.672c0-.34844667-.09955333-.64089333-.29866-.87734-.18666667-.23644-.46666667-.35466-.84-.35466-.34844667 0-.62222667.11822-.82134.35466-.18666667.23644667-.28.52889333-.28.87734v6.92533c.02486667.1866667.11198.3982233.26134.63467.17422.2488867.46044.37333.85866.37333.42311333 0 .70311333-.112.84-.336.13689333-.224.21778333-.3857767.24267-.48533.02486667-.112.0373-.26133333.0373-.448v-.63467h1.77334z"/><path d="m12.82135 12.61866h-5.33867v-12.50666h1.792v10.71466h3.54667z"/><path d="m18.75228 10.82666v1.792h-5.35733v-12.50666h5.35733v1.64266h-3.584v3.696h3.136v1.69867h-3.136v3.67733z"/><path d="m19.08959 12.61866 2.8-12.50666h1.54933l2.8 12.50666h-1.92267l-.504-2.688h-2.31466l-.52267 2.688zm2.72533-4.34933h1.68l-.84-4.55467z"/><path d="m31.58295 12.61866-2.78133-7.59733v7.59733h-1.792v-12.50666h1.69866l2.76267 7.57866v-7.57866h1.792v12.50666z"/><path d="m42.28897 12.61866-1.47467-7.616-1.43733 7.616h-1.66134l-1.81066-12.50666h1.904l.896 7.56 1.43733-7.56h1.32533l1.47467 7.56.896-7.56h1.88533l-1.75466 12.50666z"/><path d="m45.27229 12.61866 2.8-12.50666h1.54934l2.8 12.50666h-1.92267l-.504-2.688h-2.31467l-.52266 2.688zm2.72534-4.34933h1.68l-.84-4.55467z"/><path d="m53.78158 12.61866v-10.84533h-2.10933v-1.66133h6.02933v1.66133h-2.14666v10.84533z"/><path d="m64.08852 10.82666v1.792h-5.35733v-12.50666h5.35733v1.64266h-3.584v3.696h3.136v1.69867h-3.136v3.67733z"/><path d="m65.00579 12.61866v-12.50666h3.136c.8213333 0 1.512.28622 2.072.85866.5724467.57244667.85867 1.27556.85867 2.10934v1.15733c0 1.15733333-.4915567 2.04089-1.47467 2.65067l1.904 5.73066h-1.904l-1.68-5.35733h-1.12v5.35733zm3.976-7.336c.112-.13688667.1866667-.29244.224-.46666.0498-.17422667.0747-.36711667.0747-.57867v-1.15733c0-.38578-.1057767-.69689333-.31733-.93334-.21156-.24888667-.5102267-.37333-.896-.37333h-1.26937v3.90133h1.25067c.3733333 0 .6844433-.13066667.93333-.392z"/><path d="m0 29.86564 2.8-12.50667h1.54933l2.8 12.50667h-1.92267l-.504-2.688h-2.31466l-.52267 2.688zm2.72533-4.34933h1.68l-.84-4.55467z"/><path d="m12.49336 29.86564-2.78134-7.59733v7.59733h-1.792v-12.50667h1.69867l2.76267 7.57867v-7.57867h1.792v12.50667z"/><path d="m18.11241 17.35897c.8088867 0 1.4995533.2862233 2.072.85867.5848867.56.87733 1.2444433.87733 2.05333v6.496c0 .9208933-.28 1.66756-.84 2.24-.56.5724467-1.2817767.85867-2.16533.85867h-2.78133v-12.50667zm1.176 9.408v-6.496c0-.34844-.1306667-.6408833-.392-.87733-.2488867-.2364467-.5537767-.35467-.91467-.35467h-.93333v9.16534h.87733c.9084467 0 1.36267-.4791133 1.36267-1.43734z"/><path d="m26.30001 26.74831v.31733c0 .0871133.0062333.16178.0187.224.0248667.1244467.1182.30489.28.54133.17422.2488933.48533.37334.93333.37334.2488933 0 .4791167-.04978.69067-.14934.2115533-.112.36711-.25511.46667-.42933.0746667-.1368867.11822-.2675533.13066-.392.0248667-.1244467.0373-.2364467.0373-.336v-.168-.87733-.168c0-.27378-.04978-.4853367-.14934-.63467-.0995533-.16178-.3235533-.3422233-.672-.54133-.23644-.1244467-.65955-.29867-1.26933-.52267-.6097733-.224-1.1199933-.5786667-1.53066-1.064s-.616-1.14489-.616-1.97867v-.56c0-.8586667.28622-1.5928867.85866-2.20266.5848867-.6222267 1.29422-.93334 2.128-.93334.8711133 0 1.59289.30489 2.16533.91467.5848933.60978.87734 1.3502233.87734 2.22133v.56h-1.792v-.56c0-.0871067-.0062333-.1679933-.0187-.24266 0-.0746667-.0062333-.1431133-.0187-.20534-.0124667-.0622-.0435667-.1368667-.0933-.224-.0498-.0871067-.1182433-.1928833-.20533-.31733-.1742267-.2488867-.4666733-.37333-.87734-.37333-.3608867 0-.6595533.1306667-.896.392-.224.2613333-.336.5848867-.336.97066v.56.168c0 .2488933.0373333.4480067.112.59734.0871133.1368867.2862267.29244.59734.46666.0995533.0498.2488867.1182467.448.20534.2115533.0746667.4666633.168.76533.28.5973333.1991067 1.1324433.5537733 1.60533 1.064.4728933.51022.70937 1.18222.70937 2.016v1.008c0 .4355533-.0435867.8026633-.1307 1.10133-.0746667.2986667-.3297767.7342233-.76533 1.30667-.43556.5475533-1.16356.82133-2.184.82133-1.0826667 0-1.8666667-.3484433-2.352-1.04533-.4853333-.7093333-.728-1.4373333-.728-2.184v-.448h1.81066z"/><path d="m30.9952 29.86564 2.8-12.50667h1.54933l2.8 12.50667h-1.92266l-.504-2.688h-2.31467l-.52267 2.688zm2.72533-4.34933h1.68l-.84-4.55467z"/><path d="m43.62991 29.86564-2.78133-7.59733v7.59733h-1.792v-12.50667h1.69866l2.76267 7.57867v-7.57867h1.792v12.50667z"/><path d="m46.4823 29.86564v-12.50667h1.77333v12.50667z"/><path d="m51.35569 29.86564v-10.84533h-2.10933v-1.66134h6.02933v1.66134h-2.14667v10.84533z"/><path d="m54.64657 29.86564 2.8-12.50667h1.54933l2.8 12.50667h-1.92266l-.504-2.688h-2.31467l-.52267 2.688zm2.72533-4.34933h1.68l-.84-4.55467z"/><path d="m63.36788 29.86564v-10.84533h-2.10933v-1.66134h6.02933v1.66134h-2.14667v10.84533z"/><path d="m68.24681 29.86564v-12.50667h1.77333v12.50667z"/><path d="m72.02286 18.53497c.2862267-.39822.6471167-.70933 1.08267-.93333.448-.2364467.9084433-.35467 1.38133-.35467.4604467 0 .88978.0933333 1.288.28.4106667.1866667.75289.44178 1.02667.76534.27378.3235533.4604467.6595533.56 1.008.0995533.336.14933.70311.14933 1.10133v6.36533c0 .3733333-.0373333.7031133-.112.98934-.0622.28622-.2115333.6035533-.448.952-.224.34844-.5537767.6471067-.98933.896-.4231133.2488867-.8960033.37333-1.41867.37333-.2986667 0-.5848867-.0373333-.85866-.112-.27378-.0871133-.5288933-.1991133-.76534-.336-.23644-.1368867-.4479933-.2924433-.63466-.46667-.1742267-.17422-.3111167-.3546633-.41067-.54133-.1866667-.38578-.2986667-.69689-.336-.93333-.0373333-.2364467-.056-.5102267-.056-.82134v-6.36533c0-.3733333.0373333-.70311.112-.98933.0871133-.2986667.2302233-.5911133.42933-.87734zm3.472.98934c-.23644-.3484467-.5599933-.52267-.97066-.52267-.21156 0-.4231167.0622233-.63467.18667-.1991133.112-.3422233.2426667-.42933.392-.0746667.1493333-.1244467.2986667-.14934.448-.0248667.1493333-.0373.2737767-.0373.37333v6.36533.20534c0 .0622.0062333.1306433.0187.20533.0124667.1244467.11202.32978.29866.616.1866667.2613333.49778.392.93334.392.224 0 .42311-.0497767.59733-.14933.1866667-.112.3173333-.2364467.392-.37334.0871133-.1493333.1431133-.28622.168-.41066.0248667-.1244467.0373-.2862267.0373-.48534v-6.36533c0-.2488867-.0124333-.42311-.0373-.52267-.0124667-.0995533-.07469-.2177733-.18667-.35466z"/><path d="m83.59555 29.86564-2.78133-7.59733v7.59733h-1.792v-12.50667h1.69866l2.76267 7.57867v-7.57867h1.792v12.50667z"/></g><path d="m12.23866 14.606c.2382267.4168867.3871167.8486633.44667 1.29533.0893333.4466667.134.9975567.134 1.65267v5.71733c0 .6848933-.0744433 1.3697833-.22333 2.05467-.1488933.6551133-.59556 1.5782233-1.34 2.76933-.7742267 1.2208933-2.23334 1.9206733-4.37734 2.09934-1.34 0-2.56088667-.28289-3.66266-.84867-1.072-.5955533-1.83133333-1.29533-2.278-2.09933-.41689333-.83378-.68489333-1.53356-.804-2.09934-.08933333-.5657733-.134-1.1911067-.134-1.876v-4.69c0-.6551067.0149-1.11666.0447-1.38466.0298-.29778.13402333-.6848933.31267-1.16134l5.94067-16.03533h4.824l-4.824 12.55133c.536-.20844 1.17622-.31266 1.92066-.31266h.402c1.63778.23822 2.84378 1.02733 3.618 2.36733zm-4.06466 2.278c-.44666667-.5955533-1.04222333-.89333-1.78667-.89333-.65511333 0-1.16133667.23822-1.51867.71466-.35733333.4764467-.536 1.10178-.536 1.876v4.69c0 .6253333.14889 1.22089.44667 1.78667.32755333.536.87844333.804 1.65267.804h.268c.77422 0 1.28044-.268 1.51866-.804.23822667-.536.35734-1.1315567.35734-1.78667v-4.69c0-.3871067-.02976667-.6997733-.0893-.938-.0298-.268-.13402-.52111-.31266-.75933z" transform="translate(16.15244 12.50294)"/><path d="m47.82623 59.79786c-.7092 0-1.4023.62263-1.24805 1.56055l8.73438 53.10742c.11306.68745.54915 1.32617 1.24805 1.32617h10.60546l.78126 8.65625h-4.52344l10.72265 10.72461 10.72266-10.72461h-4.52344l.78125-8.65625h10.60547c.6989 0 1.13499-.63872 1.24805-1.32617l8.73437-53.10742c.15425-.93792-.53884-1.56055-1.24804-1.56055zm1.61328 2.64649h49.41406l-1.45898 8.87304c-5.72741-.66289-14.31476 6.67387-23.96289 1.82617-11.87489-5.96651-12.13217.46526-22.24609-.07812zm24.66797 18.5664c4.66247 8.07562 8.64258 11.18628 8.64258 16.65039 0 3.65192-2.30479 8.38282-8.64258 8.38282s-8.64258-4.7309-8.64258-8.38282c0-5.46411 3.98012-8.57477 8.64258-16.65039z"/></g></g></svg>