<svg height="150" viewBox="0 0 149 150" width="149" xmlns="http://www.w3.org/2000/svg"><g fill="none" fill-rule="evenodd" transform="translate(.89253 .93456)"><path d="m.82676 0h146.43925c.45802 0 .82675.36873.82675.82675v146.68107c0 .45802-.36873.82675-.82675.82675h-146.43925c-.45803 0-.82676-.36873-.82676-.82675v-146.68107c0-.45802.36873-.82675.82676-.82675z" fill="#d3a029"/><g fill="#fff"><g fill-rule="nonzero" transform="translate(42.76865 13.13333)"><path d="m0 12.61866v-1.60533l3.36-9.24h-3.11734v-1.66133h5.11467v1.43733l-3.34133 9.27733h3.34133v1.792z"/><path d="m12.22025 10.82666v1.792h-5.35734v-12.50666h5.35734v1.64266h-3.584v3.696h3.136v1.69867h-3.136v3.67733z"/><path d="m13.13752 12.61866v-12.50666h3.136c.8213333 0 1.512.28622 2.072.85866.5724467.57244667.85867 1.27556.85867 2.10934v1.15733c0 1.15733333-.4915567 2.04089-1.47467 2.65067l1.904 5.73066h-1.904l-1.68-5.35733h-1.12v5.35733zm3.976-7.336c.112-.13688667.1866667-.29244.224-.46666.0498-.17422667.0747-.36711667.0747-.57867v-1.15733c0-.38578-.10578-.69689333-.31734-.93334-.2115533-.24888667-.51022-.37333-.896-.37333h-1.26933v3.90133h1.25067c.3733333 0 .6844433-.13066667.93333-.392z"/><path d="m20.80131 1.288c.28622-.39822667.64711-.70934 1.08267-.93334.448-.23644.9084433-.35466 1.38133-.35466.4604467 0 .88978.09333333 1.288.28.4106667.18666667.75289.44177667 1.02667.76533.2737733.32355333.46044.65955333.56 1.008.0995533.336.14933.70311.14933 1.10133v6.36534c0 .37333333-.0373333.70311-.112.98933-.0622.28622-.2115333.6035533-.448.952-.224.3484467-.5537767.6471133-.98933.896-.4231133.2488867-.8960033.37333-1.41867.37333-.2986667 0-.58489-.0373333-.85867-.112-.2737733-.0871067-.5288833-.1991067-.76533-.336-.2364467-.1368867-.4480033-.29244-.63467-.46666-.17422-.1742267-.3111067-.3546733-.41066-.54134-.1866667-.3857733-.2986667-.6968833-.336-.93333s-.056-.51022333-.056-.82133v-6.36534c0-.37333333.0373333-.70311.112-.98933.0871067-.29866667.2302167-.59111.42933-.87733zm3.472.98933c-.2364467-.34844667-.5600033-.52267-.97067-.52267-.2115533 0-.4231067.06222333-.63466.18667-.1991133.112-.3422267.24266667-.42934.392-.0746667.14933333-.1244433.29866667-.14933.448-.0248667.14933333-.0373.27377667-.0373.37333v6.36534.20533c0 .0622.0062333.13064333.0187.20533.0124667.1244467.1120233.32978.29867.616.1866667.2613333.4977767.392.93333.392.224 0 .4231133-.0497767.59734-.14933.1866667-.112.3173333-.2364433.392-.37333.0871067-.1493333.1431067-.2862233.168-.41067.0248667-.12444667.0373-.28622333.0373-.48533v-6.36534c0-.24888667-.0124333-.42310667-.0373-.52266-.0124667-.09956-.07469-.21778333-.18667-.35467z"/><path d="m.37333 29.86564v-12.50667h1.77333v5.33867h2.27734v-5.33867h1.77333v12.50667h-1.77333v-5.58133h-2.27734v5.58133z"/><path d="m13.55229 28.55897c-.27378.4231133-.6284467.7653367-1.064 1.02667-.4231133.2613333-.8960033.392-1.41867.392-.2613333 0-.5226667-.0373333-.784-.112-.2488867-.0746667-.48533-.168-.70933-.28-.224-.1244467-.42311333-.2613367-.59734-.41067-.17422-.1617733-.30488667-.3297733-.392-.504-.18666667-.34844-.31111-.6533267-.37333-.91466-.0498-.2613333-.0747-.5413333-.0747-.84v-9.55734h1.792v9.55734.24266c.01246667.0622.0249.1244233.0373.18667.01246667.0995533.1058.2737767.28.52267.1617733.224.4417733.336.84.336.3608867 0 .62844-.1306667.80266-.392.1866667-.27378.28-.5724467.28-.896v-9.55734h1.792v9.55734c0 .2986667-.0311.5848867-.0933.85866-.0622.27378-.1679767.5351133-.31733.784z"/><path d="m19.66405 29.86564-2.78133-7.59733v7.59733h-1.792v-12.50667h1.69867l2.76266 7.57867v-7.57867h1.792v12.50667z"/><path d="m28.2498 28.55897c-.28622.448-.65333.7964467-1.10133 1.04534-.448.2488867-.9395567.37333-1.47467.37333-.4728867 0-.93333-.112-1.38133-.336-.4355533-.224-.7777767-.4977767-1.02667-.82133-.23644-.336-.3982167-.672-.48533-1.008-.0746667-.336-.112-.7155567-.112-1.13867v-6.25333c0-.3111133.0311-.6222267.0933-.93334.0871133-.3111067.3173367-.7528833.69067-1.32533.38578-.60978 1.14489-.91467 2.27733-.91467.49778 0 .9644467.1182233 1.4.35467.43556.2364467.76534.52889.98934.87733.23644.336.3857733.6595567.448.97067.0746667.2986667.112.6222233.112.97067v.52266h-1.77334v-.52266c0-.09956-.0062333-.1866733-.0187-.26134 0-.0871067-.0062333-.1617733-.0187-.224-.0124667-.112-.1058-.2924433-.28-.54133-.17422-.2488867-.4666633-.37333-.87733-.37333-.4853333 0-.80889.1306667-.97067.392-.1493333.2613333-.2364433.45422-.26133.57866-.0248667.1244467-.0373.26756-.0373.42934v6.25333.31733c0 .0871133.0062333.16178.0187.224.0124667.09956.1058.29245.28.57867.16178.2613333.4791133.392.952.392.4853333 0 .7964433-.1306667.93333-.392.0746667-.1368867.1306667-.2488867.168-.336.0373333-.0995533.0622333-.1866633.0747-.26133.0248667-.0746667.0373-.1493333.0373-.224 0-.0871133 0-.18667 0-.29867v-2.184h-1.43733v-1.568h3.21067v3.752c0 .2613333-.0062333.4853333-.0187.672-.0124667.17422-.0373667.3297767-.0747.46667-.0373333.1368867-.08711.2675533-.14933.392-.0498.112-.1120233.23022-.18667.35466z"/><path d="m35.38868 28.07364v1.792h-5.35733v-12.50667h5.35733v1.64267h-3.584v3.696h3.136v1.69867h-3.136v3.67733z"/><path d="m36.16461 29.86564v-12.50667h3.136c.8213333 0 1.512.2862233 2.072.85867.5724467.5724467.85867 1.2755567.85867 2.10933v1.15734c0 1.1573333-.4915567 2.0408867-1.47467 2.65066l1.904 5.73067h-1.904l-1.68-5.35733h-1.12v5.35733zm3.976-7.336c.112-.1368867.1866667-.2924433.224-.46667.0498-.17422.0747-.3671067.0747-.57866v-1.15734c0-.3857733-.10578-.6968833-.31734-.93333-.2115533-.2488867-.51022-.37333-.896-.37333h-1.26933v3.90133h1.25067c.3733333 0 .6844433-.1306667.93333-.392z"/></g><path d="m12.81933 30.19467h-12.73v-3.93067l7.95067-15.45467c.35733333-.7146667.536-1.44422.536-2.18866v-2.23334c0-.59555333-.20844667-1.10177333-.62534-1.51866-.41688667-.44666667-.92310667-.67-1.51866-.67-.536 0-1.02733333.19355333-1.474.58066-.41689333.38711333-.62534.86356-.62534 1.42934v2.63533h-4.33266v-2.144c0-1.16133333.43177667-2.57577667 1.29533-4.24333.89333333-1.63778 2.68-2.45667 5.36-2.45667 1.69733333 0 3.14155667.64022333 4.33267 1.92067 1.2208867 1.31022 1.83133 2.79910667 1.83133 4.46666v2.72467c0 1.2208867-.3275567 2.4417767-.98267 3.66267l-6.7 13.17666h7.68267z" fill-rule="nonzero" transform="translate(15.70554 12.23494)"/><path d="m83.54574 129.20612c1.17407 0 1.38347-1.27824 1.32577-2.10564-.0702-1.00557.89693-1.1651 1.40376-1.32577 5.71569-1.81193 11.7114-5.28829 16.45518-10.29423 4.54768-4.79901 8.13645-9.77911 9.43638-18.09289.15746-1.00707-.4101-1.79369-1.40376-1.79369h-77.33741c-.99366 0-1.56122.78662-1.40376 1.79369 1.29993 8.31378 4.8887 13.29388 9.43638 18.09289 4.74377 5.00594 10.73948 8.4823 16.45517 10.29423.50683.16067 1.47395.3202 1.40376 1.32577-.0577.8274.1517 2.10564 1.32577 2.10564zm-26.37175-37.01059h5.12847s2.35052-6.56859-3.25354-12.18701c-1.79293-1.79752-2.92916-4.4919-2.92916-7.03074 0-4.82893 2.16703-7.62523 2.80751-8.65651 1.65102-2.65841-2.28383-4.52833-3.97731-2.49557-2.61573 3.13978-4.13329 7.45543-4.13329 11.54202 0 4.60542 2.23604 6.94404 4.52322 9.67033 4.24759 5.06307 1.8341 9.15748 1.8341 9.15748zm30.88269 0h5.12847s2.35052-6.56859-3.25354-12.18701c-1.79293-1.79752-2.92916-4.4919-2.92916-7.03074 0-4.82893 2.16703-7.62523 2.80751-8.65651 1.65102-2.65841-2.28383-4.52833-3.97731-2.49557-2.61573 3.13978-4.13329 7.45543-4.13329 11.54202 0 4.60542 2.23604 6.94404 4.52322 9.67033 4.24759 5.06307 1.8341 9.15748 1.8341 9.15748zm-15.36336 0h5.12847s2.35052-6.56859-3.25354-12.18701c-1.79293-1.79752-2.92916-4.4919-2.92916-7.03074 0-4.82893 2.16703-7.62523 2.80751-8.65651 1.65102-2.65841-2.28383-4.52833-3.97731-2.49557-2.61573 3.13978-4.13329 7.45543-4.13329 11.54202 0 4.60542 2.23604 6.94404 4.52322 9.67033 4.24759 5.06307 1.8341 9.15748 1.8341 9.15748z"/></g></g></svg>