<svg height="150" viewBox="0 0 149 150" width="149" xmlns="http://www.w3.org/2000/svg"><g fill="none" fill-rule="evenodd" transform="translate(.86615 .93456)"><path d="m.82675 0h146.43925c.45803 0 .82676.36873.82676.82675v146.68107c0 .45802-.36873.82675-.82676.82675h-146.43925c-.45802 0-.82675-.36873-.82675-.82675v-146.68107c0-.45802.36873-.82675.82675-.82675z" fill="#279b48"/><g fill="#fff" fill-rule="nonzero" transform="translate(42.92788 13.13333)"><path d="m6.40266 11.312c-.28622.448-.65333.7964433-1.10133 1.04533s-.93955667.37333-1.47467.37333c-.47288667 0-.93333-.112-1.38133-.336-.43555333-.224-.77777667-.4977767-1.02667-.82133-.23644-.336-.39821667-.672-.48533-1.008-.07466667-.336-.112-.71555667-.112-1.13867v-6.25333c0-.31111333.0311-.62222333.0933-.93333.08711333-.31111333.31733667-.75289333.69067-1.32534.38578-.60977333 1.14489-.91466 2.27733-.91466.49778 0 .96444667.11822 1.4.35466.43556.23644667.76534.52889333.98934.87734.23644.336.38577333.65955333.448.97066.07466667.29866667.112.62222333.112.97067v.52267h-1.77334v-.52267c0-.09955333-.00623333-.18666333-.0187-.26133 0-.08711333-.00623333-.16178-.0187-.224-.01246667-.112-.1058-.29244667-.28-.54134-.17422-.24888667-.46666333-.37333-.87733-.37333-.48533333 0-.80889.13066667-.97067.392-.14933333.26133333-.23644333.45422333-.26133.57867-.02486667.12444-.0373.26755-.0373.42933v6.25333.31734c0 .08710667.00623333.16177333.0187.224.01246667.0995533.1058.29244.28.57866.16178.2613333.47911333.392.952.392.48533333 0 .79644333-.1306667.93333-.392.07466667-.1368867.13066667-.2488867.168-.336.03733333-.0995533.06223333-.1866633.0747-.26133.02486667-.07466667.0373-.14933333.0373-.224 0-.08711333 0-.18667 0-.29867v-2.184h-1.43733v-1.568h3.21067v3.752c0 .26133333-.00623333.48533333-.0187.672-.01246667.1742267-.03736667.3297833-.0747.46667s-.08711.2675533-.14933.392c-.0498.112-.11202333.2302233-.18667.35467z"/><path d="m8.80689 1.288c.28622667-.39822667.64711667-.70934 1.08267-.93334.448-.23644.9084433-.35466 1.38133-.35466.4604467 0 .88978.09333333 1.288.28.4106667.18666667.75289.44177667 1.02667.76533s.4604467.65955333.56 1.008c.0995533.336.14933.70311.14933 1.10133v6.36534c0 .37333333-.0373333.70311-.112.98933-.0622.28622-.2115333.6035533-.448.952-.224.3484467-.5537767.6471133-.98933.896-.4231133.2488867-.8960033.37333-1.41867.37333-.2986667 0-.5848867-.0373333-.85866-.112-.27378-.0871067-.52889333-.1991067-.76534-.336-.23644-.1368867-.44799333-.29244-.63466-.46666-.17422667-.1742267-.31111667-.3546733-.41067-.54134-.18666667-.3857733-.29866667-.6968833-.336-.93333s-.056-.51022333-.056-.82133v-6.36534c0-.37333333.03733333-.70311.112-.98933.08711333-.29866667.23022333-.59111.42933-.87733zm3.472.98933c-.23644-.34844667-.5599933-.52267-.97066-.52267-.21156 0-.4231167.06222333-.63467.18667-.1991133.112-.3422233.24266667-.42933.392-.0746667.14933333-.1244467.29866667-.14934.448-.0248667.14933333-.0373.27377667-.0373.37333v6.36534.20533c0 .0622.0062333.13064333.0187.20533.0124667.1244467.11202.32978.29866.616.1866667.2613333.49778.392.93334.392.224 0 .42311-.0497767.59733-.14933.1866667-.112.3173333-.2364433.392-.37333.0871133-.1493333.1431133-.2862233.168-.41067.0248667-.12444667.0373-.28622333.0373-.48533v-6.36534c0-.24888667-.0124333-.42310667-.0373-.52266-.0124667-.09956-.07469-.21778333-.18667-.35467z"/><path d="m16.35826 1.288c.28622-.39822667.6471067-.70934 1.08266-.93334.448-.23644.9084467-.35466 1.38134-.35466.46044 0 .8897733.09333333 1.288.28.4106667.18666667.7528867.44177667 1.02666.76533.27378.32355333.4604467.65955333.56 1.008.09956.336.14934.70311.14934 1.10133v6.36534c0 .37333333-.0373333.70311-.112.98933-.0622.28622-.2115333.6035533-.448.952-.224.3484467-.55378.6471133-.98934.896-.4231067.2488867-.8959933.37333-1.41866.37333-.2986667 0-.58489-.0373333-.85867-.112-.27378-.0871067-.52889-.1991067-.76533-.336-.2364467-.1368867-.4480033-.29244-.63467-.46666-.17422-.1742267-.31111-.3546733-.41067-.54134-.1866667-.3857733-.2986667-.6968833-.336-.93333s-.056-.51022333-.056-.82133v-6.36534c0-.37333333.0373333-.70311.112-.98933.0871133-.29866667.2302267-.59111.42934-.87733zm3.472.98933c-.2364467-.34844667-.5600033-.52267-.97067-.52267-.2115533 0-.42311.06222333-.63467.18667-.1991067.112-.3422167.24266667-.42933.392-.0746667.14933333-.1244433.29866667-.14933.448-.0248667.14933333-.0373.27377667-.0373.37333v6.36534.20533c0 .0622.0062333.13064333.0187.20533.0124667.1244467.1120233.32978.29867.616.1866667.2613333.4977767.392.93333.392.224 0 .42311-.0497767.59733-.14933.1866667-.112.3173333-.2364433.392-.37333.0871133-.1493333.1431133-.2862233.168-.41067.0248667-.12444667.0373-.28622333.0373-.48533v-6.36534c0-.24888667-.0124333-.42310667-.0373-.52266-.0124667-.09956-.0746867-.21778333-.18666-.35467z"/><path d="m26.33629.112c.8088867 0 1.4995533.28622 2.072.85866.5848867.56.87733 1.24444667.87733 2.05334v6.496c0 .9208867-.28 1.6675533-.84 2.24-.56.57244-1.2817767.85866-2.16533.85866h-2.78134v-12.50666zm1.176 9.408v-6.496c0-.34844667-.1306667-.64089333-.392-.87734-.2488933-.23644-.5537833-.35466-.91467-.35466h-.93333v9.16533h.87733c.9084467 0 1.36267-.47911 1.36267-1.43733z"/><path d="m32.70385 12.61866v-12.50666h1.77333v5.33866h2.27734v-5.33866h1.77333v12.50666h-1.77333v-5.58133h-2.27734v5.58133z"/><path d="m45.54412 10.82666v1.792h-5.35734v-12.50666h5.35734v1.64266h-3.584v3.696h3.136v1.69867h-3.136v3.67733z"/><path d="m45.81075 12.61866 2.8-12.50666h1.54933l2.8 12.50666h-1.92267l-.504-2.688h-2.31466l-.52267 2.688zm2.72533-4.34933h1.68l-.84-4.55467z"/><path d="m59.22945 12.61866h-5.33866v-12.50666h1.792v10.71466h3.54666z"/><path d="m60.03895 12.61866v-10.84533h-2.10933v-1.66133h6.02933v1.66133h-2.14666v10.84533z"/><path d="m64.91789 12.61866v-12.50666h1.77333v5.33866h2.27733v-5.33866h1.77334v12.50666h-1.77334v-5.58133h-2.27733v5.58133z"/><path d="m0 29.86564 2.8-12.50667h1.54933l2.8 12.50667h-1.92267l-.504-2.688h-2.31466l-.52267 2.688zm2.72533-4.34933h1.68l-.84-4.55467z"/><path d="m12.6347 29.86564-2.78133-7.59733v7.59733h-1.792v-12.50667h1.69867l2.76266 7.57867v-7.57867h1.792v12.50667z"/><path d="m19.10183 17.35897c.8088867 0 1.4995533.2862233 2.072.85867.5848867.56.87733 1.2444433.87733 2.05333v6.496c0 .9208933-.28 1.66756-.84 2.24-.56.5724467-1.2817767.85867-2.16533.85867h-2.78133v-12.50667zm1.176 9.408v-6.496c0-.34844-.1306667-.6408833-.392-.87733-.2488867-.2364467-.5537767-.35467-.91467-.35467h-.93333v9.16534h.87733c.9084467 0 1.36267-.4791133 1.36267-1.43734z"/><path d="m31.27742 29.86564-1.47467-7.616-1.43733 7.616h-1.66134l-1.81066-12.50667h1.904l.896 7.56 1.43733-7.56h1.32533l1.47467 7.56.896-7.56h1.88533l-1.75466 12.50667z"/><path d="m40.99411 28.07364v1.792h-5.35733v-12.50667h5.35733v1.64267h-3.584v3.696h3.136v1.69867h-3.136v3.67733z"/><path d="m47.0047 29.86564h-5.33867v-12.50667h1.792v10.71467h3.54667z"/><path d="m52.86496 29.86564h-5.33867v-12.50667h1.792v10.71467h3.54667z"/><path d="m58.72009 17.35897c.3857733 0 .74666.08089 1.08266.24267.3733333.17422.75289.45422 1.13867.84.4106667.39822.616 1.0204433.616 1.86667v.952c0 .95822-.3795567 1.63022-1.13867 2.016.7591133.448 1.13867 1.1448867 1.13867 2.09066v1.456c0 .88356-.2862233 1.61156-.85867 2.184-.56.5724467-1.2817767.85867-2.16533.85867h-2.76267v-12.50667zm1.064 3.71467v-.76533c0-.38578-.112-.69067-.336-.91467-.224-.2364467-.5226667-.35467-.896-.35467h-1.008v3.45334h1.064c.4106667 0 .7093333-.1244467.896-.37334.1866667-.2613333.28-.6097767.28-1.04533zm0 5.74933v-1.456c0-.39822-.112-.70933-.336-.93333-.21156-.2364467-.5102267-.35467-.896-.35467h-1.008v4.01334h1.02666c.3608933 0 .65334-.1182233.87734-.35467.224-.2488867.336-.5537767.336-.91467z"/><path d="m68.25093 28.07364v1.792h-5.35734v-12.50667h5.35734v1.64267h-3.584v3.696h3.136v1.69867h-3.136v3.67733z"/><path d="m69.04552 29.86564v-12.50667h1.77333v12.50667z"/><path d="m76.91357 29.86564-2.78134-7.59733v7.59733h-1.792v-12.50667h1.69867l2.76267 7.57867v-7.57867h1.792v12.50667z"/><path d="m85.14595 28.55897c-.28622.448-.65333.7964467-1.10133 1.04534-.448.2488867-.9395567.37333-1.47467.37333-.4728867 0-.93333-.112-1.38133-.336-.43556-.224-.7777833-.4977767-1.02667-.82133-.2364467-.336-.3982233-.672-.48533-1.008-.0746667-.336-.112-.7155567-.112-1.13867v-6.25333c0-.3111133.0311-.6222267.0933-.93334.0871133-.3111067.3173367-.7528833.69067-1.32533.3857733-.60978 1.1448833-.91467 2.27733-.91467.49778 0 .9644467.1182233 1.4.35467s.76533.52889.98933.87733c.2364467.336.38578.6595567.448.97067.0746667.2986667.112.6222233.112.97067v.52266h-1.77333v-.52266c0-.09956-.0062333-.1866733-.0187-.26134 0-.0871067-.0062333-.1617733-.0187-.224-.0124667-.112-.1058-.2924433-.28-.54133-.1742267-.2488867-.4666733-.37333-.87734-.37333-.4853333 0-.8088867.1306667-.97066.392-.1493333.2613333-.2364467.45422-.26134.57866-.0248667.1244467-.0373.26756-.0373.42934v6.25333.31733c0 .0871133.0062333.16178.0187.224.0124667.09956.1058.29245.28.57867.1617733.2613333.4791067.392.952.392.4853333 0 .7964433-.1306667.93333-.392.0746667-.1368867.1306667-.2488867.168-.336.0373333-.0995533.0622333-.1866633.0747-.26133.0248667-.0746667.0373-.1493333.0373-.224 0-.0871133 0-.18667 0-.29867v-2.184h-1.43733v-1.568h3.21067v3.752c0 .2613333-.0062433.4853333-.01871.672-.0124667.17422-.0373667.3297767-.0747.46667-.0373333.1368867-.08711.2675533-.14933.392-.0498.112-.1120233.23022-.18667.35466z"/></g><path d="m12.77471 23.31604v.536c0 .2084467-.01491.44667-.04471.71467 0 .23822-.0446667.5955533-.134 1.072-.4168867 1.4293333-1.2059967 2.5906667-2.36733 3.484-1.13155333.8933333-2.45666333 1.34-3.97533 1.34-1.19111333 0-2.32267-.3573333-3.39467-1.072-1.072-.7444467-1.75689-1.4740033-2.05467-2.18867-.17866667-.3871133-.32755333-.7295567-.44666-1.02733-.08933333-.29778-.16378-.58067-.22334-.84867-.05953333-.268-.1042-.55089-.134-.84867 0-.3275533 0-.7146633 0-1.16133v-1.742h4.288v2.45667c.05953333.3871067.22331333.8188833.49134 1.29533.29777333.536.83377333.804 1.608.804.77422 0 1.32510667-.268 1.65266-.804.32756-.536.49134-1.206.49134-2.01v-4.60067c-.0298-.5657733-.14891333-.99755-.35734-1.29533-.17866667-.29778-.402-.5062233-.67-.62533-.268-.1488933-.55088667-.22334-.84866-.22334-.29778-.0298-.56578-.0447-.804-.0447h-.75934v-3.79667h.75934c1.78666667 0 2.68-.8337767 2.68-2.50133v-3.57334c0-.35733333-.02976667-.65511-.0893-.89333 0-.08933333-.04466667-.22333333-.134-.402s-.22333333-.35733333-.402-.536c-.14888667-.17866667-.34244-.32755667-.58066-.44667-.23822667-.11910667-.52111667-.17866-.84867-.17866-.74444667 0-1.29533667.23822-1.65267.71466-.35733333.44666667-.536 1.02733333-.536 1.742v2.18867h-4.28804v-2.18867c0-1.876.61048667-3.45422 1.83138-4.73466 1.19110667-1.28044667 2.73955-1.92067 4.64533-1.92067 1.04222 0 2.03977667.268 2.99267.804.9826667.536 1.6973333 1.16133333 2.144 1.876.47644.71466667.7891067 1.38466667.938 2.01.1488867.62533333.22333 1.28044333.22333 1.96533v3.484c0 1.93556-.8486667 3.40956-2.546 4.422.9528867.6848933 1.6079967 1.3697833 1.96533 2.05467.3871133.6551133.58067 1.5484467.58067 2.68z" fill="#fff" fill-rule="nonzero" transform="translate(16.53275 12.2349)"/><path d="m26.92664 97.26886h24.48431l8.6026-18.85953 4.3013 28.78561 10.25694-18.41839 6.17622 34.96183 19.85215-65.51208 9.15405 18.85955" stroke="#fff" stroke-linecap="round" stroke-linejoin="round" stroke-width="3.4"/><path d="m112.88771 107.95477s6.73929-6.85626 10.13826-10.25523c1.04488-1.04488 1.87167-2.64593 1.87167-4.56222 0-3.38059-1.45814-7.87665-6.47288-7.87665-2.85479 0-5.23857 2.7502-5.49806 3.04148-.3901.4379-.84224.4164-1.1703 0-.24142-.30642-2.64327-3.04148-5.49806-3.04148-5.01474 0-6.47288 4.49606-6.47288 7.87665 0 1.91629.82679 3.51734 1.87167 4.56222 3.39897 3.39897 10.13826 10.25523 10.13826 10.25523.37063.3936.66324.40085 1.09232 0z" fill="#fff"/></g></svg>