<svg height="150" viewBox="0 0 150 150" width="150" xmlns="http://www.w3.org/2000/svg"><g fill="none" fill-rule="evenodd" transform="translate(.918877 .72833)"><path d="m.826754 0h146.439249c.45802 0 .82675.36873.82675.82676v146.68107c0 .45802-.36873.82675-.82675.82675h-146.439249c-.458022 0-.826754-.36873-.826754-.82675v-146.68107c0-.45803.368732-.82676.826754-.82676z" fill="#fdb713"/><g fill="#fff"><g fill-rule="nonzero" transform="translate(41.976148 12.95729)"><path d="m0 12.61867 2.8-12.50667h1.549333l2.8 12.50667h-1.922667l-.504-2.688h-2.314666l-.522667 2.688zm2.725333-4.34933h1.68l-.84-4.55467z"/><path d="m7.946391 12.61867v-12.50667h5.338664v1.68h-3.565331v3.752h3.117331v1.68h-3.117331v5.39467z"/><path d="m14.147115 12.61867v-12.50667h5.33867v1.68h-3.56533v3.752h3.11733v1.68h-3.11733v5.39467z"/><path d="m20.298585 1.288c.28622-.39822.6471067-.70933 1.08266-.93333.448-.23644667.9084467-.35467 1.38134-.35467.46044 0 .8897733.09333333 1.288.28.4106667.18666667.7528867.44178 1.02666.76534.27378.32355333.4604467.65955333.56 1.008.09956.336.14934.70311.14934 1.10133v6.36533c0 .37333333-.0373333.7031133-.112.98934-.0622.28622-.2115333.6035533-.448.952-.224.34844-.55378.6471067-.98934.896-.4231067.2488867-.8959933.37333-1.41866.37333-.2986667 0-.58489-.0373333-.85867-.112-.27378-.0871133-.52889-.1991133-.76533-.336-.2364467-.1368867-.4480033-.2924433-.63467-.46667-.17422-.17422-.31111-.3546633-.41067-.54133-.1866667-.38578-.2986667-.69689-.336-.93333-.0373333-.2364467-.056-.51022667-.056-.82134v-6.36533c0-.37333333.0373333-.70311.112-.98933.0871133-.29866667.2302267-.59111333.42934-.87734zm3.472.98934c-.2364467-.34844667-.5600033-.52267-.97067-.52267-.2115533 0-.42311.06222333-.63467.18667-.1991067.112-.3422167.24266667-.42933.392-.0746667.14933333-.1244433.29866667-.14933.448-.0248667.14933333-.0373.27377667-.0373.37333v6.36533.20534c0 .0622.0062333.13064333.0187.20533.0124667.1244467.1120233.32978.29867.616.1866667.2613333.4977767.392.93333.392.224 0 .42311-.0497767.59733-.14933.1866667-.112.3173333-.2364467.392-.37334.0871133-.1493333.1431133-.28622.168-.41066.0248667-.12444667.0373-.28622667.0373-.48534v-6.36533c0-.24888667-.0124333-.42311-.0373-.52267-.0124667-.09955333-.0746867-.21777333-.18666-.35466z"/><path d="m27.331985 12.61867v-12.50667h3.136c.8213333 0 1.512.28622333 2.072.85867.5724467.57244667.85867 1.27555667.85867 2.10933v1.15734c0 1.15733333-.4915567 2.04088667-1.47467 2.65066l1.904 5.73067h-1.904l-1.68-5.35733h-1.12v5.35733zm3.976-7.336c.112-.13688667.1866667-.29244333.224-.46667.0498-.17422.0747-.36710667.0747-.57866v-1.15734c0-.38577333-.1057767-.69688333-.31733-.93333-.21156-.24888667-.5102267-.37333-.896-.37333h-1.26934v3.90133h1.25067c.3733333 0 .6844433-.13066667.93333-.392z"/><path d="m37.342245.112c.8088867 0 1.4995533.28622333 2.072.85867.5848867.56.87733 1.24444333.87733 2.05333v6.496c0 .9208933-.28 1.66756-.84 2.24-.56.5724467-1.2817767.85867-2.16533.85867h-2.78134v-12.50667zm1.176 9.408v-6.496c0-.34844-.1306667-.64088333-.392-.87733-.2488933-.23644667-.5537833-.35467-.91467-.35467h-.93333v9.16534h.87733c.9084467 0 1.36267-.4791133 1.36267-1.43734z"/><path d="m41.136245 12.61867 2.8-12.50667h1.54933l2.8 12.50667h-1.92267l-.504-2.688h-2.31466l-.52267 2.688zm2.72533-4.34933h1.68l-.84-4.55467z"/><path d="m52.146945.112c.38578 0 .74667.08089 1.08267.24267.3733333.17422.75289.45422 1.13867.84.4106667.39822.616 1.02044333.616 1.86667v.952c0 .95822-.3795567 1.63022-1.13867 2.016.7591133.448 1.13867 1.14488667 1.13867 2.09066v1.456c0 .88356-.2862233 1.61156-.85867 2.184-.56.5724467-1.2817767.85867-2.16533.85867h-2.76267v-12.50667zm1.064 3.71467v-.76533c0-.38578-.112-.69067-.336-.91467-.224-.23644667-.5226667-.35467-.896-.35467h-1.008v3.45334h1.064c.4106667 0 .7093333-.12444667.896-.37334.1866667-.26133333.28-.60977667.28-1.04533zm0 5.74933v-1.456c0-.39822-.112-.70933-.336-.93333-.2115533-.23644667-.51022-.35467-.896-.35467h-1.008v4.01334h1.02667c.3608867 0 .65333-.1182233.87733-.35467.224-.2488867.336-.55377667.336-.91467z"/><path d="m61.756875 12.61867h-5.33867v-12.50667h1.792v10.71467h3.54667z"/><path d="m67.660325 10.82667v1.792h-5.35733v-12.50667h5.35733v1.64267h-3.584v3.696h3.136v1.69867h-3.136v3.67733z"/><path d="m69.599005 12.61867 2.8-12.50667h1.54933l2.8 12.50667h-1.92266l-.504-2.688h-2.31467l-.52267 2.688zm2.72533-4.34933h1.68l-.84-4.55467z"/><path d="m82.233715 12.61867-2.78133-7.59733v7.59733h-1.792v-12.50667h1.69866l2.76267 7.57867v-7.57867h1.792v12.50667z"/><path d="m88.010945.112c.8088867 0 1.4995533.28622333 2.072.85867.5848867.56.87733 1.24444333.87733 2.05333v6.496c0 .9208933-.28 1.66756-.84 2.24-.56.5724467-1.2817767.85867-2.16533.85867h-2.78133v-12.50667zm1.176 9.408v-6.496c0-.34844-.1306667-.64088333-.392-.87733-.2488867-.23644667-.5537767-.35467-.91467-.35467h-.93333v9.16534h.87733c.9084467 0 1.36267-.4791133 1.36267-1.43734z"/><path d="m6.511683 26.71098c0 .39822-.02489.7404433-.07467 1.02667-.03733333.28622-.161778.59733-.373334.93333-.112.17422-.255111.34222-.429333.504-.161778.1493333-.34844467.2862233-.56.41067-.19911133.112-.416889.2053333-.653333.28-.23644467.0746667-.466667.112-.690667.112-.56 0-1.07022233-.1182233-1.530667-.35467-.448-.2364467-.77777767-.5351133-.989333-.896s-.34844433-.6968867-.410667-1.008c-.04978-.3111133-.07467-.6471133-.07467-1.008v-6.44c0-.3484467.03111-.6595567.09333-.93333.07466667-.2862267.224-.5911167.448-.91467s.54133333-.59733.952-.82133c.41066667-.2364467.84-.35467 1.288-.35467.85866667 0 1.57422233.2862233 2.146667.85867.572444.56.858677 1.2817767.858677 2.16533v.672h-1.773344v-.672c0-.3484467-.09955567-.64089-.298667-.87733-.18666667-.2364467-.46666667-.35467-.84-.35467-.348444 0-.62222167.1182233-.821333.35467-.18666667.23644-.28.5288833-.28.87733v6.92533c.02488667.1866667.11199767.3982233.261333.63467.17422267.2488867.460445.37333.858667.37333.42311133 0 .70311133-.112.84-.336s.21777767-.3857767.242667-.48533c.02488667-.112.03733-.2613333.03733-.448v-.63467h1.773347z"/><path d="m13.068155 29.86565h-5.338671v-12.50667h1.792v10.71467h3.546671z"/><path d="m18.856615 28.07365v1.792h-5.35733v-12.50667h5.35733v1.64267h-3.584v3.696h3.136v1.69866h-3.136v3.67734z"/><path d="m19.087355 29.86565 2.8-12.50667h1.54933l2.8 12.50667h-1.92266l-.504-2.688h-2.31467l-.52267 2.688zm2.72533-4.34934h1.68l-.84-4.55466z"/><path d="m31.722065 29.86565-2.78134-7.59734v7.59734h-1.792v-12.50667h1.69867l2.76267 7.57867v-7.57867h1.792v12.50667z"/><path d="m41.842215 28.07365v1.792h-5.35733v-12.50667h5.35733v1.64267h-3.584v3.696h3.136v1.69866h-3.136v3.67734z"/><path d="m47.138355 29.86565-2.78133-7.59734v7.59734h-1.792v-12.50667h1.69867l2.76266 7.57867v-7.57867h1.792v12.50667z"/><path d="m55.090635 28.07365v1.792h-5.35733v-12.50667h5.35733v1.64267h-3.584v3.696h3.136v1.69866h-3.136v3.67734z"/><path d="m56.024735 29.86565v-12.50667h3.136c.8213333 0 1.512.2862233 2.072.85867.5724467.57244.85867 1.27555.85867 2.10933v1.15733c0 1.1573333-.4915567 2.04089-1.47467 2.65067l1.904 5.73067h-1.904l-1.68-5.35734h-1.12v5.35734zm3.976-7.336c.112-.1368933.1866667-.29245.224-.46667.0498-.17422.0747-.36711.0747-.57867v-1.15733c0-.38578-.1057767-.69689-.31733-.93333-.21156-.2488933-.5102267-.37334-.896-.37334h-1.26934v3.90134h1.25067c.3733333 0 .6844433-.1306667.93333-.392z"/><path d="m68.763305 28.55898c-.28622.448-.65333.7964433-1.10133 1.04533-.448.2488933-.9395567.37334-1.47467.37334-.4728867 0-.93333-.112-1.38133-.336-.4355533-.224-.7777767-.49778-1.02667-.82134-.23644-.336-.3982167-.672-.48533-1.008-.0746667-.336-.112-.7155533-.112-1.13866v-6.25334c0-.3111067.0311-.6222167.0933-.93333.0871133-.3111133.3173367-.75289.69067-1.32533.38578-.60978 1.14489-.91467 2.27733-.91467.49778 0 .9644467.1182233 1.4.35467.43556.23644.76534.5288833.98934.87733.23644.336.3857733.6595567.448.97067.0746667.2986667.11203.62222.11203.97066v.52267h-1.77337v-.52267c0-.0995533-.0062333-.1866633-.0187-.26133 0-.0871133-.0062333-.16178-.0187-.224-.0124667-.112-.1058-.2924433-.28-.54133-.17422-.2488933-.4666633-.37334-.87733-.37334-.4853333 0-.80889.1306667-.97067.392-.1493333.2613333-.2364433.4542233-.26133.57867-.0248667.1244467-.0373.2675567-.0373.42933v6.25334.31733c0 .0871133.0062333.16178.0187.224.0124667.0995533.1058.2924433.28.57867.16178.2613333.4791133.392.952.392.4853333 0 .7964433-.1306667.93333-.392.0746667-.1368933.1306667-.2488933.168-.336.0373333-.09956.0622333-.1866733.0747-.26134.0248667-.0746667.0373-.1493333.0373-.224 0-.0871067 0-.18666 0-.29866v-2.184h-1.4373v-1.568h3.21067v3.752c0 .2613333-.0062333.4853333-.0187.672-.0124667.17422-.0373667.3297733-.0747.46666-.0373333.1368933-.08711.26756-.14933.392-.0498.112-.1120233.2302233-.18667.35467z"/><path d="m71.890295 29.86565v-5.376l-2.42667-7.13067h1.86667l1.456 4.89067 1.47467-4.89067h1.88533l-2.48267 7.13067v5.376z"/></g><path d="m3.796667 7.504h-3.796667v-7.504h12.774667v3.886l-6.968 26.04066h-4.556l7.280667-25.95133h-4.734667z" fill-rule="nonzero" transform="translate(15.262144 12.32691)"/><path d="m38.4180426 91.4331198h9.27951c1.058 0 1.90975.85175 1.90975 1.90975s-.85175 1.90974-1.90975 1.90974h-9.27951c-1.058 0-1.90975-.85174-1.90975-1.90974s.85175-1.90975 1.90975-1.90975zm5.86371-17.77444 8.0363 4.63975c.91625.529 1.22801 1.69252.69901 2.60877-.529.91626-1.69251 1.22802-2.60876.69902l-8.0363-4.63976c-.91625-.529-1.22801-1.69251-.69901-2.60876.529-.91626 1.69251-1.22802 2.60876-.69902zm13.96537-12.46126 4.63975 8.03629c.529.91626.21724 2.07976-.69902 2.60876-.91625.529-2.07976.21725-2.60876-.69901l-4.63975-8.03629c-.529-.91625-.21724-2.07977.69901-2.60877.91626-.529 2.07977-.21723 2.60877.69902zm18.32498-3.80908v9.27951c0 1.058-.85174 1.90975-1.90974 1.90975s-1.90975-.85175-1.90975-1.90975v-9.27951c0-1.058.85175-1.90975 1.90975-1.90975s1.90974.85175 1.90974 1.90975zm17.77444 5.86371-4.63976 8.03629c-.529.91625-1.69249 1.22801-2.60875.69901-.91625-.529-1.22802-1.6925-.69902-2.60876l4.63975-8.03629c.529-.91625 1.69252-1.22801 2.60877-.69901.91626.529 1.22801 1.6925.69901 2.60876zm12.4612704 13.96536-8.0362904 4.63975c-.91626.529-2.07976.21723-2.60876-.69902-.529-.91626-.21724-2.07975.69901-2.60875l8.0363004-4.63976c.91625-.529 2.07976-.21725 2.60876.69901.529.91625.21724 2.07977-.69902 2.60877zm3.80911 18.32499h-9.27952c-1.058 0-1.9097404-.85174-1.9097404-1.90974s.8517404-1.90975 1.9097404-1.90975h9.27952c1.058 0 1.90974.85175 1.90974 1.90975s-.85174 1.90974-1.90974 1.90974zm-5.86373 17.7744302-8.0362904-4.63975c-.91625-.529-1.22802-1.6925-.69902-2.60876.529-.91625 1.69251-1.22802 2.60877-.69902l8.0362904 4.63976c.91625.529 1.22801 1.69251.69901 2.60876-.529.91626-1.6925 1.22801-2.60876.69901zm-13.9653504 12.46127-4.63976-8.03629c-.529-.91625-.21724-2.07975.69902-2.60875.91625-.529 2.07976-.21725 2.60876.69901l4.63975 8.03629c.529.91625.21724 2.07976-.69901 2.60876-.91626.529-2.07976.21724-2.60876-.69902zm-18.32499 3.80912v-9.27951c0-1.058.85175-1.90975 1.90975-1.90975s1.90974.85175 1.90974 1.90975v9.27951c0 1.058-.85174 1.90974-1.90974 1.90974s-1.90975-.85174-1.90975-1.90974zm-17.77446-5.86374 4.63975-8.03629c.529-.91626 1.69252-1.22802 2.60877-.69902.91626.529 1.22802 1.69251.69902 2.60877l-4.63976 8.03629c-.529.91625-1.6925 1.22801-2.60876.69901-.91625-.529-1.22802-1.69251-.69902-2.60876zm-12.46126-13.96536 8.0363-4.63975c.91625-.529 2.07976-.21724 2.60876.69902.529.91625.21724 2.07975-.69902 2.60875l-8.03629 4.63976c-.91626.529-2.07976.21724-2.60876-.69901-.529-.91626-.21724-2.07977.69901-2.60877zm21.33589-35.2424102c-10.477614 6.0501266-14.0670217 19.4483695-8.01727 29.9262002 6.0497472 10.476946 19.4467943 14.066671 29.9245 8.01824 10.4781413-6.049195 14.0687385-19.4471058 8.01993-29.9254702-2.905098-5.0320864-7.690259-8.7039721-13.3027353-10.2078327-5.6124764-1.5038607-11.5924908-.7164993-16.6244247 2.1888627zm3.65064 6.48716c.61998-.35795 1.40658-.14575 1.76453.47424l3.69141 6.3937c.35795.61999.14841 1.4073-.47156 1.76525-.61999.35795-1.40828.14673-1.76623-.47326l-3.69141-6.3937c-.35795-.61999-.14673-1.40828.47326-1.76623zm-1.0259 4.96528 1.91016 3.30849c-1.5909628 2.4248878-1.6798995 5.5392828-.22991 8.05101 2.1203928 3.6718852 6.8157257 4.9299932 10.48798 2.8102402 1.7638678-1.0179791 3.0510732-2.6949895 3.5784187-4.662073.5273456-1.9670834.2516292-4.0630897-.7664887-5.8268772-1.4434321-2.4941746-4.1618817-3.9701489-7.03982-3.82225l-1.91309-3.31356c4.7459831-.9979995 9.5963066 1.164303 12.02629 5.36139 1.4888076 2.5788792 1.8921 5.6435873 1.1211456 8.5198341-.7709543 2.8762468-2.6529935 5.3283901-5.2320356 6.8169161-5.3696135 3.099921-12.2355188 1.260207-15.33578-4.1092102-2.4322582-4.2169885-1.8696549-9.5210017 1.39313-13.13391z" transform="matrix(.8660254 .5 -.5 .8660254 56.727337 -24.733752)"/></g></g></svg>