<svg height="50" viewBox="0 0 329 50" width="329" xmlns="http://www.w3.org/2000/svg"><g fill="#df5642" fill-rule="evenodd" transform="translate(0 -.000127)"><path d="m68.4209004 26.3158422v-13.9931722l-54.3858439-.0418843v.7555497z"/><path d="m0 .87730231v9.64910129l67.892494-.1020423.5284064-.0011092-.0253724-9.54594979z"/><path d="m0 20.9225254 68.4209004 16.7968002-.0600832-9.4786493-67.05166651-16.5137417-1.30915069-.3233399z"/><path d="m131.598603 31.766468v-1.8110459l6.032682 1.4510623c1.125636.3616528 1.277047.7589144 1.277047 1.0994245v1.0159661zm-60.1577193-31.766468v9.58991912h28.1243307l-.0005526 1.88560198h-23.6472047l.0154727 4.4700285 23.6239957 5.8482037-.0011052 1.755407-28.111621-6.9754477-.0033156 9.9304292 91.0124233 22.8531177v-10.0211205l-2.811052-.6999372v-16.2148418c0-4.0939096 0-10.9458389-8.343634-10.9458389h-19.767434v-1.85388781l30.944223.150225.007184-9.76907635z"/><path d="m328.946305 36.222698v-17.405514l-11.913399-.0673231v-1.74261l11.913399-.0589773v-7.53517487h-7.8358l7.8358-9.41298745h-20.20509l-3.070218 4.23690149-3.663154-4.23690149h-19.419851l7.237891 9.41298745h-7.569448v7.58024237l11.936055.0022256v1.752625l-11.94987.0389473.013815 5.7085501 11.936055 2.9894776v1.8216172l-11.940476-2.9878084-.050839 11.0888309 11.991315 3.1413717v3.6977606l22.842074 5.7530613-.002211-3.7517304 11.913952 3.0189662v-11.2613114l-11.913399-2.9816881v-1.7693167z"/><path d="m165.861106.00011128v20.59918632l17.413931 4.4110512v-7.0249662h2.264535v7.639776l14.588512 3.6287684-.004973-17.778851h-16.854705l.00221-2.06642838h18.808129v13.18474778c0 6.5993288 2.022498 7.70543 6.653798 8.8721775l7.697651 1.9162034-1.919716 3.5169342 11.838799 2.9666656 1.869429-3.5236109 5.665759 1.4226864-.014368-12.8559219-2.562384-.6415164v-12.7919373l-12.015629-.0033383-.018235 9.6761594-1.626841-.393367c-.386816-.0995936-.657588-.3432919-.657588-.7444483l.019894-10.60143418 16.870177.00445111.004974-9.41298745z"/><path d="m267.478161 11.4594971h3.402329v-2.04695476h-3.402329zm0-5.95503041h3.402329v-1.59461059h-3.402329zm0 22.51483331h3.402329v-1.5946106h-3.402329zm-29.482609-24.11111307 10.894966.00166917v1.59461059h-10.894966v3.90751926l10.894966.00055639v2.04806756h-10.894966v7.8957149h5.2596l-5.635365 6.8947713 15.487584 3.9141959.290113.072887 2.239115-2.7685912v3.3344387l24.902701 6.2933149v-16.6927799h-19.128634l1.303572-1.5946106h17.825062v-18.80983962h-42.543748z"/></g></svg>