<?xml version="1.0" encoding="UTF-8"?>
<svg width="1921px" height="292px" viewBox="0 0 1921 292" version="1.1" xmlns="http://www.w3.org/2000/svg" xmlns:xlink="http://www.w3.org/1999/xlink">
    <title>slogan_top</title>
    <g id="Page-2" stroke="none" stroke-width="1" fill="none" fill-rule="evenodd">
        <g id="slogan_top" fill="#DF5542">
            <polygon id="Fill-1" points="400 149 400 67.2447097 82 67 82 71.414309"></polygon>
            <polygon id="Fill-2" points="0 0 0 56 396.910848 55.4077821 400 55.4013449 399.851669 0"></polygon>
            <polygon id="Fill-3" points="0 116.704907 400 215 399.648744 159.530821 7.65351337 62.8921893 0 61"></polygon>
            <path d="M768.530157,185.357592 L768.530157,174.790125 L803.781983,183.257085 C810.359611,185.367332 811.244378,187.685357 811.244378,189.672235 L811.244378,195.600406 L768.530157,185.357592 Z M417,0 L417,55.957254 L581.343836,55.957254 L581.340607,66.9597565 L443.158747,66.9597565 L443.249161,93.0424078 L581.2954,127.166723 L581.288942,137.409537 L417.019374,96.7077443 L417,154.651877 L948.828859,288 L948.828859,229.526682 L932.402548,225.442543 L932.402548,130.828813 C932.402548,106.940818 932.402548,66.9597565 883.646726,66.9597565 L768.13621,66.9597565 L768.13621,56.1423064 L948.958022,57.0188705 L949,0.0162326682 L417,0 Z" id="Fill-4"></path>
            <polygon id="Fill-7" points="1921 211.540377 1921 109.891949 1851.4236 109.498782 1851.4236 99.3219162 1921 98.9774885 1921 54.9719691 1875.23752 54.9719691 1921 0 1802.99863 0 1785.068 24.7435598 1763.67452 0 1650.25908 0 1692.52967 54.9719691 1648.32273 54.9719691 1648.32273 99.2406832 1718.03145 99.2536805 1718.03145 109.489034 1648.24204 109.716486 1648.32273 143.054493 1718.03145 160.513081 1718.03145 171.151349 1648.29691 153.702509 1648 218.461425 1718.03145 236.807077 1718.03145 258.402048 1851.43328 292 1851.42037 270.089846 1921 287.720648 1921 221.954443 1851.4236 204.541345 1851.4236 194.208513"></polygon>
            <path d="M969,0 L969,120.395799 L1070.63172,146.177013 L1070.63172,105.118283 L1083.84806,105.118283 L1083.84806,149.770384 L1168.98998,170.9794 L1168.96096,67.0675785 L1070.59302,67.0675785 L1070.60592,54.9899512 L1180.37449,54.9899512 L1180.37449,132.050677 C1180.37449,170.621689 1192.17826,177.086504 1219.20759,183.905778 L1264.13285,195.105387 L1252.92895,215.660768 L1322.02291,233 L1332.93333,212.405597 L1366,220.720754 L1365.91615,145.581912 L1350.96149,141.832449 L1350.96149,67.0675785 L1280.83551,67.048067 L1280.72908,123.602191 L1271.23446,121.303084 C1268.97691,120.720991 1267.39663,119.29665 1267.39663,116.952017 L1267.51273,54.9899512 L1365.97097,55.0159665 L1366,0 L969,0 Z" id="Fill-9"></path>
            <path d="M1562.61642,67.031601 L1582.51377,67.031601 L1582.51377,55.0579528 L1562.61642,55.0579528 L1562.61642,67.031601 Z M1562.61642,32.1976903 L1582.51377,32.1976903 L1582.51377,22.8700262 L1562.61642,22.8700262 L1562.61642,32.1976903 Z M1562.61642,163.898058 L1582.51377,163.898058 L1582.51377,154.570394 L1562.61642,154.570394 L1562.61642,163.898058 Z M1390.19753,22.8602625 L1453.91299,22.8700262 L1453.91299,32.1976903 L1390.19753,32.1976903 L1390.19753,55.0546982 L1453.91299,55.0579528 L1453.91299,67.0381102 L1390.19753,67.0381102 L1390.19753,113.224042 L1420.95649,113.224042 L1388,153.554961 L1478.57381,176.451024 L1480.27043,176.877375 L1493.36513,160.68252 L1493.36513,180.187297 L1639,217 L1639,119.355696 L1527.13277,119.355696 L1534.75626,110.028031 L1639,110.028031 L1639,0 L1390.19753,0 L1390.19753,22.8602625 Z" id="Fill-11"></path>
        </g>
    </g>
</svg>