<?xml version="1.0" encoding="UTF-8"?>
<svg width="1920px" height="307px" viewBox="0 0 1920 307" version="1.1" xmlns="http://www.w3.org/2000/svg" xmlns:xlink="http://www.w3.org/1999/xlink">
    <title>Combined Shape</title>
    <g id="Page-2" stroke="none" stroke-width="1" fill="none" fill-rule="evenodd">
        <g id="slogan_bottom" fill="#1FD172">
            <path d="M1355,142 L1355,265.349326 C1355,280.532919 1349.66385,293.887631 1342.31097,297.102714 L1342.31097,297.102714 L1319.70231,307 L1217,307 L1217,261.077628 L1217.35703,260.993616 L1264.03464,249.868459 C1274.85489,247.302855 1282.4104,237.712537 1282.4104,226.545374 L1282.4104,226.545374 L1282.4104,160.831662 L1355,142 Z M1207,180 L1207,307 L1134.4683,307 L1134.4683,288.969594 L1062.18456,306.980644 L970,307 L970,238.456067 L970.351001,238.365738 L1207,180 Z M206,138 L206,196.56069 L126.279927,216.503849 L126.289608,225.243674 L206,207.184375 L206,307 L67.0853034,307 L67.0853034,282.210328 L43.9231721,307 L0,307 L0,262.231745 L21.3516317,243.228906 L0,248.568121 L0,189.527611 L0.35177265,189.437443 L206,138 Z M1641,154 L1641,307 L1419.91178,307 L1419.91178,283.130658 L1386,291.736787 L1386.00644,216.859915 L1388.71088,216.195174 L1641,154 Z M1920,85 L1920,265.554636 C1920,280.920029 1912.15414,295.171801 1899.53241,302.751504 C1895.46598,305.181515 1891.92841,307 1888.71977,307 L1888.71977,307 L1672.53144,307 C1658.63592,307 1650,295.574121 1650,278.203567 L1650,278.203567 L1650.00048,261.30037 C1650.01586,254.827427 1650.5287,237.596636 1667.62335,233.069735 L1667.62335,233.069735 L1806.33344,198.576455 L1806.33344,199.175107 L1806.26572,232.545111 L1815.62399,230.214875 L1815.62399,195.222718 C1815.62399,193.204683 1814.94679,191.347575 1813.76008,190.137398 C1812.02515,188.386502 1809.67752,187.726698 1807.27185,188.351098 L1807.27185,188.351098 L1665.43051,224.08996 C1662.16382,224.958971 1661.28023,225.840855 1659.33247,227.784864 C1658.38439,228.724683 1657.32022,229.773933 1655.83038,231.00664 L1655.83038,231.00664 L1650,235.805509 L1650,152.361189 L1652.70235,151.691729 L1920,85 Z M638,235 L638,307 L417,307 L417,290.167738 L419.691379,289.487974 L638,235 Z M884.83861,9 L884.83861,37.3628213 L949.608678,20.7775083 L949.608678,147.622886 L949.26407,147.713234 L898.529503,161.191221 L944.462113,219.4915 L912.049703,250.68415 L953,307 L840.313415,307 L840.216796,306.887065 L753.652732,207.636551 L753.652732,254.588475 L768.934616,242.510882 L769.224473,242.814193 L830.339127,307 L648,307 L648,97.3313121 L648.347828,97.2409641 L746.564127,72.663079 L746.564127,44.2647638 L746.911955,44.1711891 L884.83861,9 Z M353.600394,78 L353.600394,101.060004 L404,87.4386336 L404,147.458 L362.963638,157.707968 L363.082977,140.579434 L353.713282,142.92293 L353.697155,159.880147 L353.342364,159.967422 L263.673898,182.510241 L263.673898,165.401101 L254.271949,167.744597 L254.271949,194.570358 L404,157.426749 L404,215.425859 L401.19393,216.880443 L366.943743,254.069306 L404,285.119825 L404,307 L348.752665,307 L348.701059,306.964444 L330.716405,293.407721 L318.195525,307 L214,307 L214,135.236262 L214.358016,135.148987 L263.690025,123.085638 L263.822265,99.8155269 L264.177056,99.7347166 L353.600394,78 Z M1134.43932,255.234765 L1043.29167,278.004242 L1043.29167,287.585617 L1134.43932,264.841949 L1134.43932,255.234765 Z M638,168 L638,226.082335 L635.302159,226.752652 L417,281 L417,222.624401 L638,168 Z M158.065329,261.558708 L126.296063,269.532107 L126.296063,278.178544 L158.065329,270.198704 L158.065329,261.558708 Z M254.355809,235.857915 L254.533204,275.506641 L276.588273,252.617955 L254.355809,235.857915 Z M1134.44898,221.135393 L1044.72143,243.5371 L1043.75537,253.599157 L1134.46186,230.949044 L1134.44898,221.135393 Z M1272,163 L1272,225.851638 C1272,233.089178 1267.02862,239.305627 1259.91227,240.96249 L1259.91227,240.96249 L1217,251 L1217,176.749398 L1217.35046,176.665913 L1272,163 Z M1340.41127,78 L1335.31744,96.0190419 L1371,87.1446155 L1370.9871,87.7428915 L1370.24882,128.518935 L1369.90386,128.599348 L970,228 L970,187.011665 L970.354633,186.921602 L1016.99859,175.329202 L1005.70513,161.279367 L1129.22391,130.577519 L1129.4109,130.812326 L1140.13694,144.710983 L1212.13073,126.653343 L1217.231,108.479907 L1217.49214,108.415577 L1340.41127,78 Z M638,100 L638,158.082335 L635.302159,158.752652 L417,213 L417,154.704968 L417.352173,154.617956 L638,100 Z M325.717084,201.626706 L309.099986,205.48297 L316.228051,211.466159 L325.717084,201.626706 Z M1641,69 L1641,144.485283 L1640.64902,144.572471 L1386,208 L1386,132.653572 L1388.69834,131.978673 L1641,69 Z M877.750005,115.12019 L753.568995,146.554843 L753.623746,156.128506 L877.750005,124.739026 L877.750005,115.12019 Z M1920,0 L1920,74.9245262 L1917.29765,75.5997826 L1650,142 L1650,66.8375263 L1650.35472,66.7474921 L1920,0 Z M877.750005,81.2203261 L753.652732,112.603352 L753.652732,122.222189 L877.750005,90.8456158 L877.750005,81.2203261 Z" id="Combined-Shape"></path>
        </g>
    </g>
</svg>