{
    "asset" : {
        "generator" : "Khronos glTF Blender I/O v1.4.40",
        "version" : "2.0"
    },
    "scene" : 0,
    "scenes" : [
        {
            "name" : "Scene",
            "nodes" : [
                0
            ]
        }
    ],
    "nodes" : [
        {
            "mesh" : 0,
            "name" : "man1"
        }
    ],
    "materials" : [
        {
            "doubleSided" : true,
            "name" : "OctDiffuse1",
            "pbrMetallicRoughness" : {
                "baseColorFactor" : [
                    0.800000011920929,
                    0.800000011920929,
                    0.800000011920929,
                    1
                ],
                "metallicFactor" : 0,
                "roughnessFactor" : 0.5527864098548889
            }
        }
    ],
    "meshes" : [
        {
            "name" : "Mesh",
            "primitives" : [
                {
                    "attributes" : {
                        "POSITION" : 0,
                        "NORMAL" : 1,
                        "TEXCOORD_0" : 2
                    },
                    "indices" : 3,
                    "material" : 0
                }
            ]
        }
    ],
    "accessors" : [
        {
            "bufferView" : 0,
            "componentType" : 5126,
            "count" : 3599,
            "max" : [
                15.984867095947266,
                27.35055160522461,
                10.961152076721191
            ],
            "min" : [
                -18.341304779052734,
                0.06173515319824219,
                -13.910028457641602
            ],
            "type" : "VEC3"
        },
        {
            "bufferView" : 1,
            "componentType" : 5126,
            "count" : 3599,
            "type" : "VEC3"
        },
        {
            "bufferView" : 2,
            "componentType" : 5126,
            "count" : 3599,
            "type" : "VEC2"
        },
        {
            "bufferView" : 3,
            "componentType" : 5123,
            "count" : 18222,
            "type" : "SCALAR"
        }
    ],
    "bufferViews" : [
        {
            "buffer" : 0,
            "byteLength" : 43188,
            "byteOffset" : 0
        },
        {
            "buffer" : 0,
            "byteLength" : 43188,
            "byteOffset" : 43188
        },
        {
            "buffer" : 0,
            "byteLength" : 28792,
            "byteOffset" : 86376
        },
        {
            "buffer" : 0,
            "byteLength" : 36444,
            "byteOffset" : 115168
        }
    ],
    "buffers" : [
        {
            "byteLength" : 151612,
            "uri" : "man1.bin"
        }
    ]
}
