{
    "asset" : {
        "generator" : "Khronos glTF Blender I/O v1.6.16",
        "version" : "2.0"
    },
    "scene" : 0,
    "scenes" : [
        {
            "name" : "Scene",
            "nodes" : [
                0
            ]
        }
    ],
    "nodes" : [
        {
            "mesh" : 0,
            "name" : "man1"
        }
    ],
    "materials" : [
        {
            "doubleSided" : true,
            "name" : "OctDiffuse1",
            "pbrMetallicRoughness" : {
                "baseColorTexture" : {
                    "index" : 0
                },
                "metallicFactor" : 0,
                "roughnessFactor" : 0.5527864098548889
            }
        }
    ],
    "meshes" : [
        {
            "name" : "Mesh",
            "primitives" : [
                {
                    "attributes" : {
                        "POSITION" : 0,
                        "NORMAL" : 1,
                        "TEXCOORD_0" : 2
                    },
                    "indices" : 3,
                    "material" : 0
                }
            ]
        }
    ],
    "textures" : [
        {
            "sampler" : 0,
            "source" : 0
        }
    ],
    "images" : [
        {
            "mimeType" : "image/png",
            "name" : "KV_1_0321_OctDiffuse1_AlbedoTransparency",
            "uri" : "texture/KV_1_0321_OctDiffuse1_AlbedoTransparency.png"
        }
    ],
    "accessors" : [
        {
            "bufferView" : 0,
            "componentType" : 5126,
            "count" : 3599,
            "max" : [
                18.407825469970703,
                27.659366607666016,
                12.143718719482422
            ],
            "min" : [
                -15.918347358703613,
                0.37055110931396484,
                -12.727461814880371
            ],
            "type" : "VEC3"
        },
        {
            "bufferView" : 1,
            "componentType" : 5126,
            "count" : 3599,
            "type" : "VEC3"
        },
        {
            "bufferView" : 2,
            "componentType" : 5126,
            "count" : 3599,
            "type" : "VEC2"
        },
        {
            "bufferView" : 3,
            "componentType" : 5123,
            "count" : 18222,
            "type" : "SCALAR"
        }
    ],
    "bufferViews" : [
        {
            "buffer" : 0,
            "byteLength" : 43188,
            "byteOffset" : 0
        },
        {
            "buffer" : 0,
            "byteLength" : 43188,
            "byteOffset" : 43188
        },
        {
            "buffer" : 0,
            "byteLength" : 28792,
            "byteOffset" : 86376
        },
        {
            "buffer" : 0,
            "byteLength" : 36444,
            "byteOffset" : 115168
        }
    ],
    "samplers" : [
        {
            "magFilter" : 9729,
            "minFilter" : 9987
        }
    ],
    "buffers" : [
        {
            "byteLength" : 151612,
            "uri" : "man1.bin"
        }
    ]
}
