{
    "asset" : {
        "generator" : "Khronos glTF Blender I/O v1.4.40",
        "version" : "2.0"
    },
    "scene" : 0,
    "scenes" : [
        {
            "name" : "Scene",
            "nodes" : [
                2
            ]
        }
    ],
    "nodes" : [
        {
            "mesh" : 0,
            "name" : "Pyramid"
        },
        {
            "children" : [
                0
            ],
            "name" : "Cube_1",
            "rotation" : [
                0.7071068286895752,
                0,
                0,
                0.7071067094802856
            ],
            "translation" : [
                -4.753806114196777,
                22.8166561126709,
                -5.103946208953857
            ]
        },
        {
            "children" : [
                1
            ],
            "mesh" : 1,
            "name" : "man2",
            "scale" : [
                1.350000023841858,
                1.350000023841858,
                1.350000023841858
            ]
        }
    ],
    "materials" : [
        {
            "doubleSided" : true,
            "name" : "D_Concrete_11_1",
            "pbrMetallicRoughness" : {
                "baseColorFactor" : [
                    0.800000011920929,
                    0.800000011920929,
                    0.800000011920929,
                    1
                ],
                "metallicFactor" : 0,
                "roughnessFactor" : 0.5527864098548889
            }
        },
        {
            "doubleSided" : true,
            "name" : "OctDiffuse1",
            "pbrMetallicRoughness" : {
                "baseColorFactor" : [
                    0.800000011920929,
                    0.800000011920929,
                    0.800000011920929,
                    1
                ],
                "metallicFactor" : 0,
                "roughnessFactor" : 0.5527864098548889
            }
        }
    ],
    "meshes" : [
        {
            "name" : "Mesh.003",
            "primitives" : [
                {
                    "attributes" : {
                        "POSITION" : 0,
                        "NORMAL" : 1,
                        "TEXCOORD_0" : 2
                    },
                    "indices" : 3,
                    "material" : 0
                }
            ]
        },
        {
            "name" : "Mesh.002",
            "primitives" : [
                {
                    "attributes" : {
                        "POSITION" : 4,
                        "NORMAL" : 5,
                        "TEXCOORD_0" : 6
                    },
                    "indices" : 7,
                    "material" : 1
                }
            ]
        }
    ],
    "accessors" : [
        {
            "bufferView" : 0,
            "componentType" : 5126,
            "count" : 25,
            "max" : [
                6.624261379241943,
                3.846518039703369,
                0.6990285515785217
            ],
            "min" : [
                -2.5204668045043945,
                -5.145949363708496,
                -9.733404159545898
            ],
            "type" : "VEC3"
        },
        {
            "bufferView" : 1,
            "componentType" : 5126,
            "count" : 25,
            "type" : "VEC3"
        },
        {
            "bufferView" : 2,
            "componentType" : 5126,
            "count" : 25,
            "type" : "VEC2"
        },
        {
            "bufferView" : 3,
            "componentType" : 5123,
            "count" : 84,
            "type" : "SCALAR"
        },
        {
            "bufferView" : 4,
            "componentType" : 5126,
            "count" : 3599,
            "max" : [
                13.578886032104492,
                20.229108810424805,
                10.352620124816895
            ],
            "min" : [
                -13.217845916748047,
                0.2097931057214737,
                -7.259581565856934
            ],
            "type" : "VEC3"
        },
        {
            "bufferView" : 5,
            "componentType" : 5126,
            "count" : 3599,
            "type" : "VEC3"
        },
        {
            "bufferView" : 6,
            "componentType" : 5126,
            "count" : 3599,
            "type" : "VEC2"
        },
        {
            "bufferView" : 7,
            "componentType" : 5123,
            "count" : 18222,
            "type" : "SCALAR"
        }
    ],
    "bufferViews" : [
        {
            "buffer" : 0,
            "byteLength" : 300,
            "byteOffset" : 0
        },
        {
            "buffer" : 0,
            "byteLength" : 300,
            "byteOffset" : 300
        },
        {
            "buffer" : 0,
            "byteLength" : 200,
            "byteOffset" : 600
        },
        {
            "buffer" : 0,
            "byteLength" : 168,
            "byteOffset" : 800
        },
        {
            "buffer" : 0,
            "byteLength" : 43188,
            "byteOffset" : 968
        },
        {
            "buffer" : 0,
            "byteLength" : 43188,
            "byteOffset" : 44156
        },
        {
            "buffer" : 0,
            "byteLength" : 28792,
            "byteOffset" : 87344
        },
        {
            "buffer" : 0,
            "byteLength" : 36444,
            "byteOffset" : 116136
        }
    ],
    "buffers" : [
        {
            "byteLength" : 152580,
            "uri" : "man2.bin"
        }
    ]
}
