{
    "asset" : {
        "generator" : "Khronos glTF Blender I/O v1.4.40",
        "version" : "2.0"
    },
    "scene" : 0,
    "scenes" : [
        {
            "name" : "Scene",
            "nodes" : [
                0,
                1
            ]
        }
    ],
    "nodes" : [
        {
            "mesh" : 0,
            "name" : "man2"
        },
        {
            "mesh" : 1,
            "name" : "Pyramid"
        }
    ],
    "materials" : [
        {
            "doubleSided" : true,
            "name" : "OctDiffuse1",
            "pbrMetallicRoughness" : {
                "baseColorTexture" : {
                    "index" : 0,
                    "texCoord" : 0
                },
                "metallicFactor" : 0,
                "roughnessFactor" : 0.5527864098548889
            }
        },
        {
            "doubleSided" : true,
            "name" : "D_Concrete_11_1",
            "normalTexture" : {
                "index" : 1,
                "texCoord" : 0
            },
            "pbrMetallicRoughness" : {
                "baseColorTexture" : {
                    "index" : 2,
                    "texCoord" : 0
                },
                "metallicFactor" : 0
            }
        }
    ],
    "meshes" : [
        {
            "name" : "Mesh.002",
            "primitives" : [
                {
                    "attributes" : {
                        "POSITION" : 0,
                        "NORMAL" : 1,
                        "TEXCOORD_0" : 2
                    },
                    "indices" : 3,
                    "material" : 0
                }
            ]
        },
        {
            "name" : "Mesh.003",
            "primitives" : [
                {
                    "attributes" : {
                        "POSITION" : 4,
                        "NORMAL" : 5,
                        "TEXCOORD_0" : 6
                    },
                    "indices" : 7,
                    "material" : 1
                }
            ]
        }
    ],
    "textures" : [
        {
            "sampler" : 0,
            "source" : 0
        },
        {
            "sampler" : 0,
            "source" : 1
        },
        {
            "sampler" : 0,
            "source" : 2
        }
    ],
    "images" : [
        {
            "mimeType" : "image/png",
            "name" : "KV_1_0321_OctDiffuse1_AlbedoTransparency",
            "uri" : "texture/KV_1_0321_OctDiffuse1_AlbedoTransparency.png"
        },
        {
            "mimeType" : "image/jpeg",
            "name" : "KV_1_0321_D_Concrete_11_Normal",
            "uri" : "texture/KV_1_0321_D_Concrete_11_Normal.jpg"
        },
        {
            "mimeType" : "image/jpeg",
            "name" : "KV_1_0321_D_Concrete_11_1_AlbedoTransparency",
            "uri" : "texture/KV_1_0321_D_Concrete_11_1_AlbedoTransparency.jpg"
        }
    ],
    "accessors" : [
        {
            "bufferView" : 0,
            "componentType" : 5126,
            "count" : 3599,
            "max" : [
                18.64893341064453,
                27.397146224975586,
                10.139420509338379
            ],
            "min" : [
                -17.526657104492188,
                0.3710671663284302,
                -13.637052536010742
            ],
            "type" : "VEC3"
        },
        {
            "bufferView" : 1,
            "componentType" : 5126,
            "count" : 3599,
            "type" : "VEC3"
        },
        {
            "bufferView" : 2,
            "componentType" : 5126,
            "count" : 3599,
            "type" : "VEC2"
        },
        {
            "bufferView" : 3,
            "componentType" : 5123,
            "count" : 18222,
            "type" : "SCALAR"
        },
        {
            "bufferView" : 4,
            "componentType" : 5126,
            "count" : 25,
            "max" : [
                2.842550277709961,
                44.030426025390625,
                -5.534146785736084
            ],
            "min" : [
                -9.502827644348145,
                29.94664192199707,
                -17.673974990844727
            ],
            "type" : "VEC3"
        },
        {
            "bufferView" : 5,
            "componentType" : 5126,
            "count" : 25,
            "type" : "VEC3"
        },
        {
            "bufferView" : 6,
            "componentType" : 5126,
            "count" : 25,
            "type" : "VEC2"
        },
        {
            "bufferView" : 7,
            "componentType" : 5123,
            "count" : 84,
            "type" : "SCALAR"
        }
    ],
    "bufferViews" : [
        {
            "buffer" : 0,
            "byteLength" : 43188,
            "byteOffset" : 0
        },
        {
            "buffer" : 0,
            "byteLength" : 43188,
            "byteOffset" : 43188
        },
        {
            "buffer" : 0,
            "byteLength" : 28792,
            "byteOffset" : 86376
        },
        {
            "buffer" : 0,
            "byteLength" : 36444,
            "byteOffset" : 115168
        },
        {
            "buffer" : 0,
            "byteLength" : 300,
            "byteOffset" : 151612
        },
        {
            "buffer" : 0,
            "byteLength" : 300,
            "byteOffset" : 151912
        },
        {
            "buffer" : 0,
            "byteLength" : 200,
            "byteOffset" : 152212
        },
        {
            "buffer" : 0,
            "byteLength" : 168,
            "byteOffset" : 152412
        }
    ],
    "samplers" : [
        {
            "magFilter" : 9729,
            "minFilter" : 9986
        }
    ],
    "buffers" : [
        {
            "byteLength" : 152580,
            "uri" : "man2.bin"
        }
    ]
}
