{
    "asset" : {
        "generator" : "Khronos glTF Blender I/O v1.4.40",
        "version" : "2.0"
    },
    "scene" : 0,
    "scenes" : [
        {
            "name" : "Scene",
            "nodes" : [
                0,
                1
            ]
        }
    ],
    "nodes" : [
        {
            "mesh" : 0,
            "name" : "Cube_2"
        },
        {
            "mesh" : 1,
            "name" : "manx2"
        }
    ],
    "materials" : [
        {
            "doubleSided" : true,
            "name" : "D_Concrete_11",
            "pbrMetallicRoughness" : {
                "baseColorFactor" : [
                    0.800000011920929,
                    0.800000011920929,
                    0.800000011920929,
                    1
                ],
                "metallicFactor" : 0,
                "roughnessFactor" : 0.5527864098548889
            }
        },
        {
            "doubleSided" : true,
            "name" : "OctDiffuse1",
            "pbrMetallicRoughness" : {
                "baseColorFactor" : [
                    0.800000011920929,
                    0.800000011920929,
                    0.800000011920929,
                    1
                ],
                "metallicFactor" : 0,
                "roughnessFactor" : 0.5527864098548889
            }
        }
    ],
    "meshes" : [
        {
            "name" : "Mesh.007",
            "primitives" : [
                {
                    "attributes" : {
                        "POSITION" : 0,
                        "NORMAL" : 1,
                        "TEXCOORD_0" : 2
                    },
                    "indices" : 3,
                    "material" : 0
                }
            ]
        },
        {
            "name" : "Mesh.008",
            "primitives" : [
                {
                    "attributes" : {
                        "POSITION" : 4,
                        "NORMAL" : 5,
                        "TEXCOORD_0" : 6
                    },
                    "indices" : 7,
                    "material" : 1
                }
            ]
        }
    ],
    "accessors" : [
        {
            "bufferView" : 0,
            "componentType" : 5126,
            "count" : 166,
            "max" : [
                25.88459014892578,
                38.294769287109375,
                15.745308876037598
            ],
            "min" : [
                -26.07501220703125,
                28.033485412597656,
                -13.091601371765137
            ],
            "type" : "VEC3"
        },
        {
            "bufferView" : 1,
            "componentType" : 5126,
            "count" : 166,
            "type" : "VEC3"
        },
        {
            "bufferView" : 2,
            "componentType" : 5126,
            "count" : 166,
            "type" : "VEC2"
        },
        {
            "bufferView" : 3,
            "componentType" : 5123,
            "count" : 612,
            "type" : "SCALAR"
        },
        {
            "bufferView" : 4,
            "componentType" : 5126,
            "count" : 7198,
            "max" : [
                30.35542106628418,
                29.364200592041016,
                17.290664672851562
            ],
            "min" : [
                -29.856361389160156,
                0.1634540557861328,
                -14.748858451843262
            ],
            "type" : "VEC3"
        },
        {
            "bufferView" : 5,
            "componentType" : 5126,
            "count" : 7198,
            "type" : "VEC3"
        },
        {
            "bufferView" : 6,
            "componentType" : 5126,
            "count" : 7198,
            "type" : "VEC2"
        },
        {
            "bufferView" : 7,
            "componentType" : 5123,
            "count" : 36444,
            "type" : "SCALAR"
        }
    ],
    "bufferViews" : [
        {
            "buffer" : 0,
            "byteLength" : 1992,
            "byteOffset" : 0
        },
        {
            "buffer" : 0,
            "byteLength" : 1992,
            "byteOffset" : 1992
        },
        {
            "buffer" : 0,
            "byteLength" : 1328,
            "byteOffset" : 3984
        },
        {
            "buffer" : 0,
            "byteLength" : 1224,
            "byteOffset" : 5312
        },
        {
            "buffer" : 0,
            "byteLength" : 86376,
            "byteOffset" : 6536
        },
        {
            "buffer" : 0,
            "byteLength" : 86376,
            "byteOffset" : 92912
        },
        {
            "buffer" : 0,
            "byteLength" : 57584,
            "byteOffset" : 179288
        },
        {
            "buffer" : 0,
            "byteLength" : 72888,
            "byteOffset" : 236872
        }
    ],
    "buffers" : [
        {
            "byteLength" : 309760,
            "uri" : "manx2.bin"
        }
    ]
}
