{
    "asset" : {
        "generator" : "Khronos glTF Blender I/O v1.6.16",
        "version" : "2.0"
    },
    "scene" : 0,
    "scenes" : [
        {
            "name" : "Scene",
            "nodes" : [
                0,
                1
            ]
        }
    ],
    "nodes" : [
        {
            "mesh" : 0,
            "name" : "Cube_2"
        },
        {
            "mesh" : 1,
            "name" : "manx2"
        }
    ],
    "materials" : [
        {
            "doubleSided" : true,
            "name" : "D_Concrete_11",
            "normalTexture" : {
                "index" : 0
            },
            "pbrMetallicRoughness" : {
                "baseColorTexture" : {
                    "index" : 1
                },
                "metallicFactor" : 0
            }
        },
        {
            "doubleSided" : true,
            "name" : "OctDiffuse1",
            "pbrMetallicRoughness" : {
                "baseColorTexture" : {
                    "index" : 2
                },
                "metallicFactor" : 0,
                "roughnessFactor" : 0.5527864098548889
            }
        }
    ],
    "meshes" : [
        {
            "name" : "Mesh.007",
            "primitives" : [
                {
                    "attributes" : {
                        "POSITION" : 0,
                        "NORMAL" : 1,
                        "TEXCOORD_0" : 2
                    },
                    "indices" : 3,
                    "material" : 0
                }
            ]
        },
        {
            "name" : "Mesh.008",
            "primitives" : [
                {
                    "attributes" : {
                        "POSITION" : 4,
                        "NORMAL" : 5,
                        "TEXCOORD_0" : 6
                    },
                    "indices" : 7,
                    "material" : 1
                }
            ]
        }
    ],
    "textures" : [
        {
            "sampler" : 0,
            "source" : 0
        },
        {
            "sampler" : 0,
            "source" : 1
        },
        {
            "sampler" : 0,
            "source" : 2
        }
    ],
    "images" : [
        {
            "mimeType" : "image/jpeg",
            "name" : "KV_1_0321_D_Concrete_11_Normal",
            "uri" : "texture/KV_1_0321_D_Concrete_11_Normal.jpg"
        },
        {
            "mimeType" : "image/jpeg",
            "name" : "KV_1_0321_D_Concrete_11_AlbedoTransparency",
            "uri" : "texture/KV_1_0321_D_Concrete_11_AlbedoTransparency.jpg"
        },
        {
            "mimeType" : "image/png",
            "name" : "KV_1_0321_OctDiffuse1_AlbedoTransparency",
            "uri" : "texture/KV_1_0321_OctDiffuse1_AlbedoTransparency.png"
        }
    ],
    "accessors" : [
        {
            "bufferView" : 0,
            "componentType" : 5126,
            "count" : 166,
            "max" : [
                23.296131134033203,
                34.530174255371094,
                12.962331771850586
            ],
            "min" : [
                -23.467510223388672,
                25.295021057128906,
                -12.990888595581055
            ],
            "type" : "VEC3"
        },
        {
            "bufferView" : 1,
            "componentType" : 5126,
            "count" : 166,
            "type" : "VEC3"
        },
        {
            "bufferView" : 2,
            "componentType" : 5126,
            "count" : 166,
            "type" : "VEC2"
        },
        {
            "bufferView" : 3,
            "componentType" : 5123,
            "count" : 612,
            "type" : "SCALAR"
        },
        {
            "bufferView" : 4,
            "componentType" : 5126,
            "count" : 7198,
            "max" : [
                27.31987953186035,
                26.492658615112305,
                14.353151321411133
            ],
            "min" : [
                -26.870723724365234,
                0.21198824048042297,
                -14.48241901397705
            ],
            "type" : "VEC3"
        },
        {
            "bufferView" : 5,
            "componentType" : 5126,
            "count" : 7198,
            "type" : "VEC3"
        },
        {
            "bufferView" : 6,
            "componentType" : 5126,
            "count" : 7198,
            "type" : "VEC2"
        },
        {
            "bufferView" : 7,
            "componentType" : 5123,
            "count" : 36444,
            "type" : "SCALAR"
        }
    ],
    "bufferViews" : [
        {
            "buffer" : 0,
            "byteLength" : 1992,
            "byteOffset" : 0
        },
        {
            "buffer" : 0,
            "byteLength" : 1992,
            "byteOffset" : 1992
        },
        {
            "buffer" : 0,
            "byteLength" : 1328,
            "byteOffset" : 3984
        },
        {
            "buffer" : 0,
            "byteLength" : 1224,
            "byteOffset" : 5312
        },
        {
            "buffer" : 0,
            "byteLength" : 86376,
            "byteOffset" : 6536
        },
        {
            "buffer" : 0,
            "byteLength" : 86376,
            "byteOffset" : 92912
        },
        {
            "buffer" : 0,
            "byteLength" : 57584,
            "byteOffset" : 179288
        },
        {
            "buffer" : 0,
            "byteLength" : 72888,
            "byteOffset" : 236872
        }
    ],
    "samplers" : [
        {
            "magFilter" : 9729,
            "minFilter" : 9987
        }
    ],
    "buffers" : [
        {
            "byteLength" : 309760,
            "uri" : "manx2.bin"
        }
    ]
}
