<svg height="36" viewBox="0 0 38 36" width="38" xmlns="http://www.w3.org/2000/svg"><path d="m76 2078v12h-2v-12zm12 0v12h-2v-12zm11 0v12h-2v-12zm-29 0v12h-2v-12zm12 0v12h-2v-12zm12 0v12h-2v-12zm-6 0 .171-.728-4.23-19.037-4.941 19.765h-3l.176-.705-3.764-16.942-4.412 17.647h-3l6-24h3l-.177.707 3.765 16.941 4.412-17.648h3.6666667l3.8763333 17.443 1.2805294-5.443h3.1764706l-2.8235294 12zm12.176471-12 2.823529 12h-3.1764706l-2.8235294-12zm-5.176471-11c2.209139 0 4 2.01472 4 4.5s-1.790861 4.5-4 4.5-4-2.01472-4-4.5 1.790861-4.5 4-4.5zm0 2.83333c-.8181996 0-1.4814815.7462-1.4814815 1.66667s.6632819 1.66667 1.4814815 1.66667 1.4814815-.7462 1.4814815-1.66667-.6632819-1.66667-1.4814815-1.66667z" fill-rule="evenodd" transform="translate(-65 -2054)"/></svg>