<?xml version="1.0" encoding="UTF-8"?>
<svg width="258px" height="112px" viewBox="0 0 258 112" version="1.1" xmlns="http://www.w3.org/2000/svg" xmlns:xlink="http://www.w3.org/1999/xlink">
    <title>logo_jut35_s_white</title>
    <g id="Page-2" stroke="none" stroke-width="1" fill="none" fill-rule="evenodd">
        <g id="logo_jut35_s_white" fill="#FFFFFF">
            <path d="M218.524435,71 C212.6356,71 207.101072,67.7989848 207,59.9790011 L213.600782,59.9790011 C213.700744,63.3373115 215.935436,64.8597456 218.524435,64.8597456 C221.367781,64.8597456 223.399218,63.0227211 223.399218,59.6621144 C223.399218,56.5690244 221.571035,54.5195939 218.322291,54.5195939 L217.357108,54.5195939 L217.357108,48.5883011 L218.322291,48.5883011 C221.519944,48.5883011 222.891636,46.542315 222.891636,43.9176663 C222.891636,40.7694655 220.860199,39.1402544 218.474454,39.1402544 C215.985416,39.1402544 214.158345,40.8199837 214.006181,43.6558903 L207.405399,43.6558903 C207.557562,36.9886395 212.381254,33 218.474454,33 C224.870871,33 229.492418,37.4088588 229.492418,43.7064084 C229.492418,47.7490105 227.715327,50.0579207 225.328472,51.370245 C227.918582,52.7870502 230,55.3588845 230,59.8733722 C230,67.325951 224.718708,71 218.524435,71" id="Fill-5"></path>
            <path d="M254.685172,67.9318424 C253.000701,69.625697 250.31683,71 246.421706,71 C242.526582,71 239.684972,69.625697 238.053464,67.9839432 C235.736884,65.654459 235.210703,62.9012218 235,60.1491423 L241.842661,60.1491423 C242.211103,63.1154139 243.578945,64.8092685 246.421706,64.8092685 C247.737735,64.8092685 248.843062,64.4376162 249.684722,63.59011 C250.894824,62.3732671 251.15849,60.3621767 251.15849,57.9794339 C251.15849,53.6400171 249.895425,51.2063313 246.579445,51.2063313 C243.790799,51.2063313 242.526582,52.7936687 242.053364,54.2756467 L235.788696,54.2756467 L235.788696,33 L257.159491,33 L257.159491,39.1930471 L242.0004,39.1930471 L242.0004,47.2895098 C242.9998,46.337802 245.105677,45.3837787 247.631808,45.3837787 C250.737085,45.3837787 253.105477,46.3899028 254.632209,47.9251394 C257.579746,50.8879376 258,54.4342646 258,57.9794339 C258,62.215807 257.422006,65.179763 254.685172,67.9318424" id="Fill-7"></path>
            <path d="M140.367493,56.4374908 C142.828031,60.1087503 146.342765,65.1748336 148,68.3317229 L142.426379,71.5349519 C140.969408,68.2795908 137.705566,63.0038206 135.195524,59.1263495 L140.367493,56.4374908 Z M127.563016,46.3030071 L137.756194,46.3030071 L137.756194,39.1690165 L127.563016,39.1690165 L127.563016,46.3030071 Z M129.722035,69.2098595 C131.931682,69.2098595 132.28383,68.3826966 132.584225,62.9007148 C133.839808,63.9364062 136.501735,64.9176485 138.208474,65.3300715 C137.455799,73.0351984 135.747935,75 130.224943,75 L121.738504,75 C114.959928,75 113.252065,73.1383042 113.252065,67.3991373 L113.252065,57.2646537 L119.529982,57.2646537 L119.529982,67.2960316 C119.529982,69.0024895 119.931634,69.2098595 122.491179,69.2098595 L129.722035,69.2098595 Z M111.494698,46.3030071 L121.587744,46.3030071 L121.587744,39.1690165 L111.494698,39.1690165 L111.494698,46.3030071 Z M121.587744,51.7838304 L105.771442,51.7838304 L105.771442,33.7391669 L121.587744,33.7391669 L121.587744,28 L127.563016,28 L127.563016,33.7391669 L143.782095,33.7391669 L143.782095,51.7838304 L127.563016,51.7838304 L127.563016,55.6613015 L126.458193,55.6613015 C128.416948,57.5751294 130.626595,59.9535124 131.882178,61.5035741 L127.061233,65.2779394 C125.654889,63.2633227 122.792699,60.1087503 120.584177,57.8346315 L123.597127,55.6613015 L121.587744,55.6613015 L121.587744,51.7838304 Z M101,69.8296525 C102.858624,66.3136308 104.817379,61.1432832 105.971706,56.9553365 L111.294434,59.1784816 C110.038851,63.2111905 108.330987,68.7429874 106.725506,72.3632734 L101,69.8296525 Z" id="Fill-1"></path>
            <path d="M188.556707,60.0045579 C187.401341,61.36204 186.045726,62.7206496 184.840861,63.8785683 C188.255209,65.5900782 191.568308,67.2993331 193.92854,68.6083337 L190.414067,73.1362808 C187.301216,71.1755985 182.431129,68.5079883 177.761291,66.3432327 L177.761291,69.7143885 C177.761291,72.2816533 177.259545,73.4384446 175.451684,74.2445905 C173.694448,74.9492635 171.334216,75 168.021117,75 C167.719619,73.5399175 166.967,71.6277167 166.263881,70.2691071 C168.221365,70.3694526 170.430848,70.3694526 171.033843,70.3187161 C171.735838,70.3187161 171.937211,70.1191527 171.937211,69.5644341 L171.937211,67.2993331 C166.866876,69.3141342 161.644667,71.3255529 157.476574,72.9367174 L154.765346,67.9543972 C157.476574,67.1482512 161.041672,65.941851 164.957766,64.6328504 C163.903649,63.3238497 162.046289,61.7645492 160.539925,60.6066305 L164.45602,57.5376385 C166.263881,58.6955573 168.522863,60.5558941 169.627604,61.9156311 L167.267373,63.8289594 C168.824361,63.2731133 170.380224,62.7725136 171.937211,62.2177949 L171.937211,52.8078731 L177.761291,52.8078731 L177.761291,60.7081034 C178.515035,61.0610037 179.267654,61.36204 180.020273,61.7138128 C181.426512,60.2052488 182.882251,58.4937389 183.836243,57.0843928 L188.556707,60.0045579 Z M187.602714,51.3489181 C190.564816,54.2668282 194.58216,56.6322746 199,57.9897568 C197.644386,59.04733 195.937774,61.36204 195.083906,62.872859 C189.258701,60.5558941 184.28849,56.4823202 180.824642,51.3489181 L168.622987,51.3489181 C165.309888,55.8272562 160.992172,59.851221 155.468465,63.0735499 C154.565097,61.7138128 152.506363,59.7508756 151,58.9954661 C155.117468,56.8825745 158.530691,54.2160917 161.24192,51.3489181 L152.003492,51.3489181 L152.003492,46.4680708 L165.059015,46.4680708 C165.611386,45.6123159 166.113132,44.8072974 166.565378,43.9515425 L157.37645,43.9515425 L157.37645,39.3717315 L168.724237,39.3717315 C169.024609,38.566713 169.276607,37.8113036 169.476856,37.00854 L154.81597,37.00854 L154.81597,32.2257832 L170.732346,32.2257832 C171.033843,30.8186921 171.284717,29.4082186 171.43434,28 L177.710666,28.5524637 C177.510418,29.7622463 177.259545,30.9686465 176.958047,32.2257832 L194.933157,32.2257832 L194.933157,37.00854 L175.703682,37.00854 C175.451684,37.8113036 175.151311,38.566713 174.899313,39.3717315 L192.923922,39.3717315 L192.923922,43.9515425 L173.041953,43.9515425 C172.589706,44.8072974 172.188084,45.6123159 171.686338,46.4680708 L197.493637,46.4680708 L197.493637,51.3489181 L187.602714,51.3489181 Z" id="Fill-3"></path>
            <polygon id="Fill-9" points="38 55.5993148 38 36.7990864 18.9994229 18 0 18 0 36.7990864 9.45873705 46.1592292 0 55.5993148 0 74.3995432 9.48874647 83.789379 0 93.1986296 0 112 18.9994229 112 38 93.1986296 38 74.3995432 28.5585761 65.0576729"></polygon>
            <polygon id="Fill-12" points="43 56.4002284 43 18.8004568 62.0005771 0 81 0 81 18.8004568 62.0005771 37.5997716 81 56.4002284 81 75.2006852 62.0005771 94 43 94 43 75.2006852 52.5337606 65.7661953"></polygon>
        </g>
    </g>
</svg>