<?xml version="1.0" encoding="UTF-8"?>
<svg width="329px" height="50px" viewBox="0 0 329 50" version="1.1" xmlns="http://www.w3.org/2000/svg" xmlns:xlink="http://www.w3.org/1999/xlink">
    <title>slogan_top_white</title>
    <g id="Page-2" stroke="none" stroke-width="1" fill="none" fill-rule="evenodd">
        <g id="slogan_top_white" transform="translate(0.000000, -0.000127)" fill="#FFFFFF">
            <polygon id="Fill-1" points="68.4209004 26.3158422 68.4209004 12.32267 14.0350565 12.2807857 14.0350565 13.0363354"></polygon>
            <polygon id="Fill-2" points="0 0.877302308 0 10.5264036 67.892494 10.4243613 68.4209004 10.4232521 68.395528 0.877302308"></polygon>
            <polygon id="Fill-3" points="0 20.9225254 68.4209004 37.7193256 68.3608172 28.2406763 1.30915069 11.7269346 0 11.4035947"></polygon>
            <path d="M131.598603,31.766468 L131.598603,29.9554221 L137.631285,31.4064844 C138.756921,31.7681372 138.908332,32.1653988 138.908332,32.5059089 L138.908332,33.521875 L131.598603,31.766468 Z M71.4408837,6.38240476e-12 L71.4408837,9.58991912 L99.5652144,9.58991912 L99.5646618,11.4755211 L75.9174571,11.4755211 L75.9329298,15.9455496 L99.5569255,21.7937533 L99.5558203,23.5491603 L71.4441993,16.5737126 L71.4408837,26.5041418 L162.453307,49.3572595 L162.453307,39.336139 L159.642255,38.6362018 L159.642255,22.42136 C159.642255,18.3274504 159.642255,11.4755211 151.298621,11.4755211 L131.531187,11.4755211 L131.531187,9.62163329 L162.47541,9.77185829 L162.482594,0.00278194452 L71.4408837,6.38240476e-12 Z" id="Fill-4"></path>
            <polygon id="Fill-7" points="328.946305 36.222698 328.946305 18.817184 317.032906 18.7498609 317.032906 17.0072509 328.946305 16.9482736 328.946305 9.41309873 321.110505 9.41309873 328.946305 0.000111277789 308.741215 0.000111277789 305.670997 4.23701277 302.007843 0.000111277789 282.587992 0.000111277789 289.825883 9.41309873 282.256435 9.41309873 282.256435 16.9933411 294.19249 16.9955667 294.19249 18.7481917 282.24262 18.787139 282.256435 24.4956891 294.19249 27.4851667 294.19249 29.3067839 282.252014 26.3189755 282.201175 37.4078064 294.19249 40.5491781 294.19249 44.2469387 317.034564 50 317.032353 46.2482696 328.946305 49.2672358 328.946305 38.0059244 317.032906 35.0242363 317.032906 33.2549196"></polygon>
            <path d="M165.861106,0.000111277789 L165.861106,20.5992976 L183.275037,25.0103488 L183.275037,17.9853826 L185.539572,17.9853826 L185.539572,25.6251586 L200.128084,29.253927 L200.123111,11.475076 L183.268406,11.475076 L183.270616,9.40864762 L202.078745,9.40864762 L202.078745,22.5933954 C202.078745,29.1927242 204.101243,30.2988254 208.732543,31.4655729 L216.430194,33.3817763 L214.510478,36.8987105 L226.349277,39.8653761 L228.218706,36.3417652 L233.884465,37.7644516 L233.870097,24.9085297 L231.307713,24.2670133 L231.307713,11.475076 L219.292084,11.4717377 L219.273849,21.1478971 L217.647008,20.7545301 C217.260192,20.6549365 216.98942,20.4112382 216.98942,20.0100818 L217.009314,9.40864762 L233.879491,9.41309873 L233.884465,0.000111277789 L165.861106,0.000111277789 Z" id="Fill-9"></path>
            <path d="M267.478161,11.4594971 L270.88049,11.4594971 L270.88049,9.41254234 L267.478161,9.41254234 L267.478161,11.4594971 Z M267.478161,5.50446669 L270.88049,5.50446669 L270.88049,3.9098561 L267.478161,3.9098561 L267.478161,5.50446669 Z M267.478161,28.0193 L270.88049,28.0193 L270.88049,26.4246894 L267.478161,26.4246894 L267.478161,28.0193 Z M237.995552,3.90818693 L248.890518,3.9098561 L248.890518,5.50446669 L237.995552,5.50446669 L237.995552,9.41198595 L248.890518,9.41254234 L248.890518,11.4606099 L237.995552,11.4606099 L237.995552,19.3563248 L243.255152,19.3563248 L237.619787,26.2510961 L253.107371,30.165292 L253.397484,30.238179 L255.636599,27.4695878 L255.636599,30.8040265 L280.5393,37.0973414 L280.5393,20.4045615 L261.410666,20.4045615 L262.714238,18.8099509 L280.5393,18.8099509 L280.5393,0.000111277789 L237.995552,0.000111277789 L237.995552,3.90818693 Z" id="Fill-11"></path>
        </g>
    </g>
</svg>