<?xml version="1.0" encoding="UTF-8"?>
<svg width="313px" height="50px" viewBox="0 0 313 50" version="1.1" xmlns="http://www.w3.org/2000/svg" xmlns:xlink="http://www.w3.org/1999/xlink">
    <title>slogan_bottom_white</title>
    <g id="Page-2" stroke="none" stroke-width="1" fill="none" fill-rule="evenodd">
        <g id="slogan_bottom_white" transform="translate(-0.000000, -0.000000)" fill="#FFFFFF">
            <path d="M33.5343013,22.4290159 L33.5343013,31.9827009 L20.5568404,35.23626 L20.5584164,36.662089 L33.5343013,33.715866 L33.5343013,49.9999475 L10.9206737,49.9999475 L10.9206737,45.9557205 L7.15015966,49.9999475 L9.55625617e-13,49.9999475 L9.55625617e-13,42.6963825 L3.47578665,39.5962288 L9.55625617e-13,40.4672769 L9.55625617e-13,30.8353131 L0.0572643205,30.820603 L33.5343013,22.4290159 Z M25.7311183,42.5865821 L20.5594672,43.8873753 L20.5594672,45.2979689 L25.7311183,43.9961249 L25.7311183,42.5865821 Z" id="Combined-Shape"></path>
            <path d="M57.6395332,12.7803982 L57.6395332,16.5283217 L65.8488201,14.3144515 L65.8488201,24.0693497 L59.1646554,25.7352686 L59.1840938,22.9513821 L57.6579208,23.3322686 L57.655294,26.088311 L57.5975043,26.1024958 L42.9919504,29.7663616 L42.9919504,26.9856272 L41.4605239,27.3665137 L41.4605239,31.7264825 L65.8488201,25.6895622 L65.8488201,35.11611 L65.3917562,35.3525223 L59.8129506,41.3967976 L65.8488201,46.4434129 L65.8488201,49.9995797 L56.849916,49.9995797 L56.8415102,49.9938007 L53.9120987,47.7904378 L51.8726484,49.9995797 L34.9008697,49.9995797 L34.9008697,22.0829608 L34.9591847,22.068776 L42.9945772,20.1081297 L43.016117,16.3260578 L43.0739067,16.3129238 L57.6395332,12.7803982 Z M41.4741832,38.4369152 L41.5030781,44.88099 L45.0954948,41.1609106 L41.4741832,38.4369152 Z M53.0977896,32.873345 L50.3911311,33.5001003 L51.5521783,34.4725431 L53.0977896,32.873345 Z" id="Combined-Shape"></path>
            <path d="M144.092634,1.48083431 L144.092634,6.09875521 L154.658164,3.39840101 L154.658164,24.050857 L154.60195,24.0655671 L146.325942,26.2599989 L153.818637,35.7522168 L148.531407,40.830879 L155.211368,50 L136.829521,50 L136.813761,49.9816124 L122.693115,33.8220414 L122.693115,41.4665655 L125.185951,39.5001403 L125.233234,39.5495242 L135.202479,50 L105.458656,50 L105.458656,15.8625845 L105.515395,15.8478744 L121.536796,11.8462017 L121.536796,7.22250183 L121.593535,7.20726637 L144.092634,1.48083431 Z M142.936315,18.7588983 L122.679455,23.8769626 L122.688386,25.4357079 L142.936315,20.3249987 L142.936315,18.7588983 Z M142.936315,13.2394584 L122.693115,18.3491169 L122.693115,19.9152173 L142.936315,14.8066095 L142.936315,13.2394584 Z" id="Combined-Shape"></path>
            <polygon id="Path" points="139.207304 28.1491961 145.482213 26.4848533 141.103856 30.6562176"></polygon>
            <polygon id="Fill-4" points="68.4414228 47.1576408 68.0037973 47.2679665 68.0037973 49.9998424 103.938997 49.9998424 103.938997 38.3142435"></polygon>
            <polygon id="Fill-5" points="68.0031669 25.1598935 68.0031669 34.6631439 103.499691 25.8197466 103.938367 25.7104716 103.938367 16.241895 68.0604312 25.1457088"></polygon>
            <polygon id="Fill-6" points="68.0031669 45.7002901 103.499691 36.8568928 103.938367 36.7476178 103.938367 27.2790412 68.0031669 36.1839057"></polygon>
            <polygon id="Fill-7" points="267.301653 23.5561248 267.301653 11.2752922 226.137012 21.5214027 225.69676 21.6312031 225.69676 33.8894452 267.244388 23.5703096"></polygon>
            <polygon id="Fill-8" points="312.714465 3.82250247e-12 268.785376 10.9054382 268.727587 10.9201483 268.727587 23.2004556 312.274213 12.3517563 312.714465 12.2414306"></polygon>
            <path d="M268.727902,24.7392372 L268.727902,38.3597397 L269.677754,37.5764269 C269.920471,37.3752137 270.09384,37.2039461 270.248296,37.0505408 C270.565614,36.7332229 270.709563,36.589274 271.241753,36.4474266 L294.349745,30.613821 C294.741664,30.511901 295.124127,30.6195999 295.406771,30.9053962 C295.600104,31.1029318 295.71043,31.406065 295.71043,31.7354662 L295.71043,37.4471881 L294.185833,37.8275493 L294.196865,32.3806091 L294.196865,32.282892 L271.598998,37.9131831 C268.727902,38.6749562 268.727902,41.6406175 268.727902,42.614111 L268.727902,45.2803167 C268.727902,48.1156886 270.134818,49.9807193 272.398597,49.9807193 L307.618781,49.9807193 C308.141515,49.9807193 308.717836,49.6838904 309.380316,49.2872431 C311.436578,48.0500185 312.714781,45.7237212 312.714781,43.215649 L312.714781,13.7439623 L269.168154,24.6299622 L268.727902,24.7392372 Z" id="Fill-9"></path>
            <polygon id="Fill-12" points="225.69655 35.3049246 225.695499 47.4953952 231.229123 46.0942581 231.229123 49.9803515 267.305645 49.9803515 267.305645 25.0708974 226.137853 35.1967003"></polygon>
            <path d="M207.061164,36.8292063 L207.061164,26.5457952 L198.213563,28.7817305 L198.156824,28.7953899 L198.156824,40.9438316 L205.104195,39.3015539 C206.256311,39.0304678 207.061164,38.0133694 207.061164,36.8292063" id="Fill-14"></path>
            <polygon id="Fill-16" points="218.325108 12.7226085 198.294679 17.6904196 198.252125 17.7009268 197.421004 20.669215 185.689173 23.6185902 183.941298 21.3485065 183.910827 21.3101551 163.782681 26.3247234 165.62302 28.6194991 158.022101 30.5128992 157.964311 30.5276093 157.964311 37.2222812 223.131108 20.9870583 223.187322 20.9739242 223.307629 14.3139262 223.309731 14.2162091 217.495038 15.6656793"></polygon>
            <path d="M208.830631,36.899447 C208.830631,38.7150937 207.596559,40.2743644 205.829245,40.6915008 L198.20521,42.5003178 L198.146895,42.5139772 L198.146895,49.980404 L214.921663,49.980404 L218.614424,48.3712241 C219.815399,47.8484902 220.686972,45.6771742 220.686972,43.2085041 L220.686972,23.1533833 L208.830631,26.2151857 L208.830631,36.899447 Z" id="Fill-18"></path>
            <path d="M196.630284,29.2988431 L196.630284,49.9807193 L184.797058,49.9807193 L184.797058,47.0444781 L173.004286,49.9775671 L157.964784,49.9807193 L157.964784,38.8183796 L158.022048,38.8036695 L196.630284,29.2988431 Z M184.79233,41.5507808 L169.921994,45.2587769 L169.921994,46.8190983 L184.79233,43.1153051 L184.79233,41.5507808 Z M184.793906,35.9977178 L170.155255,39.6458228 L169.997646,41.2844229 L184.796008,37.5958652 L184.793906,35.9977178 Z" id="Combined-Shape"></path>
        </g>
    </g>
</svg>