<svg height="23" viewBox="0 0 100 23" width="100" xmlns="http://www.w3.org/2000/svg"><g fill="#fff" fill-rule="evenodd" transform="translate(.0001 -.0002)"><path d="m3.45447665.00042655 3.45447665 14.97203945h1.73119919l-3.45508602-14.97203945z"/><path d="m1.73052888 22.4557435h1.72754301v-7.4835822h-1.72754301z"/><path d="m5.18013064 22.4557435h1.72815237v-7.4835822h-1.72815237z"/><path d="m18.1356673 2.74335048c-.5533013 0-1.0024015.44788152-1.0024015.99996405 0 .55330125.4491002 1.00422959 1.0024015 1.00422959.5520825 0 1.0030108-.45092834 1.0030108-1.00422959 0-.55208253-.4509283-.99996405-1.0030108-.99996405m0 3.57391173c-1.4192056 0-2.5715103-1.15413279-2.5715103-2.57394768 0-1.41737744 1.1523047-2.56907278 2.5715103-2.56907278 1.4192055 0 2.5715102 1.15169534 2.5715102 2.56907278 0 1.41981489-1.1523047 2.57394768-2.5715102 2.57394768"/><path d="m3.45386729 0-3.45386729 14.9720394h1.73058982l3.45447665-14.9720394z"/><path d="m13.8159566 14.9722222-3.4538672-14.97203939h1.7324179l3.4532579 14.97203939z"/><path d="m8.63887283 22.4557435h1.72693367v-7.4835822h-1.72693367z"/><path d="m12.0896933 22.4557435h1.7257149v-7.4835822h-1.7257149z"/><path d="m10.3612363 0-3.45142989 14.9720394h1.73058982l3.45386727-14.9720394z"/><path d="m15.5466074 22.4557435h1.7263243v-7.4835822h-1.7263243z"/><path d="m18.9968185 22.4557435h1.7269337v-7.4835822h-1.7269337z"/><path d="m18.9970623 7.48729936 1.7269336 7.48480094h1.7311992l-1.7287617-7.48480094z"/><path d="m13.8159566 14.9722222h1.7305899l1.7263242-7.48480097h-1.7299804z"/><path d="m38.5799657 19.7709528c0 .4685998-.2333858.7019857-.7019857.7019857h-4.0473865c-.4344755 0-.6507992-.2163237-.6507992-.6507993v-4.2631008h-1.7708078v4.98093c0 1.0913684.5459889 1.6361386 1.636748 1.6361386h5.5988237c1.0925871 0 1.6379667-.5843787 1.6379667-1.7519175v-1.4972039h-1.7025592z"/><path d="m30.6070044 12.2349044h3.9742629v-3.14431107h-3.9742629zm5.8108819 0h3.9066237v-3.14431107h-3.9066237zm-1.836619 2.9956266h1.836619v-1.3588786h5.7444613v-6.41780705h-5.7444613v-1.24127164h-1.836619v1.24127164h-5.8096631v6.41780705h5.8096631z"/><path d="m34.5813283 15.8362984c.7751092 1.3271918 1.4112838 2.9371278 1.4112838 2.9371278h1.7970103c-.3991325-1.3076922-1.3716752-2.9371278-1.3716752-2.9371278z"/><path d="m26.9443695 20.4029227h2.0675673s1.1858196-2.450247 1.6739191-4.8438234h-1.8829305s-.3784142 2.3490929-1.8585559 4.8438234"/><path d="m39.7189254 15.5589775c.4174134.6678614 1.3247543 2.137644 2.0090685 4.5537668h2.0029749c-.5222237-2.0005375-1.8201661-3.9145455-2.1681121-4.5537668z"/><path d="m58.8918497 13.9772549h3.1455298v-1.4362676h-8.560326c.2102301-.3893828.4064449-.7787655.5855975-1.1687575h6.9278436v-1.43443963h-6.3781985c.110904-.34611796.2126675-.69040784.3022438-1.0365258h6.5878192v-1.43687704h-6.3227464c.0560613-.40644487.1060291-.82324889.1517313-1.25163081h-1.7878699c-.033515.42350701-.082264.83909232-.1505126 1.25163081h-6.0022217v1.43687704h5.7194774c-.1017635.34611796-.2163237.69040784-.3503835 1.0365258h-4.8602762v1.43443963h4.2253204c-.2230267.4009606-.4667718.7897339-.7342819 1.1687575h-4.5360953v1.4362676h3.3514943c-1.0462756 1.0785719-2.3314213 2.0303963-3.858484 2.8554732v2.0084592c.9195281-.4820058 2.6330558-1.4813605 3.4581328-2.1004729l1.6416229.7939995c-.7799842.6733457-2.3222809 1.4996414-3.5714743 2.0693954v1.9353357c3.8140006-1.9706787 5.3703127-3.2631368 5.3703127-3.2631368v-1.3156139l-2.1693309-1.3192701c.527708-.5380672 1.0261666-1.082228 1.4655171-1.6641693h4.3581614c.4801777.6404401.8945443 1.1388988 1.2363967 1.525844l-2.3978418 1.4575954v1.3156139s2.0486771 2.0779265 5.2362529 3.559287v-2.0096779c-.3845078-.1511219-2.3155779-1.0651659-3.6019424-2.2174706l1.9566633-.9201375c.7744999.6477525 2.3003439 1.6769659 3.2442466 2.0852389v-2.0590363c-1.4338302-.6843142-2.8463328-1.8305253-3.6823783-2.7372569"/><path d="m53.5736375 19.949496s.0152341.4941931-.4381317.5703634h-1.4027527v1.6385761h2.3667643s1.2997705.0524052 1.2997705-1.3862999v-6.2319515h-1.8256504z"/><path d="m70.1199043 14.6376212h3.0815467v-.8128897h-3.0815467zm0-2.046849h3.0815467v-.7952182h-3.0815467zm0-2.046849h3.0815467v-.7617033h-3.0815467zm6.3324963 7.6822344h5.3185168v-1.456986h-6.8224238v-.7257509h5.7822419v-1.4057995h-5.7822419v-.8128897h5.0662408v-1.2339593h-5.0662408v-.7952182h5.0662408v-1.2516308h-5.0662408v-.7617033h5.7822419v-1.4393145h-5.2856113c.2620259-.42350701.541114-.92684053.875654-1.57703044l.0566708-.11273208-1.9298514-.24435441-.0243745-.00182809-.0225465.06885798c-.1718402.51673949-.4734747 1.2126316-.8074054 1.86708704h-2.6775393c.3186966-.4759122.5977847-.95791802.8695604-1.42468978l.1084665-.18768369-1.8421031-.36074267-.0310775.06093627c-.8835758 1.78726054-2.3722487 3.58061467-3.9827941 4.79629317l-.0920137.0688579 1.2595525 1.2022725.0682486-.0572801c.4186321-.3448993.818374-.7080794 1.1858197-1.0797906v4.6823423h4.7426692v.7257509h-6.7553939v1.456986h5.3215636c-1.5624057 1.0139794-3.7414864 1.9243672-5.7139932 2.3838266l-.1492938.0347336 1.1559609 1.4521111.0615456-.0194996c2.1199725-.6245966 4.4416441-1.8006665 6.0796108-3.0742343v3.2326686h1.7464332v-3.2680117c1.6142016 1.2376155 3.8883429 2.366155 6.0954542 3.0254854l.0664206.020109 1.0992901-1.4533299-.1474657-.0347336c-1.9816472-.4710373-4.1192913-1.3466914-5.6097922-2.2991252z"/><path d="m87.5293941 20.7495282h10.7741404v-12.24696979h-10.7741404zm-1.6269981 1.4234711h14.097604v-15.07563108h-14.097604z"/><path d="m90.0369213 12.5846786h2.0748797v-.4533658h-2.0748797zm0 1.3485194h2.0748797v-.4710373h-2.0748797zm3.5665994 0h2.1760338v-.4710373h-2.1760338zm-.0006094-1.3485194v-.4533658h2.1766432v.4533658zm3.0163449 4.2308046h-.9353716v-.52588l.4210696-.0115779c.1797619.179762.3637895.3637895.514302.5374579zm-3.0163449-1.9718974h1.7263243l-.4813965.3119936.2175425.1809807-1.4624703.0274213zm-4.0955261 3.4538672-.0383899.0188903.0962793.0871388c.5008961.4509284 1.0609003 1.10904 1.330848 1.5648432l.0426553.0737329 1.2150691-.6648146-.0493584-.0798265c-.2626353-.4283819-.8013118-.9853394-1.2412716-1.3832531h3.3118858v1.2248188c0 .0938419 0 .1188257-.1486845.1334504-.5179582 0-.9774176-.0060936-1.3631442-.0164528l-.1468563-.0048749.4155853 1.0340884h.0700767c.9841206 0 1.6349198 0 2.0718328-.139544.4558033-.1328411.609972-.3747581.609972-.9554806v-1.2760053h2.3192341v-1.0986808h-.9341529l.7202666-.5459889-.0627643-.0712955c-.3022439-.3455086-.8592013-.8902787-1.4447988-1.354613h.9536525v-3.606208h-3.6324105v-.4363036h4.1619466v-1.11574296h-4.1619466v-.85798256h-1.4911103v.85798256h-4.0766359v1.11574296h4.0766359v.4363036h-3.4971321v3.606208h3.4971321v.5228331l-.2388702.0036562c-1.3022079.0140153-2.6482899.0292494-3.7158932.0292494h-.0944512l.0804359 1.1011182.0853107-.0024374c1.7171839-.0414367 3.9669507-.1060291 5.9467698-.164528v.4820059h-6.3276214v1.0986808h2.4136853z"/></g></svg>