<svg height="18" viewBox="0 0 100 18" width="100" xmlns="http://www.w3.org/2000/svg"><g fill="#fefefe" fill-rule="evenodd"><path d="m27.5684174 9.92272645c.5331035.76513945 1.2924478 1.82255845 1.6511833 2.47972205l-1.2055763.6683335c-.3149872-.6788829-1.0205837-1.7791199-1.5636868-2.5876979zm-2.7680131-2.11359693h2.203036v-1.48684035h-2.203036zm.4662311 4.77638158c.4781057 0 .5537277-.1718927.61935-1.3149477.2712391.2159517.8468408.4207336 1.2155759.5063696-.1624934 1.6066067-.5318535 2.0161704-1.7261803 2.0161704h-1.8349258c-1.4655658 0-1.8349259-.3884649-1.8349259-1.5842668v-2.113597h1.3568202v2.0912571c0 .3561964.0874965.3990144.6405991.3990144zm-3.9410907-4.77700213h2.1824118v-1.48684035h-2.1824118zm2.1824118 1.14429617h-3.4204868v-3.76302166h3.4204868v-1.19704301h1.2924478v1.19704301h3.5067333v3.76302166h-3.5067333v.80795749h-.2393654c.4237329.39901437.9012136.89545517 1.1724527 1.21876227l-1.0424579.7862382c-.3037377-.4201131-.9224627-1.0778972-1.4005684-1.5519982l.6518486-.45300227h-.4343574zm-4.4516952 3.76240106c.4018588-.7334913.8249667-1.8113885 1.0755816-2.6851244l1.1499535.4635516c-.271239.8414673-.6399741 1.9944512-.9874601 2.7496618z"/><path d="m38.7653732 10.731066c-.2478922.2943535-.5406292.5874545-.8003554.8385945.7355796.3701339 1.4493596.7402678 1.9588465 1.022722l-.7573791.9782559c-.6720494-.4239944-1.7215428-.9995496-2.7268141-1.4686364v.7296211c0 .5542614-.1089978.8054014-.4982758.9788821-.3786895.1521871-.8869308.1640865-1.6013337.1640865-.0653987-.3156473-.2273383-.7289948-.3793124-1.0227221.4222887.0206674.8987649.0206674 1.0289394.0106468.1507285 0 .1943276-.0438398.1943276-.1634601v-.489128c-1.0930925.4346413-2.2185728.8692825-3.1167149 1.2181227l-.5836055-1.077835c.5836055-.1734807 1.3521959-.4346412 2.1961504-.7177216-.2273383-.2830805-.6278274-.6206477-.9517067-.870535l.8433318-.6638612c.3892779.2505136.8769653.6532143 1.1142691.9463153l-.5082412.4139739c.3357132-.1196203.6708037-.2285938 1.006517-.3475878v-2.0347972h1.2556549v1.7078769c.1619396.0757804.3238792.1415402.4864417.2179469.3027025-.3275466.6166163-.6970543.822155-1.0014284zm-.2055387-1.87071082c.6384158.63129444 1.5041699 1.14234232 2.4564994 1.43606962-.2914913.2285937-.6602153.7289947-.8445774 1.0546625-1.2544092-.4997748-2.3257021-1.38158287-3.0731157-2.49073212h-2.6284046c-.7144029.9688616-1.6455557 1.83814402-2.8351891 2.53519832-.1955732-.2937273-.6390387-.7189742-.9635407-.8818081.8869308-.4565612 1.6231332-1.03274261 2.2073616-1.65339022h-1.9906117v-1.05591509h2.8133895c.1195862-.18538012.2267155-.35823454.3251249-.54424094h-1.9806461v-.98952898h2.4452883c.0647758-.17410699.1189633-.33756716.1619396-.51104787h-3.1596911v-1.03462144h3.4306285c.0653987-.30374782.1183405-.60937449.1513513-.91374859l1.3521958.12024656c-.0429762.26116049-.0971637.52232099-.1619396.79350203h3.8734712v1.03462144h-4.1444086c-.0535647.17348071-.1183405.33694088-.172528.51104787h3.8846824v.98952898h-4.2851715c-.0971638.1860064-.1837392.35886082-.2921142.54424094h5.5620032v1.05591509z"/><path d="m49.1602625 11.710043c.9453167.3143301 2.3654585.8226218 3.10834 1.1706301l-.7855972.8444502c-.6884035-.3361585-2.0763538-.8993333-3.0650052-1.267299zm-4.119897-2.76286168h2.1723093v-.47648449h-2.1723093zm0-1.3115797h2.1723093v-.4334512h-2.1723093zm0-1.26792274h2.1723093v-.45465601h-2.1723093zm2.990098 5.23446902v2.3724438h-1.2684701v-2.3724438h-4.1731369v-1.0296805h4.1731369v-.5525723h1.2684701v.5525723h4.2158526v1.0296805zm-1.6238151.649865c-.7645489.6168104-2.0763538 1.1918349-3.2049146 1.4519056-.1826251-.2925016-.537351-.7477813-.7961214-.9860235 1.0963693-.151552 2.3772208-.5089154 3.043957-.9105594zm-2.6347531-5.13592905c-.1943873.17338048-.3875365.33615856-.5819238.49831297-.2036734-.2712968-.6122582-.68291953-.9032201-.84507394 1.1948011-.85630001 2.0652106-1.97204707 2.5499407-2.90443492l1.3006617.24946832c-.1615767.2712968-.3330585.54134625-.5163026.81264305h1.6566258c-.0965746-.2712968-.2154357-.54134625-.3330586-.78021217l1.2040871-.33553489c.1937683.33553489.3869175.75838369.5156836 1.11574706h3.0551002v.98602354h-3.2798219v.45465601h2.7963298v.83447154h-2.7963298v.4334512h2.806854v.83509521h-2.806854v.47586082h3.5385923v.9760448h-6.9372752v.29250165h-1.2690892z"/><path d="m59.6351858 9.47384403h.8659786l-.1195312-.09755961.3673094-.25077822h-1.1137568zm0-.89179488h1.1461299v-.3145672h-1.1461299zm0-.824879h1.1461299v-.31519258h-1.1461299zm-2.2169302.824879h1.1679194v-.3145672h-1.1679194zm0-.824879h1.1679194v-.31519258h-1.1679194zm4.8235819 3.33578815h-1.3951532v.6947995c0 .4127522-.085913.5547139-.3897215.6416421-.2907347.0863027-.7246579.0863027-1.3192011.0863027-.0541626-.2276391-.1624877-.4559036-.2596068-.6403913.3031859.0100061.6605344.0100061.7570309 0 .1077026 0 .1512817-.0325199.1512817-.1307048v-.6516482h-1.9143669c.2813964.2707905.5845823.6303852.7246579.8792872l-.85415.4246345c-.1406982-.2607843-.4544676-.6854188-.7458249-.978723l.6804563-.3251987h-1.675927v-.6954249h3.7851546v-.3151926h1.0602168v.3151926h.5727537c-.0753296-.1081911-.1936157-.238896-.3131469-.3696008-1.7848747.0644143-3.5691269.1188226-4.888328.1407109l-.043579-.68416797h2.4117909v-.35896933h-2.1416006v-2.21635418h2.1416006v-.3251987h-2.4435414v-.6954249h2.4435414v-.40212069h1.0490108v.40212069h2.4659535v.6954249h-2.4659535v.3251987h2.1739737v2.21635418h-.5403807c.346765.2726666.6922849.59786529.8971066.84864351l-.5721311.42338369h.6480832zm-6.4571749 1.5528238h6.6949922v-7.31134223h-6.6949922zm7.9176967-8.29006522v9.77910002h-1.2227045v-.5103118h-6.6949922v.5315748h-1.1567134v-9.80036302z"/><path d="m67.9730197 13.0671506c-1.2550632 0-2.4342918-.6415131-2.4557783-2.2111598h1.4061005c.0221185.6741116.4973489.9797991 1.0496778.9797991.6060452 0 1.0383026-.3696543 1.0383026-1.0425358 0-.6212159-.3899164-1.03146451-1.0812755-1.03146451h-.2060175v-1.19015139h.2060175c.6812478 0 .9732111-.41086364.9732111-.93674449 0-.63167209-.4328893-.95827177-.9416134-.95827177-.5295785 0-.919495.33644073-.9517247.90599122h-1.4061005c.0328616-1.33776708 1.060421-2.13796706 2.3578252-2.13796706 1.3631276 0 2.3470821.885079 2.3470821 2.1478081 0 .81127116-.3785413 1.27441535-.8866333 1.53766331.5523289.28416018.9953296.79958492.9953296 1.70496109 0 1.4952238-1.1248805 2.232072-2.4444032 2.232072"/><path d="m75.5443676 12.4518423c-.3463319.3405285-.8957948.6153083-1.6957016.6153083-.7986451 0-1.3815425-.2747798-1.7165193-.6041435-.4750235-.4670637-.5828974-1.0197247-.6257946-1.5717655h1.4029911c.0750702.5948395.3570562.9341274.9393228.9341274.2700001 0 .497103-.0738122.6699535-.243146.2485515-.2450069.302173-.6475624.302173-1.1264113 0-.87023955-.2592758-1.35839245-.9393227-1.35839245-.5721731 0-.8314489.31757851-.9285985.61530836h-1.2856547v-4.26808151h4.3849782v1.24240187h-3.109417v1.62386824c.2043926-.18980278.636519-.38208664 1.1550705-.38208664.6371498 0 1.1222668.20220819 1.435795.50986237.604346.59483944.6914021 1.30691001.6914021 2.01711976 0 .8491504-.119229 1.4439898-.6806778 1.9960306"/><path d="m85.1316332 7.42042615h1.4205881v-.66611647h-1.4205881zm0-1.52705809h1.4205881v-.61168912h-1.4205881zm-1.1384679 4.53540584h1.0841659v-.93516074h-1.0841659zm-1.2795279-3.00834775h1.3550513v-.66611647h-1.3550513v.26780728zm0-1.5258211h1.3556755v-.61230762h-1.3556755zm-.0218456 2.38490725c-.0649127 1.28955696-.2284426 2.7727021-.6503747 3.8358908-.2284426-.1818368-.7589786-.4719098-1.0523338-.5906604.5211736-1.3112042.5536299-3.1703928.5536299-4.50262574v-2.7714651h6.2016536v6.77991524c0 .5584988-.1079796.8380574-.4656233 1.0316456-.3364222.1824553-.8357502.1929697-1.5504134.1929697-.0436912-.2999689-.1741406-.752087-.3258115-1.0526743h-2.2769356v-2.48201062h2.8630218v2.48201062h.3794893c.140436 0 .1841272-.0538089.1841272-.1935882v-2.7294076zm-3.241887-2.13812873c-.1416843-.48427966-.4119456-1.24626248-.5973211-1.80537974l1.1715483-.34326336c.2059728.56901314.4774824 1.2778056.639764 1.74043802zm1.8106881 2.73992198c-.2284425.99948395-.5530057 1.99834945-.9649513 2.81537805.1841272.1082362.3901.2684258.682831.4409852.737133.4403667 1.7451513.5040714 3.0146927.5040714 1.2464475 0 3.1882092-.1069992 4.3915897-.2783216-.1516709.3438818-.3582678.9660853-.3801134 1.3099672-.8994146.0538088-2.7974851.1286464-4.0657782.1286464-1.4424337 0-2.3418482-.1168951-3.1226724-.5690131-.4556368-.2467785-.8469851-.6017933-1.0517096-.6017933-.249664 0-.6185425.7304397-.8682065 1.3433659l-.8563475-1.2246153c.3364222-.4082051.7046766-.7415725 1.0186291-.9679408.3039659-.5467474.5642406-1.2666728.7596027-1.98659807h-1.225226c.2496639-.60179325.5317843-1.45098351.8020455-2.25749779h-1.1490785v-1.13864478h2.6676598c-.2278184.7304397-.5099387 1.5684971-.7808242 2.29955528h.4013349l.1841272-.05442734z"/><path d="m93.0625258 10.6019981h1.8808291v-1.64638993h-1.8808291zm6.9374742 1.235416h-3.7184711v2.3186658h-1.338174v-2.3186658h-4.8926593v-1.2360397h1.7180952v-2.83815164h3.1745641v-1.30027383h-2.3264698c-.4468925.76893892-.9682671 1.46241829-1.4790014 1.97192607-.2497341-.21702412-.8042813-.6498251-1.1197349-.83379669.9776556-.82381858 1.8157356-2.21140097 2.2826569-3.60833784l1.3168933.33613794c-.0982663.30246178-.2178132.5961927-.3592665.88867636h6.1438331v1.24539416h-3.1207367v1.30027383h2.8703768v1.19238541h-2.8703768v1.64576623h3.7184711z"/><path d="m0 14.9911729v2.9761592h2.9942443l2.99486641-2.9761592v-2.9767775l-1.49743321-1.4877704 1.49743321-1.48838881v-2.97677754l-2.99486641-2.97615919h-2.9942443v2.97615919l1.49183416 1.49333564-1.49183416 1.4834419v2.97615921l1.49681109 1.4883888z"/><path d="m7.07803993 11.9058735v2.9761592h2.99424427l2.9948664-2.9761592v-2.97677757l-2.9948664-2.97615919 2.9948664-2.97677755v-2.97615919h-2.9948664l-2.99424427 2.97615919v2.97677755 2.97615919l1.50241013 1.48344187z"/></g></svg>