<?xml version="1.0" encoding="UTF-8"?>
<svg width="37px" height="37px" viewBox="0 0 37 37" version="1.1" xmlns="http://www.w3.org/2000/svg" xmlns:xlink="http://www.w3.org/1999/xlink">
    <title>logo_jutgroup_icon_black</title>
    <g id="Page-2" stroke="none" stroke-width="1" fill="none" fill-rule="evenodd">
        <path d="M5.672,24.5613 L5.672,36.8353 L2.839,36.8353 L2.839,24.5613 L5.672,24.5613 Z M25.5008,24.5614 L22.6618,24.5614 L21.2417,18.4064 L18.4167,6.1554 L14.1727,24.5619 L17.003,24.5623 L17.003,36.8353 L14.17,36.8353 L14.17,24.5623 L11.3337,24.5619 L11.3327,24.5604 L11.331,24.5613 L11.331,36.8353 L8.498,36.8353 L8.498,24.5613 L11.3305,24.561 L7.0847,6.1574 L2.8387,24.5619 L-0.0003,24.5619 L5.6637,0.000899999999 L8.5057,0.000899999999 L8.5047,0.0034 L10.7377,9.6804 L12.7517,18.4064 L16.9957,0.000899999999 L19.8378,0.000399999997 L24.0817,18.4064 L25.4948,12.2804 L28.3318,12.2804 L25.5008,24.5614 Z M22.662,24.5623 L22.662,36.8353 L19.831,36.8353 L19.831,24.5623 L22.662,24.5623 Z M28.332,24.5623 L28.332,36.8353 L25.501,36.8353 L25.501,24.5623 L28.332,24.5623 Z M33.993,24.5623 L33.993,36.8353 L31.16,36.8353 L31.16,24.5623 L33.993,24.5623 Z M33.9988,12.2802 L36.8318,24.5612 L33.9908,24.5612 L31.1598,12.2802 L33.9988,12.2802 Z M29.7457,1.9269 C32.0737,1.9269 33.9667,3.8149 33.9667,6.1419 C33.9667,8.4699 32.0737,10.3619 29.7457,10.3619 C27.4187,10.3619 25.5287,8.4699 25.5287,6.1419 C25.5287,3.8149 27.4187,1.9269 29.7457,1.9269 Z M29.7457,4.5009 C28.8407,4.5009 28.1007,5.2369 28.1007,6.1419 C28.1007,7.0479 28.8407,7.7879 29.7457,7.7879 C30.6527,7.7879 31.3927,7.0479 31.3927,6.1419 C31.3927,5.2369 30.6527,4.5009 29.7457,4.5009 Z" id="logo_jutgroup_icon_black" fill="#000000"></path>
    </g>
</svg>