<svg height="50" viewBox="0 0 315 50" width="315" xmlns="http://www.w3.org/2000/svg"><g fill="#1fd172" fill-rule="evenodd" transform="translate(1)"><path d="m33.5343013 22.4290159v9.553685l-12.9774609 3.2535591.001576 1.425829 12.9758849-2.946223v16.2840815h-22.6136276v-4.044227l-3.77051404 4.044227h-7.15015966v-7.303565l3.47578665-3.1001537-3.47578665.8710481v-9.6319638l.05726432-.0147101zm-7.803183 20.1575662-5.1716511 1.3007932v1.4105936l5.1716511-1.301844z"/><path d="m57.6395332 12.7803982v3.7479235l8.2092869-2.2138702v9.7548982l-6.6841647 1.6659189.0194384-2.7838865-1.526173.3808865-.0026268 2.7560424-.0577897.0141848-14.6055539 3.6638658v-2.7807344l-1.5314265.3808865v4.3599688l24.3882962-6.0369203v9.4265478l-.4570639.2364123-5.5788056 6.0442753 6.0358695 5.0466153v3.5561668h-8.9989041l-.0084058-.005779-2.9294115-2.2033629-2.0394503 2.2091419h-16.9717787v-27.9166189l.058315-.0141848 8.0353925-1.9606463.0215398-3.7820719.0577897-.013134zm-16.16535 25.656517.0288949 6.4440748 3.5924167-3.7200794zm11.6236064-5.5635702-2.7066585.6267553 1.1610472.9724428z"/><path d="m144.092634 1.48083431v4.6179209l10.56553-2.7003542v20.65245599l-.056214.0147101-8.276008 2.1944318 7.492695 9.4922179-5.28723 5.0786622 6.679961 9.169121h-18.381847l-.01576-.0183876-14.120646-16.159571v7.6445241l2.492836-1.9664252.047283.0493839 9.969245 10.4504758h-29.743823v-34.1374155l.056739-.0147101 16.021401-4.0016727v-4.62369987l.056739-.01523546zm-1.156319 17.27806399-20.25686 5.1180643.008931 1.5587453 20.247929-5.1107092zm0-5.5194399-20.2432 5.1096585v1.5661004l20.2432-5.1086078z"/><path d="m139.207304 28.1491961 6.274909-1.6643428-4.378357 4.1713643z"/><path d="m68.4414228 47.1576408-.4376255.1103257v2.7318759h35.9351997v-11.6855989z"/><path d="m68.0031669 25.1598935v9.5032504l35.4965241-8.8433973.438676-.109275v-9.4685766l-35.8779358 8.9038138z"/><path d="m68.0031669 45.7002901 35.4965241-8.8433973.438676-.109275v-9.4685766l-35.9352001 8.9048645z"/><path d="m267.301653 23.5561248v-12.2808326l-41.164641 10.2461105-.440252.1098004v12.2582421l41.547628-10.3191356z"/><path d="m312.714465 0-43.929089 10.9054382-.057789.0147101v12.2803073l43.546626-10.8486993.440252-.1103257z"/><path d="m268.727902 24.7392372v13.6205025l.949852-.7833128c.242717-.2012132.416086-.3724808.570542-.5258861.317318-.3173179.461267-.4612668.993457-.6031142l23.107992-5.8336056c.391919-.10192.774382.0057789 1.057026.2915752.193333.1975356.303659.5006688.303659.83007v5.7117219l-1.524597.3803612.011032-5.4469402v-.0977171l-22.597867 5.6302911c-2.871096.7617731-2.871096 3.7274344-2.871096 4.7009279v2.6662057c0 2.8353719 1.406916 4.7004026 3.670695 4.7004026h35.220184c.522734 0 1.099055-.2968289 1.761535-.6934762 2.056262-1.2372246 3.334465-3.5635219 3.334465-6.0715941v-29.4716867l-43.546627 10.8859999z"/><path d="m225.69655 35.3049246-.001051 12.1904706 5.533624-1.4011371v3.8860934h36.076522v-24.9094541l-41.167792 10.1258029z"/><path d="m207.061164 36.8292063v-10.2834111l-8.847601 2.2359353-.056739.0136594v12.1484417l6.947371-1.6422777c1.152116-.2710861 1.956969-1.2881845 1.956969-2.4723476"/><path d="m218.325108 12.7226085-20.030429 4.9678111-.042554.0105072-.831121 2.9682882-11.731831 2.9493752-1.747875-2.2700837-.030471-.0383514-20.128146 5.0145683 1.840339 2.2947757-7.600919 1.8934001-.05779.0147101v6.6946719l65.166797-16.2352229.056214-.0131341.120307-6.659998.002102-.0977171-5.814693 1.4494702z"/><path d="m208.830631 36.899447c0 1.8156467-1.234072 3.3749174-3.001386 3.7920538l-7.624035 1.808817-.058315.0136594v7.4664268h16.774768l3.692761-1.6091799c1.200975-.5227339 2.072548-2.6940499 2.072548-5.16272v-20.0551208l-11.856341 3.0618024z"/><path d="m196.630284 29.2988431v20.6818762h-11.833226v-2.9362412l-11.792772 2.933089-15.039502.0031522v-11.1623397l.057264-.0147101zm-11.837954 12.2519377-14.870336 3.7079961v1.5603214l14.870336-3.7037932zm.001576-5.553063-14.638651 3.648105-.157609 1.6386001 14.798362-3.6885577z"/></g></svg>