{
    "asset" : {
        "generator" : "Khronos glTF Blender I/O v1.6.16",
        "version" : "2.0"
    },
    "scene" : 0,
    "scenes" : [
        {
            "name" : "Scene",
            "nodes" : [
                0,
                1,
                2,
                3,
                4,
                5
            ]
        }
    ],
    "nodes" : [
        {
            "mesh" : 0,
            "name" : "Cube_2"
        },
        {
            "mesh" : 1,
            "name" : "Cube_1"
        },
        {
            "mesh" : 2,
            "name" : "fence_1"
        },
        {
            "mesh" : 3,
            "name" : "fence_3"
        },
        {
            "mesh" : 4,
            "name" : "fence_4"
        },
        {
            "mesh" : 5,
            "name" : "fence_2"
        }
    ],
    "materials" : [
        {
            "doubleSided" : true,
            "name" : "D_Concrete_11_1",
            "normalTexture" : {
                "index" : 0
            },
            "pbrMetallicRoughness" : {
                "baseColorTexture" : {
                    "index" : 1
                },
                "metallicFactor" : 0,
                "roughnessFactor" : 0.5527864098548889
            }
        },
        {
            "doubleSided" : true,
            "name" : "D_Concrete_11",
            "normalTexture" : {
                "index" : 2
            },
            "pbrMetallicRoughness" : {
                "baseColorTexture" : {
                    "index" : 3
                },
                "metallicFactor" : 0,
                "roughnessFactor" : 0.5527864098548889
            }
        }
    ],
    "meshes" : [
        {
            "name" : "Mesh.033",
            "primitives" : [
                {
                    "attributes" : {
                        "POSITION" : 0,
                        "NORMAL" : 1,
                        "TEXCOORD_0" : 2,
                        "TEXCOORD_1" : 3,
                        "TEXCOORD_2" : 4
                    },
                    "indices" : 5,
                    "material" : 0
                }
            ]
        },
        {
            "name" : "Mesh.035",
            "primitives" : [
                {
                    "attributes" : {
                        "POSITION" : 6,
                        "NORMAL" : 7,
                        "TEXCOORD_0" : 8,
                        "TEXCOORD_1" : 9,
                        "TEXCOORD_2" : 10
                    },
                    "indices" : 5,
                    "material" : 0
                }
            ]
        },
        {
            "name" : "Mesh.044",
            "primitives" : [
                {
                    "attributes" : {
                        "POSITION" : 11,
                        "NORMAL" : 12,
                        "TEXCOORD_0" : 13
                    },
                    "indices" : 14,
                    "material" : 1
                }
            ]
        },
        {
            "name" : "Mesh.052",
            "primitives" : [
                {
                    "attributes" : {
                        "POSITION" : 15,
                        "NORMAL" : 16,
                        "TEXCOORD_0" : 17
                    },
                    "indices" : 18,
                    "material" : 1
                }
            ]
        },
        {
            "name" : "Mesh.060",
            "primitives" : [
                {
                    "attributes" : {
                        "POSITION" : 19,
                        "NORMAL" : 20,
                        "TEXCOORD_0" : 21
                    },
                    "indices" : 14,
                    "material" : 1
                }
            ]
        },
        {
            "name" : "Mesh.068",
            "primitives" : [
                {
                    "attributes" : {
                        "POSITION" : 22,
                        "NORMAL" : 23,
                        "TEXCOORD_0" : 24
                    },
                    "indices" : 14,
                    "material" : 1
                }
            ]
        }
    ],
    "textures" : [
        {
            "sampler" : 0,
            "source" : 0
        },
        {
            "sampler" : 0,
            "source" : 1
        },
        {
            "sampler" : 0,
            "source" : 0
        },
        {
            "sampler" : 0,
            "source" : 2
        }
    ],
    "images" : [
        {
            "mimeType" : "image/jpeg",
            "name" : "KV_1_0321_D_Concrete_11_Normal",
            "uri" : "texture/KV_1_0321_D_Concrete_11_Normal.jpg"
        },
        {
            "mimeType" : "image/jpeg",
            "name" : "KV_2_0321_D_Concrete_11_1_AlbedoTransparency",
            "uri" : "texture/KV_2_0321_D_Concrete_11_1_AlbedoTransparency.jpg"
        },
        {
            "mimeType" : "image/jpeg",
            "name" : "KV_2_0321_D_Concrete_11_AlbedoTransparency",
            "uri" : "texture/KV_2_0321_D_Concrete_11_AlbedoTransparency.jpg"
        }
    ],
    "accessors" : [
        {
            "bufferView" : 0,
            "componentType" : 5126,
            "count" : 364,
            "max" : [
                482.3380126953125,
                286.46697998046875,
                77.61820983886719
            ],
            "min" : [
                -38.03895568847656,
                25.942520141601562,
                -67.34370422363281
            ],
            "type" : "VEC3"
        },
        {
            "bufferView" : 1,
            "componentType" : 5126,
            "count" : 364,
            "type" : "VEC3"
        },
        {
            "bufferView" : 2,
            "componentType" : 5126,
            "count" : 364,
            "type" : "VEC2"
        },
        {
            "bufferView" : 3,
            "componentType" : 5126,
            "count" : 364,
            "type" : "VEC2"
        },
        {
            "bufferView" : 4,
            "componentType" : 5126,
            "count" : 364,
            "type" : "VEC2"
        },
        {
            "bufferView" : 5,
            "componentType" : 5123,
            "count" : 1428,
            "type" : "SCALAR"
        },
        {
            "bufferView" : 6,
            "componentType" : 5126,
            "count" : 364,
            "max" : [
                65.28762817382812,
                196.01516723632812,
                77.6954574584961
            ],
            "min" : [
                -455.08935546875,
                -64.50930786132812,
                -67.2664566040039
            ],
            "type" : "VEC3"
        },
        {
            "bufferView" : 7,
            "componentType" : 5126,
            "count" : 364,
            "type" : "VEC3"
        },
        {
            "bufferView" : 8,
            "componentType" : 5126,
            "count" : 364,
            "type" : "VEC2"
        },
        {
            "bufferView" : 9,
            "componentType" : 5126,
            "count" : 364,
            "type" : "VEC2"
        },
        {
            "bufferView" : 10,
            "componentType" : 5126,
            "count" : 364,
            "type" : "VEC2"
        },
        {
            "bufferView" : 11,
            "componentType" : 5126,
            "count" : 6334,
            "max" : [
                437.4447937011719,
                349.4219970703125,
                -65.20405578613281
            ],
            "min" : [
                215.4674072265625,
                182.4578399658203,
                -78.82434844970703
            ],
            "type" : "VEC3"
        },
        {
            "bufferView" : 12,
            "componentType" : 5126,
            "count" : 6334,
            "type" : "VEC3"
        },
        {
            "bufferView" : 13,
            "componentType" : 5126,
            "count" : 6334,
            "type" : "VEC2"
        },
        {
            "bufferView" : 14,
            "componentType" : 5123,
            "count" : 32460,
            "type" : "SCALAR"
        },
        {
            "bufferView" : 15,
            "componentType" : 5126,
            "count" : 6334,
            "max" : [
                -2.01947021484375,
                258.06597900390625,
                -65.3619384765625
            ],
            "min" : [
                -223.99685668945312,
                91.10182189941406,
                -78.98223114013672
            ],
            "type" : "VEC3"
        },
        {
            "bufferView" : 16,
            "componentType" : 5126,
            "count" : 6334,
            "type" : "VEC3"
        },
        {
            "bufferView" : 17,
            "componentType" : 5126,
            "count" : 6334,
            "type" : "VEC2"
        },
        {
            "bufferView" : 18,
            "componentType" : 5123,
            "count" : 32460,
            "type" : "SCALAR"
        },
        {
            "bufferView" : 19,
            "componentType" : 5126,
            "count" : 6334,
            "max" : [
                -222.89605712890625,
                212.19796752929688,
                -65.44129943847656
            ],
            "min" : [
                -444.8734436035156,
                45.23381042480469,
                -79.06159210205078
            ],
            "type" : "VEC3"
        },
        {
            "bufferView" : 20,
            "componentType" : 5126,
            "count" : 6334,
            "type" : "VEC3"
        },
        {
            "bufferView" : 21,
            "componentType" : 5126,
            "count" : 6334,
            "type" : "VEC2"
        },
        {
            "bufferView" : 22,
            "componentType" : 5126,
            "count" : 6334,
            "max" : [
                218.95286560058594,
                303.8671875,
                -65.28231811523438
            ],
            "min" : [
                -3.0245208740234375,
                136.9030303955078,
                -78.9026107788086
            ],
            "type" : "VEC3"
        },
        {
            "bufferView" : 23,
            "componentType" : 5126,
            "count" : 6334,
            "type" : "VEC3"
        },
        {
            "bufferView" : 24,
            "componentType" : 5126,
            "count" : 6334,
            "type" : "VEC2"
        }
    ],
    "bufferViews" : [
        {
            "buffer" : 0,
            "byteLength" : 4368,
            "byteOffset" : 0
        },
        {
            "buffer" : 0,
            "byteLength" : 4368,
            "byteOffset" : 4368
        },
        {
            "buffer" : 0,
            "byteLength" : 2912,
            "byteOffset" : 8736
        },
        {
            "buffer" : 0,
            "byteLength" : 2912,
            "byteOffset" : 11648
        },
        {
            "buffer" : 0,
            "byteLength" : 2912,
            "byteOffset" : 14560
        },
        {
            "buffer" : 0,
            "byteLength" : 2856,
            "byteOffset" : 17472
        },
        {
            "buffer" : 0,
            "byteLength" : 4368,
            "byteOffset" : 20328
        },
        {
            "buffer" : 0,
            "byteLength" : 4368,
            "byteOffset" : 24696
        },
        {
            "buffer" : 0,
            "byteLength" : 2912,
            "byteOffset" : 29064
        },
        {
            "buffer" : 0,
            "byteLength" : 2912,
            "byteOffset" : 31976
        },
        {
            "buffer" : 0,
            "byteLength" : 2912,
            "byteOffset" : 34888
        },
        {
            "buffer" : 0,
            "byteLength" : 76008,
            "byteOffset" : 37800
        },
        {
            "buffer" : 0,
            "byteLength" : 76008,
            "byteOffset" : 113808
        },
        {
            "buffer" : 0,
            "byteLength" : 50672,
            "byteOffset" : 189816
        },
        {
            "buffer" : 0,
            "byteLength" : 64920,
            "byteOffset" : 240488
        },
        {
            "buffer" : 0,
            "byteLength" : 76008,
            "byteOffset" : 305408
        },
        {
            "buffer" : 0,
            "byteLength" : 76008,
            "byteOffset" : 381416
        },
        {
            "buffer" : 0,
            "byteLength" : 50672,
            "byteOffset" : 457424
        },
        {
            "buffer" : 0,
            "byteLength" : 64920,
            "byteOffset" : 508096
        },
        {
            "buffer" : 0,
            "byteLength" : 76008,
            "byteOffset" : 573016
        },
        {
            "buffer" : 0,
            "byteLength" : 76008,
            "byteOffset" : 649024
        },
        {
            "buffer" : 0,
            "byteLength" : 50672,
            "byteOffset" : 725032
        },
        {
            "buffer" : 0,
            "byteLength" : 76008,
            "byteOffset" : 775704
        },
        {
            "buffer" : 0,
            "byteLength" : 76008,
            "byteOffset" : 851712
        },
        {
            "buffer" : 0,
            "byteLength" : 50672,
            "byteOffset" : 927720
        }
    ],
    "samplers" : [
        {
            "magFilter" : 9729,
            "minFilter" : 9987
        }
    ],
    "buffers" : [
        {
            "byteLength" : 978392,
            "uri" : "kv2-scenes.bin"
        }
    ]
}
