{
    "asset" : {
        "generator" : "Khronos glTF Blender I/O v1.6.16",
        "version" : "2.0"
    },
    "scene" : 0,
    "scenes" : [
        {
            "name" : "Scene",
            "nodes" : [
                0,
                1,
                2
            ]
        }
    ],
    "nodes" : [
        {
            "mesh" : 0,
            "name" : "Stair_extrude"
        },
        {
            "mesh" : 1,
            "name" : "Stair_extrude.001"
        },
        {
            "mesh" : 2,
            "name" : "cube"
        }
    ],
    "materials" : [
        {
            "doubleSided" : true,
            "name" : "D_Concrete_11_0",
            "normalTexture" : {
                "index" : 0
            },
            "pbrMetallicRoughness" : {
                "baseColorTexture" : {
                    "index" : 1
                },
                "metallicFactor" : 0
            }
        },
        {
            "doubleSided" : true,
            "name" : "MSMC Terrazzo White 2_1",
            "normalTexture" : {
                "index" : 2,
                "scale" : 2.299999713897705
            },
            "pbrMetallicRoughness" : {
                "baseColorTexture" : {
                    "index" : 3
                },
                "metallicFactor" : 0
            }
        }
    ],
    "meshes" : [
        {
            "name" : "Stair_extrude",
            "primitives" : [
                {
                    "attributes" : {
                        "POSITION" : 0,
                        "NORMAL" : 1,
                        "TEXCOORD_0" : 2
                    },
                    "indices" : 3,
                    "material" : 0
                }
            ]
        },
        {
            "name" : "Stair_extrude.001",
            "primitives" : [
                {
                    "attributes" : {
                        "POSITION" : 4,
                        "NORMAL" : 5,
                        "TEXCOORD_0" : 6
                    },
                    "indices" : 7,
                    "material" : 0
                }
            ]
        },
        {
            "name" : "cube",
            "primitives" : [
                {
                    "attributes" : {
                        "POSITION" : 8,
                        "NORMAL" : 9,
                        "TEXCOORD_0" : 10
                    },
                    "indices" : 11,
                    "material" : 1
                }
            ]
        }
    ],
    "textures" : [
        {
            "sampler" : 0,
            "source" : 0
        },
        {
            "sampler" : 0,
            "source" : 1
        },
        {
            "sampler" : 0,
            "source" : 2
        },
        {
            "sampler" : 0,
            "source" : 3
        }
    ],
    "images" : [
        {
            "mimeType" : "image/jpeg",
            "name" : "KV_1_0321_D_Concrete_11_Normal",
            "uri" : "texture/KV_1_0321_D_Concrete_11_Normal.jpg"
        },
        {
            "mimeType" : "image/jpeg",
            "name" : "KV_1_0321_D_Concrete_11_0_AlbedoTransparency",
            "uri" : "texture/KV_1_0321_D_Concrete_11_0_AlbedoTransparency.jpg"
        },
        {
            "mimeType" : "image/jpeg",
            "name" : "KV_1_0321_MSMC Terrazzo White 2_1_Normal",
            "uri" : "texture/KV_1_0321_MSMC%20Terrazzo%20White%202_1_Normal.jpg"
        },
        {
            "mimeType" : "image/jpeg",
            "name" : "KV_1_0321_MSMC Terrazzo White 2_1_AlbedoTransparency",
            "uri" : "texture/KV_1_0321_MSMC%20Terrazzo%20White%202_1_AlbedoTransparency.jpg"
        }
    ],
    "accessors" : [
        {
            "bufferView" : 0,
            "componentType" : 5126,
            "count" : 3952,
            "max" : [
                88.6971206665039,
                199.3806610107422,
                199.71664428710938
            ],
            "min" : [
                -40.91120529174805,
                99.16239166259766,
                92.92929077148438
            ],
            "type" : "VEC3"
        },
        {
            "bufferView" : 1,
            "componentType" : 5126,
            "count" : 3952,
            "type" : "VEC3"
        },
        {
            "bufferView" : 2,
            "componentType" : 5126,
            "count" : 3952,
            "type" : "VEC2"
        },
        {
            "bufferView" : 3,
            "componentType" : 5123,
            "count" : 6180,
            "type" : "SCALAR"
        },
        {
            "bufferView" : 4,
            "componentType" : 5126,
            "count" : 3954,
            "max" : [
                100.7469253540039,
                263.65106201171875,
                51.61911392211914
            ],
            "min" : [
                -148.6754608154297,
                178.77162170410156,
                -59.392391204833984
            ],
            "type" : "VEC3"
        },
        {
            "bufferView" : 5,
            "componentType" : 5126,
            "count" : 3954,
            "type" : "VEC3"
        },
        {
            "bufferView" : 6,
            "componentType" : 5126,
            "count" : 3954,
            "type" : "VEC2"
        },
        {
            "bufferView" : 7,
            "componentType" : 5123,
            "count" : 6180,
            "type" : "SCALAR"
        },
        {
            "bufferView" : 8,
            "componentType" : 5126,
            "count" : 24,
            "max" : [
                493.4289855957031,
                232.88217163085938,
                90.75755310058594
            ],
            "min" : [
                -141.27098083496094,
                0.7693691253662109,
                -68.8398666381836
            ],
            "type" : "VEC3"
        },
        {
            "bufferView" : 9,
            "componentType" : 5126,
            "count" : 24,
            "type" : "VEC3"
        },
        {
            "bufferView" : 10,
            "componentType" : 5126,
            "count" : 24,
            "type" : "VEC2"
        },
        {
            "bufferView" : 11,
            "componentType" : 5123,
            "count" : 36,
            "type" : "SCALAR"
        }
    ],
    "bufferViews" : [
        {
            "buffer" : 0,
            "byteLength" : 47424,
            "byteOffset" : 0
        },
        {
            "buffer" : 0,
            "byteLength" : 47424,
            "byteOffset" : 47424
        },
        {
            "buffer" : 0,
            "byteLength" : 31616,
            "byteOffset" : 94848
        },
        {
            "buffer" : 0,
            "byteLength" : 12360,
            "byteOffset" : 126464
        },
        {
            "buffer" : 0,
            "byteLength" : 47448,
            "byteOffset" : 138824
        },
        {
            "buffer" : 0,
            "byteLength" : 47448,
            "byteOffset" : 186272
        },
        {
            "buffer" : 0,
            "byteLength" : 31632,
            "byteOffset" : 233720
        },
        {
            "buffer" : 0,
            "byteLength" : 12360,
            "byteOffset" : 265352
        },
        {
            "buffer" : 0,
            "byteLength" : 288,
            "byteOffset" : 277712
        },
        {
            "buffer" : 0,
            "byteLength" : 288,
            "byteOffset" : 278000
        },
        {
            "buffer" : 0,
            "byteLength" : 192,
            "byteOffset" : 278288
        },
        {
            "buffer" : 0,
            "byteLength" : 72,
            "byteOffset" : 278480
        }
    ],
    "samplers" : [
        {
            "magFilter" : 9729,
            "minFilter" : 9987
        }
    ],
    "buffers" : [
        {
            "byteLength" : 278552,
            "uri" : "kv1-scenes.bin"
        }
    ]
}
