<?xml version="1.0" encoding="UTF-8"?>
<svg width="331px" height="50px" viewBox="0 0 331 50" version="1.1" xmlns="http://www.w3.org/2000/svg" xmlns:xlink="http://www.w3.org/1999/xlink">
    <title>slogan_top_white</title>
    <g id="Page-2" stroke="none" stroke-width="1" fill="none" fill-rule="evenodd">
        <g id="slogan_top_white" transform="translate(1.000000, -0.122825)" fill="#FFFFFF">
            <polygon id="Fill-1" points="68.4209004 25.4385399 68.4209004 11.4453677 14.0350565 11.4034834 14.0350565 12.1590331"></polygon>
            <polygon id="Fill-2" points="0 0 0 9.64910133 67.892494 9.54705899 68.4209004 9.54594984 68.395528 0"></polygon>
            <polygon id="Fill-3" points="0 20.0452231 68.4209004 36.8420233 68.3608172 27.363374 1.30915069 10.8496323 0 10.5262924"></polygon>
            <path d="M131.598603,31.8891657 L131.598603,30.0781198 L137.631285,31.5291821 C138.756921,31.8908349 138.908332,32.2880965 138.908332,32.6286065 L138.908332,33.6445727 L131.598603,31.8891657 Z M71.4408837,0.122697692 L71.4408837,9.71261682 L99.5652144,9.71261682 L99.5646618,11.5982188 L75.9174571,11.5982188 L75.9329298,16.0682472 L99.5569255,21.916451 L99.5558203,23.671858 L71.4441993,16.6964103 L71.4408837,26.6268395 L162.453307,49.4799572 L162.453307,39.4588367 L159.642255,38.7588995 L159.642255,22.5440577 C159.642255,18.4501481 159.642255,11.5982188 151.298621,11.5982188 L131.531187,11.5982188 L131.531187,9.74433098 L162.47541,9.89455599 L162.482594,0.125479637 L71.4408837,0.122697692 Z" id="Fill-4"></path>
            <polygon id="Fill-7" points="328.946305 36.3453957 328.946305 18.9398817 317.032906 18.8725586 317.032906 17.1299486 328.946305 17.0709713 328.946305 9.53579642 321.110505 9.53579642 328.946305 0.12280897 308.741215 0.12280897 305.670997 4.35971046 302.007843 0.12280897 282.587992 0.12280897 289.825883 9.53579642 282.256435 9.53579642 282.256435 17.1160388 294.19249 17.1182644 294.19249 18.8708894 282.24262 18.9098367 282.256435 24.6183868 294.19249 27.6078644 294.19249 29.4294816 282.252014 26.4416732 282.201175 37.5305041 294.19249 40.6718758 294.19249 44.3696364 317.034564 50.1226977 317.032353 46.3709673 328.946305 49.3899335 328.946305 38.1286221 317.032906 35.146934 317.032906 33.3776173"></polygon>
            <path d="M165.861106,0.12280897 L165.861106,20.7219953 L183.275037,25.1330465 L183.275037,18.1080802 L185.539572,18.1080802 L185.539572,25.7478563 L200.128084,29.3766247 L200.123111,11.5977737 L183.268406,11.5977737 L183.270616,9.53134531 L202.078745,9.53134531 L202.078745,22.7160931 C202.078745,29.3154219 204.101243,30.421523 208.732543,31.5882706 L216.430194,33.504474 L214.510478,37.0214082 L226.349277,39.9880738 L228.218706,36.4644629 L233.884465,37.8871493 L233.870097,25.0312274 L231.307713,24.389711 L231.307713,11.5977737 L219.292084,11.5944354 L219.273849,21.2705948 L217.647008,20.8772278 C217.260192,20.7776342 216.98942,20.5339359 216.98942,20.1327795 L217.009314,9.53134531 L233.879491,9.53579642 L233.884465,0.12280897 L165.861106,0.12280897 Z" id="Fill-9"></path>
            <path d="M267.478161,11.5821948 L270.88049,11.5821948 L270.88049,9.53524003 L267.478161,9.53524003 L267.478161,11.5821948 Z M267.478161,5.62716438 L270.88049,5.62716438 L270.88049,4.03255379 L267.478161,4.03255379 L267.478161,5.62716438 Z M267.478161,28.1419977 L270.88049,28.1419977 L270.88049,26.5473871 L267.478161,26.5473871 L267.478161,28.1419977 Z M237.995552,4.03088462 L248.890518,4.03255379 L248.890518,5.62716438 L237.995552,5.62716438 L237.995552,9.53468364 L248.890518,9.53524003 L248.890518,11.5833076 L237.995552,11.5833076 L237.995552,19.4790225 L243.255152,19.4790225 L237.619787,26.3737938 L253.107371,30.2879897 L253.397484,30.3608767 L255.636599,27.5922855 L255.636599,30.9267242 L280.5393,37.220039 L280.5393,20.5272592 L261.410666,20.5272592 L262.714238,18.9326486 L280.5393,18.9326486 L280.5393,0.12280897 L237.995552,0.12280897 L237.995552,4.03088462 Z" id="Fill-11"></path>
        </g>
    </g>
</svg>